<svg width="1050" height="161" viewBox="0 0 1050 161" fill="none" xmlns="http://www.w3.org/2000/svg">
<g opacity="0.1" clip-path="url(#clip0_313_9803)">
<path opacity="0.6" d="M1882.07 167.645C1882.07 155.799 1876.4 144.184 1865.5 132.91C1854.6 121.635 1838.49 110.734 1817.71 100.334C1776.14 79.536 1715.97 60.7917 1641.56 45.0449C1492.76 13.5528 1287.17 -5.92944 1060.07 -5.92944C832.967 -5.92944 627.378 13.5528 478.578 45.0449C404.174 60.7917 343.995 79.536 302.43 100.334C281.646 110.734 265.542 121.635 254.64 132.91C243.739 144.184 238.07 155.799 238.07 167.645C238.07 179.49 243.739 191.105 254.64 202.379C265.542 213.655 281.646 224.555 302.43 234.955C343.995 255.753 404.174 274.498 478.578 290.244C627.378 321.737 832.967 341.219 1060.07 341.219C1287.17 341.219 1492.76 321.737 1641.56 290.244C1715.97 274.498 1776.14 255.753 1817.71 234.955C1838.49 224.555 1854.6 213.655 1865.5 202.379C1876.4 191.105 1882.07 179.49 1882.07 167.645Z" stroke="black"/>
<path opacity="0.5" d="M1840.94 150.236C1840.94 138.391 1835.27 126.776 1824.37 115.502C1813.47 104.226 1797.36 93.3257 1776.58 82.9261C1735.01 62.1278 1674.83 43.3835 1600.43 27.6367C1451.63 -3.85544 1246.04 -23.3376 1018.94 -23.3376C791.835 -23.3376 586.247 -3.85544 437.447 27.6367C363.043 43.3835 302.864 62.1278 261.298 82.9261C240.515 93.3257 224.41 104.226 213.508 115.502C202.608 126.776 196.938 138.391 196.938 150.236C196.938 162.082 202.608 173.697 213.508 184.971C224.41 196.247 240.515 207.147 261.298 217.547C302.864 238.345 363.043 257.089 437.447 272.836C586.247 304.328 791.835 323.811 1018.94 323.811C1246.04 323.811 1451.63 304.328 1600.43 272.836C1674.83 257.089 1735.01 238.345 1776.58 217.547C1797.36 207.147 1813.47 196.247 1824.37 184.971C1835.27 173.697 1840.94 162.082 1840.94 150.236Z" stroke="black"/>
<path opacity="0.4" d="M1912.9 161.115C1912.9 147.31 1906.54 133.786 1894.34 120.673C1882.14 107.557 1864.11 94.8817 1840.86 82.7909C1794.35 58.61 1727.02 36.8188 1643.78 18.5128C1477.31 -18.0976 1247.3 -40.7458 993.229 -40.7458C739.156 -40.7458 509.151 -18.0976 342.677 18.5128C259.436 36.8188 192.107 58.61 145.6 82.7909C122.346 94.8817 104.322 107.557 92.1183 120.673C79.9165 133.786 73.5576 147.31 73.5576 161.115C73.5576 174.921 79.9165 188.444 92.1183 201.558C104.322 214.673 122.346 227.349 145.6 239.44C192.107 263.621 259.436 285.412 342.677 303.718C509.151 340.328 739.156 362.977 993.229 362.977C1247.3 362.977 1477.31 340.328 1643.78 303.718C1727.02 285.412 1794.35 263.621 1840.86 239.44C1864.11 227.349 1882.14 214.673 1894.34 201.558C1906.54 188.444 1912.9 174.921 1912.9 161.115Z" stroke="black"/>
<path opacity="0.7" d="M1943.75 186.14C1943.75 173.761 1938.07 161.631 1927.17 149.863C1916.27 138.093 1900.16 126.716 1879.38 115.862C1837.82 94.1539 1777.64 74.59 1703.23 58.1543C1554.44 25.2848 1348.85 4.95035 1121.75 4.95035C894.645 4.95035 689.058 25.2848 540.26 58.1543C465.856 74.59 405.679 94.1539 364.115 115.862C343.332 126.716 327.227 138.093 316.324 149.863C305.423 161.631 299.747 173.761 299.747 186.14C299.747 198.519 305.423 210.65 316.324 222.417C327.227 234.187 343.332 245.565 364.115 256.419C405.679 278.127 465.856 297.69 540.26 314.126C689.058 346.996 894.645 367.33 1121.75 367.33C1348.85 367.33 1554.44 346.996 1703.23 314.126C1777.64 297.69 1837.82 278.127 1879.38 256.419C1900.16 245.565 1916.27 234.187 1927.17 222.417C1938.07 210.65 1943.75 198.519 1943.75 186.14Z" stroke="black"/>
<path opacity="0.7" d="M1995.16 201.371C1995.16 188.992 1989.48 176.861 1978.58 165.094C1967.68 153.324 1951.58 141.946 1930.79 131.092C1889.23 109.384 1829.05 89.8204 1754.65 73.3848C1605.85 40.5153 1400.26 20.1808 1173.16 20.1808C946.059 20.1808 740.472 40.5153 591.674 73.3848C517.27 89.8204 457.093 109.384 415.529 131.092C394.746 141.946 378.641 153.324 367.738 165.094C356.837 176.861 351.161 188.992 351.161 201.371C351.161 213.75 356.837 225.88 367.738 237.648C378.641 249.418 394.746 260.795 415.529 271.649C457.093 293.357 517.27 312.921 591.674 329.357C740.472 362.226 946.059 382.561 1173.16 382.561C1400.26 382.561 1605.85 362.226 1754.65 329.357C1829.05 312.921 1889.23 293.357 1930.79 271.649C1951.58 260.795 1967.68 249.418 1978.58 237.648C1989.48 225.88 1995.16 213.75 1995.16 201.371Z" stroke="black"/>
<path opacity="0.6" d="M1799.81 201.371C1799.81 191.245 1795.18 181.314 1786.26 171.671C1777.35 162.026 1764.17 152.698 1747.16 143.797C1713.14 125.994 1663.88 109.947 1602.96 96.4642C1481.14 69.5013 1312.83 52.8201 1126.89 52.8201C940.956 52.8201 772.639 69.5013 650.818 96.4642C589.904 109.947 540.643 125.994 506.622 143.797C489.612 152.698 476.436 162.026 467.518 171.671C458.603 181.314 453.97 191.245 453.97 201.371C453.97 211.497 458.603 221.428 467.518 231.071C476.436 240.716 489.612 250.044 506.622 258.945C540.643 276.748 589.904 292.795 650.818 306.278C772.639 333.241 940.956 349.922 1126.89 349.922C1312.83 349.922 1481.14 333.241 1602.96 306.278C1663.88 292.795 1713.14 276.748 1747.16 258.945C1764.17 250.044 1777.35 240.716 1786.26 231.071C1795.18 221.428 1799.81 211.497 1799.81 201.371Z" stroke="black"/>
<path opacity="0.4" d="M1491.38 178.523C1491.38 172.231 1488.44 166.041 1482.74 160.01C1477.04 153.976 1468.61 148.131 1457.71 142.548C1435.92 131.383 1404.35 121.314 1365.3 112.851C1287.2 95.9291 1179.28 85.4583 1060.06 85.4583C940.847 85.4583 832.931 95.9291 754.832 112.851C715.779 121.314 684.208 131.383 662.413 142.548C651.515 148.131 643.086 153.976 637.388 160.01C631.692 166.041 628.751 172.231 628.751 178.523C628.751 184.815 631.692 191.005 637.388 197.036C643.086 203.07 651.515 208.915 662.413 214.498C684.208 225.663 715.779 235.733 754.832 244.195C832.931 261.117 940.847 271.588 1060.06 271.588C1179.28 271.588 1287.2 261.117 1365.3 244.195C1404.35 235.733 1435.92 225.663 1457.71 214.498C1468.61 208.915 1477.04 203.07 1482.74 197.036C1488.44 191.005 1491.38 184.815 1491.38 178.523Z" stroke="black"/>
<path opacity="0.4" d="M1357.72 178.523C1357.72 174.182 1355.71 169.898 1351.8 165.709C1347.88 161.516 1342.08 157.449 1334.56 153.558C1319.53 145.777 1297.75 138.756 1270.79 132.853C1216.88 121.05 1142.37 113.745 1060.06 113.745C977.756 113.745 903.255 121.05 849.344 132.853C822.384 138.756 800.6 145.777 785.569 153.558C778.053 157.449 772.25 161.516 768.331 165.709C764.416 169.898 762.409 174.182 762.409 178.523C762.409 182.864 764.416 187.148 768.331 191.337C772.25 195.53 778.053 199.597 785.569 203.488C800.6 211.269 822.384 218.29 849.344 224.193C903.255 235.996 977.756 243.301 1060.06 243.301C1142.37 243.301 1216.88 235.996 1270.79 224.193C1297.75 218.29 1319.53 211.269 1334.56 203.488C1342.08 199.597 1347.88 195.53 1351.8 191.337C1355.71 187.148 1357.72 182.864 1357.72 178.523Z" stroke="black"/>
<path opacity="0.2" d="M1840.93 129.565C1840.93 114.332 1833.96 99.4145 1820.6 84.9558C1807.23 70.4945 1787.49 56.5211 1762.02 43.1939C1711.09 16.5403 1637.37 -7.47797 1546.22 -27.6544C1363.93 -68.0053 1112.08 -92.9672 833.872 -92.9672C555.667 -92.9672 303.814 -68.0053 121.526 -27.6544C30.3778 -7.47797 -43.3503 16.5403 -94.2793 43.1939C-119.744 56.5211 -139.485 70.4945 -152.853 84.9558C-166.219 99.4145 -173.19 114.332 -173.19 129.565C-173.19 144.799 -166.219 159.716 -152.853 174.175C-139.485 188.636 -119.744 202.609 -94.2793 215.937C-43.3503 242.59 30.3778 266.608 121.526 286.785C303.814 327.136 555.667 352.098 833.872 352.098C1112.08 352.098 1363.93 327.136 1546.22 286.785C1637.37 266.608 1711.09 242.59 1762.02 215.937C1787.49 202.609 1807.23 188.636 1820.6 174.175C1833.96 159.716 1840.93 144.799 1840.93 129.565Z" stroke="black"/>
<path opacity="0.3" d="M1974.59 160.028C1974.59 144.795 1967.62 129.877 1954.25 115.419C1940.89 100.957 1921.15 86.9839 1895.68 73.6568C1844.75 47.0031 1771.02 22.9849 1679.88 2.80853C1497.59 -37.5424 1245.73 -62.5043 967.529 -62.5043C689.323 -62.5043 437.471 -37.5424 255.183 2.80853C164.035 22.9849 90.3064 47.0031 39.3774 73.6568C13.9124 86.9839 -5.82805 100.957 -19.1964 115.419C-32.5624 129.877 -39.5337 144.795 -39.5337 160.028C-39.5337 175.262 -32.5624 190.179 -19.1964 204.638C-5.82805 219.099 13.9124 233.072 39.3774 246.399C90.3064 273.053 164.035 297.071 255.183 317.248C437.471 357.599 689.323 382.561 967.529 382.561C1245.73 382.561 1497.59 357.599 1679.88 317.248C1771.02 297.071 1844.75 273.053 1895.68 246.399C1921.15 233.072 1940.89 219.099 1954.25 204.638C1967.62 190.179 1974.59 175.262 1974.59 160.028Z" stroke="black"/>
<path opacity="0.21" d="M1882.06 106.718C1882.06 90.0575 1874.45 73.7469 1859.85 57.9427C1845.25 42.1357 1823.69 26.8643 1795.88 12.3006C1740.27 -16.8261 1659.77 -43.0714 1560.25 -65.1182C1361.21 -109.21 1086.23 -136.486 782.47 -136.486C478.713 -136.486 203.727 -109.21 4.69418 -65.1182C-94.8263 -43.0714 -175.33 -16.8261 -230.941 12.3006C-258.747 26.8643 -280.306 42.1357 -294.907 57.9427C-309.505 73.7469 -317.124 90.0575 -317.124 106.718C-317.124 123.379 -309.505 139.689 -294.907 155.494C-280.306 171.301 -258.747 186.572 -230.941 201.136C-175.33 230.262 -94.8263 256.508 4.69418 278.555C203.727 322.646 478.713 349.922 782.47 349.922C1086.23 349.922 1361.21 322.646 1560.25 278.555C1659.77 256.508 1740.27 230.262 1795.88 201.136C1823.69 186.572 1845.25 171.301 1859.85 155.494C1874.45 139.689 1882.06 123.379 1882.06 106.718Z" stroke="black"/>
</g>
<defs>
<clipPath id="clip0_313_9803">
<rect width="1050" height="160" fill="white" transform="matrix(1 0 0 -1 0 160.098)"/>
</clipPath>
</defs>
</svg>
