<svg width="278" height="68" viewBox="0 0 278 68" fill="none" xmlns="http://www.w3.org/2000/svg">
<g opacity="0.15" clip-path="url(#clip0_402_7937)">
<circle opacity="0.6" cx="236.875" cy="-68.1875" r="234.5" stroke="white"/>
<circle opacity="0.5" cx="225.125" cy="-44.6875" r="234.5" stroke="white"/>
<path opacity="0.4" d="M480.188 -59.375C480.188 91.2444 362.686 213.312 217.781 213.312C72.8762 213.312 -44.625 91.2444 -44.625 -59.375C-44.625 -209.994 72.8762 -332.062 217.781 -332.062C362.686 -332.062 480.188 -209.994 480.188 -59.375Z" stroke="white"/>
<path opacity="0.7" d="M489 -93.1562C489 42.0531 383.991 151.625 254.5 151.625C125.009 151.625 20 42.0531 20 -93.1562C20 -228.366 125.009 -337.938 254.5 -337.938C383.991 -337.938 489 -228.366 489 -93.1562Z" stroke="white"/>
<path opacity="0.7" d="M503.688 -113.719C503.688 21.4906 398.678 131.062 269.188 131.062C139.697 131.062 34.6875 21.4906 34.6875 -113.719C34.6875 -248.928 139.697 -358.5 269.188 -358.5C398.678 -358.5 503.688 -248.928 503.688 -113.719Z" stroke="white"/>
<path opacity="0.6" d="M447.875 -113.719C447.875 -2.84351 361.935 87 255.969 87C150.003 87 64.0625 -2.84351 64.0625 -113.719C64.0625 -224.594 150.003 -314.438 255.969 -314.438C361.935 -314.438 447.875 -224.594 447.875 -113.719Z" stroke="white"/>
<path opacity="0.4" d="M359.75 -82.875C359.75 -13.3795 304.726 42.9375 236.875 42.9375C169.024 42.9375 114 -13.3795 114 -82.875C114 -152.37 169.024 -208.688 236.875 -208.688C304.726 -208.688 359.75 -152.37 359.75 -82.875Z" stroke="white"/>
<path opacity="0.4" d="M321.562 -82.875C321.562 -34.4649 283.631 4.75 236.875 4.75C190.119 4.75 152.188 -34.4649 152.188 -82.875C152.188 -131.285 190.119 -170.5 236.875 -170.5C283.631 -170.5 321.562 -131.285 321.562 -82.875Z" stroke="white"/>
<path opacity="0.2" d="M459.625 -16.7812C459.625 149.253 330.942 283.812 172.25 283.812C13.5581 283.812 -115.125 149.253 -115.125 -16.7812C-115.125 -182.816 13.5581 -317.375 172.25 -317.375C330.942 -317.375 459.625 -182.816 459.625 -16.7812Z" stroke="white"/>
<path opacity="0.3" d="M497.812 -57.9062C497.812 108.128 369.129 242.688 210.438 242.688C51.7456 242.688 -76.9375 108.128 -76.9375 -57.9062C-76.9375 -223.941 51.7456 -358.5 210.438 -358.5C369.129 -358.5 497.812 -223.941 497.812 -57.9062Z" stroke="white"/>
<path opacity="0.21" d="M471.375 14.0625C471.375 195.51 330.855 342.562 157.562 342.562C-15.7301 342.562 -156.25 195.51 -156.25 14.0625C-156.25 -167.385 -15.7301 -314.438 157.562 -314.438C330.855 -314.438 471.375 -167.385 471.375 14.0625Z" stroke="white"/>
</g>
<defs>
<clipPath id="clip0_402_7937">
<rect width="470" height="235" fill="white" transform="translate(-192 -77)"/>
</clipPath>
</defs>
</svg>
