<svg width="550" height="175" viewBox="0 0 550 175" fill="none" xmlns="http://www.w3.org/2000/svg">
<g opacity="0.1" clip-path="url(#clip0_609_14337)">
<path opacity="0.6" d="M985.608 183.08C985.608 157.107 973.63 132.325 951.891 109.741C930.149 87.1541 898.664 66.7908 859.719 49.6787C781.83 15.455 674.194 -5.7254 555.275 -5.7254C436.356 -5.7254 328.719 15.455 250.831 49.6787C211.886 66.7908 180.401 87.1541 158.659 109.741C136.919 132.325 124.941 157.107 124.941 183.08C124.941 209.053 136.919 233.836 158.659 256.42C180.401 279.006 211.886 299.37 250.831 316.482C328.719 350.705 436.356 371.886 555.275 371.886C674.194 371.886 781.83 350.705 859.719 316.482C898.664 299.37 930.149 279.006 951.891 256.42C973.63 233.836 985.608 209.053 985.608 183.08Z" stroke="black"/>
<path opacity="0.5" d="M964.063 164.15C964.063 138.178 952.086 113.395 930.346 90.811C908.604 68.2244 877.119 47.8611 838.174 30.749C760.285 -3.4747 652.649 -24.6551 533.73 -24.6551C414.811 -24.6551 307.174 -3.4747 229.286 30.749C190.341 47.8611 158.856 68.2244 137.114 90.811C115.374 113.395 103.396 138.178 103.396 164.15C103.396 190.123 115.374 214.906 137.114 237.49C158.856 260.077 190.341 280.44 229.286 297.552C307.174 331.776 414.811 352.956 533.73 352.956C652.649 352.956 760.285 331.776 838.174 297.552C877.119 280.44 908.604 260.077 930.346 237.49C952.086 214.906 964.063 190.123 964.063 164.15Z" stroke="black"/>
<path opacity="0.4" d="M1001.76 175.982C1001.76 115.527 948.067 60.6341 860.877 20.8255C773.732 -18.9629 653.308 -43.5857 520.263 -43.5857C387.219 -43.5857 266.794 -18.9629 179.649 20.8255C92.4599 60.6341 38.7686 115.527 38.7686 175.982C38.7686 236.437 92.4599 291.33 179.649 331.139C266.794 370.927 387.219 395.55 520.263 395.55C653.308 395.55 773.732 370.927 860.877 331.139C948.067 291.33 1001.76 236.437 1001.76 175.982Z" stroke="black"/>
<path opacity="0.7" d="M1017.91 203.195C1017.91 148.946 969.948 99.6734 892.018 63.9334C814.132 28.2133 706.498 6.10678 587.581 6.10678C468.665 6.10678 361.031 28.2133 283.145 63.9334C205.215 99.6734 157.248 148.946 157.248 203.195C157.248 257.443 205.215 306.716 283.145 342.456C361.031 378.176 468.665 400.282 587.581 400.282C706.498 400.282 814.132 378.176 892.018 342.456C969.948 306.716 1017.91 257.443 1017.91 203.195Z" stroke="black"/>
<path opacity="0.7" d="M1044.85 219.759C1044.85 165.511 996.88 116.238 918.95 80.4978C841.063 44.7778 733.429 22.6712 614.513 22.6712C495.597 22.6712 387.963 44.7778 310.076 80.4978C232.146 116.238 184.18 165.511 184.18 219.759C184.18 274.007 232.146 323.28 310.076 359.02C387.963 394.74 495.597 416.847 614.513 416.847C733.429 416.847 841.063 394.74 918.95 359.02C996.88 323.28 1044.85 274.007 1044.85 219.759Z" stroke="black"/>
<path opacity="0.6" d="M942.521 219.759C942.521 175.312 903.294 134.913 839.496 105.596C775.741 76.2994 687.629 58.1658 590.277 58.1658C492.924 58.1658 404.812 76.2994 341.057 105.596C277.259 134.913 238.032 175.312 238.032 219.759C238.032 264.206 277.259 304.605 341.057 333.921C404.812 363.218 492.924 381.352 590.277 381.352C687.629 381.352 775.741 363.218 839.496 333.921C903.294 304.605 942.521 264.206 942.521 219.759Z" stroke="black"/>
<path opacity="0.4" d="M780.959 194.912C780.959 167.134 755.906 141.818 715.005 123.419C674.151 105.041 617.677 93.6604 555.271 93.6604C492.865 93.6604 436.392 105.041 395.538 123.419C354.637 141.818 329.584 167.134 329.584 194.912C329.584 222.691 354.637 248.006 395.538 266.405C436.392 284.784 492.865 296.164 555.271 296.164C617.677 296.164 674.151 284.784 715.005 266.405C755.906 248.006 780.959 222.691 780.959 194.912Z" stroke="black"/>
<path opacity="0.4" d="M710.949 194.912C710.949 175.625 693.728 158.001 665.499 145.17C637.315 132.359 598.344 124.422 555.272 124.422C512.199 124.422 473.229 132.359 445.045 145.17C416.816 158.001 399.595 175.625 399.595 194.912C399.595 214.198 416.816 231.822 445.045 244.654C473.229 257.465 512.199 265.401 555.272 265.401C598.344 265.401 637.315 257.465 665.499 244.654C693.728 231.822 710.949 214.198 710.949 194.912Z" stroke="black"/>
<path opacity="0.2" d="M964.061 141.67C964.061 75.006 905.243 14.4931 809.771 -29.3828C714.343 -73.239 582.475 -100.378 436.79 -100.378C291.105 -100.378 159.237 -73.239 63.8083 -29.3828C-31.6634 14.4931 -90.481 75.006 -90.481 141.67C-90.481 208.334 -31.6634 268.847 63.8083 312.723C159.237 356.579 291.105 383.718 436.79 383.718C582.475 383.718 714.343 356.579 809.771 312.723C905.243 268.847 964.061 208.334 964.061 141.67Z" stroke="black"/>
<path opacity="0.3" d="M1034.07 174.799C1034.07 108.135 975.254 47.622 879.783 3.74606C784.354 -40.11 652.486 -67.2489 506.801 -67.2489C361.116 -67.2489 229.248 -40.11 133.82 3.74606C38.3478 47.622 -20.4697 108.135 -20.4697 174.799C-20.4697 241.463 38.3478 301.976 133.82 345.852C229.248 389.708 361.116 416.847 506.801 416.847C652.486 416.847 784.354 389.708 879.783 345.852C975.254 301.976 1034.07 241.463 1034.07 174.799Z" stroke="black"/>
<path opacity="0.21" d="M985.605 116.824C985.605 43.9519 921.362 -22.1809 817.119 -70.1249C712.92 -118.049 568.934 -147.704 409.865 -147.704C250.796 -147.704 106.811 -118.049 2.61111 -70.1249C-101.632 -22.1809 -165.875 43.9519 -165.875 116.824C-165.875 189.696 -101.632 255.829 2.61111 303.772C106.811 351.697 250.796 381.352 409.865 381.352C568.934 381.352 712.92 351.697 817.119 303.772C921.362 255.829 985.605 189.696 985.605 116.824Z" stroke="black"/>
</g>
<defs>
<clipPath id="clip0_609_14337">
<rect width="550" height="174" fill="white" transform="matrix(1 0 0 -1 0 174.874)"/>
</clipPath>
</defs>
</svg>
