<svg width="776" height="174" viewBox="0 0 776 174" fill="none" xmlns="http://www.w3.org/2000/svg">
<g opacity="0.1" clip-path="url(#clip0_196_13672)">
<path opacity="0.6" d="M1390.81 182.207C1390.81 156.303 1373.95 131.533 1343.24 108.923C1312.54 86.3212 1268.09 65.9456 1213.12 48.8253C1103.18 14.5864 951.263 -6.59845 783.441 -6.59845C615.619 -6.59845 463.705 14.5864 353.763 48.8253C298.789 65.9456 254.337 86.3212 223.64 108.923C192.932 131.533 176.074 156.303 176.074 182.207C176.074 208.111 192.932 232.881 223.64 255.491C254.337 278.093 298.789 298.469 353.763 315.589C463.705 349.828 615.619 371.013 783.441 371.013C951.263 371.013 1103.18 349.828 1213.12 315.589C1268.09 298.469 1312.54 278.093 1343.24 255.491C1373.95 232.881 1390.81 208.111 1390.81 182.207Z" stroke="black"/>
<path opacity="0.5" d="M1360.41 163.277C1360.41 137.373 1343.55 112.603 1312.85 89.9933C1282.15 67.3911 1237.7 47.0154 1182.72 29.8951C1072.78 -4.34375 920.868 -25.5286 753.046 -25.5286C585.225 -25.5286 433.31 -4.34375 323.368 29.8951C268.394 47.0154 223.943 67.3911 193.245 89.9933C162.538 112.603 145.68 137.373 145.68 163.277C145.68 189.181 162.538 213.951 193.245 236.561C223.943 259.163 268.394 279.538 323.368 296.659C433.31 330.898 585.225 352.083 753.046 352.083C920.868 352.083 1072.78 330.898 1182.72 296.659C1237.7 279.538 1282.15 259.163 1312.85 236.561C1343.55 213.951 1360.41 189.181 1360.41 163.277Z" stroke="black"/>
<path opacity="0.4" d="M1413.59 175.108C1413.59 144.948 1394.71 116.131 1360.35 89.8448C1326 63.5642 1276.26 39.8755 1214.76 19.9724C1091.75 -19.832 921.796 -44.4597 734.043 -44.4597C546.29 -44.4597 376.331 -19.832 253.328 19.9724C191.824 39.8755 142.088 63.5642 107.738 89.8448C73.3805 116.131 54.4922 144.948 54.4922 175.108C54.4922 205.268 73.3805 234.085 107.738 260.371C142.088 286.652 191.824 310.341 253.328 330.244C376.331 370.048 546.29 394.676 734.043 394.676C921.796 394.676 1091.75 370.048 1214.76 330.244C1276.26 310.341 1326 286.652 1360.35 260.371C1394.71 234.085 1413.59 205.268 1413.59 175.108Z" stroke="black"/>
<path opacity="0.7" d="M1436.39 202.321C1436.39 175.264 1419.52 149.404 1388.82 125.807C1358.12 102.216 1313.67 80.9499 1258.7 63.0809C1148.76 27.3448 996.843 5.23331 829.023 5.23331C661.203 5.23331 509.291 27.3448 399.351 63.0809C344.378 80.9499 299.927 102.216 269.23 125.807C238.526 149.404 221.656 175.264 221.656 202.321C221.656 229.378 238.526 255.238 269.23 278.835C299.927 302.426 344.378 323.692 399.351 341.561C509.291 377.297 661.203 399.409 829.023 399.409C996.843 399.409 1148.76 377.297 1258.7 341.561C1313.67 323.692 1358.12 302.426 1388.82 278.835C1419.52 255.238 1436.39 229.378 1436.39 202.321Z" stroke="black"/>
<path opacity="0.7" d="M1474.39 218.884C1474.39 191.828 1457.52 165.967 1426.82 142.371C1396.12 118.78 1351.67 97.5133 1296.7 79.6444C1186.76 43.9083 1034.84 21.7968 867.023 21.7968C699.203 21.7968 547.291 43.9083 437.351 79.6444C382.378 97.5133 337.927 118.78 307.23 142.371C276.526 165.967 259.656 191.828 259.656 218.884C259.656 245.941 276.526 271.802 307.23 295.398C337.927 318.989 382.378 340.256 437.351 358.125C547.291 393.861 699.203 415.972 867.023 415.972C1034.84 415.972 1186.76 393.861 1296.7 358.125C1351.67 340.256 1396.12 318.989 1426.82 295.398C1457.52 271.802 1474.39 245.941 1474.39 218.884Z" stroke="black"/>
<path opacity="0.6" d="M1330.01 218.885C1330.01 196.729 1316.23 175.537 1291.1 156.187C1265.98 136.843 1229.59 119.401 1184.59 104.744C1094.59 75.4309 970.219 57.2923 832.824 57.2923C695.428 57.2923 571.06 75.4309 481.058 104.744C436.054 119.401 399.671 136.843 374.549 156.187C349.42 175.537 335.633 196.729 335.633 218.885C335.633 241.042 349.42 262.233 374.549 281.583C399.671 300.927 436.054 318.369 481.058 333.027C571.06 362.339 695.428 380.478 832.824 380.478C970.219 380.478 1094.59 362.339 1184.59 333.027C1229.59 318.369 1265.98 300.927 1291.1 281.583C1316.23 262.233 1330.01 241.042 1330.01 218.885Z" stroke="black"/>
<path opacity="0.4" d="M1102.07 194.038C1102.07 180.218 1093.28 166.964 1077.19 154.831C1061.1 142.705 1037.79 131.763 1008.95 122.565C951.256 104.171 871.527 92.7866 783.439 92.7866C695.35 92.7866 615.621 104.171 557.931 122.565C529.084 131.763 505.775 142.705 489.688 154.831C473.594 166.964 464.809 180.218 464.809 194.038C464.809 207.859 473.594 221.113 489.688 233.245C505.775 245.372 529.084 256.313 557.931 265.511C615.621 283.905 695.35 295.29 783.439 295.29C871.527 295.29 951.256 283.905 1008.95 265.511C1037.79 256.313 1061.1 245.372 1077.19 233.245C1093.28 221.113 1102.07 207.859 1102.07 194.038Z" stroke="black"/>
<path opacity="0.4" d="M1003.29 194.039C1003.29 184.463 997.266 175.255 986.17 166.804C975.082 158.359 959.006 150.732 939.097 144.317C899.283 131.491 844.249 123.549 783.438 123.549C722.627 123.549 667.593 131.491 627.779 144.317C607.869 150.732 591.793 158.359 580.705 166.804C569.61 175.255 563.586 184.463 563.586 194.039C563.586 203.614 569.61 212.822 580.705 221.273C591.793 229.719 607.869 237.346 627.779 243.76C667.593 256.587 722.627 264.528 783.438 264.528C844.249 264.528 899.283 256.587 939.097 243.76C959.006 237.346 975.082 229.719 986.17 221.273C997.266 212.822 1003.29 203.614 1003.29 194.039Z" stroke="black"/>
<path opacity="0.2" d="M1360.41 140.796C1360.41 107.532 1339.71 75.7573 1302.08 46.7821C1264.47 17.8123 1210 -8.29825 1142.65 -30.2353C1007.96 -74.1075 821.857 -101.251 616.269 -101.251C410.682 -101.251 224.577 -74.1075 89.8867 -30.2353C22.5387 -8.29825 -31.9268 17.8123 -69.5449 46.7821C-107.17 75.7573 -127.867 107.532 -127.867 140.796C-127.867 174.061 -107.17 205.836 -69.5449 234.811C-31.9268 263.781 22.5387 289.891 89.8867 311.828C224.577 355.7 410.682 382.844 616.269 382.844C821.857 382.844 1007.96 355.7 1142.65 311.828C1210 289.891 1264.47 263.781 1302.08 234.811C1339.71 205.836 1360.41 174.061 1360.41 140.796Z" stroke="black"/>
<path opacity="0.3" d="M1459.19 173.924C1459.19 140.659 1438.49 108.885 1400.87 79.91C1363.25 50.9402 1308.78 24.8297 1241.43 2.89267C1106.74 -40.9795 920.639 -68.1233 715.051 -68.1233C509.463 -68.1233 323.358 -40.9795 188.668 2.89267C121.32 24.8297 66.8544 50.9402 29.2364 79.91C-8.3887 108.885 -29.0859 140.659 -29.0859 173.924C-29.0859 207.189 -8.3887 238.964 29.2364 267.939C66.8544 296.909 121.32 323.019 188.668 344.956C323.358 388.828 509.463 415.972 715.051 415.972C920.639 415.972 1106.74 388.828 1241.43 344.956C1308.78 323.019 1363.25 296.909 1400.87 267.939C1438.49 238.964 1459.19 207.189 1459.19 173.924Z" stroke="black"/>
<path opacity="0.21" d="M1390.8 115.95C1390.8 79.5813 1368.19 44.8501 1327.1 13.1855C1286.03 -18.4737 1226.55 -47.0063 1153.02 -70.9773C1005.95 -118.918 802.751 -148.578 578.279 -148.578C353.807 -148.578 150.607 -118.918 3.54128 -70.9773C-69.9943 -47.0063 -129.467 -18.4737 -170.546 13.1855C-211.631 44.8501 -234.242 79.5813 -234.242 115.95C-234.242 152.319 -211.631 187.05 -170.546 218.715C-129.467 250.374 -69.9943 278.907 3.54128 302.878C150.607 350.818 353.807 380.478 578.279 380.478C802.751 380.478 1005.95 350.818 1153.02 302.878C1226.55 278.907 1286.03 250.374 1327.1 218.715C1368.19 187.05 1390.8 152.319 1390.8 115.95Z" stroke="black"/>
</g>
<defs>
<clipPath id="clip0_196_13672">
<rect width="776" height="174" fill="white" transform="matrix(1 0 0 -1 0 174)"/>
</clipPath>
</defs>
</svg>
