<svg width="366" height="208" viewBox="0 0 366 208" fill="none" xmlns="http://www.w3.org/2000/svg">
<g clip-path="url(#clip0_0_1)">
<path d="M189.823 188.929L189.929 218.79L192.689 223.445L194.524 224.503L195.92 222.266L197.163 222.976L199.18 224.155L200.484 228.009L217.363 237.801L218.652 235.429L220.063 236.245L221.913 237.303L223.323 241.201L225.158 242.244L227.934 240.793V238.542L227.919 233.842L227.903 231.711V230.094L227.873 212.247V210.902L226.448 208.454L225.447 206.716L225.098 206.111L224.552 205.794L223.248 205.054L221.852 201.155L221.215 200.792L220.002 200.097L218.577 199.266L217.288 201.653L200.378 191.891L199.074 188.007L197.072 186.859L195.813 186.133L194.418 188.385L192.583 187.327L189.823 188.929Z" fill="#292929"/>
<path d="M310.951 119.414L192.585 187.327L194.42 188.385L195.815 186.133L311.527 119.746L310.951 119.414Z" fill="#292929"/>
<path d="M195.814 186.133L197.073 186.859L199.075 188.007L317.456 120.064L314.211 118.205L311.526 119.747L195.814 186.133Z" fill="#292929"/>
<path d="M199.076 188.008L200.38 191.891L318.761 123.933L317.457 120.064L199.076 188.008Z" fill="#292929"/>
<path d="M200.381 191.891L217.29 201.654L218.579 199.266L308.146 147.779L334.246 132.788L318.762 123.933L200.381 191.891Z" fill="#292929"/>
<path d="M218.577 199.266L220.002 200.097L221.215 200.792L221.852 201.155L308.462 151.345L340.233 133.075L336.973 131.216L334.243 132.788L308.143 147.779L218.577 199.266Z" fill="#292929"/>
<path d="M221.854 201.155L223.249 205.054L224.553 205.794L225.099 206.111L225.448 206.716L226.449 208.454L227.874 210.902V212.247L227.905 230.094V231.711L227.92 233.842L227.935 238.542V240.794L346.149 172.593L346.24 142.762L343.48 138.002L341.63 136.944L340.235 133.075L308.463 151.346L221.854 201.155Z" fill="#292929"/>
<path d="M346.149 172.593L227.935 240.794" stroke="#616161" stroke-linejoin="round"/>
<path d="M340.233 133.075L308.462 151.346" stroke="#616161" stroke-linejoin="round"/>
<path d="M336.973 131.216L334.244 132.788L308.144 147.779L218.577 199.266" stroke="#616161" stroke-linejoin="round"/>
<path d="M318.761 123.933L200.38 191.891" stroke="#616161" stroke-linejoin="round"/>
<path d="M317.456 120.064L199.075 188.007" stroke="#616161" stroke-linejoin="round"/>
<path d="M314.212 118.205L311.528 119.747L195.816 186.134" stroke="#616161" stroke-linejoin="round"/>
<path d="M221.852 201.155L308.462 151.346" stroke="#616161" stroke-linejoin="round"/>
<path d="M310.949 119.414L308.189 121.015" stroke="#616161" stroke-linejoin="round"/>
<path d="M192.583 187.327L189.823 188.929L189.929 218.79L192.689 223.445L194.524 224.503L195.92 222.266L197.163 222.976L199.18 224.155L200.484 228.009L217.363 237.801L218.652 235.429L220.063 236.245L221.913 237.303L223.323 241.201L225.158 242.244L227.934 240.793V238.542L227.919 233.842L227.903 231.711V230.094L227.873 212.247V210.902L226.448 208.454L225.447 206.716L225.098 206.111L224.552 205.794L223.248 205.054L221.852 201.155L221.215 200.792L220.002 200.097L218.577 199.266L217.288 201.653L200.378 191.891L199.074 188.007L197.072 186.859L195.813 186.133L194.418 188.385L192.583 187.327Z" stroke="#616161" stroke-linejoin="round"/>
<path d="M314.212 118.205L317.458 120.064L318.762 123.933L334.246 132.788" stroke="#616161" stroke-linejoin="round"/>
<path d="M311.527 119.746L310.951 119.414L192.585 187.327" stroke="#616161" stroke-linejoin="round"/>
<path d="M336.974 131.216L340.235 133.075L341.63 136.944L343.48 138.002L346.24 142.762L346.149 172.593" stroke="#616161" stroke-linejoin="round"/>
<path d="M189.823 152.917L189.929 182.794L192.689 187.448L194.524 188.506L195.92 186.269L197.163 186.98L199.18 188.158L200.484 192.012L217.363 201.805L218.652 199.432L220.063 200.248L221.913 201.306L223.323 205.19L225.158 206.248L227.934 204.797V202.545L227.919 197.845L227.903 195.714V194.098L227.873 176.25V174.905L226.448 172.442L225.447 170.719L225.098 170.1L224.552 169.797L223.248 169.057L221.852 165.158L221.215 164.795L220.002 164.085L218.577 163.269L217.288 165.657L200.378 155.894L199.074 152.011L197.072 150.862L195.813 150.137L194.418 152.388L192.583 151.331L189.823 152.917Z" fill="#292929"/>
<path d="M310.951 83.417L192.585 151.33L194.42 152.388L195.815 150.136L311.527 83.7495L310.951 83.417Z" fill="#292929"/>
<path d="M194.527 188.506L195.922 186.27L197.165 186.98L194.527 188.506Z" fill="#292929"/>
<path d="M195.814 150.137L197.073 150.862L199.075 152.011L317.456 84.0673L314.211 82.2085L311.526 83.7499L195.814 150.137Z" fill="#292929"/>
<path d="M199.076 152.011L200.38 155.895L318.761 87.9361L317.457 84.0674L199.076 152.011Z" fill="#292929"/>
<path d="M200.381 155.895L217.29 165.657L218.579 163.269L308.146 111.783L334.246 96.7917L318.762 87.936L200.381 155.895Z" fill="#292929"/>
<path d="M217.364 201.805L218.653 199.432L220.063 200.248L217.364 201.805Z" fill="#292929"/>
<path d="M218.577 163.269L220.002 164.085L221.215 164.795L221.852 165.158L308.462 115.349L340.233 97.0785L336.973 95.2197L334.243 96.7914L308.143 111.782L218.577 163.269Z" fill="#292929"/>
<path d="M221.854 165.158L223.249 169.057L224.553 169.798L225.099 170.1L225.448 170.719L226.449 172.442L227.874 174.905V176.25L227.905 194.098V195.715L227.92 197.845L227.935 202.545V204.797L346.149 136.581L346.24 106.765L343.48 102.005L341.63 100.947L340.235 97.0786L308.463 115.349L221.854 165.158Z" fill="#292929"/>
<path d="M346.149 136.582L227.935 204.797" stroke="#616161" stroke-linejoin="round"/>
<path d="M340.233 97.0786L308.462 115.349" stroke="#616161" stroke-linejoin="round"/>
<path d="M336.973 95.2197L334.244 96.7914L308.144 111.782L218.577 163.269" stroke="#616161" stroke-linejoin="round"/>
<path d="M318.761 87.936L200.38 155.895" stroke="#616161" stroke-linejoin="round"/>
<path d="M317.456 84.0674L199.075 152.011" stroke="#616161" stroke-linejoin="round"/>
<path d="M314.212 82.2085L311.528 83.7499L195.816 150.137" stroke="#616161" stroke-linejoin="round"/>
<path d="M221.852 165.159L308.462 115.35" stroke="#616161" stroke-linejoin="round"/>
<path d="M310.949 83.417L308.189 85.0189" stroke="#616161" stroke-linejoin="round"/>
<path d="M192.583 151.331L189.823 152.917L189.929 182.794L192.689 187.448L194.524 188.506L195.92 186.269L197.163 186.98L199.18 188.158L200.484 192.012L217.363 201.805L218.652 199.432L220.063 200.248L221.913 201.306L223.323 205.19L225.158 206.248L227.934 204.797V202.545L227.919 197.845L227.903 195.714V194.098L227.873 176.25V174.905L226.448 172.442L225.447 170.719L225.098 170.1L224.552 169.797L223.248 169.057L221.852 165.158L221.215 164.795L220.002 164.085L218.577 163.269L217.288 165.657L200.378 155.894L199.074 152.011L197.072 150.862L195.813 150.137L194.418 152.388L192.583 151.331Z" stroke="#616161" stroke-linejoin="round"/>
<path d="M314.212 82.2085L317.458 84.0673L318.762 87.9359L334.246 96.7916" stroke="#616161" stroke-linejoin="round"/>
<path d="M311.527 83.7495L310.951 83.417L192.585 151.33" stroke="#616161" stroke-linejoin="round"/>
<path d="M336.974 95.2197L340.235 97.0785L341.63 100.947L343.48 102.005L346.24 106.765L346.149 136.581" stroke="#616161" stroke-linejoin="round"/>
<path d="M189.823 117.374L189.929 147.236L192.689 151.89L194.524 152.948L195.92 150.711L197.163 151.422L199.18 152.6L200.484 156.454L217.363 166.247L218.652 163.874L220.063 164.69L221.913 165.748L223.323 169.632L225.158 170.689L227.934 169.239V166.987L227.919 162.287L227.903 160.156V158.539L227.873 140.692V139.347L226.448 136.884L225.447 135.161L225.098 134.557L224.552 134.239L223.248 133.499L221.852 129.6L221.215 129.237L220.002 128.527L218.577 127.711L217.288 130.099L200.378 120.336L199.074 116.452L197.072 115.304L195.813 114.579L194.418 116.83L192.583 115.772L189.823 117.374Z" fill="#292929"/>
<path d="M310.951 47.8589L192.585 115.772L194.42 116.83L195.815 114.578L311.527 48.1914L310.951 47.8589Z" fill="#292929"/>
<path d="M194.527 152.948L195.922 150.711L197.165 151.422L194.527 152.948Z" fill="#292929"/>
<path d="M195.814 114.579L197.073 115.304L199.075 116.453L317.456 48.5092L314.211 46.6504L311.526 48.1918L195.814 114.579Z" fill="#292929"/>
<path d="M199.076 116.453L200.38 120.337L318.761 52.3779L317.457 48.5093L199.076 116.453Z" fill="#292929"/>
<path d="M200.381 120.337L217.29 130.099L218.579 127.711L308.146 76.2247L334.246 61.2336L318.762 52.3779L200.381 120.337Z" fill="#292929"/>
<path d="M217.364 166.247L218.653 163.874L220.063 164.69L217.364 166.247Z" fill="#292929"/>
<path d="M218.577 127.711L220.002 128.527L221.215 129.237L221.852 129.6L308.462 79.7908L340.233 61.5204L336.973 59.6616L334.243 61.2333L308.143 76.2244L218.577 127.711Z" fill="#292929"/>
<path d="M221.854 129.6L223.249 133.499L224.553 134.239L225.099 134.557L225.448 135.161L226.449 136.884L227.874 139.347V140.692L227.905 158.54V160.157L227.92 162.287L227.935 166.987V169.239L346.149 101.023L346.24 71.2073L343.48 66.447L341.63 65.3892L340.235 61.5205L308.463 79.7909L221.854 129.6Z" fill="#292929"/>
<path d="M346.149 101.023L227.935 169.239" stroke="#616161" stroke-linejoin="round"/>
<path d="M340.233 61.5205L308.462 79.7909" stroke="#616161" stroke-linejoin="round"/>
<path d="M336.973 59.6616L334.244 61.2333L308.144 76.2244L218.577 127.711" stroke="#616161" stroke-linejoin="round"/>
<path d="M318.761 52.3779L200.38 120.337" stroke="#616161" stroke-linejoin="round"/>
<path d="M317.456 48.5093L199.075 116.453" stroke="#616161" stroke-linejoin="round"/>
<path d="M314.212 46.6504L311.528 48.1918L195.816 114.579" stroke="#616161" stroke-linejoin="round"/>
<path d="M221.852 129.601L308.462 79.7915" stroke="#616161" stroke-linejoin="round"/>
<path d="M310.949 47.8589L308.189 49.4608" stroke="#616161" stroke-linejoin="round"/>
<path d="M192.583 115.772L189.823 117.374L189.929 147.236L192.689 151.89L194.524 152.948L195.92 150.711L197.163 151.422L199.18 152.6L200.484 156.454L217.363 166.247L218.652 163.874L220.063 164.69L221.913 165.748L223.323 169.632L225.158 170.689L227.934 169.239V166.987L227.919 162.287L227.903 160.156V158.539L227.873 140.692V139.347L226.448 136.884L225.447 135.161L225.098 134.557L224.552 134.239L223.248 133.499L221.852 129.6L221.215 129.237L220.002 128.527L218.577 127.711L217.288 130.099L200.378 120.336L199.074 116.452L197.072 115.304L195.813 114.579L194.418 116.83L192.583 115.772Z" stroke="#616161" stroke-linejoin="round"/>
<path d="M314.212 46.6504L317.458 48.5092L318.762 52.3778L334.246 61.2335" stroke="#616161" stroke-linejoin="round"/>
<path d="M311.527 48.1914L310.951 47.8589L192.585 115.772" stroke="#616161" stroke-linejoin="round"/>
<path d="M336.974 59.6616L340.235 61.5204L341.63 65.3891L343.48 66.4469L346.24 71.2072L346.149 101.023" stroke="#616161" stroke-linejoin="round"/>
</g>
<g opacity="0.15" clip-path="url(#clip1_0_1)">
<path opacity="0.6" d="M655.709 217.81C655.709 93.21 527.69 -7.98621 369.509 -7.98621C211.329 -7.98621 83.3094 93.21 83.3094 217.81C83.3094 342.41 211.329 443.606 369.509 443.606C527.69 443.606 655.709 342.41 655.709 217.81Z" stroke="white"/>
<path opacity="0.5" d="M641.374 195.181C641.374 70.5811 513.355 -30.6151 355.174 -30.6151C196.994 -30.6151 68.9744 70.5811 68.9744 195.181C68.9744 319.781 196.994 420.978 355.174 420.978C513.355 420.978 641.374 319.781 641.374 195.181Z" stroke="white"/>
<path opacity="0.4" d="M666.457 209.324C666.457 64.3991 523.175 -53.2454 346.211 -53.2454C169.247 -53.2454 25.9653 64.3991 25.9653 209.324C25.9653 354.249 169.247 471.894 346.211 471.894C523.175 471.894 666.457 354.249 666.457 209.324Z" stroke="white"/>
<path opacity="0.7" d="M677.209 241.854C677.209 111.769 549.168 6.15723 391.009 6.15723C232.85 6.15723 104.809 111.769 104.809 241.854C104.809 371.939 232.85 477.551 391.009 477.551C549.168 477.551 677.209 371.939 677.209 241.854Z" stroke="white"/>
<path opacity="0.7" d="M695.13 261.655C695.13 131.569 567.089 25.958 408.93 25.958C250.771 25.958 122.73 131.569 122.73 261.655C122.73 391.74 250.771 497.352 408.93 497.352C567.089 497.352 695.13 391.74 695.13 261.655Z" stroke="white"/>
<path opacity="0.6" d="M627.038 261.655C627.038 155.003 522.261 68.389 392.802 68.389C263.344 68.389 158.567 155.003 158.567 261.655C158.567 368.308 263.344 454.921 392.802 454.921C522.261 454.921 627.038 368.308 627.038 261.655Z" stroke="white"/>
<path opacity="0.4" d="M519.526 231.953C519.526 165.147 452.466 110.819 369.509 110.819C286.552 110.819 219.491 165.147 219.491 231.953C219.491 298.76 286.552 353.087 369.509 353.087C452.466 353.087 519.526 298.76 519.526 231.953Z" stroke="white"/>
<path opacity="0.4" d="M472.938 231.954C472.938 185.452 426.731 147.593 369.509 147.593C312.288 147.593 266.081 185.452 266.081 231.954C266.081 278.455 312.288 316.315 369.509 316.315C426.731 316.315 472.938 278.455 472.938 231.954Z" stroke="white"/>
<path opacity="0.2" d="M641.37 168.308C641.37 8.53879 484.447 -121.134 290.663 -121.134C96.8783 -121.134 -60.0449 8.53879 -60.0449 168.308C-60.0449 328.077 96.8783 457.75 290.663 457.75C484.447 457.75 641.37 328.077 641.37 168.308Z" stroke="white"/>
<path opacity="0.3" d="M687.96 207.909C687.96 48.1404 531.036 -81.5327 337.252 -81.5327C143.468 -81.5327 -13.4555 48.1404 -13.4555 207.909C-13.4555 367.678 143.468 497.352 337.252 497.352C531.036 497.352 687.96 367.678 687.96 207.909Z" stroke="white"/>
<path opacity="0.21" d="M655.708 138.607C655.708 -36.0042 484.344 -177.708 272.747 -177.708C61.1496 -177.708 -110.214 -36.0042 -110.214 138.607C-110.214 313.217 61.1496 454.921 272.747 454.921C484.344 454.921 655.708 313.217 655.708 138.607Z" stroke="white"/>
</g>
<defs>
<clipPath id="clip0_0_1">
<rect width="157.932" height="197" fill="white" transform="matrix(-1 0 0 1 347 46)"/>
</clipPath>
<clipPath id="clip1_0_1">
<rect width="366" height="208" fill="white" transform="matrix(1 0 0 -1 0 208)"/>
</clipPath>
</defs>
</svg>
