<svg width="40" height="41" viewBox="0 0 40 41" fill="none" xmlns="http://www.w3.org/2000/svg">
<path d="M39.88 17.5434L22.8497 2.42044C21.1862 0.943184 18.694 0.943186 17.0304 2.42045L0.000114835 17.5434V35.6342C0.000114835 38.0888 1.97204 40.0787 4.40452 40.0787H35.4756C37.9081 40.0787 39.88 38.0888 39.88 35.6342V17.5434Z" fill="#007550"/>
<mask id="mask0_608_29044" style="mask-type:alpha" maskUnits="userSpaceOnUse" x="0" y="1" width="40" height="40">
<path d="M39.88 17.5434L22.8497 2.42044C21.1862 0.943184 18.694 0.943186 17.0304 2.42045L0.000114835 17.5434V35.6342C0.000114835 38.0888 1.97204 40.0787 4.40452 40.0787H35.4756C37.9081 40.0787 39.88 38.0888 39.88 35.6342V17.5434Z" fill="#007550"/>
</mask>
<g mask="url(#mask0_608_29044)">
<path d="M103.244 -15.0471C103.244 16.2842 78.0746 41.6754 47.0368 41.6754C15.9989 41.6754 -9.16992 16.2842 -9.16992 -15.0471C-9.16992 -46.3783 15.9989 -71.7695 47.0368 -71.7695C78.0746 -71.7695 103.244 -46.3783 103.244 -15.0471Z" stroke="white" stroke-opacity="0.2"/>
<path d="M101.041 -8.93682C101.041 22.7012 75.626 48.3412 44.2841 48.3412C12.9422 48.3412 -12.4731 22.7012 -12.4731 -8.93682C-12.4731 -40.5749 12.9422 -66.2148 44.2841 -66.2148C75.626 -66.2148 101.041 -40.5749 101.041 -8.93682Z" stroke="white" stroke-opacity="0.2"/>
<path d="M105.445 -12.2706C105.445 24.2971 77.299 53.8964 42.6322 53.8964C7.96533 53.8964 -20.1812 24.2971 -20.1812 -12.2706C-20.1812 -48.8382 7.96533 -78.4375 42.6322 -78.4375C77.299 -78.4375 105.445 -48.8382 105.445 -12.2706Z" stroke="white" stroke-opacity="0.2"/>
<path d="M107.648 -20.6041C107.648 11.9726 82.4613 38.3406 51.4411 38.3406C20.4209 38.3406 -4.76562 11.9726 -4.76562 -20.6041C-4.76562 -53.1809 20.4209 -79.5488 51.4411 -79.5488C82.4613 -79.5488 107.648 -53.1809 107.648 -20.6041Z" stroke="white" stroke-opacity="0.2"/>
<path d="M110.951 -25.6033C110.951 7.2848 85.7602 33.897 54.7443 33.897C23.7284 33.897 -1.4624 7.2848 -1.4624 -25.6033C-1.4624 -58.4913 23.7284 -85.1035 54.7443 -85.1035C85.7602 -85.1035 110.951 -58.4913 110.951 -25.6033Z" stroke="white" stroke-opacity="0.2"/>
<path d="M97.7381 -25.6031C97.7381 1.14801 77.231 22.786 51.9919 22.786C26.7527 22.786 6.24561 1.14801 6.24561 -25.6031C6.24561 -52.3542 26.7527 -73.9922 51.9919 -73.9922C77.231 -73.9922 97.7381 -52.3542 97.7381 -25.6031Z" stroke="white" stroke-opacity="0.2"/>
<path d="M76.8169 -18.3818C76.8169 -1.76952 63.7175 11.6739 47.5872 11.6739C31.4568 11.6739 18.3574 -1.76952 18.3574 -18.3818C18.3574 -34.9941 31.4568 -48.4375 47.5872 -48.4375C63.7175 -48.4375 76.8169 -34.9941 76.8169 -18.3818Z" stroke="white" stroke-opacity="0.2"/>
<path d="M66.9072 -18.3801C66.9072 -6.66053 57.9824 2.78664 47.0369 2.78664C36.0914 2.78664 27.1665 -6.66053 27.1665 -18.3801C27.1665 -30.0997 36.0914 -39.5469 47.0369 -39.5469C57.9824 -39.5469 66.9072 -30.0997 66.9072 -18.3801Z" stroke="white" stroke-opacity="0.2"/>
<path d="M101.041 -2.26987C101.041 37.9778 69.9385 70.5638 31.6211 70.5638C-6.69627 70.5638 -37.7988 37.9778 -37.7988 -2.26987C-37.7988 -42.5175 -6.69627 -75.1035 31.6211 -75.1035C69.9385 -75.1035 101.041 -42.5175 101.041 -2.26987Z" stroke="white" stroke-opacity="0.2"/>
<path d="M109.85 -12.2699C109.85 27.9816 78.9904 60.5638 40.9807 60.5638C2.97102 60.5638 -27.8887 27.9816 -27.8887 -12.2699C-27.8887 -52.5213 2.97102 -85.1035 40.9807 -85.1035C78.9904 -85.1035 109.85 -52.5213 109.85 -12.2699Z" stroke="white" stroke-opacity="0.2"/>
<path d="M103.243 5.50815C103.243 49.4396 69.4277 85.0085 27.7675 85.0085C-13.8927 85.0085 -47.7085 49.4396 -47.7085 5.50815C-47.7085 -38.4233 -13.8927 -73.9922 27.7675 -73.9922C69.4277 -73.9922 103.243 -38.4233 103.243 5.50815Z" stroke="white" stroke-opacity="0.2"/>
</g>
<path fill-rule="evenodd" clip-rule="evenodd" d="M20.5408 33.0781L26.7391 21.0781H23.106L19.5598 27.945L18.6848 26.252L21.3587 21.0781H17.7255L16.8696 22.7357L16.0136 21.0781H12.3804L15.0543 26.252L14.1793 27.945L10.6332 21.0781H7L13.1957 33.0781H15.163L16.8696 29.7711L18.5761 33.0781H20.5408ZM33.0457 33.0781V29.8499H27.5973L32.1272 21.0781H28.494L22.2957 33.0781H33.0457Z" fill="white"/>
</svg>
