<svg width="501" height="560" viewBox="0 0 501 560" fill="none" xmlns="http://www.w3.org/2000/svg">
<g opacity="0.15" clip-path="url(#clip0_472_21207)">
<path opacity="0.6" d="M897.754 586.297C897.754 418.437 853.848 266.492 782.888 156.526C711.925 46.556 613.949 -21.374 505.804 -21.374C397.659 -21.374 299.683 46.556 228.72 156.526C157.76 266.492 113.854 418.437 113.854 586.297C113.854 754.158 157.76 906.103 228.72 1016.07C299.683 1126.04 397.659 1193.97 505.804 1193.97C613.949 1193.97 711.925 1126.04 782.888 1016.07C853.848 906.103 897.754 754.158 897.754 586.297Z" stroke="white"/>
<path opacity="0.5" d="M878.131 525.479C878.131 357.619 834.225 205.673 763.265 95.708C692.302 -14.2623 594.327 -82.1924 486.181 -82.1924C378.036 -82.1924 280.061 -14.2623 209.098 95.708C138.137 205.673 94.2314 357.619 94.2314 525.479C94.2314 693.339 138.137 845.285 209.098 955.25C280.061 1065.22 378.036 1133.15 486.181 1133.15C594.327 1133.15 692.302 1065.22 763.265 955.25C834.225 845.285 878.131 693.339 878.131 525.479Z" stroke="white"/>
<path opacity="0.4" d="M912.465 563.491C912.465 368.337 863.341 191.681 783.945 63.8308C704.544 -64.0273 594.917 -143.008 473.912 -143.008C352.907 -143.008 243.28 -64.0273 163.879 63.8308C84.4825 191.681 35.3584 368.337 35.3584 563.491C35.3584 758.645 84.4825 935.301 163.879 1063.15C243.28 1191.01 352.907 1269.99 473.912 1269.99C594.917 1269.99 704.544 1191.01 783.945 1063.15C863.341 935.301 912.465 758.645 912.465 563.491Z" stroke="white"/>
<path opacity="0.7" d="M927.183 650.917C927.183 475.705 883.275 317.104 812.312 202.323C741.344 87.5338 643.368 16.6377 535.233 16.6377C427.098 16.6377 329.122 87.5338 258.154 202.323C187.191 317.104 143.283 475.705 143.283 650.917C143.283 826.128 187.191 984.729 258.154 1099.51C329.122 1214.3 427.098 1285.2 535.233 1285.2C643.368 1285.2 741.344 1214.3 812.312 1099.51C883.275 984.729 927.183 826.128 927.183 650.917Z" stroke="white"/>
<path opacity="0.7" d="M951.715 704.129C951.715 528.918 907.807 370.317 836.844 255.536C765.876 140.747 667.9 69.8506 559.765 69.8506C451.63 69.8506 353.654 140.747 282.686 255.536C211.723 370.317 167.815 528.918 167.815 704.129C167.815 879.341 211.723 1037.94 282.686 1152.72C353.654 1267.51 451.63 1338.41 559.765 1338.41C667.9 1338.41 765.876 1267.51 836.844 1152.72C907.807 1037.94 951.715 879.341 951.715 704.129Z" stroke="white"/>
<path opacity="0.6" d="M858.507 704.128C858.507 560.406 822.561 430.313 764.469 336.168C706.373 242.014 626.18 183.882 537.689 183.882C449.197 183.882 369.004 242.014 310.908 336.168C252.817 430.313 216.87 560.406 216.87 704.128C216.87 847.851 252.817 977.944 310.908 1072.09C369.004 1166.24 449.197 1224.38 537.689 1224.38C626.18 1224.38 706.373 1166.24 764.469 1072.09C822.561 977.944 858.507 847.851 858.507 704.128Z" stroke="white"/>
<path opacity="0.4" d="M711.339 624.307C711.339 534.118 688.297 452.49 651.069 393.426C613.838 334.355 562.466 297.915 505.803 297.915C449.14 297.915 397.768 334.355 360.536 393.426C323.309 452.49 300.267 534.118 300.267 624.307C300.267 714.496 323.309 796.124 360.536 855.188C397.768 914.259 449.14 950.699 505.803 950.699C562.466 950.699 613.838 914.259 651.069 855.188C688.297 796.124 711.339 714.496 711.339 624.307Z" stroke="white"/>
<path opacity="0.4" d="M647.567 624.307C647.567 561.407 631.662 504.486 605.975 463.306C580.283 422.118 544.853 396.743 505.804 396.743C466.754 396.743 431.325 422.118 405.633 463.306C379.945 504.486 364.041 561.407 364.041 624.307C364.041 687.207 379.945 744.128 405.633 785.308C431.325 826.495 466.754 851.871 505.804 851.871C544.853 851.871 580.283 826.495 605.975 785.308C631.662 744.128 647.567 687.207 647.567 624.307Z" stroke="white"/>
<path opacity="0.2" d="M878.126 453.259C878.126 238.161 824.334 43.4502 737.391 -97.4698C650.444 -238.398 530.392 -325.46 397.874 -325.46C265.356 -325.46 145.305 -238.398 58.3574 -97.4698C-28.5854 43.4502 -82.377 238.161 -82.377 453.259C-82.377 668.357 -28.5854 863.068 58.3574 1003.99C145.305 1144.92 265.356 1231.98 397.874 1231.98C530.392 1231.98 650.444 1144.92 737.391 1003.99C824.334 863.068 878.126 668.357 878.126 453.259Z" stroke="white"/>
<path opacity="0.3" d="M941.9 559.689C941.9 344.591 888.108 149.88 801.165 8.95984C714.218 -131.968 594.166 -219.031 461.648 -219.031C329.13 -219.031 209.079 -131.968 122.131 8.95984C35.1885 149.88 -18.603 344.591 -18.603 559.689C-18.603 774.787 35.1885 969.497 122.131 1110.42C209.079 1251.35 329.13 1338.41 461.648 1338.41C594.166 1338.41 714.218 1251.35 801.165 1110.42C888.108 969.497 941.9 774.787 941.9 559.689Z" stroke="white"/>
<path opacity="0.21" d="M897.752 373.435C897.752 138.394 839.019 -74.3718 744.086 -228.361C649.149 -382.359 518.06 -477.505 373.35 -477.505C228.64 -477.505 97.5515 -382.359 2.61407 -228.361C-92.3185 -74.3718 -151.052 138.394 -151.052 373.435C-151.052 608.476 -92.3185 821.242 2.61407 975.232C97.5515 1129.23 228.64 1224.38 373.35 1224.38C518.06 1224.38 649.149 1129.23 744.086 975.232C839.019 821.242 897.752 608.476 897.752 373.435Z" stroke="white"/>
</g>
<defs>
<clipPath id="clip0_472_21207">
<rect width="501" height="559" fill="white" transform="matrix(1 0 0 -1 0 559.932)"/>
</clipPath>
</defs>
</svg>
