<svg width="1920" height="884" viewBox="0 0 1920 884" fill="none" xmlns="http://www.w3.org/2000/svg">
<g opacity="0.3" clip-path="url(#clip0_801_20125)">
<path opacity="0.6" d="M3441.92 -40.6587C3441.92 224.394 3273.72 464.425 3001.64 638.217C2729.56 812.006 2353.65 919.513 1938.42 919.513C1523.18 919.513 1147.28 812.006 875.197 638.217C603.113 464.425 434.917 224.394 434.917 -40.6587C434.917 -305.711 603.113 -545.742 875.197 -719.535C1147.28 -893.323 1523.18 -1000.83 1938.42 -1000.83C2353.65 -1000.83 2729.56 -893.323 3001.64 -719.535C3273.72 -545.742 3441.92 -305.711 3441.92 -40.6587Z" stroke="white"/>
<path opacity="0.5" d="M3366.71 55.4077C3366.71 320.46 3198.51 560.491 2926.43 734.284C2654.35 908.072 2278.44 1015.58 1863.21 1015.58C1447.97 1015.58 1072.07 908.072 799.987 734.284C527.902 560.491 359.706 320.46 359.706 55.4077C359.706 -209.645 527.902 -449.676 799.987 -623.468C1072.07 -797.257 1447.97 -904.764 1863.21 -904.764C2278.44 -904.764 2654.35 -797.257 2926.43 -623.468C3198.51 -449.676 3366.71 -209.645 3366.71 55.4077Z" stroke="white"/>
<path opacity="0.4" d="M3498.29 -4.6355C3498.29 303.535 3310.1 582.593 3005.69 784.631C2701.3 986.667 2280.75 1111.65 1816.19 1111.65C1351.64 1111.65 931.089 986.667 626.691 784.631C322.29 582.593 134.093 303.535 134.093 -4.6355C134.093 -312.806 322.29 -591.864 626.691 -793.902C931.089 -995.938 1351.64 -1120.92 1816.19 -1120.92C2280.75 -1120.92 2701.3 -995.938 3005.69 -793.902C3310.1 -591.864 3498.29 -312.806 3498.29 -4.6355Z" stroke="white"/>
<path opacity="0.7" d="M3554.7 -142.731C3554.7 133.938 3386.49 384.476 3114.41 565.869C2842.33 747.261 2466.43 859.47 2051.2 859.47C1635.97 859.47 1260.07 747.261 987.989 565.869C715.908 384.476 547.7 133.938 547.7 -142.731C547.7 -419.4 715.908 -669.938 987.989 -851.331C1260.07 -1032.72 1635.97 -1144.93 2051.2 -1144.93C2466.43 -1144.93 2842.33 -1032.72 3114.41 -851.331C3386.49 -669.938 3554.7 -419.4 3554.7 -142.731Z" stroke="white"/>
<path opacity="0.7" d="M3648.71 -226.789C3648.71 49.8804 3480.5 300.418 3208.42 481.812C2936.35 663.203 2560.45 775.412 2145.21 775.412C1729.98 775.412 1354.08 663.203 1082 481.812C809.92 300.418 641.712 49.8804 641.712 -226.789C641.712 -503.458 809.92 -753.996 1082 -935.389C1354.08 -1116.78 1729.98 -1228.99 2145.21 -1228.99C2560.45 -1228.99 2936.35 -1116.78 3208.42 -935.389C3480.5 -753.996 3648.71 -503.458 3648.71 -226.789Z" stroke="white"/>
<path opacity="0.6" d="M3291.49 -226.791C3291.49 0.138428 3153.8 205.645 2931.05 354.442C2708.3 503.236 2400.55 595.284 2060.59 595.284C1720.64 595.284 1412.88 503.236 1190.14 354.442C967.388 205.645 829.692 0.138428 829.692 -226.791C829.692 -453.72 967.388 -659.226 1190.14 -808.023C1412.88 -956.818 1720.64 -1048.87 2060.59 -1048.87C2400.55 -1048.87 2708.3 -956.818 2931.05 -808.023C3153.8 -659.226 3291.49 -453.72 3291.49 -226.791Z" stroke="white"/>
<path opacity="0.4" d="M2727.5 -100.702C2727.5 41.6636 2639.26 170.617 2496.46 264.002C2353.66 357.384 2156.36 415.159 1938.4 415.159C1720.44 415.159 1523.14 357.384 1380.34 264.002C1237.54 170.617 1149.3 41.6636 1149.3 -100.702C1149.3 -243.067 1237.54 -372.02 1380.34 -465.405C1523.14 -558.788 1720.44 -616.562 1938.4 -616.562C2156.36 -616.562 2353.66 -558.788 2496.46 -465.405C2639.26 -372.02 2727.5 -243.067 2727.5 -100.702Z" stroke="white"/>
<path opacity="0.4" d="M2483.1 -100.701C2483.1 -1.44186 2422.22 88.4839 2323.64 153.618C2225.07 218.749 2088.87 259.05 1938.4 259.05C1787.93 259.05 1651.73 218.749 1553.16 153.618C1454.59 88.4839 1393.7 -1.44186 1393.7 -100.701C1393.7 -199.961 1454.59 -289.887 1553.16 -355.021C1651.73 -420.152 1787.93 -460.453 1938.4 -460.453C2088.87 -460.453 2225.07 -420.152 2323.64 -355.021C2422.22 -289.887 2483.1 -199.961 2483.1 -100.701Z" stroke="white"/>
<path opacity="0.2" d="M3366.7 169.487C3366.7 509.161 3160.61 816.739 2827.29 1039.42C2493.97 1262.1 2033.47 1399.85 1524.8 1399.85C1016.12 1399.85 555.615 1262.1 222.299 1039.42C-111.02 816.739 -317.105 509.161 -317.105 169.487C-317.105 -170.187 -111.02 -477.765 222.299 -700.447C555.615 -923.126 1016.12 -1060.87 1524.8 -1060.87C2033.47 -1060.87 2493.97 -923.126 2827.29 -700.447C3160.61 -477.765 3366.7 -170.187 3366.7 169.487Z" stroke="white"/>
<path opacity="0.3" d="M3611.1 1.37097C3611.1 341.045 3405.01 648.623 3071.69 871.305C2738.38 1093.98 2277.88 1231.73 1769.2 1231.73C1260.52 1231.73 800.016 1093.98 466.701 871.305C133.381 648.623 -72.7036 341.045 -72.7036 1.37097C-72.7036 -338.303 133.381 -645.881 466.701 -868.563C800.016 -1091.24 1260.52 -1228.99 1769.2 -1228.99C2277.88 -1228.99 2738.38 -1091.24 3071.69 -868.563C3405.01 -645.881 3611.1 -338.303 3611.1 1.37097Z" stroke="white"/>
<path opacity="0.21" d="M3441.89 295.575C3441.89 666.751 3216.87 1002.85 2852.93 1246.18C2488.99 1489.5 1986.19 1640.01 1430.79 1640.01C875.389 1640.01 372.589 1489.5 8.65356 1246.18C-355.285 1002.85 -580.308 666.751 -580.308 295.575C-580.308 -75.6016 -355.285 -411.699 8.65356 -655.026C372.589 -898.35 875.389 -1048.87 1430.79 -1048.87C1986.19 -1048.87 2488.99 -898.35 2852.93 -655.026C3216.87 -411.699 3441.89 -75.6016 3441.89 295.575Z" stroke="white"/>
</g>
<defs>
<clipPath id="clip0_801_20125">
<rect width="1920" height="883" fill="white" transform="translate(0 0.986328)"/>
</clipPath>
</defs>
</svg>
