<svg width="1326" height="350" viewBox="0 0 1326 350" fill="none" xmlns="http://www.w3.org/2000/svg">
<g opacity="0.1" clip-path="url(#clip0_315_9330)">
<path opacity="0.6" d="M2376.91 366.113C2376.91 313.887 2347.96 264.07 2295.46 218.696C2242.96 173.323 2166.97 132.439 2073.01 98.0952C1885.11 29.408 1625.5 -13.0858 1338.71 -13.0858C1051.93 -13.0858 792.314 29.408 604.414 98.0952C510.463 132.439 434.467 173.323 381.968 218.696C329.468 264.07 300.515 313.887 300.515 366.113C300.515 418.339 329.468 468.157 381.968 513.531C434.467 558.904 510.463 599.787 604.414 634.132C792.314 702.819 1051.93 745.312 1338.71 745.312C1625.5 745.312 1885.11 702.819 2073.01 634.132C2166.97 599.787 2242.96 558.904 2295.46 513.531C2347.96 468.157 2376.91 418.339 2376.91 366.113Z" stroke="white"/>
<path opacity="0.5" d="M2324.98 328.143C2324.98 275.917 2296.02 226.099 2243.52 180.725C2191.03 135.352 2115.03 94.4688 2021.08 60.1245C1833.18 -8.56274 1573.56 -51.0565 1286.78 -51.0565C999.991 -51.0565 740.377 -8.56274 552.477 60.1245C458.526 94.4688 382.53 135.352 330.031 180.725C277.531 226.099 248.578 275.917 248.578 328.143C248.578 380.369 277.531 430.186 330.031 475.56C382.53 520.933 458.526 561.817 552.477 596.161C740.377 664.848 999.991 707.342 1286.78 707.342C1573.56 707.342 1833.18 664.848 2021.08 596.161C2115.03 561.817 2191.03 520.933 2243.52 475.56C2296.02 430.186 2324.98 380.369 2324.98 328.143Z" stroke="white"/>
<path opacity="0.4" d="M2415.85 351.873C2415.85 291.12 2383.44 233.185 2324.7 180.432C2265.96 127.68 2180.93 80.1498 2075.82 40.2236C1865.6 -39.6276 1575.15 -89.027 1254.31 -89.027C933.46 -89.027 643.012 -39.6276 432.793 40.2236C327.681 80.1498 242.654 127.68 183.913 180.432C125.172 233.185 92.7598 291.12 92.7598 351.873C92.7598 412.626 125.172 470.561 183.913 523.314C242.654 576.067 327.681 623.597 432.793 663.523C643.012 743.374 933.46 792.773 1254.31 792.773C1575.15 792.773 1865.6 743.374 2075.82 663.523C2180.93 623.597 2265.96 576.067 2324.7 523.314C2383.44 470.561 2415.85 412.626 2415.85 351.873Z" stroke="white"/>
<path opacity="0.7" d="M2454.8 406.457C2454.8 351.928 2425.84 299.924 2373.34 252.566C2320.84 205.208 2244.85 162.536 2150.9 126.69C1963 54.9982 1703.39 10.6457 1416.6 10.6457C1129.82 10.6457 870.207 54.9982 682.31 126.69C588.359 162.536 512.364 205.208 459.864 252.566C407.365 299.924 378.403 351.928 378.403 406.457C378.403 460.985 407.365 512.989 459.864 560.347C512.364 607.706 588.359 650.377 682.31 686.224C870.207 757.915 1129.82 802.268 1416.6 802.268C1703.39 802.268 1963 757.915 2150.9 686.224C2244.85 650.377 2320.84 607.706 2373.34 560.347C2425.84 512.989 2454.8 460.985 2454.8 406.457Z" stroke="white"/>
<path opacity="0.7" d="M2519.74 439.677C2519.74 385.149 2490.78 333.145 2438.28 285.786C2385.78 238.428 2309.78 195.757 2215.83 159.91C2027.93 88.2189 1768.32 43.8664 1481.54 43.8664C1194.75 43.8664 935.141 88.2189 747.243 159.91C653.293 195.757 577.297 238.428 524.798 285.786C472.299 333.145 443.337 385.149 443.337 439.677C443.337 494.206 472.299 546.21 524.798 593.568C577.297 640.926 653.293 683.598 747.243 719.444C935.141 791.136 1194.75 835.488 1481.54 835.488C1768.32 835.488 2027.93 791.136 2215.83 719.444C2309.78 683.598 2385.78 640.926 2438.28 593.568C2490.78 546.21 2519.74 494.206 2519.74 439.677Z" stroke="white"/>
<path opacity="0.6" d="M2273.03 439.68C2273.03 394.981 2249.34 352.341 2206.37 313.5C2163.39 274.66 2101.18 239.659 2024.27 210.254C1870.44 151.446 1657.89 115.062 1423.1 115.062C1188.3 115.062 975.756 151.446 821.928 210.254C745.012 239.659 682.802 274.66 639.829 313.5C596.857 352.341 573.163 394.981 573.163 439.68C573.163 484.378 596.857 527.018 639.829 565.859C682.802 604.7 745.012 639.701 821.928 669.105C975.756 727.913 1188.3 764.297 1423.1 764.297C1657.89 764.297 1870.44 727.913 2024.27 669.105C2101.18 639.701 2163.39 604.7 2206.37 565.859C2249.34 527.018 2273.03 484.378 2273.03 439.68Z" stroke="white"/>
<path opacity="0.4" d="M1883.53 389.841C1883.53 361.857 1868.38 335.138 1840.84 310.776C1813.31 286.414 1773.44 264.452 1724.13 245.998C1625.52 209.091 1489.25 186.253 1338.71 186.253C1188.17 186.253 1051.9 209.091 953.288 245.998C903.979 264.452 864.111 286.414 836.578 310.776C809.045 335.138 793.893 361.857 793.893 389.841C793.893 417.825 809.045 444.545 836.578 468.907C864.111 493.269 903.979 515.231 953.288 533.685C1051.9 570.592 1188.17 593.43 1338.71 593.43C1489.25 593.43 1625.52 570.592 1724.13 533.685C1773.44 515.231 1813.31 493.269 1840.84 468.907C1868.38 444.545 1883.53 417.825 1883.53 389.841Z" stroke="white"/>
<path opacity="0.4" d="M1714.74 389.845C1714.74 370.378 1704.31 351.774 1685.32 334.794C1666.32 317.815 1638.81 302.501 1604.78 289.63C1536.71 263.889 1442.64 247.958 1338.71 247.958C1234.78 247.958 1140.71 263.889 1072.64 289.63C1038.6 302.501 1011.09 317.815 992.103 334.794C973.112 351.774 962.681 370.378 962.681 389.845C962.681 409.312 973.112 427.916 992.103 444.896C1011.09 461.876 1038.6 477.19 1072.64 490.061C1140.71 515.801 1234.78 531.732 1338.71 531.732C1442.64 531.732 1536.71 515.801 1604.78 490.061C1638.81 477.19 1666.32 461.876 1685.32 444.896C1704.31 427.916 1714.74 409.312 1714.74 389.845Z" stroke="white"/>
<path opacity="0.2" d="M2324.97 283.054C2324.97 216.074 2289.46 152.208 2225.14 94.0609C2160.81 35.9139 2067.7 -16.4735 1952.61 -60.4794C1722.42 -148.49 1404.38 -202.936 1053.06 -202.936C701.738 -202.936 383.699 -148.49 153.509 -60.4794C38.4121 -16.4735 -54.6963 35.9139 -119.022 94.0609C-183.347 152.208 -218.849 216.074 -218.849 283.054C-218.849 350.033 -183.347 413.899 -119.022 472.046C-54.6963 530.193 38.4121 582.581 153.509 626.586C383.699 714.597 701.738 769.043 1053.06 769.043C1404.38 769.043 1722.42 714.597 1952.61 626.586C2067.7 582.581 2160.81 530.193 2225.14 472.046C2289.46 413.899 2324.97 350.033 2324.97 283.054Z" stroke="white"/>
<path opacity="0.3" d="M2493.76 349.499C2493.76 282.519 2458.26 218.653 2393.93 160.506C2329.61 102.359 2236.5 49.9718 2121.4 5.96594C1891.21 -82.0445 1573.17 -136.491 1221.85 -136.491C870.531 -136.491 552.493 -82.0445 322.302 5.96594C207.206 49.9718 114.097 102.359 49.7717 160.506C-14.5538 218.653 -50.0557 282.519 -50.0557 349.499C-50.0557 416.479 -14.5538 480.345 49.7717 538.492C114.097 596.638 207.206 649.026 322.302 693.032C552.493 781.042 870.531 835.488 1221.85 835.488C1573.17 835.488 1891.21 781.042 2121.4 693.032C2236.5 649.026 2329.61 596.638 2393.93 538.492C2458.26 480.345 2493.76 416.479 2493.76 349.499Z" stroke="white"/>
<path opacity="0.21" d="M2376.9 233.218C2376.9 160.013 2338.13 90.2158 2267.89 26.6746C2197.65 -36.8667 2095.99 -94.1121 1970.32 -142.198C1718.98 -238.368 1371.73 -297.86 988.142 -297.86C604.554 -297.86 257.302 -238.368 5.96521 -142.198C-119.705 -94.1121 -221.37 -36.8667 -291.608 26.6746C-361.847 90.2158 -400.619 160.013 -400.619 233.218C-400.619 306.424 -361.847 376.221 -291.608 439.762C-221.37 503.303 -119.705 560.548 5.96521 608.634C257.302 704.804 604.554 764.297 988.142 764.297C1371.73 764.297 1718.98 704.804 1970.32 608.634C2095.99 560.548 2197.65 503.303 2267.89 439.762C2338.13 376.221 2376.9 306.424 2376.9 233.218Z" stroke="white"/>
</g>
<defs>
<clipPath id="clip0_315_9330">
<rect width="1326" height="349" fill="white" transform="matrix(1 0 0 -1 0 349.652)"/>
</clipPath>
</defs>
</svg>
