<svg width="776" height="173" viewBox="0 0 776 173" fill="none" xmlns="http://www.w3.org/2000/svg">
<g clip-path="url(#clip0_212_2634)">
<path d="M-550.66 262.873C-550.66 236.969 -533.802 212.199 -503.094 189.59C-472.397 166.987 -427.945 146.612 -372.971 129.491C-263.029 95.2524 -111.115 74.0676 56.7065 74.0676C224.528 74.0676 376.442 95.2524 486.385 129.491C541.359 146.612 585.81 166.987 616.508 189.59C647.215 212.199 664.073 236.969 664.073 262.873C664.073 288.777 647.215 313.547 616.508 336.157C585.81 358.759 541.359 379.135 486.385 396.255C376.442 430.494 224.528 451.679 56.7065 451.679C-111.115 451.679 -263.029 430.494 -372.971 396.255C-427.945 379.135 -472.397 358.759 -503.094 336.157C-533.802 313.547 -550.66 288.777 -550.66 262.873Z" stroke="#F5F5F5"/>
<path d="M-520.266 243.943C-520.266 218.039 -503.407 193.269 -472.7 170.659C-442.003 148.057 -397.551 127.681 -342.577 110.561C-232.635 76.3223 -80.7206 55.1374 87.1011 55.1374C254.923 55.1374 406.837 76.3223 516.779 110.561C571.753 127.681 616.205 148.057 646.902 170.659C677.61 193.269 694.468 218.039 694.468 243.943C694.468 269.847 677.61 294.617 646.902 317.227C616.205 339.829 571.753 360.204 516.779 377.325C406.837 411.564 254.923 432.749 87.1011 432.749C-80.7206 432.749 -232.635 411.564 -342.577 377.325C-397.551 360.204 -442.003 339.829 -472.7 317.227C-503.407 294.617 -520.266 269.847 -520.266 243.943Z" stroke="#F5F5F5"/>
<path d="M-573.447 255.774C-573.447 225.614 -554.558 196.797 -520.201 170.511C-485.851 144.23 -436.115 120.541 -374.61 100.638C-251.607 60.834 -81.6489 36.2063 106.104 36.2063C293.858 36.2063 463.816 60.834 586.819 100.638C648.323 120.541 698.06 144.23 732.41 170.511C766.767 196.797 785.655 225.614 785.655 255.774C785.655 285.934 766.767 314.751 732.41 341.037C698.06 367.318 648.323 391.007 586.819 410.91C463.816 450.714 293.858 475.342 106.104 475.342C-81.6489 475.342 -251.607 450.714 -374.61 410.91C-436.115 391.007 -485.851 367.318 -520.201 341.037C-554.558 314.751 -573.447 285.934 -573.447 255.774Z" stroke="#F5F5F5"/>
<path d="M-596.242 282.987C-596.242 255.93 -579.373 230.07 -548.668 206.473C-517.971 182.882 -473.52 161.616 -418.548 143.747C-308.608 108.011 -156.695 85.8993 11.1245 85.8993C178.945 85.8993 330.857 108.011 440.797 143.747C495.769 161.616 540.22 182.882 570.917 206.473C601.622 230.07 618.491 255.93 618.491 282.987C618.491 310.044 601.622 335.904 570.917 359.501C540.22 383.092 495.769 404.358 440.797 422.227C330.857 457.963 178.945 480.075 11.1245 480.075C-156.695 480.075 -308.608 457.963 -418.548 422.227C-473.52 404.358 -517.971 383.092 -548.668 359.501C-579.373 335.904 -596.242 310.044 -596.242 282.987Z" stroke="#F5F5F5"/>
<path d="M-634.242 299.55C-634.242 272.494 -617.373 246.633 -586.668 223.037C-555.971 199.446 -511.52 178.179 -456.548 160.31C-346.608 124.574 -194.695 102.463 -26.8755 102.463C140.945 102.463 292.857 124.574 402.797 160.31C457.769 178.179 502.22 199.446 532.917 223.037C563.622 246.633 580.491 272.494 580.491 299.55C580.491 326.607 563.622 352.468 532.917 376.064C502.22 399.655 457.769 420.922 402.797 438.791C292.857 474.527 140.945 496.638 -26.8755 496.638C-194.695 496.638 -346.608 474.527 -456.548 438.791C-511.52 420.922 -555.971 399.655 -586.668 376.064C-617.373 352.468 -634.242 326.607 -634.242 299.55Z" stroke="#F5F5F5"/>
<path d="M-489.867 299.551C-489.867 277.395 -476.08 256.203 -450.951 236.853C-425.829 217.509 -389.446 200.067 -344.442 185.41C-254.44 156.097 -130.072 137.958 7.32382 137.958C144.72 137.958 269.088 156.097 359.09 185.41C404.093 200.067 440.477 217.509 465.599 236.853C490.728 256.203 504.515 277.395 504.515 299.551C504.515 321.708 490.728 342.899 465.599 362.249C440.477 381.593 404.093 399.035 359.09 413.693C269.088 443.005 144.72 461.144 7.32382 461.144C-130.072 461.144 -254.44 443.005 -344.442 413.693C-389.446 399.035 -425.829 381.593 -450.951 362.249C-476.08 342.899 -489.867 321.708 -489.867 299.551Z" stroke="#F5F5F5"/>
<path d="M-261.921 274.704C-261.921 260.884 -253.136 247.63 -237.041 235.497C-220.955 223.371 -197.646 212.429 -168.798 203.231C-111.108 184.837 -31.3795 173.453 56.7089 173.453C144.797 173.453 224.526 184.837 282.216 203.231C311.064 212.429 334.373 223.371 350.459 235.497C366.554 247.63 375.339 260.884 375.339 274.704C375.339 288.525 366.554 301.779 350.459 313.911C334.373 326.038 311.064 336.979 282.216 346.177C224.526 364.571 144.797 375.956 56.7089 375.956C-31.3795 375.956 -111.108 364.571 -168.798 346.177C-197.646 336.979 -220.955 326.038 -237.041 313.911C-253.136 301.779 -261.921 288.525 -261.921 274.704Z" stroke="#F5F5F5"/>
<path d="M-520.259 221.463C-520.259 188.198 -499.561 156.423 -461.936 127.448C-424.318 98.4783 -369.853 72.3678 -302.505 50.4308C-167.814 6.55859 18.2902 -20.5852 223.878 -20.5852C429.466 -20.5852 615.57 6.55859 750.261 50.4308C817.609 72.3678 872.074 98.4783 909.692 127.448C947.317 156.423 968.015 188.198 968.015 221.463C968.015 254.727 947.317 286.502 909.692 315.477C872.074 344.447 817.609 370.557 750.261 392.494C615.57 436.366 429.466 463.51 223.878 463.51C18.2902 463.51 -167.814 436.366 -302.505 392.494C-369.853 370.557 -424.318 344.447 -461.936 315.477C-499.561 286.502 -520.259 254.727 -520.259 221.463Z" stroke="#F5F5F5"/>
<path d="M-619.04 254.59C-619.04 221.326 -598.343 189.551 -560.718 160.576C-523.099 131.606 -468.634 105.496 -401.286 83.5587C-266.596 39.6865 -80.4911 12.5427 125.097 12.5427C330.685 12.5427 516.789 39.6865 651.48 83.5587C718.827 105.496 773.293 131.606 810.911 160.576C848.536 189.551 869.233 221.326 869.233 254.59C869.233 287.855 848.536 319.63 810.911 348.605C773.293 377.575 718.827 403.685 651.48 425.622C516.789 469.494 330.685 496.638 125.097 496.638C-80.4911 496.638 -266.596 469.494 -401.286 425.622C-468.634 403.685 -523.099 377.575 -560.718 348.605C-598.343 319.63 -619.04 287.855 -619.04 254.59Z" stroke="#F5F5F5"/>
<path d="M-550.654 196.616C-550.654 160.247 -528.043 125.516 -486.957 93.8515C-445.879 62.1923 -386.406 33.6598 -312.87 9.68872C-165.804 -38.2516 37.3962 -67.9115 261.868 -67.9115C486.34 -67.9115 689.541 -38.2516 836.606 9.68872C910.142 33.6598 969.615 62.1923 1010.69 93.8515C1051.78 125.516 1074.39 160.247 1074.39 196.616C1074.39 232.985 1051.78 267.716 1010.69 299.381C969.615 331.04 910.142 359.573 836.606 383.544C689.541 431.484 486.34 461.144 261.868 461.144C37.3962 461.144 -165.804 431.484 -312.87 383.544C-386.406 359.573 -445.879 331.04 -486.957 299.381C-528.043 267.716 -550.654 232.985 -550.654 196.616Z" stroke="#F5F5F5"/>
</g>
<defs>
<clipPath id="clip0_212_2634">
<rect width="776" height="174" fill="white" transform="matrix(1 0 0 -1 0 174.667)"/>
</clipPath>
</defs>
</svg>
