<svg width="1600" height="560" viewBox="0 0 1600 560" fill="none" xmlns="http://www.w3.org/2000/svg">
<g clip-path="url(#clip0_959_16475)">
<path d="M2868.18 -26.4116C2868.18 141.532 2728.13 293.719 2501.37 403.95C2274.64 514.165 1961.39 582.348 1615.35 582.348C1269.31 582.348 956.052 514.165 729.325 403.95C502.564 293.719 362.514 141.532 362.514 -26.4116C362.514 -194.355 502.564 -346.542 729.325 -456.773C956.052 -566.988 1269.31 -635.171 1615.35 -635.171C1961.39 -635.171 2274.64 -566.988 2501.37 -456.773C2728.13 -346.542 2868.18 -194.355 2868.18 -26.4116Z" stroke="#F5F5F5"/>
<path d="M2805.51 34.5142C2805.51 202.458 2665.45 354.645 2438.69 464.876C2211.97 575.09 1898.71 643.274 1552.67 643.274C1206.63 643.274 893.377 575.09 666.65 464.876C439.889 354.645 299.838 202.458 299.838 34.5142C299.838 -133.429 439.889 -285.616 666.65 -395.848C893.377 -506.062 1206.63 -574.245 1552.67 -574.245C1898.71 -574.245 2211.97 -506.062 2438.69 -395.848C2665.45 -285.616 2805.51 -133.429 2805.51 34.5142Z" stroke="#F5F5F5"/>
<path d="M2915.16 -3.56506C2915.16 191.728 2758.44 368.664 2504.75 496.807C2251.09 624.935 1900.63 704.199 1513.49 704.199C1126.36 704.199 775.896 624.935 522.238 496.807C268.55 368.664 111.827 191.728 111.827 -3.56506C111.827 -198.858 268.55 -375.794 522.238 -503.937C775.896 -632.065 1126.36 -711.329 1513.49 -711.329C1900.63 -711.329 2251.09 -632.065 2504.75 -503.937C2758.44 -375.794 2915.16 -198.858 2915.16 -3.56506Z" stroke="#F5F5F5"/>
<path d="M2962.17 -91.1462C2962.17 84.1691 2822.1 243.018 2595.35 358.067C2368.62 473.103 2055.37 544.268 1709.33 544.268C1363.3 544.268 1050.04 473.103 823.319 358.067C596.566 243.018 456.5 84.1691 456.5 -91.1462C456.5 -266.462 596.566 -425.31 823.319 -540.36C1050.04 -655.395 1363.3 -726.561 1709.33 -726.561C2055.37 -726.561 2368.62 -655.395 2595.35 -540.36C2822.1 -425.31 2962.17 -266.462 2962.17 -91.1462Z" stroke="#F5F5F5"/>
<path d="M3040.51 -144.456C3040.51 30.8595 2900.44 189.708 2673.69 304.758C2446.97 419.793 2133.71 490.958 1787.68 490.958C1441.64 490.958 1128.39 419.793 901.663 304.758C674.91 189.708 534.844 30.8595 534.844 -144.456C534.844 -319.771 674.91 -478.62 901.663 -593.669C1128.39 -708.705 1441.64 -779.87 1787.68 -779.87C2133.71 -779.87 2446.97 -708.705 2673.69 -593.669C2900.44 -478.62 3040.51 -319.771 3040.51 -144.456Z" stroke="#F5F5F5"/>
<path d="M2742.83 -144.457C2742.83 -0.686218 2628.19 129.603 2442.54 223.98C2256.93 318.342 2000.47 376.722 1717.16 376.722C1433.85 376.722 1177.39 318.342 991.777 223.98C806.134 129.603 691.493 -0.686218 691.493 -144.457C691.493 -288.227 806.134 -418.516 991.777 -512.893C1177.39 -607.256 1433.85 -665.635 1717.16 -665.635C2000.47 -665.635 2256.93 -607.256 2442.54 -512.893C2628.19 -418.516 2742.83 -288.227 2742.83 -144.457Z" stroke="#F5F5F5"/>
<path d="M2272.84 -64.491C2272.84 25.6466 2199.41 107.387 2080.39 166.622C1961.4 225.843 1796.98 262.486 1615.34 262.486C1433.69 262.486 1269.27 225.843 1150.28 166.622C1031.26 107.387 957.835 25.6466 957.835 -64.491C957.835 -154.629 1031.26 -236.369 1150.28 -295.604C1269.27 -354.825 1433.69 -391.468 1615.34 -391.468C1796.98 -391.468 1961.4 -354.825 2080.39 -295.604C2199.41 -236.369 2272.84 -154.629 2272.84 -64.491Z" stroke="#F5F5F5"/>
<path d="M2069.17 -64.4906C2069.17 -1.68967 2018.54 55.2989 1936.37 96.6169C1854.24 137.92 1740.74 163.482 1615.34 163.482C1489.94 163.482 1376.43 137.92 1294.3 96.6169C1212.13 55.2989 1161.5 -1.68967 1161.5 -64.4906C1161.5 -127.292 1212.13 -184.28 1294.3 -225.598C1376.43 -266.902 1489.94 -292.463 1615.34 -292.463C1740.74 -292.463 1854.24 -266.902 1936.37 -225.598C2018.54 -184.28 2069.17 -127.292 2069.17 -64.4906Z" stroke="#F5F5F5"/>
<path d="M2805.5 106.864C2805.5 322.137 2633.86 517.16 2356.08 658.395C2078.32 799.616 1694.57 886.977 1270.66 886.977C846.754 886.977 463.001 799.616 185.244 658.395C-92.5401 517.16 -264.171 322.137 -264.171 106.864C-264.171 -108.41 -92.5401 -303.433 185.244 -444.668C463.001 -585.889 846.754 -673.25 1270.66 -673.25C1694.57 -673.25 2078.32 -585.889 2356.08 -444.668C2633.86 -303.433 2805.5 -108.41 2805.5 106.864Z" stroke="#F5F5F5"/>
<path d="M3009.16 0.243469C3009.16 215.517 2837.53 410.54 2559.75 551.775C2281.99 692.996 1898.24 780.357 1474.33 780.357C1050.42 780.357 666.669 692.996 388.912 551.775C111.128 410.54 -60.5029 215.517 -60.5029 0.243469C-60.5029 -215.03 111.128 -410.053 388.912 -551.288C666.669 -692.509 1050.42 -779.87 1474.33 -779.87C1898.24 -779.87 2281.99 -692.509 2559.75 -551.288C2837.53 -410.053 3009.16 -215.03 3009.16 0.243469Z" stroke="#F5F5F5"/>
<path d="M2868.16 186.828C2868.16 422.081 2680.75 635.191 2377.45 789.519C2074.17 943.832 1655.17 1039.29 1192.33 1039.29C729.482 1039.29 310.479 943.832 7.20654 789.519C-296.094 635.191 -483.507 422.081 -483.507 186.828C-483.507 -48.4241 -296.094 -261.535 7.20654 -415.862C310.479 -570.175 729.482 -665.635 1192.33 -665.635C1655.17 -665.635 2074.17 -570.175 2377.45 -415.862C2680.75 -261.535 2868.16 -48.4241 2868.16 186.828Z" stroke="#F5F5F5"/>
</g>
<defs>
<clipPath id="clip0_959_16475">
<rect width="1600" height="560" fill="white"/>
</clipPath>
</defs>
</svg>
