<svg width="101" height="96" viewBox="0 0 101 96" fill="none" xmlns="http://www.w3.org/2000/svg">
    <g clip-path="url(#clip0_1270_38943)">
        <path d="M87.7837 29.9634C86.0091 33.1425 83.6552 35.3804 79.7653 35.3882C84.9528 34.5046 87.3906 31.1582 88.1114 26.149C88.8742 31.0928 91.2202 34.4784 96.5257 35.2288C95.2806 35.6993 93.4981 35.1817 91.8074 33.9869C90.3998 32.9856 89.5033 31.5686 88.4757 29.8301C88.1324 32.7399 88.7379 35.0588 90.2818 37.1137C91.8257 39.1686 93.9516 40.2196 96.835 40.5516C94.1482 41.2183 91.9935 39.7935 88.5701 35.4536C87.3539 39.8824 90.5439 44.1307 96.4129 45.9111C94.1456 46.5621 91.8624 45.0536 88.4522 40.5725C88.1533 43.2784 88.7326 45.5869 90.2582 47.6654C91.7838 49.7438 93.8677 50.8026 96.3317 51.2523C92.5754 51.2366 90.2687 49.0797 88.6435 45.9111C88.1927 46.3294 88.3683 46.7869 88.3683 47.1843C88.3683 55.5948 88.3683 64.0052 88.3421 72.4131C88.3579 73.2802 88.6137 74.1262 89.0813 74.8575C92.8978 81.4562 96.7065 88.0601 100.507 94.6693C101.268 95.9765 101.262 95.9921 99.721 95.9921H17.2743C11.8588 95.9921 6.44323 95.9712 1.02245 96.0104C-0.0968321 96.0104 -0.254101 95.8144 0.325199 94.8183C4.81543 87.1006 9.2375 79.349 13.7356 71.6287C14.3213 70.6662 14.6263 69.5599 14.6163 68.434C14.5796 58.3268 14.5954 48.217 14.5954 38.1072V36.6797C13.5469 38.0575 12.6216 39.485 11.2271 40.502C9.83254 41.519 8.27025 42.1412 6.44847 41.9895C9.44982 41.4667 11.8247 40.0627 13.3267 37.3752C14.4179 35.4764 14.81 33.2571 14.4355 31.1007C13.5102 32.7895 12.577 34.2379 11.1484 35.2627C9.71981 36.2876 8.23618 36.8314 6.45634 36.6614C9.64118 36.1699 12.0423 34.5987 13.5102 31.7307C14.4643 29.8946 14.8033 27.8018 14.4774 25.7595C12.6425 29.1346 10.3568 31.4458 6.45897 31.3935C12.3306 30.2562 14.6137 26.4523 14.4433 20.7948C13.5285 22.2614 12.5482 23.6706 11.1248 24.685C9.74341 25.6732 8.24142 26.2719 6.46158 26.0863C11.7434 25.2026 14.1157 21.7673 14.8208 16.7425C15.5023 21.7281 17.851 25.1373 23.2298 25.9634C20.7999 26.685 18.197 24.9359 15.3188 20.834C13.712 24.8052 17.429 29.8301 23.028 31.2523C21.8589 31.6627 20.0895 31.1399 18.4434 29.9451C17.0515 28.9307 16.1393 27.5242 15.1616 25.7176C14.826 28.6824 15.4237 30.9935 16.9545 33.0745C18.4853 35.1556 20.5745 36.2118 23.5077 36.5359C21.6938 36.915 20.0764 36.4078 18.446 35.2288C17.041 34.217 16.1472 32.7948 15.2821 31.1895C14.1917 36.0261 17.0436 39.8641 23.049 42.0235C21.9637 42.1569 20.9519 41.8614 19.9559 41.4118C18.9212 40.9382 17.9911 40.2647 17.2193 39.4301C16.4565 38.617 15.9375 37.6235 15.1511 36.7582V68.6039C15.7015 68.5647 15.7697 68.0601 15.9611 67.7307C20.7982 59.3647 25.63 50.9882 30.4567 42.6013C30.79 42.0424 30.964 41.4033 30.9599 40.7529C30.9599 33.6497 31.0045 26.5464 30.9023 19.4457C30.8839 18.1542 30.973 16.8 30.4907 15.4954C30.205 14.7268 30.3282 13.9085 31.5785 14.0418C32.3171 14.1255 33.0628 14.1255 33.8014 14.0418C35.0177 13.8902 35.112 14.5935 34.9652 15.4588C33.9167 21.9216 34.7503 28.4183 34.4043 34.8941L34.808 35.0353L50.4726 7.86405L73.9408 48.5569L74.203 48.481V19.4405C72.4126 22.9882 70.0089 25.2497 66.077 25.3098C72.0378 24.1386 74.2999 20.2222 74.1636 14.502C73.2567 15.9608 72.3288 17.4091 70.9369 18.4418C69.545 19.4745 67.9617 20.1072 66.1164 19.9608C72.1453 18.8235 74.2868 14.8235 74.2056 9.15817C73.2409 10.5778 72.3995 12.0941 70.9657 13.1216C69.5319 14.149 68.0115 14.8497 66.1635 14.6091C68.7612 14.1935 70.9133 13.0641 72.4546 10.9046C73.9618 8.8 74.3655 6.42876 74.1532 3.84575C72.8687 6.28497 71.1675 8.24837 68.4965 9.13203C67.7494 9.38039 66.963 9.66797 66.1032 9.30719C68.4073 8.93072 70.4074 8.03398 71.9434 6.25882C73.4795 4.48366 74.1427 2.3634 74.4389 0C75.1676 5.01699 77.5477 8.44706 82.9685 9.23138C80.5543 9.96863 78.1532 8.39477 74.8425 4.00261C74.6553 5.23935 74.7179 6.50095 75.0267 7.71319C75.3355 8.92543 75.8843 10.0638 76.6407 11.0614C78.1611 13.1268 80.2659 14.183 82.764 14.6039C80.9894 14.8497 79.511 14.1804 78.1191 13.2052C76.7272 12.2301 75.8727 10.8523 74.9867 9.34641C73.7573 13.9425 76.8714 18.0392 82.785 19.8327C80.7666 20.617 78.2921 19.0274 74.8425 14.6248C74.6582 15.8626 74.7238 17.1246 75.0353 18.3368C75.3468 19.549 75.8979 20.6869 76.6565 21.6837C78.182 23.7595 80.3262 24.7712 83.1205 25.1163C80.5543 25.8222 78.1217 24.2222 74.9421 20.0157C74.5804 20.3817 74.7456 20.8366 74.7456 21.2366C74.7456 30.3869 74.7456 39.5373 74.722 48.6876C74.7157 49.5113 74.937 50.3209 75.3616 51.0275C79.2148 57.7028 83.0637 64.3826 86.9082 71.0667C87.1179 71.4301 87.2411 71.8771 87.81 72.1725V45.5843C85.9987 48.9569 83.7129 51.3098 79.8098 51.2837C85.7208 50.1098 87.9174 46.1882 87.7864 40.515C86.9187 42 85.9777 43.417 84.5832 44.4366C83.1887 45.4562 81.6002 46.1778 79.7181 45.932C82.3263 45.5503 84.4678 44.4026 86.0275 42.2876C87.5871 40.1726 88.0039 37.817 87.7995 35.1869C86.0511 38.4497 83.6238 40.6431 79.7522 40.6771C82.3001 40.2039 84.4705 39.1085 86.0432 36.9621C87.5557 34.8915 88.0301 32.549 87.7837 29.9634ZM50.4517 13.451C50.7846 13.9739 50.9759 14.2641 51.1542 14.5647C63.9407 36.7538 76.7255 58.942 89.5085 81.1294C92.0747 85.5739 94.6672 90.0183 97.1888 94.4967C97.7681 95.5294 98.7197 95.5425 99.4143 95.2026C100.201 94.8104 99.3383 94.1699 99.0945 93.7438C83.152 66.0383 67.1954 38.3399 51.2249 10.6484C50.4805 9.35686 50.4648 9.35425 49.7387 10.617C33.7315 38.3834 17.7295 66.156 1.73282 93.9346C1.52312 94.3006 0.786542 94.8418 1.48904 95.2026C2.03426 95.4823 2.87307 95.5634 3.43402 94.9412C3.64701 94.6656 3.82898 94.3675 3.97662 94.0523L12.1288 79.9111L46.4464 20.3843C47.7465 18.1307 49.0493 15.8797 50.4517 13.451ZM50.3599 58.8471H74.4756C76.1165 58.8471 76.127 58.8471 75.3222 57.4405C67.2837 43.478 59.2347 29.5163 51.1751 15.5556C50.4831 14.3582 50.4648 14.3582 49.757 15.5895C41.7045 29.5468 33.6555 43.5076 25.6099 57.4719C24.8236 58.8314 24.8367 58.8471 26.3806 58.8471H50.3599ZM69.1439 82.0758C69.1439 78.0706 69.1256 74.068 69.1596 70.0497C69.1596 69.2026 69.0155 68.8052 68.0351 68.8209C64.6275 68.8784 61.2198 68.868 57.8122 68.8209C56.9419 68.8209 56.6981 69.1137 56.7008 69.9503C56.7235 78.0061 56.7235 86.0601 56.7008 94.1124C56.7008 95.0353 57.0232 95.3203 57.917 95.3124C61.2356 95.2758 64.5515 95.2601 67.8779 95.3124C68.9578 95.3307 69.1885 94.9098 69.1649 93.9346C69.1177 90 69.1465 86.0392 69.1439 82.0758ZM37.0465 68.8575C34.9993 68.8575 32.9495 68.8915 30.8996 68.8392C30.0373 68.8183 29.665 69.0092 29.6834 69.9739C29.7384 73.0144 29.7253 76.0601 29.6834 79.1033C29.6834 79.919 29.8721 80.2484 30.7633 80.2379C34.9574 80.1996 39.1427 80.1996 43.3192 80.2379C44.1895 80.2379 44.4516 79.9372 44.4437 79.1059C44.4123 76.061 44.4123 73.017 44.4437 69.9739C44.4437 69.1425 44.1816 68.8183 43.3192 68.8392C41.2327 68.8915 39.1409 68.8575 37.0465 68.8575ZM50.491 67.3882H79.1624C79.511 67.3882 79.8597 67.3882 80.2109 67.3882C80.6487 67.3882 80.84 67.268 80.6801 66.7608C80.2528 65.4222 79.5582 64.8784 78.1453 64.8784H22.7632C22.5011 64.8784 22.239 64.8784 21.9768 64.8784C21.4054 64.9281 20.0083 66.5438 20.2154 67.0301C20.5325 67.7778 21.2875 67.3621 21.8196 67.3647C31.3767 67.3961 40.9339 67.4039 50.491 67.3882ZM50.4726 64.5359C59.4181 64.5359 68.3654 64.5298 77.3144 64.5176C77.9147 64.5176 78.8714 64.915 79.0549 64.2327C79.2227 63.6078 78.5307 62.9098 78.0798 62.3242C77.7102 61.8301 77.0995 62.0627 76.6014 62.0627C59.1892 62.0523 41.7744 62.0523 24.357 62.0627C24.095 62.0497 23.8325 62.0497 23.5706 62.0627C22.3412 62.1935 22.0529 63.3516 21.9297 64.1307C21.8143 64.8654 22.8628 64.5098 23.3661 64.5098C32.399 64.5438 41.4345 64.5359 50.4726 64.5359ZM30.3597 92.7085C38.1745 92.7085 45.9877 92.7085 53.799 92.7085C54.6745 92.7085 55.2564 92.6667 55.2722 91.485C55.2905 90.2353 54.7479 90.0784 53.6994 90.081C38.5083 90.1037 23.3189 90.1098 8.13132 90.0993C7.86921 90.0804 7.60588 90.0865 7.34494 90.1176C6.19421 90.3399 5.79053 91.4405 5.725 92.2327C5.65423 93.0771 6.74992 92.6745 7.29776 92.6771C14.9964 92.7085 22.6872 92.7085 30.3597 92.7085ZM50.3363 61.7281C58.803 61.7281 67.2688 61.7229 75.7338 61.7124C76.3026 61.7124 77.2043 62.0497 77.3825 61.451C77.5818 60.7791 76.9029 60.1046 76.4441 59.5477C76.0405 59.0562 75.3773 59.2732 74.8268 59.2732C58.5942 59.2732 42.3616 59.2732 26.1289 59.2732C25.8231 59.2627 25.5168 59.268 25.2115 59.2889C24.6322 59.3464 23.3163 60.8209 23.4972 61.3359C23.775 62.1203 24.5457 61.7229 25.07 61.7255C33.4921 61.7307 41.9142 61.7229 50.3363 61.7229V61.7281ZM29.6283 95.3229C37.7018 95.3229 45.7762 95.3229 53.8515 95.3229C54.685 95.3229 55.2329 95.2654 55.2538 94.1647C55.2748 93.017 54.7427 92.915 53.8252 92.9176C37.9823 92.9333 22.1385 92.9377 6.29383 92.9307C6.07684 92.9084 5.85811 92.9084 5.64112 92.9307C4.59261 93.1503 4.26758 94.1438 4.18369 94.8732C4.09719 95.6575 5.06183 95.2784 5.53628 95.281C13.5783 95.3229 21.6099 95.3229 29.6414 95.3229H29.6283ZM31.0753 89.8719C38.6699 89.8719 46.2646 89.8719 53.8593 89.8719C54.6667 89.8719 55.2748 89.8719 55.2722 88.7477C55.2722 87.7019 55.0101 87.3255 53.8829 87.3281C39.0885 87.3612 24.2932 87.3691 9.49701 87.3516C9.32238 87.3424 9.14738 87.3424 8.97275 87.3516C8.4485 87.4118 7.13787 88.8993 7.2899 89.4274C7.52844 90.2327 8.30172 89.8353 8.81548 89.8379C16.2284 89.8797 23.6466 89.8719 31.0753 89.8719ZM31.8616 87.0196H42.0846C46.0584 87.0196 50.0323 87.0196 54.0061 87.0196C54.7138 87.0196 55.225 87.0196 55.2669 86.034C55.3194 84.834 54.9419 84.5072 53.7361 84.5098C39.5813 84.5516 25.4334 84.5516 11.2926 84.5098C10.3306 84.5098 9.78272 84.7974 9.35022 85.6444C8.6451 87.0248 8.59529 87.0065 10.1209 87.0065L31.8616 87.0196ZM32.7974 84.2039C39.8277 84.2039 46.8579 84.1908 53.8908 84.2222C54.8764 84.2222 55.2433 83.9869 55.2696 82.915C55.301 81.6235 54.5985 81.6732 53.6968 81.6732C40.1151 81.6854 26.5335 81.6854 12.9518 81.6732C12.7343 81.6732 12.5141 81.6732 12.2965 81.6732C11.7329 81.7202 10.3122 83.302 10.501 83.8065C10.7919 84.5908 11.5495 84.1569 12.0894 84.1595C18.9965 84.217 25.8956 84.2065 32.7974 84.2039ZM83.1257 92.7006C86.8322 92.7006 90.5387 92.7006 94.2452 92.685C94.6226 92.685 95.3435 92.9804 95.2596 92.1333C95.1547 91.0876 94.0092 90.1046 92.9581 90.102C85.9803 90.102 79.0051 90.1019 72.0299 90.0863C71.0601 90.0863 70.6144 90.3059 70.6197 91.3934C70.6249 92.481 71.0102 92.732 72.009 92.7216C75.7259 92.6771 79.4324 92.7085 83.1362 92.7085L83.1257 92.7006ZM83.8938 95.315H84.5491C88.2975 95.315 92.0485 95.315 95.7996 95.2993C96.1587 95.2993 96.7721 95.5608 96.8035 94.8575C96.8428 94.0732 95.603 92.9333 94.7432 92.9307C87.1546 92.9307 79.5661 92.9307 71.9801 92.915C71.0836 92.915 70.6171 93.0667 70.6249 94.115C70.6328 95.1634 71.102 95.3333 71.9906 95.3255C75.9671 95.2993 79.9357 95.3229 83.9043 95.3229L83.8938 95.315ZM31.6834 40.4209C32.5222 38.8392 33.9141 37.5843 33.9587 35.9503C34.1107 30.3425 34.0189 24.7294 34.0163 19.1163C34.0163 18.7242 34.0163 18.366 33.4921 18.2248C32.0189 17.8379 31.3479 18.2954 31.3479 19.7935C31.3479 26.1882 31.3479 32.583 31.3479 38.9778C31.3505 39.3752 31.2142 39.8222 31.6834 40.4209ZM82.19 89.8719H85.8597C88.1717 89.8719 90.481 89.885 92.793 89.8562C93.1285 89.8562 93.7917 90.1438 93.6606 89.3333C93.5594 88.7885 93.2728 88.2951 92.8492 87.9364C92.4257 87.5778 91.8911 87.3759 91.3356 87.3647C84.882 87.3647 78.4284 87.3778 71.9749 87.349C71.0679 87.349 70.638 87.5373 70.6354 88.5647C70.6328 89.5922 70.9578 89.9163 71.9932 89.9006C75.3904 89.8327 78.7823 89.8719 82.19 89.8719ZM81.5346 87.017C84.764 87.017 87.9934 87.017 91.2333 86.9987C91.5112 86.9987 92.1246 87.3307 92.0669 86.583C91.9935 85.6601 90.8192 84.5464 89.9227 84.5438C83.8938 84.5438 77.8649 84.5595 71.8543 84.5255C70.9369 84.5255 70.638 84.8078 70.6459 85.715C70.6538 86.6222 70.7927 87.0614 71.8569 87.0405C75.0785 86.9778 78.3105 87.017 81.5399 87.017H81.5346ZM79.8465 81.4667C82.5543 81.4667 85.2595 81.4667 87.9725 81.4536C88.287 81.4536 88.8454 81.715 88.8427 81.0196C88.8427 80.2013 87.5609 78.8732 86.7457 78.8732C81.7653 78.8732 76.7849 78.8863 71.8045 78.8549C70.8425 78.8549 70.6328 79.2732 70.6328 80.1229C70.6328 80.9725 70.7875 81.5059 71.8438 81.485C74.5201 81.4222 77.1833 81.4667 79.8465 81.4667ZM80.6696 84.2118C83.6369 84.2118 86.6042 84.2118 89.5688 84.1987C89.8755 84.1987 90.4443 84.4601 90.4233 83.7725C90.3971 82.8392 89.1494 81.6993 88.1691 81.6993C82.7588 81.6993 77.3485 81.7176 71.9382 81.6784C70.9736 81.6784 70.6276 81.9582 70.6276 82.9386C70.6276 83.8719 70.8897 84.2457 71.8884 84.2327C74.8216 84.1673 77.7469 84.2039 80.6696 84.2039V84.2118ZM20.1184 81.4667C22.3465 81.4667 24.5745 81.4379 26.7974 81.4823C27.7567 81.5006 28.2312 81.2837 28.2181 80.1752C28.205 79.1294 27.8406 78.8314 26.8314 78.8418C22.8602 78.8837 18.8864 78.915 14.9152 78.8261C13.6307 78.7974 12.9256 79.234 12.3856 80.3555C11.961 81.2314 12.0554 81.4876 13.0462 81.4719C15.4027 81.4353 17.7619 81.4667 20.1184 81.4667ZM79.0444 78.6274C81.4875 78.6274 83.9305 78.6274 86.384 78.6274C86.6959 78.6274 87.2647 78.8758 87.2097 78.1647C87.1442 77.2706 85.9489 76.1281 85.0602 76.1281C80.6565 76.1281 76.2502 76.1464 71.8464 76.1072C70.9185 76.1072 70.6407 76.434 70.6433 77.3229C70.6459 78.2118 70.8084 78.6876 71.8622 78.6588C74.2554 78.5908 76.6565 78.6274 79.0444 78.6274ZM78.182 75.7751C80.3629 75.7751 82.5412 75.7751 84.7352 75.7751C85.0393 75.7751 85.4954 75.9634 85.5976 75.4562C85.7313 74.7974 84.3184 73.315 83.5582 73.315C79.6264 73.315 75.7102 73.3412 71.7862 73.2915C70.7822 73.2784 70.6485 73.7255 70.6485 74.549C70.6485 75.3725 70.7822 75.8379 71.7862 75.8065C73.9172 75.7281 76.0562 75.7751 78.1925 75.7751H78.182ZM20.8523 78.6301C22.8576 78.6301 24.8655 78.5778 26.8681 78.651C27.9166 78.685 28.2312 78.3451 28.2286 77.315C28.226 76.285 27.8013 76.0889 26.8917 76.0993C23.4474 76.1359 19.9978 76.1961 16.5587 76.0732C15.1825 76.0209 14.501 76.5333 13.9532 77.6758C13.5626 78.4941 13.7828 78.6457 14.5718 78.6353C16.6583 78.6144 18.7553 78.6274 20.8523 78.6301ZM77.4717 72.9621C79.3904 72.9621 81.3118 72.9621 83.2385 72.9621C83.5242 72.9621 83.9986 73.1216 83.9541 72.5229C83.8938 71.7019 82.7142 70.4654 81.9409 70.4654C78.5333 70.4523 75.1256 70.4837 71.7337 70.4444C70.8058 70.4444 70.6433 70.8758 70.659 71.6471C70.6747 72.4183 70.659 73.0222 71.7075 72.9882C73.6341 72.9203 75.5555 72.9621 77.4717 72.9621ZM76.7168 70.2248C78.3315 70.2248 79.9488 70.2248 81.5635 70.2248C81.8597 70.2248 82.321 70.3948 82.3656 69.8353C82.4206 69.1216 81.0707 67.647 80.3184 67.6418C77.4795 67.6287 74.6407 67.6654 71.8045 67.6209C70.8294 67.6078 70.6538 68.068 70.6459 68.902C70.6459 69.7961 70.8268 70.2928 71.87 70.251C73.4847 70.1699 75.1125 70.2248 76.7168 70.2248ZM21.6885 75.7778C23.4317 75.7778 25.1774 75.7281 26.9179 75.7961C27.8799 75.8327 28.2286 75.5346 28.2129 74.5542C28.2129 73.6131 27.9507 73.247 26.952 73.2784C23.9874 73.3386 21.0175 73.4091 18.0607 73.2549C16.619 73.1791 16.0554 73.864 15.5338 74.949C15.2088 75.6235 15.3975 75.7856 16.058 75.7804C17.9375 75.7647 19.8038 75.7752 21.6885 75.7778ZM22.4225 72.9621C23.948 72.9621 25.4762 72.9203 27.0018 72.9778C27.9298 73.0144 28.2102 72.6588 28.2076 71.7673C28.205 70.8758 28.0477 70.4 26.9913 70.4288C24.5483 70.4915 22.1027 70.5203 19.6649 70.4288C18.4801 70.3791 17.83 70.7948 17.3215 71.8144C16.8785 72.685 16.8523 73.0301 17.9742 72.9882C19.4552 72.9229 20.9388 72.9621 22.4251 72.9621H22.4225ZM50.5303 70.2248C51.7518 70.2248 52.9759 70.1882 54.2001 70.2248C55.1385 70.2614 55.2722 69.7542 55.2486 68.9961C55.2224 68.285 55.3403 67.5869 54.2394 67.6052C51.7929 67.6471 49.3464 67.6471 46.8999 67.6052C45.8671 67.5869 45.9405 68.2248 45.9536 68.8993C45.9667 69.5738 45.812 70.2536 46.8658 70.2196C48.0873 70.183 49.3088 70.2248 50.5303 70.2248ZM50.5303 81.4667C51.7518 81.4667 52.9733 81.4327 54.2001 81.4667C55.149 81.5033 55.2486 80.9752 55.2302 80.2274C55.2119 79.4797 55.301 78.8261 54.2106 78.847C51.7641 78.8889 49.3175 78.8889 46.871 78.847C45.8225 78.8314 45.9326 79.4876 45.9379 80.1542C45.9431 80.8209 45.8146 81.5033 46.8605 81.4614C48.0978 81.4222 49.3193 81.4667 50.5434 81.4667H50.5303ZM23.2691 70.2248C24.5352 70.2248 25.8039 70.183 27.0674 70.2248C28.0739 70.2667 28.1919 69.7203 28.1919 68.9176C28.1919 68.115 28.0844 67.5738 27.0726 67.6104C25.1967 67.705 23.317 67.6963 21.4421 67.5843C19.9768 67.4588 19.3058 68.136 18.7632 69.3046C18.4303 70.0183 18.5902 70.2379 19.3372 70.2274C20.6557 70.2013 21.9664 70.2248 23.277 70.2248H23.2691ZM50.5041 78.6353C51.7204 78.6353 52.9419 78.5908 54.1555 78.651C55.0651 78.6928 55.2748 78.2693 55.2302 77.4745C55.1935 76.7738 55.3403 76.0837 54.2237 76.1072C51.7911 76.1595 49.3569 76.1595 46.9208 76.1072C45.9169 76.0863 45.9379 76.6301 45.9379 77.3438C45.9379 78.0889 45.9012 78.7268 46.9864 78.651C48.1607 78.5699 49.3376 78.6274 50.512 78.6274L50.5041 78.6353ZM50.4726 72.9621C51.7335 72.9621 52.9969 72.9202 54.2551 72.9621C55.2591 73.0039 55.2381 72.3948 55.2329 71.702C55.2276 71.0091 55.2827 70.3948 54.2656 70.4235C51.7876 70.4688 49.3097 70.4688 46.8317 70.4235C45.7439 70.4078 45.9746 71.1399 45.9562 71.7542C45.9379 72.3686 45.8435 72.9961 46.8212 72.9569C48.0375 72.9203 49.2564 72.9595 50.4726 72.9621ZM50.5696 75.7725C51.8305 75.7725 53.0939 75.7359 54.3521 75.7725C55.3272 75.8091 55.2486 75.1765 55.2197 74.5673C55.1935 74.0131 55.4583 73.2784 54.4334 73.2863C51.8671 73.3046 49.2983 73.3098 46.7321 73.2863C45.6836 73.2863 45.9772 74.0131 45.9457 74.5542C45.9143 75.0954 45.757 75.817 46.7688 75.7778C48.048 75.7359 49.3088 75.7751 50.5722 75.7725H50.5696ZM70.1898 82.0836C70.1898 77.9974 70.1898 73.9085 70.1898 69.8222C70.1898 69.519 70.3602 69.0065 69.8753 68.9752C69.3903 68.9438 69.5502 69.4693 69.4978 69.7595C69.4807 69.9761 69.4807 70.1938 69.4978 70.4105C69.4978 78.1926 69.4978 85.9747 69.4978 93.7569C69.4978 94.0183 69.4978 94.2797 69.4978 94.5412C69.4978 94.8026 69.4978 95.1216 69.8281 95.1477C70.1584 95.1739 70.1715 94.8392 70.1872 94.5935C70.2082 94.2902 70.1872 93.9843 70.1872 93.681C70.1942 89.8187 70.1959 85.9529 70.1924 82.0836H70.1898ZM56.36 82.1307C56.36 78.0889 56.36 74.0444 56.3469 70.0026C56.3469 69.6366 56.609 68.9569 55.9432 68.9908C55.4688 69.0118 55.6601 69.6314 55.6601 69.9843C55.6479 78.0261 55.6479 86.0688 55.6601 94.1124C55.6601 94.4758 55.3797 95.1582 56.0481 95.1268C56.512 95.1111 56.3469 94.4889 56.3469 94.1307C56.3679 90.1307 56.3626 86.1307 56.3626 82.1307H56.36ZM45.4922 74.6013C45.4922 73.0327 45.4922 71.4771 45.4922 69.9137C45.4922 69.5555 45.6312 68.9856 45.1043 68.9542C44.5066 68.9203 44.698 69.5163 44.6954 69.8536C44.6779 72.9786 44.6779 76.1037 44.6954 79.2288C44.6954 79.5634 44.5066 80.1595 45.1095 80.1202C45.6338 80.0863 45.487 79.5163 45.4922 79.1582C45.4922 77.6392 45.4922 76.1203 45.4922 74.6013ZM37.1042 68.5176C39.5498 68.5176 41.9928 68.5176 44.4437 68.5176C44.7661 68.5176 45.2852 68.6379 45.3192 68.2013C45.369 67.5895 44.7792 67.7647 44.4411 67.7647C39.5079 67.749 34.5747 67.749 29.6414 67.7647C29.3243 67.7647 28.8079 67.6366 28.7712 68.0784C28.7188 68.6954 29.3112 68.5098 29.6441 68.515C32.1238 68.5255 34.6192 68.5176 37.1042 68.5176ZM37.1042 81.3281C39.5498 81.3281 41.9928 81.3281 44.4437 81.3281C44.7661 81.3281 45.2852 81.4484 45.3192 81.0118C45.369 80.4 44.7792 80.5752 44.4411 80.5752C39.5079 80.5595 34.5747 80.5595 29.6414 80.5752C29.3243 80.5752 28.8079 80.447 28.7712 80.8889C28.7188 81.5059 29.3112 81.3203 29.6441 81.3255C32.1238 81.3359 34.6192 81.3281 37.1042 81.3281ZM62.9184 68.5176C65.0154 68.5176 67.1124 68.5177 69.2094 68.5046C69.545 68.5046 70.1348 68.6876 70.085 68.0732C70.0509 67.6288 69.5345 67.7569 69.2147 67.7569C65.0207 67.7464 60.8319 67.7464 56.6483 67.7569C56.3128 67.7569 55.723 67.5765 55.7728 68.1909C55.8069 68.6353 56.3233 68.5046 56.6431 68.5072C58.7322 68.5229 60.8266 68.5176 62.921 68.5176H62.9184ZM28.6585 74.481C28.6585 76.1281 28.6585 77.7752 28.6585 79.4222C28.6585 79.6967 28.5615 80.0993 29.0045 80.115C29.3636 80.115 29.3426 79.7752 29.3452 79.5346C29.3452 76.1969 29.3452 72.8601 29.3452 69.5242C29.3452 69.281 29.361 68.9464 28.9887 68.9542C28.6165 68.9621 28.6637 69.302 28.6637 69.5425C28.6558 71.1895 28.6611 72.8392 28.6585 74.481ZM32.7476 15.4928C33.2955 15.1974 34.4305 15.9085 34.4121 14.9516C34.3938 14.0967 33.2745 14.5386 32.6664 14.5359C32.1212 14.5359 31.0726 14.1072 31.0936 15.0065C31.1251 15.8118 32.1657 15.2732 32.7476 15.4928ZM32.7634 17.0614C32.3597 17.2314 31.5785 16.766 31.5445 17.485C31.5209 17.9582 32.2522 17.7987 32.6375 17.7673C33.0805 17.7333 33.8512 18.0863 33.8774 17.3699C33.8958 16.8915 33.1723 17.1922 32.7634 17.0719V17.0614ZM32.6795 15.9556C32.2758 16.0654 31.5681 15.7778 31.5654 16.2641C31.5654 16.9098 32.2942 16.6353 32.6978 16.6353C33.1015 16.6353 33.8643 16.8967 33.8486 16.2928C33.8328 15.6889 33.0727 16.1072 32.6795 15.966V15.9556Z" fill="#9C9C9C"/>
        <path d="M50.1466 19.3438V20.7424C50.1466 29.0614 50.1257 37.3803 50.1728 45.6967C50.1728 46.8444 49.9369 47.2653 48.6866 47.2522C44.1911 47.179 39.693 47.2104 35.1949 47.2339C34.3194 47.2339 33.976 47.1424 34.5239 46.1882C39.5917 37.4631 44.6455 28.7189 49.6853 19.9555C49.7561 19.8222 49.8662 19.7071 50.1466 19.3438ZM49.4625 21.5372C49.337 21.6351 49.2227 21.7464 49.1217 21.8692C44.5083 29.8536 39.8957 37.8387 35.284 45.8248C34.6995 46.8339 35.3522 46.7607 36.0154 46.7581C40.0731 46.7581 44.1413 46.7058 48.1859 46.7869C49.4337 46.813 49.7089 46.3921 49.701 45.2339C49.6565 37.749 49.68 30.264 49.6748 22.7817C49.6853 22.4052 49.7849 22.0052 49.4625 21.5372Z" fill="#9C9C9C"/>
        <path d="M51.0565 19.5664L66.986 47.2187H62.2939C58.8443 47.2187 55.3947 47.2187 51.9451 47.2187C51.2951 47.2187 50.776 47.237 50.7813 46.2932C50.8101 37.4043 50.797 28.5311 50.797 19.6501L51.0565 19.5664ZM51.4025 21.5481C51.3449 21.6995 51.3027 21.8562 51.2767 22.0161C51.2767 29.935 51.2767 37.8566 51.2531 45.7756C51.2531 46.7586 51.7957 46.7664 52.5139 46.7638C56.5717 46.7507 60.6399 46.7638 64.6845 46.7638C66.1603 46.7638 66.1707 46.7481 65.4447 45.4854C61.0549 37.8653 56.6669 30.2514 52.2807 22.6435C52.071 22.2749 51.9478 21.8278 51.4025 21.5481Z" fill="#9C9C9C"/>
        <path d="M42.0081 48.5646C44.32 48.5646 46.6346 48.6142 48.9439 48.541C49.9505 48.5097 50.1969 48.8469 50.1707 49.8012C50.1025 52.0626 50.1182 54.3293 50.1707 56.5986C50.189 57.3829 49.9557 57.6443 49.1431 57.6443C44.3882 57.6077 39.6323 57.6077 34.8756 57.6443C34.0656 57.6443 33.8087 57.3829 33.8271 56.5986C33.8585 54.2927 33.8585 51.9859 33.8271 49.6783C33.8271 48.8443 34.0892 48.5411 34.9568 48.562C37.295 48.6012 39.6515 48.5646 42.0081 48.5646ZM41.9478 48.9881C39.7642 48.9881 37.5807 49.0273 35.3946 48.9672C34.4588 48.9437 34.1862 49.2861 34.2072 50.175C34.257 52.0888 34.2517 54.0077 34.2072 55.9267C34.1888 56.8077 34.4693 57.1711 35.4051 57.1633C39.7739 57.1319 44.1426 57.1319 48.5114 57.1633C49.3266 57.1633 49.7093 56.9201 49.6936 56.0469C49.6569 54.0443 49.6569 52.04 49.6936 50.0339C49.6936 49.2495 49.4315 48.962 48.6294 48.975C46.3987 49.0142 44.1811 48.9881 41.9478 48.9881Z" fill="#9C9C9C"/>
        <path d="M58.9411 48.5652C61.3003 48.5652 63.6594 48.6018 66.0185 48.5469C66.8967 48.526 67.1588 48.8371 67.1457 49.6685C67.109 51.9743 67.109 54.2802 67.1457 56.5861C67.1588 57.3704 66.8836 57.6318 66.0972 57.6318C61.3405 57.6005 56.5837 57.6005 51.827 57.6318C51.0065 57.6318 50.7785 57.3704 50.8047 56.5861C50.8502 54.2802 50.8502 51.9743 50.8047 49.6685C50.7864 48.8266 51.0275 48.5286 51.8978 48.5469C54.2281 48.5992 56.5846 48.5652 58.9411 48.5652ZM59.046 48.9887C56.8651 48.9887 54.6789 49.0358 52.4928 48.9652C51.4836 48.9338 51.2136 49.3024 51.2398 50.2462C51.2975 52.1155 51.2923 53.99 51.2398 55.8593C51.2136 56.8057 51.5256 57.1665 52.5112 57.1665C56.831 57.1273 61.1613 57.1351 65.4733 57.1665C66.3462 57.1665 66.742 56.9051 66.7184 55.9769C66.6712 54.0214 66.6791 52.0554 66.7184 50.1024C66.7341 49.2685 66.4563 48.9547 65.5834 48.9783C63.4104 49.0253 61.219 48.9887 59.046 48.9887Z" fill="#9C9C9C"/>
        <path d="M72.9783 57.6127C71.3583 57.6127 70.0136 57.6127 68.6663 57.6127C68.1813 57.6127 67.8275 57.563 67.8301 56.9329C67.8484 54.3473 67.8301 51.7617 68.0791 49.1055L72.9783 57.6127ZM68.6322 51.0087L68.2574 51.1368V54.4963C68.2574 57.3564 68.2574 57.3564 71.1067 57.1447C71.1932 57.1447 71.2797 57.1447 71.3688 57.1447C71.8406 57.129 72.0136 56.9146 71.7699 56.4832C70.7283 54.6514 69.6825 52.8266 68.6322 51.0087Z" fill="#9C9C9C"/>
        <path d="M33.109 49.2159C33.109 51.6891 33.0907 54.1623 33.109 56.6381C33.109 57.3414 32.9491 57.6604 32.1706 57.629C30.86 57.5741 29.5493 57.6133 27.9766 57.6133L32.8521 49.1113L33.109 49.2159ZM32.6791 51.1401L32.3121 51.0146C31.586 52.2747 30.8337 53.5192 30.1496 54.7976C29.7721 55.5009 28.7656 56.4054 29.2086 56.8891C29.8324 57.5767 31.0801 57.0983 32.0579 57.1166C32.5821 57.1166 32.6817 56.7479 32.6817 56.3139C32.68 54.5867 32.6791 52.8621 32.6791 51.1401Z" fill="#9C9C9C"/>
        <path d="M67.9726 76.2979C67.9726 77.9084 67.9359 79.5188 67.9883 81.1267C68.0172 81.9528 67.7865 82.2875 66.9031 82.2718C64.2819 82.2247 61.6658 82.2247 59.055 82.2718C58.1822 82.2875 57.92 81.9633 57.9279 81.1371C57.9541 77.8744 57.9541 74.6116 57.9279 71.3489C57.9279 70.5358 58.1586 70.1855 59.0446 70.2038C61.6658 70.2509 64.2819 70.2509 66.8926 70.2038C67.7629 70.1907 68.0198 70.4992 67.9909 71.3384C67.9333 72.9907 67.9726 74.6456 67.9726 76.2979ZM58.2739 76.1071C58.2739 77.7175 58.2923 79.3254 58.2739 80.9358C58.2739 81.6103 58.4181 81.9973 59.2045 81.9816C61.6894 81.9554 64.1849 81.9633 66.6593 81.9816C67.3173 81.9816 67.5925 81.7437 67.5873 81.0639C67.5663 77.8448 67.5663 74.6256 67.5873 71.4064C67.5873 70.6613 67.3094 70.4286 66.5912 70.4365C64.1482 70.4652 61.7051 70.4757 59.2516 70.4365C58.3945 70.4234 58.2372 70.8103 58.2556 71.5424C58.3001 73.0613 58.2765 74.5855 58.2765 76.1071H58.2739Z" fill="#9C9C9C"/>
        <path d="M66.9291 83.3543C67.0259 83.3475 67.1231 83.3605 67.2148 83.3926C67.3064 83.4246 67.3905 83.475 67.4619 83.5406C67.5333 83.6062 67.5906 83.6856 67.6301 83.7741C67.6696 83.8625 67.6906 83.9581 67.6918 84.0549C67.6968 84.1504 67.6829 84.2459 67.6509 84.336C67.6189 84.426 67.5694 84.509 67.5053 84.58C67.4411 84.651 67.3636 84.7087 67.2771 84.7498C67.1906 84.7909 67.0968 84.8147 67.0011 84.8196C66.9054 84.8246 66.8097 84.8108 66.7194 84.7788C66.6291 84.7469 66.5459 84.6975 66.4747 84.6336C66.4035 84.5696 66.3457 84.4923 66.3044 84.406C66.2632 84.3197 66.2394 84.2262 66.2344 84.1308C66.2193 84.0325 66.2261 83.9321 66.2544 83.8367C66.2827 83.7414 66.3318 83.6534 66.3982 83.5792C66.4646 83.505 66.5466 83.4464 66.6384 83.4075C66.7302 83.3686 66.8294 83.3504 66.9291 83.3543Z" fill="#9C9C9C"/>
    </g>
    <defs>
        <clipPath id="clip0_1270_38943">
            <rect width="101" height="96" fill="white"/>
        </clipPath>
    </defs>
</svg>
