<svg width="42" height="40" viewBox="0 0 42 40" fill="none" xmlns="http://www.w3.org/2000/svg">
<mask id="mask0_718_2006" style="mask-type:alpha" maskUnits="userSpaceOnUse" x="24" y="0" width="18" height="40">
<rect x="24" y="0.833984" width="18" height="39" fill="#009767"/>
</mask>
<g mask="url(#mask0_718_2006)">
<g opacity="0.3">
<path d="M-5 0.333984C2.24528 7.57927 24.6855 30.0195 35 40.334" stroke="#009767"/>
<path d="M7 0.333984C14.2453 7.57927 36.6855 30.0195 47 40.334" stroke="#009767"/>
<path d="M19 0.333984C26.2453 7.57927 48.6855 30.0195 59 40.334" stroke="#009767"/>
<path d="M31 0.333984C38.2453 7.57927 60.6855 30.0195 71 40.334" stroke="#009767"/>
</g>
</g>
<rect x="25" y="1.83398" width="16" height="37" stroke="#009767" stroke-width="2"/>
<mask id="mask1_718_2006" style="mask-type:alpha" maskUnits="userSpaceOnUse" x="0" y="0" width="18" height="40">
<rect y="0.833984" width="18" height="39" fill="#009767"/>
</mask>
<g mask="url(#mask1_718_2006)">
<g opacity="0.3">
<path d="M-29 0.333984C-21.7547 7.57927 0.685535 30.0195 11 40.334" stroke="#009767"/>
<path d="M-17 0.333984C-9.75472 7.57927 12.6855 30.0195 23 40.334" stroke="#009767"/>
<path d="M-5 0.333984C2.24528 7.57927 24.6855 30.0195 35 40.334" stroke="#009767"/>
<path d="M7 0.333984C14.2453 7.57927 36.6855 30.0195 47 40.334" stroke="#009767"/>
</g>
</g>
<rect x="1" y="1.83398" width="16" height="37" stroke="#009767" stroke-width="2"/>
</svg>
