<svg width="64" height="40" viewBox="0 0 64 40" fill="none" xmlns="http://www.w3.org/2000/svg">
<mask id="mask0_844_35343" style="mask-type:alpha" maskUnits="userSpaceOnUse" x="0" y="2" width="64" height="38">
<path d="M0 20.5491C0 14.4143 3.99409 8.99408 9.85367 7.17716L18.9382 4.36026C28.0842 1.52427 37.8873 1.61322 46.9804 4.61469L54.3883 7.0599C60.125 8.95347 64 14.3132 64 20.3544V30C64 35.5229 59.5228 40 54 40H10C4.47715 40 0 35.5229 0 30V20.5491Z" fill="#009767"/>
</mask>
<g mask="url(#mask0_844_35343)">
<g opacity="0.3">
<path d="M-30 2.79065C-22.7547 9.53045 -0.314465 30.4051 10 40" stroke="#009767"/>
<path d="M-18 2.79065C-10.7547 9.53045 11.6855 30.4051 22 40" stroke="#009767"/>
<path d="M-6 2.79065C1.24528 9.53045 23.6855 30.4051 34 40" stroke="#009767"/>
<path d="M6 2.79065C13.2453 9.53045 35.6855 30.4051 46 40" stroke="#009767"/>
<path d="M18 2.79065C25.2453 9.53045 47.6855 30.4051 58 40" stroke="#009767"/>
<path d="M30 2.79065C37.2453 9.53045 59.6855 30.4051 70 40" stroke="#009767"/>
<path d="M42 2.79065C49.2453 9.53045 71.6855 30.4051 82 40" stroke="#009767"/>
<path d="M54 2.79065C61.2453 9.53045 83.6855 30.4051 94 40" stroke="#009767"/>
</g>
</g>
<path d="M1 20.5491C1 14.8525 4.7088 9.81944 10.1498 8.13229L19.2343 5.3154C28.1816 2.54106 37.7715 2.62807 46.667 5.5643L54.0748 8.0095C59.4017 9.76782 63 14.7448 63 20.3544V30C63 34.9706 58.9706 39 54 39H10C5.02944 39 1 34.9706 1 30V20.5491Z" stroke="#009767" stroke-width="2"/>
</svg>
