<svg width="36" height="40" viewBox="0 0 36 40" fill="none" xmlns="http://www.w3.org/2000/svg">
<g clip-path="url(#clip0_844_34350)">
<mask id="mask0_844_34350" style="mask-type:alpha" maskUnits="userSpaceOnUse" x="0" y="0" width="36" height="40">
<path d="M6 39.3714H30C33.3137 39.3714 36 36.6852 36 33.3714C34.848 22.1391 33.9622 11.681 26.6726 3.96488C25.0289 2.22504 22.7884 1.2204 20.4562 0.682209C18.511 0.233302 16.489 0.233302 14.5438 0.682209C12.2116 1.2204 9.96409 2.2203 8.34153 3.97985C1.22749 11.6945 1.15129 22.1464 0 33.3714C0 36.6852 2.68629 39.3714 6 39.3714Z" fill="#009767"/>
</mask>
<g mask="url(#mask0_844_34350)">
<g opacity="0.3">
<path d="M-32 -0.628418C-24.7547 6.61687 -2.31447 29.0571 8 39.3716" stroke="#009767"/>
<path d="M-20 -0.628418C-12.7547 6.61687 9.68553 29.0571 20 39.3716" stroke="#009767"/>
<path d="M-8 -0.628418C-0.754717 6.61687 21.6855 29.0571 32 39.3716" stroke="#009767"/>
<path d="M4 -0.628418C11.2453 6.61687 33.6855 29.0571 44 39.3716" stroke="#009767"/>
<path d="M16 -0.628418C23.2453 6.61687 45.6855 29.0571 56 39.3716" stroke="#009767"/>
<path d="M28 -0.628418C35.2453 6.61687 57.6855 29.0571 68 39.3716" stroke="#009767"/>
</g>
</g>
<path d="M30 38.3714H6C3.25486 38.3714 1.02642 36.1592 1.00023 33.4202C1.14021 32.0519 1.26386 30.7044 1.38554 29.3785C1.76696 25.2223 2.12894 21.2778 2.91314 17.566C3.94281 12.6923 5.68213 8.33891 9.07668 4.65776C10.5148 3.0982 12.5498 2.16865 14.7686 1.6566C16.5659 1.24184 18.4341 1.24184 20.2314 1.6566C22.4467 2.16783 24.4821 3.10238 25.9457 4.65161C32.7995 11.9064 33.8003 21.6928 34.927 32.7096C34.9512 32.9459 34.9754 33.1828 34.9998 33.4203C34.9735 36.1592 32.7451 38.3714 30 38.3714Z" stroke="#009767" stroke-width="2"/>
</g>
<defs>
<clipPath id="clip0_844_34350">
<rect width="36" height="40" fill="white"/>
</clipPath>
</defs>
</svg>
