<svg width="653" height="418" viewBox="0 0 653 418" fill="none" xmlns="http://www.w3.org/2000/svg">
    <path d="M491.08 272.795L454.506 293.814H454.486L439.278 285.036L439.338 284.996L476.57 263.479L476.59 263.499L491.08 272.795Z" fill="#292929"/>
    <path d="M454.489 293.814L454.529 314.913L421.064 295.566L421.044 295.546L421.084 295.526L439.282 285.036L454.489 293.814Z" fill="#292929"/>
    <path d="M491.082 272.795L491.161 293.894L454.547 314.913L454.507 293.814L491.082 272.795Z" fill="#292929"/>
    <path d="M308.989 374.927L309.068 396.026L272.454 417.005L272.414 395.946L308.989 374.927Z" fill="#292929"/>
    <path d="M272.41 395.946H272.39L255.986 386.471V386.272C262.325 385.874 268.085 384.083 273.088 381.017L296.985 367.223H297.005L308.984 374.927L272.41 395.946V395.946Z" fill="#292929"/>
    <path d="M220.452 376.42C233.348 383.824 245.466 386.949 255.97 386.272V386.472L272.394 395.926L272.434 417.005L169.209 357.391L169.129 336.292L175.407 332.709H175.427C187.785 350.981 203.431 366.646 220.452 376.42V376.42Z" fill="#292929"/>
    <path d="M268.906 258.305C270.082 260.136 271.198 262.007 272.294 263.878C272.494 264.256 272.713 264.614 272.892 264.993C273.49 266.047 274.108 267.083 274.706 268.137C274.746 268.177 274.746 268.197 274.746 268.237C275.244 269.133 275.722 270.048 276.201 270.944C276.679 271.86 277.157 272.775 277.596 273.691C278.154 274.845 278.712 276 279.29 277.194C279.988 278.667 280.665 280.16 281.303 281.613C282.18 283.603 282.997 285.574 283.775 287.545C284.034 288.201 284.293 288.858 284.532 289.515C284.871 290.411 285.21 291.346 285.509 292.242C286.147 294.073 286.804 295.905 287.362 297.696C287.362 297.776 287.402 297.855 287.442 297.955C287.741 298.89 288.04 299.826 288.259 300.722C288.778 302.473 289.236 304.185 289.655 305.917C289.993 307.151 290.292 308.365 290.591 309.599C290.671 309.898 290.751 310.176 290.791 310.455C290.811 310.555 290.85 310.654 290.85 310.754C290.93 311.032 290.97 311.311 291.01 311.59C291.03 311.808 291.07 312.067 291.11 312.286C291.189 312.724 291.269 313.142 291.349 313.56C291.648 315.053 291.867 316.546 292.126 317.999C292.206 318.536 292.325 319.054 292.385 319.532C292.584 320.845 292.724 322.179 292.883 323.493C293.063 325.105 293.222 326.717 293.342 328.329C293.362 328.449 293.362 328.588 293.362 328.708C293.402 329.265 293.422 329.842 293.442 330.4C293.442 330.419 293.442 330.439 293.442 330.479C293.442 330.479 293.442 330.539 293.442 330.559C293.521 331.673 293.521 332.788 293.521 333.863C293.561 334.201 293.561 334.54 293.561 334.838V335.057C293.561 336.053 293.541 337.028 293.501 338.003C293.481 338.799 293.442 339.576 293.382 340.352C293.302 341.666 293.202 342.979 293.063 344.233C292.983 345.03 292.883 345.826 292.764 346.602C292.704 347.08 292.624 347.577 292.545 348.055C292.445 348.712 292.325 349.369 292.206 350.026C292.106 350.523 292.006 351.021 291.907 351.499C291.847 351.837 291.767 352.175 291.688 352.494C291.568 353.031 291.448 353.569 291.309 354.086C291.189 354.604 291.05 355.101 290.89 355.599C290.631 356.554 290.332 357.49 290.033 358.386C289.914 358.764 289.794 359.142 289.655 359.5C289.635 359.58 289.595 359.64 289.575 359.719C288.957 361.411 288.279 363.023 287.522 364.556C287.323 365.014 287.083 365.472 286.844 365.91C286.485 366.606 286.107 367.303 285.708 367.96C285.329 368.597 284.951 369.194 284.552 369.771C284.253 370.229 283.954 370.687 283.635 371.125C283.595 371.184 283.536 371.264 283.476 371.324C282.679 372.419 281.841 373.454 280.964 374.429C280.386 375.086 279.788 375.703 279.171 376.28C278.931 376.519 278.672 376.758 278.413 376.997C278.333 377.076 278.254 377.156 278.154 377.216C277.835 377.514 277.496 377.793 277.157 378.071C277.058 378.171 276.958 378.271 276.839 378.35C276.46 378.649 276.081 378.947 275.702 379.226C275.364 379.505 275.025 379.743 274.646 380.002C274.148 380.341 273.63 380.679 273.091 381.017C268.089 384.083 262.328 385.874 255.97 386.272C245.466 386.949 233.348 383.824 220.452 376.419C203.431 366.646 187.785 350.981 175.427 332.689C158.565 307.768 147.802 277.97 147.882 251.477C147.961 228.109 156.472 211.827 170.105 204.502C169.786 204.701 169.467 204.9 169.149 205.079C169.906 204.641 170.683 204.223 171.481 203.845C171.879 203.646 172.278 203.467 172.696 203.288C173.095 203.129 173.514 202.969 173.932 202.81C174.45 202.571 175.008 202.472 175.547 202.273C176.703 201.875 177.899 201.496 179.134 201.238H179.174C180.45 200.939 181.725 200.68 183.081 200.521C183.998 200.421 184.934 200.342 185.831 200.262C186.17 200.222 186.549 200.262 186.888 200.262C188.343 200.183 189.877 200.262 191.432 200.342C191.99 200.382 192.588 200.461 193.186 200.481C193.385 200.481 193.565 200.521 193.764 200.561C195 200.72 196.315 200.899 197.591 201.158C198.607 201.337 199.584 201.536 200.601 201.795C201.039 201.914 201.497 202.014 201.976 202.133C203.152 202.432 204.308 202.73 205.484 203.148C205.623 203.168 205.803 203.208 205.962 203.288C206.022 203.288 206.082 203.288 206.122 203.288L206.241 203.347C206.381 203.387 206.54 203.447 206.68 203.487C206.7 203.487 206.739 203.487 206.759 203.527C206.939 203.586 207.098 203.646 207.258 203.726C209.032 204.343 210.746 205.059 212.559 205.855C213.875 206.413 215.21 207.05 216.526 207.746C216.984 207.926 217.403 208.164 217.821 208.383C218.818 208.901 219.874 209.498 220.931 210.095C224 211.847 227.05 213.837 230.059 216.027C231.594 217.082 233.129 218.236 234.644 219.47C235.501 220.147 236.338 220.844 237.155 221.521C238.55 222.675 239.905 223.869 241.241 225.103C242.078 225.86 242.895 226.596 243.732 227.392C244.789 228.388 245.785 229.443 246.802 230.438C248.456 232.13 250.031 233.802 251.625 235.553H251.645C252.602 236.648 253.539 237.643 254.436 238.738C255.412 239.853 256.349 241.007 257.286 242.162C257.844 242.839 258.382 243.515 258.94 244.212C260.216 245.784 261.412 247.397 262.588 249.029C263.903 250.8 265.179 252.632 266.414 254.463L267.61 256.314C268.069 256.991 268.487 257.628 268.886 258.285L268.906 258.305ZM282.519 328.787C282.619 289.814 255.014 242.301 220.871 222.695H220.911C186.768 203.109 159.003 218.853 158.904 257.867C158.784 296.88 186.349 344.333 220.492 363.879C254.635 383.486 282.399 367.761 282.519 328.787Z" fill="#292929"/>
    <path d="M197.534 291.127L197.613 332.33L236.719 355.041L236.799 313.022L236.938 250.999L197.394 228.606L197.534 291.127ZM220.873 222.694C255.016 242.301 282.621 289.813 282.522 328.787C282.402 367.76 254.637 383.485 220.495 363.879C186.352 344.332 158.787 296.88 158.906 257.866C159.006 218.853 186.771 203.108 220.913 222.694H220.873V222.694Z" fill="#292929"/>
    <path d="M236.796 313.022L236.716 355.041L197.611 332.33L197.531 291.127L236.796 313.022Z" fill="#292929"/>
    <path d="M236.935 250.998L236.795 313.021L197.53 291.126L197.391 228.605L236.935 250.998Z" fill="#292929"/>
    <path d="M387.023 12.9181C386.724 12.2811 386.584 11.6044 386.584 10.9276C386.584 5.43388 407.552 0.995117 407.552 0.995117C410.622 0.995117 428.5 5.43388 428.5 10.9276C428.5 11.266 428.461 11.6044 428.401 11.9427C427.324 16.9587 418.395 20.8601 407.552 20.8601C398.185 20.8601 390.232 17.9341 387.561 13.9133C387.342 13.5948 387.162 13.2565 387.023 12.9181V12.9181Z" fill="#292929"/>
    <path d="M407.55 29.1005C399.219 29.1005 392.462 32.3052 392.462 36.2264L392.442 36.2463L387.021 12.918C387.16 13.2563 387.339 13.5947 387.559 13.9132C390.229 17.934 398.182 20.86 407.55 20.86C418.393 20.86 427.322 16.9586 428.398 11.9426L422.658 36.2264C422.658 32.3052 415.901 29.1005 407.55 29.1005Z" fill="#292929"/>
    <path d="M407.551 29.1006C415.902 29.1006 422.659 32.3053 422.659 36.2265C422.659 40.1477 415.902 43.3723 407.551 43.3723C399.2 43.3723 392.483 40.1875 392.463 36.2464C392.463 32.3053 399.22 29.1006 407.551 29.1006V29.1006Z" fill="#292929"/>
    <path d="M407.548 43.3724C415.899 43.3724 422.656 40.1677 422.656 36.2266V99.7427C422.656 103.684 415.899 106.869 407.548 106.869C399.196 106.869 392.459 103.684 392.459 99.7427V79.9175H392.439V36.2465H392.459C392.479 40.1876 399.236 43.3724 407.548 43.3724Z" fill="#292929"/>
    <path d="M392.437 79.9182V95.5633L206.257 203.348C206.257 203.348 206.157 203.328 206.118 203.308C193.481 199.028 182.02 199.207 172.692 203.308C171.875 203.626 171.058 204.024 170.281 204.422L377.808 84.556C377.947 84.4963 378.067 84.4167 378.206 84.3371C379.382 83.7001 380.618 83.103 381.854 82.5855C382.093 82.466 382.352 82.3864 382.571 82.3267C382.99 82.1674 383.408 82.0281 383.807 81.8689C384.445 81.6499 385.043 81.431 385.681 81.2319C386.398 81.013 387.116 80.8935 387.793 80.7542C388.252 80.6348 388.65 80.5353 389.109 80.4556C389.328 80.4158 389.567 80.3362 389.787 80.2765C390.644 80.1173 391.521 79.9978 392.437 79.9381V79.9182Z" fill="#292929"/>
    <path d="M439.398 96.0013L231.552 216.385L231.233 216.803C227.884 214.335 224.436 212.086 220.948 210.075C216.105 207.289 211.361 205.119 206.777 203.547C206.757 203.507 206.717 203.507 206.697 203.507C206.538 203.447 206.398 203.407 206.259 203.348L392.439 95.5633V79.9182H392.459V99.7434C392.459 103.684 399.216 106.869 407.547 106.869C415.879 106.869 422.655 103.684 422.655 99.7434V85.9892C422.655 85.9892 422.835 86.0688 422.914 86.1086C425.127 87.1635 427.339 88.2782 429.611 89.5521C431.923 90.8857 434.255 92.3786 436.548 93.9511C437.305 94.4288 438.022 94.9861 438.72 95.5235C438.959 95.6629 439.139 95.8221 439.358 95.9614C439.358 95.9614 439.358 95.9614 439.398 96.0013V96.0013Z" fill="#292929"/>
    <path d="M475.977 138.378L268.928 258.304C268.131 257.01 267.294 255.736 266.437 254.482C261.952 247.774 257.029 241.405 251.728 235.533L459.494 115.149L459.992 114.691C460.092 114.811 460.211 114.95 460.331 115.069C460.849 115.647 461.387 116.124 461.905 116.721C462.324 117.199 462.703 117.737 463.121 118.214C464.098 119.329 465.035 120.444 465.932 121.618C466.569 122.354 467.207 123.111 467.805 123.847C468.303 124.484 468.742 125.161 469.24 125.798C469.918 126.694 470.596 127.629 471.253 128.525C471.712 129.142 472.21 129.739 472.648 130.376C473.406 131.471 474.163 132.586 474.861 133.7C475.359 134.377 475.798 135.094 476.296 135.79C476.475 136.089 476.675 136.348 476.854 136.646L477.392 137.482L475.977 138.378V138.378Z" fill="#292929"/>
    <path d="M498.097 192.379L291.168 312.266C291.068 311.768 290.968 311.25 290.849 310.753C290.849 310.653 290.809 310.554 290.789 310.454C290.729 310.176 290.669 309.897 290.59 309.598C288.955 302.254 286.663 294.849 283.773 287.544C283.255 286.19 282.697 284.837 282.139 283.463L282.876 283.145L490.682 162.801C491.42 164.493 492.097 166.145 492.775 167.817C492.934 168.235 493.034 168.613 493.194 169.011C493.492 169.807 493.752 170.623 494.051 171.4C494.429 172.494 494.888 173.569 495.227 174.664C495.525 175.52 495.745 176.336 496.004 177.192C496.303 178.207 496.642 179.202 496.921 180.178C497.1 180.815 497.319 181.412 497.519 182.049C497.818 183.124 498.037 184.258 498.296 185.333C498.635 186.607 498.934 187.841 499.233 189.075C499.312 189.473 499.472 189.931 499.552 190.329C499.671 190.926 499.771 191.523 499.851 192.12L498.097 192.379V192.379Z" fill="#292929"/>
    <path d="M502.026 219.887L293.941 340.39L293.383 340.35C293.442 339.574 293.482 338.798 293.502 338.002C293.542 337.046 293.562 336.051 293.562 335.056V334.837C293.562 333.404 293.522 331.951 293.462 330.498C293.462 329.9 293.402 329.303 293.363 328.706C293.363 328.587 293.363 328.447 293.343 328.328C293.004 323.053 292.286 317.679 291.17 312.265L498.099 192.378L499.853 192.12C499.893 192.418 499.953 192.717 499.993 193.015C500.371 194.926 500.75 196.857 501.009 198.768C501.089 199.325 501.189 199.843 501.268 200.38C501.428 201.614 501.527 202.769 501.647 204.003C501.727 204.819 501.826 205.675 501.866 206.531C502.105 209.218 502.205 211.905 502.205 214.552C502.205 216.384 502.145 218.155 502.026 219.867V219.887Z" fill="#292929"/>
    <path d="M282.141 283.464C280.327 279.244 278.354 275.064 276.201 270.944C273.969 266.645 271.537 262.425 268.926 258.305L475.975 138.378L477.39 137.483C478.506 139.234 479.582 141.006 480.659 142.777C480.719 142.917 480.798 143.076 480.878 143.195C481.097 143.633 481.336 144.051 481.556 144.449C482.413 145.902 483.25 147.415 484.067 148.908C484.446 149.565 484.785 150.281 485.123 150.998C485.502 151.695 485.881 152.411 486.2 153.148C486.539 153.785 486.877 154.422 487.176 155.059C488.013 156.731 488.811 158.462 489.548 160.174C489.708 160.473 489.847 160.771 489.967 161.07C490.007 161.149 490.086 161.249 490.086 161.329C490.306 161.806 490.485 162.304 490.684 162.782L282.878 283.146L282.141 283.464V283.464Z" fill="#292929"/>
    <path d="M282.698 372.397C282.977 372.039 283.237 371.681 283.476 371.323C283.536 371.263 283.595 371.183 283.635 371.124C283.974 370.686 284.273 370.228 284.552 369.77C284.951 369.193 285.329 368.596 285.708 367.959C286.087 367.302 286.485 366.605 286.844 365.909C287.083 365.471 287.303 365.013 287.522 364.555C287.721 364.217 287.881 363.858 288.04 363.52C288.419 362.684 288.778 361.868 289.116 360.972C289.276 360.574 289.435 360.136 289.575 359.718C289.595 359.639 289.635 359.579 289.655 359.499C289.794 359.141 289.914 358.763 290.033 358.385C290.352 357.469 290.631 356.553 290.89 355.598C291.05 355.1 291.189 354.603 291.309 354.085C291.428 353.568 291.568 353.03 291.688 352.493C291.767 352.174 291.847 351.836 291.907 351.497C292.026 351 292.106 350.502 292.206 350.025C292.345 349.408 292.465 348.731 292.545 348.054C292.664 347.576 292.684 347.079 292.764 346.601C292.883 345.825 292.983 345.028 293.063 344.232C293.202 342.978 293.302 341.665 293.382 340.351L293.94 340.391L502.025 219.887C500.829 239.872 493.016 253.984 480.997 260.931L476.592 263.459H476.572L439.34 284.996L439.28 285.035L421.083 295.525H421.043L297.009 367.202H296.989L273.091 381.016C273.61 380.698 274.128 380.359 274.646 380.001C275.025 379.742 275.364 379.504 275.702 379.225C276.101 378.946 276.48 378.648 276.839 378.349C276.958 378.269 277.058 378.17 277.157 378.07C277.496 377.812 277.835 377.513 278.154 377.214C278.254 377.155 278.333 377.075 278.413 376.995C278.672 376.777 278.931 376.538 279.171 376.279C279.788 375.702 280.386 375.085 280.964 374.428C281.283 374.089 281.582 373.751 281.881 373.413C282.14 373.074 282.439 372.736 282.698 372.397V372.397Z" fill="#292929"/>
    <path d="M459.989 114.692L459.491 115.15L251.725 235.534C245.347 228.468 238.47 222.118 231.235 216.803L231.554 216.385L439.4 96.0015C440.696 96.9569 442.051 97.9322 443.307 98.9474C444.184 99.6241 445.001 100.341 445.838 100.998C447.213 102.152 448.568 103.346 449.924 104.58C450.741 105.337 451.578 106.073 452.395 106.869C452.894 107.347 453.412 107.805 453.95 108.283C454.468 108.8 454.967 109.397 455.485 109.935C457.019 111.487 458.514 113.06 459.989 114.692V114.692Z" fill="#292929"/>
    <path d="M274.646 380.002C274.128 380.36 273.61 380.698 273.091 381.017L296.989 367.223H297.009L421.043 295.546H421.083L439.28 285.036L439.34 284.996L476.572 263.479H476.592L480.997 260.931C493.016 253.985 500.829 239.872 502.025 219.888C502.144 218.156 502.204 216.385 502.204 214.553C502.204 211.906 502.105 209.219 501.865 206.532C501.826 205.676 501.726 204.82 501.646 204.004C501.527 202.77 501.427 201.615 501.267 200.381C501.188 199.844 501.088 199.326 501.008 198.769C500.749 196.858 500.37 194.927 499.992 193.016C499.952 192.718 499.892 192.419 499.852 192.121C499.773 191.524 499.673 190.926 499.553 190.329C499.474 189.931 499.314 189.473 499.234 189.075C498.935 187.841 498.636 186.607 498.298 185.333C498.038 184.258 497.819 183.124 497.52 182.049C497.321 181.412 497.102 180.815 496.922 180.178C496.643 179.203 496.304 178.207 496.005 177.192C495.746 176.336 495.527 175.52 495.228 174.664C494.889 173.569 494.431 172.495 494.052 171.4C493.753 170.624 493.494 169.807 493.195 169.011C493.036 168.613 492.936 168.235 492.777 167.817C492.099 166.145 491.421 164.493 490.684 162.801C490.484 162.303 490.305 161.806 490.086 161.328C490.086 161.248 490.006 161.149 489.966 161.069C489.847 160.771 489.707 160.472 489.548 160.174C488.81 158.462 488.013 156.73 487.176 155.058C486.877 154.421 486.538 153.784 486.199 153.147C485.88 152.411 485.502 151.694 485.123 150.997C484.784 150.281 484.445 149.564 484.067 148.907C483.249 147.415 482.412 145.902 481.555 144.449C481.336 144.051 481.097 143.633 480.877 143.195C480.798 143.075 480.718 142.916 480.658 142.777C479.582 141.005 478.506 139.234 477.389 137.482L476.851 136.646C476.672 136.348 476.473 136.089 476.293 135.79C475.795 135.094 475.356 134.377 474.858 133.7C474.161 132.586 473.403 131.471 472.646 130.376C472.207 129.739 471.709 129.142 471.251 128.525C470.593 127.629 469.915 126.694 469.237 125.798C468.739 125.161 468.301 124.484 467.802 123.847C467.204 123.111 466.567 122.355 465.929 121.618C465.032 120.444 464.095 119.329 463.118 118.214C462.7 117.737 462.321 117.199 461.903 116.721C461.384 116.124 460.846 115.647 460.328 115.069C460.208 114.95 460.089 114.811 459.989 114.691C458.514 113.059 457.019 111.487 455.485 109.934C454.967 109.397 454.468 108.799 453.95 108.282C453.412 107.804 452.894 107.346 452.395 106.869C451.578 106.072 450.741 105.336 449.924 104.58C448.568 103.345 447.213 102.151 445.838 100.997C445.001 100.34 444.184 99.6233 443.307 98.9465C442.051 97.9314 440.696 96.956 439.4 96.0006C439.38 95.9807 439.38 95.9608 439.36 95.9608C439.141 95.8215 438.961 95.6622 438.722 95.5229C438.025 94.9855 437.307 94.4281 436.55 93.9504C434.258 92.378 431.926 90.8851 429.614 89.5515C427.341 88.2776 425.129 87.1629 422.917 86.1079C422.837 86.0681 422.737 86.0283 422.658 85.9885" stroke="#616161" stroke-miterlimit="10"/>
    <path d="M276.836 378.35C276.457 378.648 276.079 378.947 275.7 379.225" stroke="#616161" stroke-miterlimit="10"/>
    <path d="M278.152 377.215C277.833 377.513 277.495 377.792 277.156 378.071" stroke="#616161" stroke-miterlimit="10"/>
    <path d="M279.167 376.279C278.928 376.538 278.668 376.777 278.409 376.996" stroke="#616161" stroke-miterlimit="10"/>
    <path d="M283.474 371.323C283.235 371.682 282.976 372.04 282.697 372.398C282.438 372.736 282.139 373.075 281.88 373.413C281.581 373.752 281.282 374.09 280.963 374.428" stroke="#616161" stroke-miterlimit="10"/>
    <path d="M284.55 369.77C284.271 370.228 283.972 370.685 283.634 371.123" stroke="#616161" stroke-miterlimit="10"/>
    <path d="M289.571 359.718C289.432 360.136 289.272 360.574 289.113 360.972C288.774 361.868 288.415 362.684 288.037 363.52C287.877 363.858 287.718 364.217 287.518 364.555C287.319 365.013 287.08 365.471 286.841 365.909C286.482 366.605 286.103 367.302 285.705 367.959" stroke="#616161" stroke-miterlimit="10"/>
    <path d="M290.888 355.599C290.629 356.555 290.33 357.49 290.031 358.386C289.911 358.764 289.791 359.142 289.652 359.5" stroke="#616161" stroke-miterlimit="10"/>
    <path d="M291.689 352.493C291.569 353.031 291.43 353.568 291.31 354.086" stroke="#616161" stroke-miterlimit="10"/>
    <path d="M293.066 344.234C292.986 345.03 292.886 345.826 292.767 346.602C292.687 347.08 292.667 347.578 292.548 348.055C292.468 348.732 292.348 349.409 292.209 350.026C292.109 350.504 292.029 351.001 291.91 351.499" stroke="#616161" stroke-miterlimit="10"/>
    <path d="M293.558 335.057C293.558 336.052 293.538 337.047 293.498 338.003" stroke="#616161" stroke-miterlimit="10"/>
    <path d="M293.459 330.499C293.459 330.499 293.459 330.538 293.459 330.558C293.539 331.673 293.539 332.788 293.539 333.862C293.579 334.201 293.579 334.539 293.579 334.838" stroke="#616161" stroke-miterlimit="10"/>
    <path d="M293.358 328.706C293.398 329.264 293.418 329.841 293.438 330.398C293.438 330.418 293.438 330.438 293.438 330.478" stroke="#616161" stroke-miterlimit="10"/>
    <path d="M290.851 310.753C290.931 311.032 290.971 311.31 291.01 311.589C291.03 311.808 291.07 312.067 291.11 312.286C291.19 312.724 291.27 313.142 291.349 313.56C291.648 315.052 291.867 316.545 292.127 317.998C292.206 318.536 292.326 319.053 292.386 319.531C292.585 320.845 292.725 322.178 292.884 323.492C293.063 325.104 293.223 326.717 293.342 328.329" stroke="#616161" stroke-miterlimit="10"/>
    <path d="M251.665 235.572C252.622 236.667 253.559 237.662 254.455 238.757C255.432 239.871 256.369 241.026 257.306 242.18C257.864 242.857 258.402 243.534 258.96 244.231C260.236 245.803 261.431 247.415 262.607 249.048C263.923 250.819 265.199 252.65 266.434 254.482L267.63 256.333C268.089 257.009 268.507 257.646 268.906 258.303C270.082 260.135 271.198 262.006 272.294 263.877C272.493 264.255 272.713 264.613 272.892 264.991C273.49 266.046 274.108 267.081 274.706 268.136C274.746 268.176 274.746 268.196 274.746 268.236C275.244 269.131 275.722 270.047 276.201 270.943C276.679 271.858 277.157 272.774 277.596 273.69C278.154 274.844 278.712 275.999 279.29 277.193C279.988 278.666 280.665 280.159 281.303 281.612C282.18 283.602 282.997 285.573 283.775 287.543C284.034 288.2 284.293 288.857 284.532 289.514C284.871 290.41 285.21 291.345 285.509 292.241C286.147 294.072 286.804 295.903 287.362 297.695C287.362 297.774 287.402 297.854 287.442 297.954C287.741 298.889 288.04 299.825 288.259 300.72C288.778 302.472 289.236 304.184 289.654 305.915C289.993 307.15 290.292 308.364 290.591 309.598C290.671 309.896 290.751 310.175 290.791 310.454" stroke="#616161" stroke-miterlimit="10"/>
    <path d="M206.78 203.545C206.96 203.605 207.119 203.665 207.279 203.744C209.053 204.362 210.767 205.078 212.58 205.874C213.896 206.432 215.231 207.069 216.547 207.765C217.005 207.944 217.424 208.183 217.842 208.402C218.839 208.92 219.895 209.517 220.952 210.114C224.021 211.866 227.071 213.856 230.08 216.046C231.615 217.101 233.15 218.255 234.665 219.489C235.522 220.166 236.359 220.863 237.176 221.539C238.571 222.694 239.926 223.888 241.262 225.122C242.099 225.879 242.916 226.615 243.753 227.411C244.81 228.406 245.806 229.461 246.823 230.457C248.477 232.149 250.052 233.821 251.646 235.572" stroke="#616161" stroke-miterlimit="10"/>
    <path d="M206.259 203.367C206.398 203.407 206.558 203.466 206.697 203.506" stroke="#616161" stroke-miterlimit="10"/>
    <path d="M170.109 204.502C169.79 204.701 169.471 204.9 169.152 205.079C169.909 204.641 170.687 204.223 171.484 203.845C171.882 203.646 172.281 203.467 172.7 203.288C173.098 203.129 173.517 202.969 173.935 202.81C174.454 202.571 175.012 202.472 175.55 202.273C176.706 201.875 177.902 201.496 179.138 201.238H179.177C180.453 200.939 181.729 200.68 183.084 200.521C184.001 200.421 184.938 200.342 185.835 200.262C186.173 200.222 186.552 200.262 186.891 200.262C188.346 200.183 189.881 200.262 191.435 200.342C191.993 200.382 192.591 200.461 193.189 200.481C193.389 200.481 193.568 200.521 193.767 200.561C195.003 200.72 196.319 200.899 197.594 201.158C198.611 201.337 199.587 201.536 200.604 201.795C201.042 201.914 201.501 202.014 201.979 202.133C203.155 202.432 204.311 202.73 205.487 203.148C205.627 203.168 205.806 203.208 205.965 203.288C206.025 203.288 206.085 203.288 206.125 203.288L206.244 203.347" stroke="#616161" stroke-miterlimit="10"/>
    <path d="M392.457 99.7434V79.9182H392.437C391.521 79.9779 390.644 80.0974 389.787 80.2566C389.567 80.3163 389.328 80.3959 389.109 80.4357C388.65 80.5154 388.252 80.6149 387.793 80.7343C387.116 80.8736 386.398 80.9931 385.681 81.212C385.043 81.4111 384.445 81.63 383.807 81.849C383.408 82.0082 382.99 82.1475 382.571 82.3068C382.352 82.3665 382.093 82.4461 381.854 82.5655C380.618 83.0831 379.382 83.6802 378.206 84.3172C378.067 84.3968 377.947 84.4764 377.808 84.5361L170.281 204.403" stroke="#616161" stroke-miterlimit="10"/>
    <path d="M220.913 222.694C186.771 203.108 159.006 218.853 158.906 257.866C158.787 296.88 186.352 344.332 220.495 363.879C254.637 383.485 282.402 367.76 282.522 328.787C282.621 289.813 255.016 242.301 220.873 222.694H220.913V222.694Z" stroke="#616161" stroke-miterlimit="10"/>
    <path d="M206.243 203.366H206.263V203.347L392.443 95.5623" stroke="#616161" stroke-miterlimit="10"/>
    <path d="M231.555 216.384L439.401 95.9997L439.839 95.741" stroke="#616161" stroke-miterlimit="10"/>
    <path d="M251.245 235.811L251.644 235.572H251.663L251.723 235.532L459.489 115.148" stroke="#616161" stroke-miterlimit="10"/>
    <path d="M267.688 259.02L268.904 258.303H268.924L475.973 138.377" stroke="#616161" stroke-miterlimit="10"/>
    <path d="M282.878 283.146L490.684 162.802L491.163 162.523" stroke="#616161" stroke-miterlimit="10"/>
    <path d="M289.831 313.043L291.107 312.306L291.166 312.267L498.095 192.38" stroke="#616161" stroke-miterlimit="10"/>
    <path d="M293.942 340.391L502.027 219.888L502.206 219.788" stroke="#616161" stroke-miterlimit="10"/>
    <path d="M236.795 313.021L236.716 355.04L197.61 332.329L197.53 291.126L197.391 228.605L236.935 250.998L236.795 313.021Z" stroke="#616161" stroke-linejoin="round"/>
    <path d="M206.259 270.107V283.961" stroke="#616161" stroke-linejoin="round"/>
    <path d="M236.832 313.042L236.793 313.022L197.528 291.126H197.508" stroke="#616161" stroke-linejoin="round"/>
    <path d="M231.235 216.804C227.887 214.335 224.439 212.086 220.951 210.076C216.107 207.289 211.364 205.119 206.779 203.547C206.759 203.507 206.72 203.507 206.7 203.507C206.54 203.447 206.401 203.408 206.261 203.348C206.221 203.328 206.161 203.328 206.122 203.308C193.485 199.029 182.024 199.208 172.696 203.308C171.879 203.627 171.062 204.025 170.285 204.423C170.225 204.463 170.165 204.502 170.105 204.522C156.472 211.847 147.961 228.129 147.882 251.498C147.802 277.991 158.565 307.788 175.427 332.709C187.785 351.001 203.431 366.666 220.452 376.44C233.348 383.844 245.466 386.969 255.97 386.293C262.328 385.895 268.089 384.103 273.091 381.038C273.63 380.699 274.148 380.361 274.646 380.023C275.025 379.764 275.364 379.525 275.702 379.246C276.101 378.968 276.48 378.669 276.839 378.37C276.958 378.291 277.058 378.191 277.157 378.092C277.496 377.833 277.835 377.535 278.154 377.236C278.254 377.176 278.333 377.097 278.413 377.017C278.672 376.778 278.931 376.539 279.171 376.3C279.788 375.723 280.386 375.106 280.964 374.449C281.841 373.474 282.679 372.439 283.476 371.344C283.536 371.284 283.595 371.205 283.635 371.145C283.954 370.707 284.253 370.249 284.552 369.792C284.951 369.214 285.329 368.617 285.708 367.98C286.087 367.323 286.485 366.627 286.844 365.93C287.083 365.492 287.303 365.034 287.522 364.577C288.279 363.044 288.957 361.432 289.575 359.74C289.595 359.66 289.635 359.6 289.655 359.521C289.794 359.162 289.914 358.784 290.033 358.406C290.352 357.49 290.631 356.575 290.89 355.619C291.05 355.122 291.189 354.624 291.309 354.107C291.448 353.589 291.568 353.052 291.688 352.514C291.767 352.196 291.847 351.857 291.907 351.519C292.006 351.041 292.106 350.544 292.206 350.046C292.325 349.389 292.445 348.732 292.545 348.075C292.624 347.598 292.704 347.1 292.764 346.622C292.883 345.846 292.983 345.05 293.063 344.254C293.202 343 293.302 341.686 293.382 340.372C293.442 339.596 293.481 338.82 293.501 338.024C293.541 337.048 293.561 336.073 293.561 335.078V334.859C293.561 333.426 293.521 331.973 293.461 330.519C293.461 329.922 293.402 329.325 293.362 328.728C293.362 328.609 293.362 328.469 293.342 328.35C293.003 323.075 292.286 317.701 291.169 312.287C291.07 311.789 290.97 311.272 290.85 310.774C290.85 310.674 290.811 310.575 290.791 310.475C290.731 310.197 290.671 309.918 290.591 309.619C288.957 302.275 286.665 294.87 283.775 287.565C283.257 286.211 282.698 284.858 282.14 283.484C280.327 279.265 278.353 275.085 276.201 270.964C273.968 266.665 271.537 262.445 268.926 258.325C268.129 257.031 267.291 255.757 266.434 254.503C261.95 247.795 257.027 241.426 251.725 235.554C245.347 228.488 238.47 222.138 231.235 216.823V216.804Z" stroke="#616161" stroke-miterlimit="10"/>
    <path d="M175.407 332.709L169.129 336.292L169.209 357.391L272.434 417.005L272.394 395.926V395.906" stroke="#616161" stroke-linejoin="round"/>
    <path d="M272.414 395.906V395.945L272.454 417.005L309.068 396.025L308.989 374.926L297.01 367.243" stroke="#616161" stroke-linejoin="round"/>
    <path d="M255.986 386.472L272.39 395.926L272.41 395.946L308.984 374.927" stroke="#616161" stroke-miterlimit="10"/>
    <path d="M421.06 295.566L454.525 314.914L454.485 293.815" stroke="#616161" stroke-linejoin="round"/>
    <path d="M454.507 293.814L454.547 314.913L491.161 293.894L491.082 272.795L476.591 263.499" stroke="#616161" stroke-linejoin="round"/>
    <path d="M438.087 284.339L439.283 285.036L454.491 293.814H454.511L491.085 272.795" stroke="#616161" stroke-miterlimit="10"/>
    <path d="M392.463 99.7434C392.463 103.685 399.22 106.869 407.551 106.869C415.882 106.869 422.659 103.685 422.659 99.7434" stroke="#616161" stroke-miterlimit="10"/>
    <path d="M422.659 36.2265C422.659 40.1676 415.902 43.3723 407.551 43.3723C399.2 43.3723 392.483 40.1875 392.463 36.2464C392.463 32.3053 399.22 29.1006 407.551 29.1006C415.882 29.1006 422.659 32.3053 422.659 36.2265V36.2265Z" stroke="#616161" stroke-miterlimit="10"/>
    <path d="M428.401 11.9427C428.461 11.6044 428.5 11.266 428.5 10.9276C428.5 5.43388 410.622 0.995117 407.552 0.995117C407.552 0.995117 386.584 5.43388 386.584 10.9276C386.584 11.6044 386.724 12.2811 387.023 12.9181C387.162 13.2565 387.342 13.5948 387.561 13.9133C390.232 17.9341 398.185 20.8601 407.552 20.8601C418.395 20.8601 427.324 16.9587 428.401 11.9427V11.9427Z" stroke="#616161" stroke-miterlimit="10"/>
    <path d="M428.416 11.9038L428.396 11.9436L422.656 36.2274V85.9893V86.0291V99.7037V99.7435" stroke="#616161" stroke-miterlimit="10"/>
    <path d="M386.997 12.8384L387.017 12.918L392.438 36.2464V79.9174V95.5626V99.7426" stroke="#616161" stroke-miterlimit="10"/>
</svg>
