<svg width="88" height="89" viewBox="0 0 88 89" fill="none" xmlns="http://www.w3.org/2000/svg">
<path d="M31.1143 23.6688V19.8613C31.2877 19.8757 31.4612 19.8972 31.6274 19.9259C31.6707 19.9402 31.7141 19.9545 31.7574 19.9617C31.8441 19.9761 31.9236 19.9976 32.0103 20.0191C32.1404 20.0478 32.2777 20.0693 32.415 20.1123C32.5378 20.1481 32.6534 20.1912 32.7763 20.2342C32.8558 20.2629 32.9353 20.2916 33.0147 20.3202C33.0581 20.3346 33.1087 20.3489 33.152 20.3704C33.3905 20.4708 33.629 20.5855 33.853 20.7074C33.8819 20.7218 33.9035 20.7361 33.9324 20.7505L73.856 43.7747C73.9282 43.8177 74.0005 43.8607 74.0728 43.9037C73.9282 43.8177 73.7765 43.7388 73.6248 43.6671C73.473 43.5954 73.314 43.5237 73.1551 43.4663C73.0539 43.4233 72.9455 43.4018 72.8443 43.3659C72.6203 43.2871 72.3891 43.2154 72.1507 43.1652C72.1507 43.1652 72.1507 43.1652 72.1434 43.1652C71.8977 43.1078 71.6521 43.0576 71.3919 43.0289C71.2185 43.0074 71.0379 42.9931 70.8644 42.9787C70.7994 42.9716 70.7271 42.9787 70.6621 42.9787C70.3803 42.9644 70.084 42.9787 69.7878 42.9931C69.6794 43.0003 69.5637 43.0146 69.4481 43.0218C69.412 43.0218 69.3759 43.0289 69.3397 43.0361C69.1013 43.0648 68.8484 43.1006 68.6027 43.1508C68.4076 43.1867 68.2197 43.2225 68.0246 43.2727C67.9379 43.2942 67.8512 43.3158 67.7573 43.3373C67.5332 43.3946 67.3092 43.452 67.0852 43.5309C67.0563 43.538 67.0202 43.5452 66.9913 43.5595C66.9696 43.5595 66.9479 43.5667 66.9335 43.5739C66.8685 43.5954 66.8034 43.6169 66.7384 43.6456C66.3988 43.7675 66.0664 43.9037 65.7195 44.0543C65.4666 44.1619 65.2065 44.2838 64.9536 44.42C64.8669 44.4558 64.7874 44.4989 64.7079 44.5419C64.5128 44.6423 64.3105 44.757 64.1081 44.8717C63.5156 45.2087 62.9303 45.5888 62.3522 46.0118C62.056 46.2126 61.7597 46.4349 61.4707 46.6715C61.3045 46.8006 61.1455 46.9368 60.9865 47.0659C60.7191 47.2882 60.459 47.5176 60.1989 47.7542C60.0399 47.8976 59.8809 48.0411 59.722 48.1916C59.5196 48.3852 59.3245 48.586 59.1294 48.7796C58.8115 49.1023 58.508 49.4249 58.2045 49.762H58.1973C58.0166 49.9699 57.836 50.1635 57.6626 50.3714C57.4747 50.5865 57.294 50.8088 57.1134 51.0311C57.005 51.1602 56.9038 51.2892 56.7954 51.4255C56.5498 51.7266 56.3185 52.035 56.0945 52.3505C55.7549 52.8022 55.4297 53.2755 55.1262 53.7487C55.0395 53.8778 54.96 53.9997 54.8806 54.1287C54.6566 54.4801 54.4398 54.8386 54.2302 55.1971C54.1941 55.2688 54.1507 55.3405 54.1146 55.4122C53.999 55.613 53.8834 55.8138 53.7678 56.0146C53.7605 56.0217 53.7605 56.0289 53.7605 56.0361C53.5654 56.3802 53.3848 56.7316 53.2114 57.0829C53.103 57.3052 52.9946 57.5275 52.8862 57.757C52.7489 58.0366 52.6188 58.3234 52.496 58.6031C52.272 59.1122 52.0697 59.6213 51.8746 60.1232C51.8095 60.2953 51.7445 60.4745 51.6867 60.6466C51.5638 60.998 51.441 61.3493 51.3326 61.6935C51.3326 61.7079 51.3254 61.7222 51.3182 61.7437C51.2603 61.923 51.2025 62.1022 51.1592 62.2743C51.058 62.6113 50.9713 62.9412 50.8918 63.271C50.8268 63.5076 50.769 63.7443 50.7112 63.9809C50.675 64.1099 50.6461 64.2318 50.6317 64.3609C50.6245 64.4039 50.6172 64.4541 50.61 64.4972C50.5956 64.576 50.5811 64.6621 50.5666 64.7409C50.5088 65.0278 50.4655 65.3146 50.4149 65.5942C50.4005 65.6946 50.3788 65.795 50.3643 65.8882C50.3282 66.1392 50.2993 66.3973 50.2704 66.6483C50.2198 67.0928 50.1764 67.5374 50.162 67.9748C50.1548 67.982 50.1548 67.9963 50.162 68.0035C50.1475 68.2186 50.1475 68.4337 50.1475 68.6416C50.1403 68.7205 50.1403 68.7994 50.1403 68.8711C50.1403 69.1436 50.1475 69.4161 50.162 69.6814C50.1764 69.9395 50.1909 70.1976 50.2198 70.4558C50.2343 70.6709 50.2632 70.8788 50.2921 71.0868C50.3065 71.18 50.3137 71.2732 50.3354 71.3664C50.3499 71.4955 50.3715 71.6245 50.4005 71.7464C50.4221 71.8612 50.4438 71.9759 50.4727 72.0906C50.5666 72.528 50.6823 72.9511 50.8196 73.3526C50.8701 73.5247 50.9352 73.6896 50.993 73.8474C51.058 74.0195 51.1303 74.1772 51.2025 74.335C51.4916 74.966 51.8384 75.5396 52.2286 76.0415C52.2792 76.106 52.337 76.1706 52.3876 76.2351C52.5321 76.4072 52.6839 76.5721 52.8501 76.7299C52.9295 76.8159 53.0163 76.8948 53.103 76.9665C53.4065 77.239 53.7316 77.4828 54.0785 77.6979L49.4755 75.0448L25.6081 61.2776L22.0963 59.2556L14.9281 55.1183L14.0827 54.6307C11.7704 53.297 10.2674 50.5865 10.0361 46.7432C10.0145 46.4134 10 46.0764 10 45.725C10 45.2159 10.0217 44.6996 10.065 44.1834C10.0723 44.0185 10.0939 43.8535 10.1084 43.6958C10.1301 43.4592 10.1517 43.2369 10.1806 43.0003C10.1951 42.8999 10.2168 42.7995 10.2312 42.6919C10.2818 42.3262 10.3541 41.9534 10.4263 41.5877C10.4552 41.4156 10.4769 41.2435 10.513 41.0714C10.5275 40.9925 10.5564 40.9065 10.5709 40.8276C10.6287 40.591 10.6865 40.3544 10.7515 40.1106C10.8021 39.9026 10.8454 39.6875 10.9032 39.4796C10.9394 39.3577 10.9827 39.243 11.0189 39.1211C11.0694 38.9346 11.1345 38.741 11.1923 38.5474C11.2429 38.3825 11.2862 38.2248 11.344 38.0598C11.4091 37.8519 11.4958 37.644 11.568 37.436C11.6258 37.2854 11.6764 37.1277 11.7342 36.9771C11.7631 36.8982 11.7848 36.8265 11.8137 36.7477C11.9438 36.425 12.0739 36.1023 12.2184 35.7796C12.2545 35.6864 12.2906 35.5932 12.334 35.5C12.334 35.4857 12.3484 35.4641 12.3557 35.4498C12.3773 35.3924 12.4063 35.3351 12.4352 35.2777C12.5797 34.9479 12.7314 34.618 12.8904 34.2954C12.9482 34.1735 13.0132 34.0516 13.0783 33.9297C13.1433 33.7863 13.2156 33.65 13.2878 33.5138C13.3529 33.3776 13.4179 33.2413 13.4901 33.1123C13.6491 32.8254 13.8081 32.5386 13.9743 32.259C14.0176 32.1801 14.061 32.1012 14.1044 32.0152C14.1188 31.9937 14.1333 31.965 14.1477 31.9363C14.3862 31.5419 14.6246 31.1476 14.8775 30.7604C14.9137 30.703 14.9498 30.6528 14.9859 30.5954C15.0799 30.4592 15.1666 30.323 15.2605 30.1939C15.3978 29.9788 15.5423 29.7637 15.6868 29.5557C15.7736 29.4338 15.8675 29.3191 15.9542 29.1972C16.0843 29.0251 16.2143 28.8459 16.3444 28.6738C16.4383 28.5519 16.5251 28.4228 16.619 28.3009C16.7346 28.1575 16.8575 28.0141 16.9803 27.8707C17.1537 27.6484 17.3344 27.4333 17.5222 27.2182C17.6017 27.125 17.674 27.0246 17.7535 26.9314C17.8546 26.8166 17.9558 26.7234 18.057 26.6159C18.3605 26.2788 18.6712 25.949 18.9891 25.6263C19.0903 25.526 19.1842 25.4112 19.2854 25.3108C19.3865 25.2176 19.4877 25.1316 19.5816 25.0384C19.7406 24.8878 19.8996 24.7444 20.0586 24.601C20.3187 24.3643 20.5788 24.1349 20.8462 23.9126C21.0052 23.7835 21.1641 23.6473 21.3303 23.5182C21.576 23.3175 21.8362 23.131 22.0891 22.9446C22.1324 22.9159 22.1685 22.8872 22.2119 22.8586C22.3492 22.7582 22.4865 22.6506 22.631 22.5574C23.0718 22.2562 23.5198 21.9694 23.9678 21.7113C24.4014 21.4675 24.8277 21.2524 25.254 21.0516C25.2685 21.0444 25.2902 21.0373 25.3046 21.0301V23.6616" stroke="#424242" stroke-miterlimit="10"/>
<path d="M64.1085 44.864C71.8475 40.4326 78.1341 43.9963 78.163 52.8159C78.1919 61.6356 71.9415 72.3768 64.2024 76.8153C56.4634 81.2538 50.1696 77.6973 50.1407 68.8705C50.119 60.0437 56.3695 49.2953 64.1085 44.864Z" stroke="#424242" stroke-miterlimit="10"/>
<path d="M64.1163 47.2885C70.6847 43.524 76.0247 46.55 76.0464 54.043C76.0681 61.5361 70.7642 70.6497 64.1958 74.407C57.6274 78.1715 52.2874 75.1527 52.2657 67.6668C52.244 60.1809 57.5551 51.053 64.1235 47.2885H64.1163Z" stroke="#424242" stroke-miterlimit="10"/>
<path d="M66.9364 43.5734L31.1172 22.8652" stroke="#424242" stroke-miterlimit="10"/>
<path d="M62.0681 46.0771L22 22.9023" stroke="#424242" stroke-miterlimit="10"/>
<path d="M58.2796 49.8056L18.2188 26.6309" stroke="#424242" stroke-miterlimit="10"/>
<path d="M55.1188 54.2646L15.0508 31.0898" stroke="#424242" stroke-miterlimit="10"/>
<path d="M52.1931 58.8961L12.125 35.7285" stroke="#424242" stroke-miterlimit="10"/>
<path d="M50.8571 64.6416L10.7891 41.4668" stroke="#424242" stroke-miterlimit="10"/>
<path d="M50.0681 69.8961L10 46.7285" stroke="#424242" stroke-miterlimit="10"/>
<path d="M68.5968 68.3465L68.6402 48.4199L61.0312 52.7222L61.0746 72.7061L68.5968 68.3465Z" stroke="#424242" stroke-linejoin="round"/>
<path d="M66.9336 56.3945V59.0548" stroke="#424242" stroke-linejoin="round"/>
<path d="M61.0508 64.6407L68.6164 60.4316" stroke="#424242" stroke-linejoin="round"/>
<path d="M64.1085 44.864C71.8475 40.4326 78.1341 43.9963 78.163 52.8159C78.1919 61.6356 71.9415 72.3768 64.2024 76.8153C56.4634 81.2538 50.1696 77.6973 50.1407 68.8705C50.119 60.0437 56.3695 49.2953 64.1085 44.864Z" stroke="#424242" stroke-miterlimit="10"/>
<path d="M72.8678 68.4199L74.0746 69.1083L74.0601 73.1596L54.2031 84.6107L54.2104 80.5594" stroke="#424242" stroke-linejoin="round"/>
<path d="M54.2088 80.5596L54.2016 84.6109L47.1562 80.5811L47.1707 76.5298L49.4758 75.0527" stroke="#424242" stroke-linejoin="round"/>
<path d="M57.3677 78.745L54.21 80.5662L47.1719 76.5293" stroke="#424242" stroke-miterlimit="10"/>
<path d="M25.6102 61.2843L19.1719 64.9985L19.1791 60.9473" stroke="#424242" stroke-linejoin="round"/>
<path d="M19.1776 60.9474L19.1703 64.9987L12.125 60.9617L12.1395 56.9104L14.9287 55.125" stroke="#424242" stroke-linejoin="round"/>
<path d="M22.3365 59.1258L19.1787 60.9471L12.1406 56.9102" stroke="#424242" stroke-miterlimit="10"/>
<path d="M31.1144 23.668C31.1144 24.428 29.8137 25.0375 28.2095 25.0375C26.6054 25.0375 25.3047 24.428 25.3047 23.668" stroke="#424242" stroke-miterlimit="10"/>
<path d="M28.2095 12.8407C29.8138 12.8407 31.1144 12.2275 31.1144 11.4711C31.1144 10.7147 29.8138 10.1016 28.2095 10.1016C26.6052 10.1016 25.3047 10.7147 25.3047 11.4711C25.3047 12.2275 26.6052 12.8407 28.2095 12.8407Z" stroke="#424242" stroke-miterlimit="10"/>
<path d="M32.2439 6.61045C32.2439 6.81123 32.1788 7.00483 32.056 7.18409C31.543 7.95849 30.0111 8.51778 28.2118 8.51778C25.9862 8.51778 24.1797 7.66451 24.1797 6.61045C24.1797 5.5564 27.6193 4.70312 28.2118 4.70312C28.2118 4.70312 32.2439 5.5564 32.2439 6.61045V6.61045Z" stroke="#424242" stroke-miterlimit="10"/>
<path d="M24.1992 6.79688L25.3048 11.472V21.0373V23.6689" stroke="#424242" stroke-miterlimit="10"/>
<path d="M32.161 6.97656L31.1133 11.4724V19.8618V22.8662V23.6693" stroke="#424242" stroke-miterlimit="10"/>
<path d="M30.6562 77.5508L30.6563 84.9037" stroke="#424242" stroke-width="2"/>
<path d="M19.1758 71.2273L31.015 39.3984L43.5506 71.2273C43.3184 73.0256 39.372 77.1615 31.015 77.1615C22.6579 77.1615 19.8722 73.0256 19.1758 71.2273Z" fill="white" stroke="#424242"/>
</svg>
