<svg width="88" height="89" viewBox="0 0 88 89" fill="none" xmlns="http://www.w3.org/2000/svg">
<path d="M19.8906 33.6576L27.438 38.0141L34.6247 42.167L40.0725 45.3117L40.128 45.3395L46.51 49.0299L47.4997 48.734L67.9128 42.7034L69.0412 42.3705L72.4265 41.3715V41.3623L79.8814 39.161H79.8906L73.8878 17.6934L51.4029 8.70312L79.8814 39.161" stroke="#424242" stroke-linejoin="round"/>
<path d="M46.5078 49.0299L48.0154 36.5897L50.5682 15.5568L51.3914 8.70312" stroke="#424242" stroke-linejoin="round"/>
<path d="M19.8906 33.6576L36.8168 14.2989L51.3936 8.70312L43.5595 14.9094L19.8906 33.6576Z" stroke="#424242" stroke-linejoin="round"/>
<path d="M40.0707 45.3114L40.043 49.3164L47.4979 50.0008L67.8555 51.8691L67.911 42.7031" stroke="#424242" stroke-linejoin="round"/>
<path d="M40.0693 45.3108L40.0416 49.3157L35.0747 54.9947L27.3516 63.837L27.4348 50.5828V50.3979L34.6215 42.166" stroke="#424242" stroke-linejoin="round"/>
<path d="M67.911 42.7021L67.8555 51.8681L69.0116 56.0026L72.3414 67.9619L72.4246 54.9944V54.5227L69.0394 42.3691" stroke="#424242" stroke-linejoin="round"/>
<path d="M27.3438 64.0319L47.6829 75.7692L47.7661 62.3207L27.427 50.5834V38.0137" stroke="#424242" stroke-linejoin="round"/>
<path d="M47.4062 75.8063L72.3423 67.9629" stroke="#424242" stroke-linejoin="round"/>
<path d="M29.6484 51.8613V65.4763" stroke="#424242" stroke-linejoin="round"/>
<path d="M33.0078 53.7012V67.3068" stroke="#424242" stroke-linejoin="round"/>
<path d="M36.4766 55.5605V69.1662" stroke="#424242" stroke-linejoin="round"/>
<path d="M40.043 57.6406V71.2555" stroke="#424242" stroke-linejoin="round"/>
<path d="M43.2891 59.7871V73.3928" stroke="#424242" stroke-linejoin="round"/>
<path d="M37.5586 43.9707V51.9806" stroke="#424242" stroke-linejoin="round"/>
<path d="M35.0508 42.7773V55.2824" stroke="#424242" stroke-linejoin="round"/>
<path d="M69.3672 43.7852V55.5595" stroke="#424242" stroke-linejoin="round"/>
<path d="M64.2227 43.9707V51.4904" stroke="#424242" stroke-linejoin="round"/>
<path d="M60.5039 45.0625V51.1855" stroke="#424242" stroke-linejoin="round"/>
<path d="M56.6836 46.0703V50.7227" stroke="#424242" stroke-linejoin="round"/>
<path d="M52.2539 47.0508V50.7227" stroke="#424242" stroke-linejoin="round"/>
<path d="M43.4922 47.0508V49.2984" stroke="#424242" stroke-linejoin="round"/>
<path d="M32.0898 45.0625V58.6682" stroke="#424242" stroke-linejoin="round"/>
<path d="M29.6484 47.8652V60.8975" stroke="#424242" stroke-linejoin="round"/>
<path d="M51.3945 61.1562V74.7712" stroke="#424242" stroke-linejoin="round"/>
<path d="M66 69.9601V57.0296L72.4282 54.9947V41.3613" stroke="#424242" stroke-linejoin="round"/>
<path d="M69.3672 55.5605V69.1662" stroke="#424242" stroke-linejoin="round"/>
<path d="M59.6245 75.8164C61.678 75.8164 63.3427 75.0255 63.3427 74.0498C63.3427 73.0741 61.678 72.2832 59.6245 72.2832C57.5709 72.2832 55.9062 73.0741 55.9062 74.0498C55.9062 75.0255 57.5709 75.8164 59.6245 75.8164Z" stroke="#424242" stroke-miterlimit="10"/>
<path d="M66.4213 74.1328C68.4748 74.1328 70.1395 73.3419 70.1395 72.3662C70.1395 71.3906 68.4748 70.5996 66.4213 70.5996C64.3678 70.5996 62.7031 71.3906 62.7031 72.3662C62.7031 73.3419 64.3678 74.1328 66.4213 74.1328Z" stroke="#424242" stroke-miterlimit="10"/>
<path d="M65.1845 77.3798C66.7017 77.3798 67.9316 76.7959 67.9316 76.0756C67.9316 75.3554 66.7017 74.7715 65.1845 74.7715C63.6674 74.7715 62.4375 75.3554 62.4375 76.0756C62.4375 76.7959 63.6674 77.3798 65.1845 77.3798Z" stroke="#424242" stroke-miterlimit="10"/>
<path d="M70.4194 78.3865C71.7578 78.3865 72.8427 77.8689 72.8427 77.2304C72.8427 76.5918 71.7578 76.0742 70.4194 76.0742C69.081 76.0742 67.9961 76.5918 67.9961 77.2304C67.9961 77.8689 69.081 78.3865 70.4194 78.3865Z" stroke="#424242" stroke-miterlimit="10"/>
<path d="M59.4057 79.3574C61.4592 79.3574 63.1239 78.5665 63.1239 77.5908C63.1239 76.6152 61.4592 75.8242 59.4057 75.8242C57.3522 75.8242 55.6875 76.6152 55.6875 77.5908C55.6875 78.5665 57.3522 79.3574 59.4057 79.3574Z" stroke="#424242" stroke-miterlimit="10"/>
<path d="M66.1557 81.125C68.2092 81.125 69.8739 80.3341 69.8739 79.3584C69.8739 78.3827 68.2092 77.5918 66.1557 77.5918C64.1022 77.5918 62.4375 78.3827 62.4375 79.3584C62.4375 80.3341 64.1022 81.125 66.1557 81.125Z" stroke="#424242" stroke-miterlimit="10"/>
<path d="M54.8906 75.8242C55.9952 75.8242 56.8906 75.3765 56.8906 74.8242C56.8906 74.2719 55.9952 73.8242 54.8906 73.8242C53.7861 73.8242 52.8906 74.2719 52.8906 74.8242C52.8906 75.3765 53.7861 75.8242 54.8906 75.8242Z" stroke="#424242" stroke-miterlimit="10"/>
<path d="M51.8906 78.8242C53.5475 78.8242 54.8906 78.1526 54.8906 77.3242C54.8906 76.4958 53.5475 75.8242 51.8906 75.8242C50.2338 75.8242 48.8906 76.4958 48.8906 77.3242C48.8906 78.1526 50.2338 78.8242 51.8906 78.8242Z" stroke="#424242" stroke-miterlimit="10"/>
<path d="M70.1448 76.0753C71.4371 76.0753 72.4848 75.5784 72.4848 74.9654C72.4848 74.3524 71.4371 73.8555 70.1448 73.8555C68.8524 73.8555 67.8047 74.3524 67.8047 74.9654C67.8047 75.5784 68.8524 76.0753 70.1448 76.0753Z" stroke="#424242" stroke-miterlimit="10"/>
<path d="M55.1043 73.3929V59.7873L47.4922 62.3678V48.7344" stroke="#424242" stroke-linejoin="round"/>
<path d="M66 57.0312L69.2187 58.6684V71.5526L66 69.6473V57.0312Z" fill="white" stroke="#424242" stroke-linejoin="round"/>
<path d="M55.0742 59.7871L57.4513 62.7284V75.6126L55.0742 72.3939V59.7871Z" fill="white" stroke="#424242" stroke-linejoin="round"/>
<path d="M26.9844 65.334L26.9844 81.3975" stroke="#424242" stroke-width="2"/>
<mask id="path-40-inside-1_333_16914" fill="white">
<path fill-rule="evenodd" clip-rule="evenodd" d="M15.3061 41.6055C15.3026 41.4837 15.3008 41.3615 15.3008 41.2389C15.3008 34.3835 20.8581 28.8262 27.7135 28.8262C34.5074 28.8262 40.0265 34.2844 40.1248 41.055C45.199 42.6136 48.8879 47.3372 48.8879 52.9225C48.8879 59.5367 43.7145 64.9427 37.1933 65.3147C34.9164 68.0056 31.5145 69.714 27.7135 69.714C23.8187 69.714 20.343 67.9203 18.0672 65.1139C12.3333 64.0173 8 58.9759 8 52.9225C8 47.8874 10.9979 43.5526 15.3061 41.6055Z"/>
</mask>
<path fill-rule="evenodd" clip-rule="evenodd" d="M15.3061 41.6055C15.3026 41.4837 15.3008 41.3615 15.3008 41.2389C15.3008 34.3835 20.8581 28.8262 27.7135 28.8262C34.5074 28.8262 40.0265 34.2844 40.1248 41.055C45.199 42.6136 48.8879 47.3372 48.8879 52.9225C48.8879 59.5367 43.7145 64.9427 37.1933 65.3147C34.9164 68.0056 31.5145 69.714 27.7135 69.714C23.8187 69.714 20.343 67.9203 18.0672 65.1139C12.3333 64.0173 8 58.9759 8 52.9225C8 47.8874 10.9979 43.5526 15.3061 41.6055Z" fill="white"/>
<path d="M15.3061 41.6055L15.7179 42.5168L16.325 42.2424L16.3057 41.5765L15.3061 41.6055ZM40.1248 41.055L39.1249 41.0695L39.1355 41.7972L39.8312 42.0109L40.1248 41.055ZM37.1933 65.3147L37.1364 64.3163L36.7074 64.3408L36.4299 64.6688L37.1933 65.3147ZM18.0672 65.1139L18.844 64.484L18.6139 64.2003L18.2551 64.1317L18.0672 65.1139ZM16.3057 41.5765C16.3024 41.4644 16.3008 41.3518 16.3008 41.2389H14.3008C14.3008 41.3712 14.3027 41.5031 14.3065 41.6345L16.3057 41.5765ZM16.3008 41.2389C16.3008 34.9358 21.4104 29.8262 27.7135 29.8262V27.8262C20.3058 27.8262 14.3008 33.8312 14.3008 41.2389H16.3008ZM27.7135 29.8262C33.96 29.8262 39.0345 34.8447 39.1249 41.0695L41.1247 41.0405C41.0185 33.7241 35.0548 27.8262 27.7135 27.8262V29.8262ZM49.8879 52.9225C49.8879 46.8858 45.9006 41.783 40.4184 40.0991L39.8312 42.0109C44.4974 43.4442 47.8879 47.7887 47.8879 52.9225H49.8879ZM37.2503 66.3131C44.2977 65.9111 49.8879 60.07 49.8879 52.9225H47.8879C47.8879 59.0035 43.1313 63.9744 37.1364 64.3163L37.2503 66.3131ZM27.7135 70.714C31.8209 70.714 35.4979 68.8665 37.9567 65.9607L36.4299 64.6688C34.3349 67.1447 31.208 68.714 27.7135 68.714V70.714ZM17.2905 65.7437C19.748 68.7742 23.5046 70.714 27.7135 70.714V68.714C24.1329 68.714 20.938 67.0664 18.844 64.484L17.2905 65.7437ZM7 52.9225C7 59.4647 11.683 64.9111 17.8794 66.0961L18.2551 64.1317C12.9836 63.1236 9 58.4872 9 52.9225H7ZM14.8943 40.6942C10.2412 42.7972 7 47.4802 7 52.9225H9C9 48.2946 11.7546 44.3079 15.7179 42.5168L14.8943 40.6942Z" fill="#424242" mask="url(#path-40-inside-1_333_16914)"/>
</svg>
