<svg width="88" height="89" viewBox="0 0 88 89" fill="none" xmlns="http://www.w3.org/2000/svg">
<path d="M22.0742 33.3867L22.1471 56.538L48.167 71.0812L48.1597 47.8949L22.0742 33.3867Z" stroke="#424242" stroke-linejoin="round"/>
<path d="M52.7467 16.4512L22.0742 33.3867L48.1597 47.8948L78.8323 30.8471L52.7467 16.4512Z" stroke="#424242" stroke-linejoin="round"/>
<path d="M52.7408 39.5534L52.748 16.4512L78.8336 30.8471L78.7606 53.9914L48.1683 71.0812L22.1484 56.538" stroke="#424242" stroke-linejoin="round"/>
<path d="M48 50.1707L84.0027 30.089L66.0638 20.0723" fill="white"/>
<path d="M48 50.1707L84.0027 30.089L66.0638 20.0723" stroke="#424242" stroke-miterlimit="10"/>
<path d="M36.5115 3.70312L18.5039 33.7114L47.9981 50.1697L66.062 20.0713L36.5115 3.70312Z" fill="white" stroke="#424242" stroke-miterlimit="10"/>
<g opacity="0.2">
<path d="M22.0742 52.8263L48.1597 67.4186L78.8323 50.0762" stroke="#424242" stroke-linejoin="round"/>
<path d="M22.0742 49.3185L48.1597 63.9108L78.8323 46.5684" stroke="#424242" stroke-linejoin="round"/>
<path d="M22.0742 45.8106L48.1597 60.403L78.8323 43.0605" stroke="#424242" stroke-linejoin="round"/>
<path d="M22.0742 42.3028L48.1597 56.8952L78.8323 39.5527" stroke="#424242" stroke-linejoin="round"/>
<path d="M22.0742 38.627L48.1597 53.2194L78.8323 35.877" stroke="#424242" stroke-linejoin="round"/>
</g>
<path d="M60.5469 62.3715L68.8196 57.1672V55.111L67.1045 53.8342L60.5469 58.0656" fill="white"/>
<path d="M60.5469 62.3715L68.8196 57.1672V55.111L67.1045 53.8342L60.5469 58.0656" stroke="#424242" stroke-miterlimit="10"/>
<path d="M67.0455 43.294L76.5 42.7031V53.9304H67.0455L60.5455 58.0668V53.3395L57 49.2031L67.0455 43.294Z" fill="white"/>
<path d="M67.0455 43.294L76.5 42.7031V53.9304H67.0455M67.0455 43.294V53.9304M67.0455 43.294L57 49.2031L60.5455 53.3395V58.0668L67.0455 53.9304" stroke="#424242" stroke-linejoin="bevel"/>
<path d="M60.5455 53.3386L57 48.6113V59.8386L60.5455 64.5659V53.3386Z" fill="white" stroke="#424242" stroke-linejoin="bevel"/>
<g opacity="0.2">
<path d="M19.5273 32.0039L48.9279 48.6124" stroke="#424242" stroke-linejoin="round"/>
<path d="M21.7109 28.4004L51.1115 45.0089" stroke="#424242" stroke-linejoin="round"/>
<path d="M23.8984 24.7949L53.299 41.4034" stroke="#424242" stroke-linejoin="round"/>
<path d="M26.0859 21.1895L55.4865 37.798" stroke="#424242" stroke-linejoin="round"/>
<path d="M28.2734 17.584L57.674 34.1925" stroke="#424242" stroke-linejoin="round"/>
<path d="M30.4609 13.9785L59.8615 30.587" stroke="#424242" stroke-linejoin="round"/>
<path d="M32.6445 10.373L62.0451 26.9815" stroke="#424242" stroke-linejoin="round"/>
<path d="M34.8281 6.76758L64.2287 23.3761" stroke="#424242" stroke-linejoin="round"/>
</g>
<path d="M12.5 66.3281L12.5 71.6406" stroke="#424242" stroke-width="2"/>
<path d="M4 61.268L12.5538 38.2715L21.6109 61.268C21.4431 62.5672 18.5919 65.5554 12.5538 65.5554C6.51584 65.5554 4.50317 62.5672 4 61.268Z" fill="white" stroke="#424242"/>
<path d="M19 75.9531L19 81.5781" stroke="#424242" stroke-width="2"/>
<path d="M10.2148 70.5211L19.2719 46.1719L28.8616 70.5211C28.6841 71.8967 25.665 75.0608 19.2719 75.0608C12.8787 75.0608 10.7476 71.8967 10.2148 70.5211Z" fill="white" stroke="#424242"/>
<path d="M34 73.7031L34 84.7031" stroke="#424242" stroke-width="2"/>
<mask id="path-30-inside-1_333_16799" fill="white">
<path fill-rule="evenodd" clip-rule="evenodd" d="M26.0036 57.4532C26.0012 57.3702 26 57.2868 26 57.2031C26 52.5087 29.8056 48.7031 34.5 48.7031C39.1521 48.7031 42.9313 52.4404 42.9991 57.0764C46.4739 58.1437 49 61.3784 49 65.2031C49 69.7321 45.4579 73.4338 40.9929 73.6891C39.4337 75.5326 37.1035 76.7031 34.5 76.7031C31.8323 76.7031 29.4516 75.4741 27.8932 73.5515C23.967 72.8003 21 69.3482 21 65.2031C21 61.755 23.0531 58.7864 26.0036 57.4532Z"/>
</mask>
<path fill-rule="evenodd" clip-rule="evenodd" d="M26.0036 57.4532C26.0012 57.3702 26 57.2868 26 57.2031C26 52.5087 29.8056 48.7031 34.5 48.7031C39.1521 48.7031 42.9313 52.4404 42.9991 57.0764C46.4739 58.1437 49 61.3784 49 65.2031C49 69.7321 45.4579 73.4338 40.9929 73.6891C39.4337 75.5326 37.1035 76.7031 34.5 76.7031C31.8323 76.7031 29.4516 75.4741 27.8932 73.5515C23.967 72.8003 21 69.3482 21 65.2031C21 61.755 23.0531 58.7864 26.0036 57.4532Z" fill="white"/>
<path d="M26.0036 57.4532L26.4154 58.3645L27.0224 58.0902L27.0032 57.4244L26.0036 57.4532ZM42.9991 57.0764L41.9992 57.0911L42.0098 57.8187L42.7055 58.0324L42.9991 57.0764ZM40.9929 73.6891L40.9358 72.6907L40.5068 72.7152L40.2293 73.0433L40.9929 73.6891ZM27.8932 73.5515L28.6701 72.9218L28.44 72.6379L28.0811 72.5693L27.8932 73.5515ZM27.0032 57.4244C27.0011 57.3509 27 57.2771 27 57.2031H25C25 57.2964 25.0013 57.3894 25.004 57.4821L27.0032 57.4244ZM27 57.2031C27 53.061 30.3579 49.7031 34.5 49.7031V47.7031C29.2533 47.7031 25 51.9564 25 57.2031H27ZM34.5 49.7031C38.6047 49.7031 41.9394 53.0008 41.9992 57.0911L43.999 57.0618C43.9233 51.8801 39.6995 47.7031 34.5 47.7031V49.7031ZM50 65.2031C50 60.927 47.1755 57.3131 43.2927 56.1205L42.7055 58.0324C45.7723 58.9743 48 61.8299 48 65.2031H50ZM41.05 74.6874C46.0412 74.4021 50 70.2653 50 65.2031H48C48 69.1989 44.8746 72.4655 40.9358 72.6907L41.05 74.6874ZM34.5 77.7031C37.4101 77.7031 40.0153 76.3934 41.7564 74.3348L40.2293 73.0433C38.852 74.6718 36.797 75.7031 34.5 75.7031V77.7031ZM27.1163 74.1811C28.8564 76.328 31.518 77.7031 34.5 77.7031V75.7031C32.1465 75.7031 30.0467 74.6203 28.6701 72.9218L27.1163 74.1811ZM20 65.2031C20 69.837 23.3167 73.694 27.7053 74.5337L28.0811 72.5693C24.6174 71.9066 22 68.8594 22 65.2031H20ZM25.5918 56.5419C22.2965 58.031 20 61.3478 20 65.2031H22C22 62.1622 23.8098 59.5419 26.4154 58.3645L25.5918 56.5419Z" fill="#424242" mask="url(#path-30-inside-1_333_16799)"/>
</svg>
