<svg width="248" height="177" viewBox="0 0 248 177" fill="none" xmlns="http://www.w3.org/2000/svg">
<g clip-path="url(#clip0_464_29732)">
<g clip-path="url(#clip1_464_29732)">
<path d="M151.006 38.6494L225.572 138.499L240.121 92.0431L151.006 38.6494Z" fill="#292929" stroke="#616161" stroke-linejoin="round"/>
<path d="M151.011 38.6307L240.216 91.7387L193.915 41.6093L151.011 38.6307Z" fill="#292929" stroke="#616161" stroke-linejoin="round"/>
<path d="M150.051 38.3506L77.9911 127.907L158.152 153.013L150.051 38.3506Z" fill="#292929" stroke="#616161" stroke-linejoin="round"/>
<path d="M193.12 41.3604L112.959 16.2549L150.056 38.3522L193.12 41.3604Z" fill="#292929" stroke="#616161" stroke-linejoin="round"/>
<path d="M151.006 38.6494L158.947 153.262L225.658 138.224L151.006 38.6494Z" fill="#292929" stroke="#616161" stroke-linejoin="round"/>
<path d="M31.9362 77.5526L78.7141 128.133L151.006 38.6493L31.9362 77.5526Z" fill="#292929" stroke="#616161" stroke-linejoin="round"/>
<path d="M151.011 38.6306L113.672 16.4778L46.4945 31.067L151.011 38.6306Z" fill="#292929" stroke="#616161" stroke-linejoin="round"/>
<path d="M151.006 38.6493L46.3997 31.3714L31.8501 77.8274L151.006 38.6493Z" fill="#292929" stroke="#616161" stroke-linejoin="round"/>
<path d="M97.4479 206.306L118.07 140.46" stroke="#616161" stroke-linejoin="round"/>
</g>
<path d="M141 18.7344V31.7344" stroke="#616161"/>
<path d="M175.422 7.52539V20.5254" stroke="#616161"/>
<path d="M200.291 18.458V31.458" stroke="#616161"/>
<path d="M220 59.7344L220 64.7344" stroke="#616161"/>
<path d="M63 84.7344L63 90.7344" stroke="#616161"/>
<path d="M107 61.7344L107 67.7344" stroke="#616161"/>
<path d="M94.2344 99.4629V112.463" stroke="#616161"/>
<path d="M134 118.734L134 128.734" stroke="#616161"/>
<path d="M94.5273 11.5312V24.5312" stroke="#616161"/>
<path d="M51.9785 36.9775V49.9775" stroke="#616161"/>
<path d="M39 22.7344V35.7344" stroke="#616161"/>
</g>
<defs>
<clipPath id="clip0_464_29732">
<rect width="250" height="239" fill="white" transform="translate(0 -2.63184)"/>
</clipPath>
<clipPath id="clip1_464_29732">
<rect width="204" height="187" fill="white" transform="translate(56 -2.63184) rotate(17.39)"/>
</clipPath>
</defs>
</svg>
