<svg width="134" height="58" viewBox="0 0 134 58" fill="none" xmlns="http://www.w3.org/2000/svg">
<rect width="44.0457" height="38" transform="translate(44.9775)" fill="#007550"/>
<path fill-rule="evenodd" clip-rule="evenodd" d="M67.5183 28L73.7167 16H70.0835L66.5373 22.8668L65.6623 21.1739L68.3362 16H64.7031L63.8471 17.6576L62.9911 16H59.358L62.0319 21.1739L61.1569 22.8668L57.6107 16H53.9775L60.1732 28H62.1406L63.8471 24.6929L65.5536 28H67.5183ZM80.0232 28V24.7717H74.5748L79.1047 16H75.4716L69.2732 28H80.0232Z" fill="white"/>
<g clip-path="url(#clip0_152_24149)">
<path d="M6.71799 44.579H9.51985L10.8647 48.8192L12.2096 44.579H15.0489L12.8401 50.7245L14.185 54.2922L17.5052 44.5464H20.8487L15.5485 57.8132H12.9895L10.8788 52.6251L8.79137 57.8132H6.21365L0.932129 44.5604H4.25234L7.5959 54.3062L8.89877 50.7245L6.71799 44.579Z" fill="#1C1C1C"/>
<path d="M26.415 58C25.6509 58.0141 24.8918 57.8744 24.1829 57.5891C23.5616 57.3377 22.9989 56.9609 22.5298 56.4823C22.0846 56.0155 21.7397 55.4624 21.5164 54.8572C21.0577 53.6092 21.0577 52.2387 21.5164 50.9907C21.7398 50.3869 22.0847 49.8354 22.5298 49.3703C22.9993 48.8887 23.5617 48.5075 24.1829 48.2495C25.615 47.6891 27.2057 47.6891 28.6378 48.2495C29.2535 48.51 29.8108 48.8911 30.2769 49.3703C30.7262 49.8348 31.0758 50.3862 31.3043 50.9907C31.5418 51.6074 31.6621 52.2631 31.6592 52.924C31.6607 53.5839 31.5436 54.2387 31.3136 54.8572C31.0904 55.4635 30.7437 56.0169 30.2956 56.4823C29.8283 56.9609 29.2671 57.3377 28.6472 57.5891C27.9381 57.874 27.1791 58.0137 26.415 58ZM24.2296 52.924C24.1941 53.6018 24.4141 54.2682 24.846 54.7919C25.1433 55.1248 25.5392 55.3542 25.9759 55.4466C26.4127 55.539 26.8675 55.4896 27.2743 55.3055C27.5349 55.1797 27.767 55.0017 27.956 54.7825C28.1607 54.543 28.3191 54.2675 28.423 53.97C28.5377 53.6365 28.5945 53.2859 28.5911 52.9333C28.6265 52.2555 28.4066 51.589 27.9747 51.0654C27.7846 50.8408 27.5468 50.6613 27.2786 50.5402C27.0104 50.419 26.7186 50.3591 26.4244 50.3649C26.1283 50.3621 25.8353 50.4242 25.5658 50.5469C25.2963 50.6695 25.057 50.8497 24.8646 51.0747C24.6599 51.3143 24.5016 51.5898 24.3977 51.8873C24.2878 52.2216 24.2356 52.5721 24.2436 52.924H24.2296Z" fill="#1C1C1C"/>
<path d="M37.8139 58C37.0499 58.0137 36.2909 57.874 35.5818 57.5891C34.9625 57.3365 34.4015 56.9599 33.9334 56.4823C33.4853 56.0169 33.1386 55.4635 32.9153 54.8572C32.4566 53.6092 32.4566 52.2387 32.9153 50.9907C33.1392 50.386 33.4858 49.8343 33.9334 49.3702C34.4021 48.8898 34.9627 48.5087 35.5818 48.2495C36.2895 47.9591 37.0491 47.8161 37.8139 47.8292C38.5759 47.8153 39.3325 47.9584 40.0368 48.2495C40.6538 48.5099 41.2127 48.8909 41.6805 49.3702C42.1284 49.835 42.4764 50.3864 42.7032 50.9907C42.9407 51.6074 43.061 52.2631 43.0581 52.9239C43.0619 53.5841 42.9448 54.2393 42.7125 54.8572C42.4892 55.4624 42.1443 56.0155 41.6992 56.4823C41.2301 56.9609 40.6673 57.3377 40.0461 57.5891C39.3371 57.8744 38.578 58.0141 37.8139 58ZM35.6285 52.9239C35.5931 53.6018 35.813 54.2682 36.2449 54.7919C36.5422 55.1248 36.9381 55.3542 37.3749 55.4466C37.8116 55.539 38.2665 55.4896 38.6732 55.3055C38.9346 55.181 39.1669 55.0028 39.355 54.7825C39.5597 54.543 39.718 54.2675 39.8219 53.97C39.9366 53.6365 39.9935 53.2859 39.9901 52.9333C40.0255 52.2555 39.8055 51.589 39.3736 51.0654C39.1835 50.8407 38.9457 50.6613 38.6775 50.5401C38.4093 50.419 38.1175 50.3591 37.8233 50.3649C37.5272 50.3621 37.2342 50.4242 36.9647 50.5469C36.6953 50.6695 36.4559 50.8497 36.2636 51.0747C36.0589 51.3143 35.9005 51.5898 35.7966 51.8873C35.6819 52.2207 35.6251 52.5713 35.6285 52.9239Z" fill="#1C1C1C"/>
<path d="M48.6059 58C47.9629 58.0091 47.3256 57.8785 46.738 57.6171C46.1791 57.3684 45.6793 57.0039 45.2717 56.5477C44.8527 56.0741 44.5264 55.526 44.3097 54.932C44.0745 54.2824 43.9574 53.5961 43.9641 52.9053C43.9603 52.2262 44.0675 51.5511 44.2817 50.9066C44.4761 50.3178 44.7803 49.7711 45.1783 49.2955C45.5568 48.8465 46.0243 48.4808 46.5512 48.2215C47.0949 47.9566 47.6929 47.8223 48.2977 47.8292C48.9511 47.8131 49.5966 47.9745 50.1656 48.2962C50.7065 48.6032 51.1499 49.0564 51.4451 49.6037V44.1868H54.4338V54.4603C54.4132 54.6785 54.4622 54.8975 54.5739 55.0861C54.7045 55.2196 54.8821 55.2967 55.0689 55.3009V57.8179C54.8353 57.8745 54.5982 57.9151 54.3591 57.9393C54.1567 57.958 53.9699 57.9673 53.7987 57.9673C53.352 57.9889 52.9093 57.8749 52.5285 57.6404C52.3715 57.5363 52.2397 57.3984 52.1427 57.2368C52.0458 57.0752 51.9861 56.8941 51.9681 56.7065L51.9121 56.2021C51.5904 56.7842 51.1027 57.2573 50.5112 57.5611C49.9203 57.8577 49.267 58.0082 48.6059 58ZM49.4044 55.483C49.8269 55.4798 50.2391 55.3532 50.5906 55.1188C50.9721 54.8783 51.2742 54.5307 51.4591 54.1194V52.0647C51.2813 51.5782 50.9667 51.1533 50.5532 50.8412C50.1848 50.5449 49.7278 50.3805 49.255 50.3743C48.9476 50.3721 48.6445 50.4459 48.3724 50.5891C48.1045 50.7322 47.8666 50.9256 47.6719 51.1588C47.4651 51.4003 47.3066 51.6793 47.205 51.9807C47.0975 52.2996 47.0439 52.6341 47.0462 52.9706C47.0419 53.315 47.1021 53.6571 47.2236 53.9793C47.3263 54.2746 47.4848 54.5473 47.6906 54.7825C47.8992 55.0086 48.154 55.1869 48.4378 55.3055C48.7444 55.4306 49.0734 55.491 49.4044 55.483Z" fill="#1C1C1C"/>
<path d="M63.8713 58C63.4109 58.006 62.9533 57.9268 62.5217 57.7665C62.123 57.6239 61.7575 57.4014 61.4476 57.1127C61.1476 56.835 60.9062 56.5 60.7378 56.1274C60.5601 55.7377 60.4708 55.3135 60.4763 54.8853C60.4702 54.4248 60.5759 53.9696 60.7845 53.559C60.9938 53.1561 61.2906 52.8051 61.6531 52.5317C62.0519 52.2335 62.4989 52.0061 62.9747 51.8592C63.5258 51.6933 64.0989 51.6115 64.6745 51.6164C65.0751 51.6172 65.475 51.6515 65.8699 51.7192C66.2181 51.7777 66.5572 51.8813 66.8786 52.0274V51.5604C66.8786 50.4303 66.2248 49.8653 64.9173 49.8653C64.3946 49.8625 63.8757 49.9543 63.3856 50.1361C62.8458 50.3427 62.3331 50.614 61.8586 50.944L60.9807 49.0761C61.6029 48.669 62.2808 48.3544 62.9933 48.1421C63.7142 47.9257 64.4635 47.8186 65.2162 47.8246C66.6965 47.8246 67.8406 48.1701 68.6531 48.8706C69.4657 49.5711 69.8626 50.5844 69.8626 51.9293V54.4603C69.842 54.6785 69.891 54.8975 70.0027 55.0861C70.1338 55.2188 70.3112 55.2957 70.4977 55.3009V57.8179C70.2647 57.8772 70.0273 57.9178 69.7879 57.9393C69.5777 57.9393 69.3863 57.9673 69.2088 57.9673C68.7627 57.9987 68.3185 57.8839 67.9433 57.6404C67.7957 57.5283 67.6719 57.3881 67.5789 57.2277C67.4859 57.0674 67.4256 56.8902 67.4016 56.7065L67.3456 56.2395C66.9296 56.7801 66.3963 57.2192 65.7859 57.5237C65.1938 57.8303 64.538 57.9935 63.8713 58ZM64.7492 55.8566C65.068 55.8558 65.3841 55.7989 65.6831 55.6885C65.9641 55.5852 66.2214 55.4264 66.4396 55.2215C66.5611 55.1443 66.6631 55.04 66.7376 54.9169C66.8121 54.7938 66.8572 54.6551 66.8693 54.5117V53.5777C66.5934 53.4751 66.309 53.397 66.0194 53.3442C65.7392 53.2905 65.4547 53.2624 65.1695 53.2602C64.6904 53.2427 64.2176 53.3732 63.8152 53.6338C63.6512 53.737 63.5162 53.8804 63.4231 54.0504C63.3299 54.2203 63.2817 54.4113 63.2829 54.6051C63.2799 54.7744 63.3153 54.9422 63.3865 55.0959C63.4576 55.2496 63.5627 55.3851 63.6938 55.4923C63.9888 55.7399 64.3642 55.8712 64.7492 55.8612V55.8566Z" fill="#1C1C1C"/>
<path d="M81.4763 57.8132H78.4876V52.3075C78.527 51.8129 78.3987 51.3194 78.1234 50.9066C78.0074 50.7646 77.8604 50.6511 77.6935 50.575C77.5267 50.4989 77.3447 50.4621 77.1614 50.4677C76.9434 50.471 76.7279 50.5153 76.5263 50.5984C76.3061 50.693 76.0989 50.8154 75.9099 50.9626C75.7109 51.1228 75.5336 51.308 75.3822 51.5137C75.2256 51.7237 75.1027 51.9569 75.018 52.2048V57.8085H72.0293V48.002H74.7191V49.6458C75.0841 49.0542 75.6152 48.5832 76.2461 48.2915C76.9608 47.966 77.7398 47.8064 78.525 47.8246C79.0572 47.8012 79.586 47.9205 80.0566 48.1701C80.4276 48.3869 80.7365 48.6957 80.9532 49.0667C81.1662 49.4391 81.3087 49.8475 81.3735 50.2715C81.4393 50.6902 81.4736 51.1132 81.4763 51.537V57.8132Z" fill="#1C1C1C"/>
<path d="M87.5239 58C86.8809 58.0091 86.2435 57.8785 85.656 57.6171C85.097 57.3684 84.5973 57.0039 84.1896 56.5477C83.7723 56.0729 83.4462 55.5251 83.2277 54.932C82.9924 54.2824 82.8754 53.5961 82.8821 52.9053C82.8782 52.2262 82.9855 51.5511 83.1997 50.9066C83.396 50.3186 83.7 49.7723 84.0963 49.2955C84.4748 48.8465 84.9422 48.4808 85.4692 48.2215C86.0129 47.9566 86.6109 47.8223 87.2157 47.8292C87.8691 47.8131 88.5146 47.9745 89.0836 48.2962C89.6244 48.6032 90.0679 49.0564 90.3631 49.6037V44.1868H93.3518V54.4603C93.3311 54.6785 93.3802 54.8975 93.4919 55.0861C93.6224 55.2196 93.8001 55.2967 93.9868 55.3009V57.8179C93.7533 57.8745 93.5161 57.9151 93.277 57.9393C93.0747 57.958 92.8879 57.9673 92.7167 57.9673C92.27 57.9889 91.8273 57.8749 91.4465 57.6404C91.2894 57.5363 91.1576 57.3984 91.0607 57.2368C90.9637 57.0752 90.9041 56.8941 90.8861 56.7065L90.8301 56.2021C90.5098 56.7852 90.0217 57.2587 89.4291 57.5611C88.8385 57.8582 88.185 58.0087 87.5239 58ZM88.3271 55.483C88.748 55.4797 89.1588 55.3531 89.5085 55.1188C89.89 54.8783 90.1922 54.5307 90.3771 54.1194V52.0647C90.1992 51.5782 89.8847 51.1533 89.4712 50.8412C89.1046 50.5449 88.649 50.3804 88.1776 50.3743C87.8687 50.3714 87.5638 50.4452 87.2904 50.5891C87.0224 50.7322 86.7846 50.9256 86.5899 51.1588C86.3848 51.4015 86.2265 51.6802 86.1229 51.9807C86.0155 52.2996 85.9618 52.6341 85.9642 52.9706C85.9622 53.3148 86.0223 53.6565 86.1416 53.9793C86.2442 54.2746 86.4028 54.5473 86.6086 54.7825C86.8171 55.0086 87.072 55.1869 87.3558 55.3055C87.664 55.4306 87.9946 55.491 88.3271 55.483Z" fill="#1C1C1C"/>
<path d="M100.253 57.8132V44.5604H103.312V55.1281H109.733V57.8132H100.253Z" fill="#1C1C1C"/>
<path d="M110.938 46.8953V44.1868H113.927V46.8953H110.938ZM110.938 57.8132V48.0067H113.927V57.8132H110.938Z" fill="#1C1C1C"/>
<path d="M116.603 57.8132V51.0747H115.351V48.8192H116.603V48.016C116.597 47.4527 116.679 46.8919 116.845 46.3536C116.991 45.8892 117.226 45.4577 117.537 45.0834C117.833 44.7377 118.203 44.4632 118.62 44.2802C119.062 44.0894 119.539 43.994 120.021 44C120.902 44.0205 121.771 44.2174 122.575 44.5791L122.034 46.8206C121.822 46.7274 121.601 46.6555 121.375 46.6057C121.152 46.5521 120.923 46.5239 120.693 46.5217C119.955 46.5217 119.591 46.9887 119.591 47.9226V48.8566H121.87V51.1121H119.591V57.8506L116.603 57.8132Z" fill="#1C1C1C"/>
<path d="M127.843 58C127.086 58.0136 126.333 57.8771 125.629 57.5984C125.007 57.3526 124.441 56.9824 123.967 56.5103C123.517 56.0533 123.165 55.51 122.93 54.9133C122.695 54.3089 122.575 53.6659 122.575 53.0173C122.573 52.3322 122.693 51.6521 122.93 51.0093C123.159 50.3967 123.508 49.8361 123.957 49.3609C124.422 48.8735 124.986 48.4913 125.611 48.2402C126.32 47.9549 127.079 47.8151 127.843 47.8292C128.602 47.8144 129.357 47.9542 130.061 48.2402C130.68 48.4927 131.24 48.8712 131.705 49.3516C132.15 49.8134 132.497 50.3617 132.723 50.9626C132.953 51.5778 133.07 52.2297 133.068 52.8866C133.068 53.0594 133.068 53.2322 133.068 53.4003C133.068 53.5684 133.036 53.7131 133.012 53.8392H125.751C125.757 54.1265 125.825 54.4092 125.949 54.6684C126.073 54.9277 126.25 55.1576 126.47 55.3429C126.884 55.6796 127.402 55.8612 127.936 55.8566C128.375 55.855 128.806 55.746 129.192 55.539C129.561 55.3648 129.852 55.0581 130.005 54.6798L132.545 55.3896C132.14 56.1723 131.518 56.8211 130.752 57.2575C129.869 57.7677 128.862 58.0246 127.843 58ZM129.911 51.99C129.879 51.4314 129.639 50.9051 129.239 50.5143C128.84 50.1649 128.328 49.9723 127.798 49.9723C127.268 49.9723 126.756 50.1649 126.358 50.5143C125.965 50.906 125.73 51.4274 125.695 51.9807L129.911 51.99Z" fill="#1C1C1C"/>
</g>
<defs>
<clipPath id="clip0_152_24149">
<rect width="132.136" height="14" fill="white" transform="translate(0.932129 44)"/>
</clipPath>
</defs>
</svg>
