<svg width="114" height="43" viewBox="0 0 114 43" fill="none" xmlns="http://www.w3.org/2000/svg">
<rect width="31.7051" height="25" transform="translate(41.1475)" fill="#007550"/>
<path fill-rule="evenodd" clip-rule="evenodd" d="M57.4314 20L62.5967 10H59.5691L56.6139 15.7224L55.8848 14.3116L58.113 10H55.0854L54.3721 11.3813L53.6588 10H50.6312L52.8594 14.3116L52.1303 15.7224L49.1751 10H46.1475L51.3105 20H52.95L54.3721 17.2441L55.7942 20H57.4314ZM67.8526 20V17.3098H63.3123L67.0872 10H64.0596L58.8943 20H67.8526Z" fill="white"/>
<g clip-path="url(#clip0_152_24269)">
<path d="M5.32942 31.4963H7.73102L8.88379 35.1307L10.0366 31.4963H12.4702L10.5769 36.7638L11.7297 39.8219L14.5756 31.4683H17.4415L12.8985 42.8399H10.705L8.8958 38.3929L7.10661 42.8399H4.89713L0.370117 31.4803H3.21601L6.08192 39.8339L7.19867 36.7638L5.32942 31.4963Z" fill="#1C1C1C"/>
<path d="M22.2125 43C21.5575 43.0121 20.9069 42.8923 20.2992 42.6478C19.7667 42.4323 19.2843 42.1094 18.8822 41.6991C18.5007 41.299 18.2051 40.8249 18.0137 40.3062C17.6204 39.2365 17.6204 38.0618 18.0137 36.992C18.2052 36.4745 18.5008 36.0018 18.8822 35.6031C19.2847 35.1904 19.7668 34.8636 20.2992 34.6425C21.5267 34.1621 22.8902 34.1621 24.1177 34.6425C24.6454 34.8657 25.1231 35.1924 25.5227 35.6031C25.9077 36.0013 26.2074 36.4739 26.4033 36.992C26.6068 37.5207 26.71 38.0826 26.7075 38.6491C26.7087 39.2148 26.6084 39.776 26.4113 40.3062C26.2199 40.8259 25.9228 41.3002 25.5387 41.6991C25.1381 42.1094 24.6571 42.4323 24.1257 42.6478C23.518 42.892 22.8674 43.0118 22.2125 43ZM20.3392 38.6491C20.3089 39.2301 20.4974 39.8014 20.8676 40.2502C21.1224 40.5356 21.4617 40.7322 21.8361 40.8114C22.2105 40.8906 22.6003 40.8482 22.9489 40.6905C23.1724 40.5826 23.3713 40.43 23.5333 40.2422C23.7088 40.0369 23.8445 39.8007 23.9336 39.5457C24.0319 39.2599 24.0806 38.9594 24.0777 38.6571C24.1081 38.0761 23.9195 37.5049 23.5493 37.0561C23.3864 36.8635 23.1826 36.7097 22.9527 36.6059C22.7228 36.502 22.4727 36.4507 22.2205 36.4557C21.9667 36.4533 21.7155 36.5065 21.4845 36.6116C21.2536 36.7167 21.0484 36.8712 20.8836 37.0641C20.7081 37.2694 20.5724 37.5055 20.4833 37.7605C20.3891 38.0471 20.3444 38.3476 20.3512 38.6491H20.3392Z" fill="#1C1C1C"/>
<path d="M31.983 43C31.3281 43.0118 30.6775 42.892 30.0697 42.6478C29.5389 42.4313 29.058 42.1085 28.6567 41.6991C28.2727 41.3002 27.9755 40.8259 27.7842 40.3062C27.391 39.2365 27.391 38.0618 27.7842 36.992C27.976 36.4738 28.2731 36.0009 28.6567 35.6031C29.0585 35.1913 29.539 34.8646 30.0697 34.6424C30.6763 34.3936 31.3273 34.271 31.983 34.2822C32.636 34.2703 33.2846 34.3929 33.8882 34.6424C34.4171 34.8657 34.8962 35.1923 35.2972 35.6031C35.681 36.0014 35.9794 36.4741 36.1737 36.992C36.3773 37.5207 36.4805 38.0826 36.4779 38.6491C36.4812 39.2149 36.3808 39.7766 36.1817 40.3062C35.9903 40.8249 35.6947 41.299 35.3132 41.6991C34.9111 42.1094 34.4287 42.4323 33.8962 42.6478C33.2886 42.8923 32.6379 43.0121 31.983 43ZM30.1097 38.6491C30.0794 39.2301 30.2679 39.8014 30.6381 40.2502C30.8929 40.5356 31.2322 40.7322 31.6066 40.8114C31.981 40.8906 32.3708 40.8482 32.7194 40.6905C32.9435 40.5837 33.1426 40.431 33.3038 40.2422C33.4793 40.0369 33.615 39.8007 33.7041 39.5457C33.8024 39.2599 33.8511 38.9594 33.8482 38.6571C33.8786 38.0761 33.69 37.5049 33.3198 37.0561C33.1569 36.8635 32.9531 36.7097 32.7232 36.6059C32.4933 36.502 32.2432 36.4507 31.991 36.4557C31.7372 36.4533 31.486 36.5065 31.255 36.6116C31.0241 36.7167 30.8189 36.8712 30.6541 37.0641C30.4786 37.2694 30.3429 37.5055 30.2538 37.7605C30.1555 38.0463 30.1068 38.3469 30.1097 38.6491Z" fill="#1C1C1C"/>
<path d="M41.2333 43C40.6821 43.0078 40.1358 42.8958 39.6322 42.6718C39.1531 42.4586 38.7248 42.1462 38.3754 41.7552C38.0163 41.3492 37.7366 40.8794 37.5508 40.3702C37.3492 39.8135 37.2489 39.2252 37.2546 38.6331C37.2513 38.051 37.3432 37.4723 37.5268 36.9199C37.6934 36.4152 37.9542 35.9466 38.2953 35.539C38.6198 35.1541 39.0204 34.8407 39.4721 34.6184C39.9381 34.3913 40.4507 34.2762 40.9691 34.2822C41.5292 34.2684 42.0825 34.4067 42.5702 34.6824C43.0337 34.9456 43.4138 35.334 43.6669 35.8032V31.1601H46.2286V39.966C46.2109 40.1529 46.253 40.3407 46.3487 40.5023C46.4606 40.6168 46.6129 40.6829 46.773 40.6864V42.8439C46.5728 42.8924 46.3695 42.9272 46.1646 42.948C45.9911 42.964 45.831 42.972 45.6842 42.972C45.3014 42.9905 44.9219 42.8928 44.5955 42.6918C44.4609 42.6025 44.3479 42.4843 44.2648 42.3458C44.1817 42.2073 44.1306 42.052 44.1152 41.8912L44.0672 41.459C43.7915 41.9579 43.3734 42.3633 42.8664 42.6237C42.3599 42.878 41.7999 43.007 41.2333 43ZM41.9177 40.8426C42.2798 40.8398 42.6332 40.7313 42.9344 40.5303C43.2614 40.3242 43.5204 40.0263 43.6789 39.6738V37.9126C43.5265 37.4955 43.2568 37.1314 42.9024 36.8639C42.5866 36.6099 42.1949 36.469 41.7896 36.4636C41.5262 36.4618 41.2663 36.5251 41.0331 36.6477C40.8035 36.7704 40.5996 36.9362 40.4327 37.1361C40.2555 37.3431 40.1196 37.5823 40.0325 37.8405C39.9404 38.1139 39.8944 38.4007 39.8964 38.6891C39.8927 38.9843 39.9443 39.2775 40.0485 39.5537C40.1364 39.8068 40.2723 40.0405 40.4488 40.2422C40.6275 40.4359 40.846 40.5888 41.0892 40.6904C41.352 40.7976 41.634 40.8494 41.9177 40.8426Z" fill="#1C1C1C"/>
<path d="M54.3179 43C53.9232 43.0051 53.5311 42.9373 53.1611 42.7999C52.8193 42.6776 52.5061 42.4869 52.2405 42.2395C51.9833 42.0015 51.7764 41.7143 51.6321 41.3949C51.4798 41.0609 51.4032 40.6973 51.4079 40.3302C51.4026 39.9355 51.4933 39.5454 51.6721 39.1935C51.8515 38.8481 52.1059 38.5472 52.4166 38.3129C52.7584 38.0573 53.1416 37.8623 53.5494 37.7365C54.0218 37.5943 54.513 37.5241 55.0063 37.5284C55.3498 37.529 55.6925 37.5584 56.031 37.6164C56.3294 37.6666 56.6201 37.7554 56.8956 37.8806V37.4803C56.8956 36.5117 56.3352 36.0274 55.2145 36.0274C54.7664 36.025 54.3217 36.1037 53.9016 36.2595C53.4389 36.4366 52.9994 36.6691 52.5927 36.952L51.8402 35.3509C52.3735 35.002 52.9546 34.7324 53.5654 34.5504C54.1833 34.3648 54.8255 34.2731 55.4706 34.2782C56.7395 34.2782 57.7201 34.5744 58.4166 35.1748C59.1131 35.7752 59.4533 36.6438 59.4533 37.7965V39.966C59.4356 40.153 59.4777 40.3407 59.5734 40.5023C59.6858 40.6161 59.8378 40.6821 59.9977 40.6865V42.8439C59.7979 42.8947 59.5945 42.9295 59.3893 42.948C59.2091 42.948 59.045 42.972 58.8929 42.972C58.5105 42.9989 58.1298 42.9005 57.8082 42.6918C57.6817 42.5957 57.5755 42.4755 57.4958 42.3381C57.4161 42.2006 57.3645 42.0488 57.3439 41.8913L57.2959 41.491C56.9393 41.9544 56.4822 42.3307 55.959 42.5917C55.4515 42.8545 54.8893 42.9944 54.3179 43ZM55.0704 41.1628C55.3436 41.1621 55.6146 41.1134 55.8709 41.0187C56.1118 40.9302 56.3323 40.7941 56.5193 40.6184C56.6235 40.5522 56.7109 40.4629 56.7747 40.3574C56.8386 40.2518 56.8772 40.1329 56.8876 40.01V39.2095C56.6511 39.1215 56.4073 39.0546 56.1591 39.0093C55.919 38.9633 55.6751 38.9392 55.4306 38.9373C55.02 38.9223 54.6147 39.0341 54.2698 39.2575C54.1293 39.346 54.0136 39.4689 53.9337 39.6146C53.8539 39.7603 53.8125 39.9239 53.8135 40.0901C53.811 40.2352 53.8413 40.379 53.9023 40.5108C53.9633 40.6425 54.0534 40.7587 54.1658 40.8506C54.4186 41.0628 54.7404 41.1753 55.0704 41.1668V41.1628Z" fill="#1C1C1C"/>
<path d="M69.4079 42.8399H66.8462V38.1208C66.88 37.6968 66.77 37.2738 66.534 36.92C66.4346 36.7982 66.3086 36.701 66.1656 36.6357C66.0226 36.5705 65.8666 36.539 65.7095 36.5437C65.5226 36.5466 65.3379 36.5846 65.1651 36.6558C64.9764 36.7368 64.7988 36.8418 64.6368 36.968C64.4662 37.1052 64.3142 37.264 64.1845 37.4403C64.0502 37.6203 63.9449 37.8202 63.8723 38.0327V42.8359H61.3105V34.4303H63.6161V35.8392C63.9289 35.3322 64.3842 34.9285 64.925 34.6785C65.5375 34.3994 66.2053 34.2626 66.8783 34.2782C67.3345 34.2581 67.7877 34.3604 68.1911 34.5744C68.5091 34.7602 68.7738 35.0249 68.9596 35.3429C69.1422 35.6621 69.2643 36.0121 69.3199 36.3756C69.3762 36.7345 69.4057 37.097 69.4079 37.4603V42.8399Z" fill="#1C1C1C"/>
<path d="M74.5917 43C74.0405 43.0078 73.4942 42.8958 72.9906 42.6718C72.5115 42.4586 72.0832 42.1462 71.7338 41.7552C71.376 41.3482 71.0965 40.8787 70.9092 40.3702C70.7076 39.8135 70.6073 39.2252 70.613 38.6331C70.6097 38.051 70.7016 37.4723 70.8852 36.9199C71.0535 36.4159 71.3141 35.9477 71.6537 35.539C71.9782 35.1541 72.3788 34.8407 72.8305 34.6184C73.2965 34.3913 73.8091 34.2762 74.3275 34.2822C74.8876 34.2684 75.4409 34.4067 75.9286 34.6824C76.3921 34.9456 76.7722 35.334 77.0253 35.8032V31.1601H79.587V39.966C79.5693 40.1529 79.6114 40.3407 79.7071 40.5023C79.819 40.6168 79.9713 40.6829 80.1314 40.6864V42.8439C79.9312 42.8924 79.7279 42.9272 79.523 42.948C79.3495 42.964 79.1894 42.972 79.0426 42.972C78.6598 42.9905 78.2803 42.8928 77.9539 42.6918C77.8193 42.6025 77.7063 42.4843 77.6232 42.3458C77.5401 42.2073 77.489 42.052 77.4736 41.8912L77.4256 41.459C77.151 41.9588 76.7327 42.3646 76.2248 42.6237C75.7185 42.8784 75.1583 43.0075 74.5917 43ZM75.2801 40.8426C75.641 40.8397 75.993 40.7312 76.2928 40.5303C76.6198 40.3242 76.8788 40.0263 77.0373 39.6738V37.9126C76.8849 37.4955 76.6152 37.1314 76.2608 36.8639C75.9466 36.6099 75.5561 36.4689 75.152 36.4636C74.8872 36.4612 74.6259 36.5244 74.3915 36.6477C74.1619 36.7704 73.958 36.9362 73.7911 37.1361C73.6154 37.3442 73.4797 37.583 73.3909 37.8405C73.2988 38.1139 73.2528 38.4007 73.2548 38.6891C73.2531 38.9841 73.3046 39.277 73.4069 39.5537C73.4948 39.8068 73.6307 40.0405 73.8072 40.2422C73.9859 40.4359 74.2044 40.5888 74.4476 40.6904C74.7118 40.7976 74.9951 40.8494 75.2801 40.8426Z" fill="#1C1C1C"/>
<path d="M85.5029 42.8399V31.4803H88.1247V40.5384H93.6283V42.8399H85.5029Z" fill="#1C1C1C"/>
<path d="M94.6611 33.4816V31.1601H97.2228V33.4816H94.6611ZM94.6611 42.8399V34.4343H97.2228V42.8399H94.6611Z" fill="#1C1C1C"/>
<path d="M99.5161 42.8399V37.064H98.4434V35.1307H99.5161V34.4423C99.5114 33.9594 99.5816 33.4787 99.7242 33.0173C99.8489 32.6193 100.05 32.2495 100.317 31.9286C100.571 31.6323 100.888 31.397 101.245 31.2401C101.624 31.0766 102.033 30.9948 102.446 31C103.202 31.0176 103.946 31.1863 104.635 31.4963L104.171 33.4176C103.99 33.3378 103.801 33.2761 103.607 33.2335C103.415 33.1875 103.219 33.1634 103.022 33.1614C102.39 33.1614 102.078 33.5617 102.078 34.3622V35.1628H104.031V37.096H102.078V42.8719L99.5161 42.8399Z" fill="#1C1C1C"/>
<path d="M109.15 43C108.501 43.0117 107.857 42.8947 107.253 42.6558C106.72 42.4451 106.235 42.1278 105.828 41.7232C105.443 41.3314 105.14 40.8658 104.939 40.3543C104.738 39.8362 104.635 39.2851 104.635 38.7292C104.633 38.1419 104.736 37.5589 104.939 37.008C105.136 36.4829 105.435 36.0024 105.82 35.5951C106.218 35.1773 106.701 34.8497 107.237 34.6344C107.845 34.3899 108.495 34.2701 109.15 34.2822C109.801 34.2695 110.448 34.3893 111.052 34.6344C111.582 34.8509 112.062 35.1753 112.461 35.5871C112.843 35.9829 113.14 36.4529 113.333 36.968C113.531 37.4953 113.631 38.054 113.629 38.6171C113.629 38.7652 113.629 38.9133 113.629 39.0574C113.629 39.2015 113.601 39.3256 113.581 39.4336H107.357C107.363 39.6799 107.42 39.9222 107.527 40.1444C107.633 40.3666 107.785 40.5637 107.974 40.7225C108.328 41.0111 108.773 41.1668 109.23 41.1628C109.606 41.1615 109.976 41.068 110.307 40.8906C110.623 40.7413 110.872 40.4784 111.004 40.1541L113.181 40.7625C112.834 41.4334 112.3 41.9895 111.644 42.3636C110.887 42.8009 110.024 43.0211 109.15 43ZM110.923 37.8486C110.896 37.3698 110.69 36.9186 110.347 36.5837C110.005 36.2842 109.567 36.1191 109.112 36.1191C108.658 36.1191 108.219 36.2842 107.877 36.5837C107.541 36.9194 107.339 37.3664 107.309 37.8406L110.923 37.8486Z" fill="#1C1C1C"/>
</g>
<defs>
<clipPath id="clip0_152_24269">
<rect width="113.259" height="12" fill="white" transform="translate(0.370117 31)"/>
</clipPath>
</defs>
</svg>
