<svg width="172" height="62" viewBox="0 0 172 62" fill="none" xmlns="http://www.w3.org/2000/svg">
<rect width="44.0457" height="38" transform="translate(63.9771)" fill="#007550"/>
<path fill-rule="evenodd" clip-rule="evenodd" d="M86.5178 28L92.7162 16H89.083L85.5368 22.8668L84.6618 21.1739L87.3357 16H83.7026L82.8466 17.6576L81.9906 16H78.3575L81.0314 21.1739L80.1564 22.8668L76.6102 16H72.9771L79.1727 28H81.1401L82.8466 24.6929L84.5531 28H86.5178ZM99.0227 28V24.7717H93.5744L98.1042 16H94.4711L88.2727 28H99.0227Z" fill="white"/>
<g clip-path="url(#clip0_90_21722)">
<path d="M8.49413 44.7445H12.0965L13.8257 50.1961L15.5548 44.7445H19.2053L16.3654 52.6458L18.0945 57.2328L22.3634 44.7025H26.6622L19.8477 61.7598H16.5575L13.8437 55.0894L11.1599 61.7598H7.8457L1.05518 44.7205H5.32402L9.62288 57.2509L11.298 52.6458L8.49413 44.7445Z" fill="#1C1C1C"/>
<path d="M33.8192 62C32.8368 62.0182 31.8608 61.8385 30.9493 61.4717C30.1505 61.1485 29.427 60.6641 28.8238 60.0487C28.2515 59.4485 27.8081 58.7374 27.521 57.9593C26.9312 56.3547 26.9312 54.5926 27.521 52.988C27.8082 52.2118 28.2517 51.5027 28.8238 50.9046C29.4276 50.2855 30.1506 49.7953 30.9493 49.4637C32.7906 48.7432 34.8358 48.7432 36.6771 49.4637C37.4686 49.7986 38.1852 50.2885 38.7845 50.9046C39.3621 51.5019 39.8115 52.2108 40.1054 52.988C40.4107 53.781 40.5654 54.6239 40.5617 55.4737C40.5636 56.3221 40.4131 57.1641 40.1174 57.9593C39.8303 58.7388 39.3846 59.4503 38.8085 60.0487C38.2077 60.664 37.4861 61.1485 36.6891 61.4717C35.7774 61.838 34.8015 62.0177 33.8192 62ZM31.0093 55.4737C30.9638 56.3451 31.2465 57.202 31.8018 57.8753C32.1841 58.3034 32.6931 58.5983 33.2546 58.7171C33.8162 58.8359 34.401 58.7723 34.9239 58.5357C35.259 58.3739 35.5574 58.145 35.8005 57.8633C36.0637 57.5553 36.2673 57.201 36.4009 56.8186C36.5483 56.3898 36.6214 55.939 36.617 55.4857C36.6626 54.6142 36.3798 53.7573 35.8245 53.0841C35.5801 52.7953 35.2743 52.5646 34.9295 52.4088C34.5847 52.253 34.2095 52.176 33.8312 52.1835C33.4505 52.1799 33.0738 52.2597 32.7273 52.4174C32.3809 52.5751 32.0732 52.8067 31.8258 53.0961C31.5626 53.4041 31.359 53.7583 31.2254 54.1408C31.0841 54.5706 31.0171 55.0213 31.0273 55.4737H31.0093Z" fill="#1C1C1C"/>
<path d="M48.4749 62C47.4926 62.0177 46.5167 61.838 45.605 61.4717C44.8088 61.147 44.0875 60.6627 43.4856 60.0487C42.9095 59.4503 42.4638 58.7388 42.1767 57.9593C41.5869 56.3547 41.5869 54.5926 42.1767 52.988C42.4645 52.2106 42.9102 51.5013 43.4856 50.9046C44.0882 50.2869 44.809 49.7969 45.605 49.4637C46.515 49.0903 47.4915 48.9064 48.4749 48.9233C49.4546 48.9054 50.4274 49.0893 51.3328 49.4637C52.1262 49.7985 52.8447 50.2884 53.4462 50.9046C54.0221 51.5021 54.4695 52.2111 54.7611 52.988C55.0665 53.781 55.2212 54.6239 55.2174 55.4737C55.2223 56.3224 55.0717 57.1648 54.7731 57.9593C54.486 58.7374 54.0426 59.4485 53.4703 60.0487C52.8671 60.6641 52.1436 61.1485 51.3448 61.4717C50.4333 61.8385 49.4573 62.0182 48.4749 62ZM45.6651 55.4737C45.6195 56.3451 45.9023 57.202 46.4576 57.8753C46.8399 58.3034 47.3489 58.5983 47.9104 58.7171C48.4719 58.8359 49.0567 58.7723 49.5797 58.5357C49.9158 58.3755 50.2145 58.1464 50.4563 57.8633C50.7194 57.5553 50.923 57.201 51.0567 56.8186C51.2041 56.3898 51.2772 55.939 51.2728 55.4857C51.3183 54.6142 51.0355 53.7573 50.4803 53.0841C50.2358 52.7953 49.9301 52.5646 49.5853 52.4088C49.2404 52.253 48.8652 52.176 48.4869 52.1835C48.1063 52.1799 47.7295 52.2597 47.3831 52.4174C47.0366 52.5751 46.7289 52.8067 46.4816 53.0961C46.2184 53.4041 46.0148 53.7583 45.8812 54.1408C45.7338 54.5695 45.6607 55.0203 45.6651 55.4737Z" fill="#1C1C1C"/>
<path d="M62.3502 62C61.5234 62.0117 60.704 61.8437 59.9486 61.5077C59.23 61.1879 58.5874 60.7193 58.0633 60.1328C57.5247 59.5238 57.1051 58.8191 56.8265 58.0554C56.524 57.2203 56.3735 56.3378 56.3822 55.4496C56.3772 54.5765 56.5151 53.7085 56.7905 52.8799C57.0404 52.1228 57.4316 51.42 57.9432 50.8085C58.4299 50.2312 59.0309 49.761 59.7084 49.4276C60.4074 49.087 61.1764 48.9143 61.9539 48.9233C62.794 48.9026 63.624 49.1101 64.3555 49.5237C65.0509 49.9184 65.621 50.501 66.0006 51.2048V44.2402H69.8432V57.449C69.8167 57.7294 69.8797 58.0111 70.0233 58.2535C70.1912 58.4252 70.4196 58.5244 70.6597 58.5297V61.7659C70.3594 61.8387 70.0545 61.8908 69.7471 61.922C69.4869 61.946 69.2468 61.958 69.0266 61.958C68.4523 61.9857 67.8831 61.8392 67.3935 61.5377C67.1916 61.4038 67.0221 61.2265 66.8975 61.0188C66.7728 60.811 66.6962 60.5781 66.673 60.3369L66.601 59.6885C66.1874 60.4368 65.5604 61.045 64.7998 61.4356C64.0402 61.817 63.2001 62.0105 62.3502 62ZM63.3768 58.7638C63.92 58.7597 64.4501 58.597 64.9019 58.2955C65.3924 57.9864 65.7808 57.5395 66.0186 57.0107V54.3689C65.7899 53.7433 65.3855 53.1971 64.8538 52.7959C64.3802 52.4148 63.7926 52.2034 63.1847 52.1955C62.7895 52.1928 62.3997 52.2876 62.05 52.4716C61.7055 52.6556 61.3997 52.9044 61.1494 53.2041C60.8834 53.5147 60.6796 53.8734 60.549 54.2608C60.4108 54.6709 60.3418 55.101 60.3448 55.5337C60.3393 55.9764 60.4167 56.4163 60.573 56.8306C60.7049 57.2102 60.9088 57.5608 61.1734 57.8632C61.4415 58.1539 61.7692 58.3832 62.134 58.5357C62.5282 58.6965 62.9513 58.7742 63.3768 58.7638Z" fill="#1C1C1C"/>
<path d="M81.9771 62C81.3851 62.0077 80.7968 61.9059 80.2419 61.6998C79.7292 61.5164 79.2594 61.2304 78.861 60.8592C78.4752 60.5022 78.1648 60.0714 77.9484 59.5924C77.7199 59.0914 77.6051 58.546 77.6121 57.9953C77.6042 57.4033 77.7402 56.8181 78.0084 56.2902C78.2775 55.7722 78.6591 55.3208 79.1252 54.9693C79.6378 54.586 80.2126 54.2935 80.8243 54.1047C81.5329 53.8914 82.2697 53.7862 83.0097 53.7925C83.5249 53.7935 84.039 53.8377 84.5468 53.9246C84.9944 53.9999 85.4303 54.1331 85.8436 54.3209V53.7205C85.8436 52.2675 85.0031 51.541 83.3219 51.541C82.6499 51.5375 81.9827 51.6555 81.3526 51.8893C80.6586 52.1549 79.9994 52.5037 79.3893 52.928L78.2606 50.5264C79.0605 50.003 79.9322 49.5986 80.8483 49.3256C81.7751 49.0473 82.7385 48.9097 83.7062 48.9173C85.6095 48.9173 87.0805 49.3616 88.1251 50.2622C89.1698 51.1628 89.6802 52.4656 89.6802 54.1948V57.449C89.6537 57.7295 89.7168 58.0111 89.8603 58.2535C90.0289 58.4242 90.2569 58.5231 90.4967 58.5297V61.7659C90.1972 61.8421 89.892 61.8943 89.5841 61.922C89.3139 61.922 89.0678 61.958 88.8396 61.958C88.266 61.9983 87.6949 61.8508 87.2125 61.5377C87.0228 61.3936 86.8635 61.2132 86.744 61.0071C86.6244 60.801 86.547 60.5732 86.5161 60.3369L86.444 59.7365C85.9092 60.4315 85.2235 60.9961 84.4387 61.3876C83.6775 61.7818 82.8343 61.9916 81.9771 62ZM83.1058 59.2442C83.5157 59.2432 83.9221 59.1701 84.3066 59.028C84.6679 58.8953 84.9987 58.6911 85.2793 58.4276C85.4354 58.3284 85.5665 58.1943 85.6623 58.036C85.7582 57.8777 85.8161 57.6994 85.8316 57.515V56.3142C85.4769 56.1823 85.1112 56.0818 84.7389 56.014C84.3787 55.945 84.0129 55.9088 83.6462 55.9059C83.0302 55.8835 82.4223 56.0512 81.905 56.3863C81.6941 56.519 81.5206 56.7034 81.4008 56.9219C81.281 57.1404 81.219 57.3859 81.2205 57.6351C81.2167 57.8528 81.2622 58.0686 81.3538 58.2661C81.4453 58.4637 81.5804 58.638 81.7489 58.7759C82.1282 59.0942 82.6108 59.2629 83.1058 59.2502V59.2442Z" fill="#1C1C1C"/>
<path d="M104.612 61.7598H100.77V54.6811C100.82 54.0452 100.656 53.4107 100.302 52.8799C100.152 52.6973 99.9634 52.5514 99.7489 52.4536C99.5345 52.3557 99.3003 52.3085 99.0647 52.3155C98.7844 52.3198 98.5074 52.3769 98.2482 52.4837C97.965 52.6052 97.6987 52.7626 97.4556 52.952C97.1998 53.1578 96.9718 53.396 96.7772 53.6604C96.5758 53.9305 96.4178 54.2303 96.3089 54.549V61.7538H92.4663V49.1454H95.9246V51.2588C96.3939 50.4983 97.0767 49.8927 97.8879 49.5177C98.8068 49.0992 99.8084 48.8939 100.818 48.9173C101.502 48.8872 102.182 49.0406 102.787 49.3616C103.264 49.6403 103.661 50.0374 103.94 50.5143C104.214 50.9931 104.397 51.5182 104.48 52.0634C104.565 52.6017 104.609 53.1456 104.612 53.6905V61.7598Z" fill="#1C1C1C"/>
<path d="M112.387 62C111.561 62.0117 110.741 61.8437 109.986 61.5077C109.267 61.1879 108.625 60.7193 108.1 60.1328C107.564 59.5223 107.145 58.818 106.864 58.0554C106.561 57.2203 106.411 56.3378 106.419 55.4496C106.414 54.5765 106.552 53.7085 106.828 52.8799C107.08 52.1239 107.471 51.4215 107.98 50.8085C108.467 50.2312 109.068 49.761 109.746 49.4276C110.445 49.087 111.213 48.9143 111.991 48.9233C112.831 48.9026 113.661 49.1101 114.393 49.5237C115.088 49.9184 115.658 50.501 116.038 51.2048V44.2402H119.88V57.449C119.854 57.7294 119.917 58.0111 120.06 58.2535C120.228 58.4252 120.457 58.5244 120.697 58.5297V61.7659C120.397 61.8387 120.092 61.8908 119.784 61.922C119.524 61.946 119.284 61.958 119.064 61.958C118.489 61.9857 117.92 61.8392 117.431 61.5377C117.229 61.4038 117.059 61.2265 116.935 61.0188C116.81 60.811 116.733 60.5781 116.71 60.3369L116.638 59.6885C116.226 60.4382 115.599 61.0469 114.837 61.4356C114.078 61.8177 113.237 62.0112 112.387 62ZM113.42 58.7638C113.961 58.7596 114.489 58.5968 114.939 58.2955C115.429 57.9864 115.818 57.5395 116.056 57.0107V54.3689C115.827 53.7433 115.423 53.1971 114.891 52.7959C114.42 52.4149 113.834 52.2034 113.228 52.1955C112.831 52.1918 112.439 52.2867 112.087 52.4716C111.743 52.6556 111.437 52.9044 111.186 53.2041C110.923 53.5163 110.719 53.8746 110.586 54.2608C110.448 54.6709 110.379 55.101 110.382 55.5337C110.379 55.9762 110.457 56.4155 110.61 56.8306C110.742 57.2102 110.946 57.5608 111.21 57.8632C111.479 58.1539 111.806 58.3832 112.171 58.5357C112.567 58.6965 112.992 58.7741 113.42 58.7638Z" fill="#1C1C1C"/>
<path d="M128.754 61.7598V44.7205H132.687V58.3075H140.943V61.7598H128.754Z" fill="#1C1C1C"/>
<path d="M142.491 47.7225V44.2402H146.334V47.7225H142.491ZM142.491 61.7598V49.1514H146.334V61.7598H142.491Z" fill="#1C1C1C"/>
<path d="M149.774 61.7598V53.0961H148.165V50.1961H149.774V49.1634C149.767 48.4391 149.872 47.7181 150.086 47.026C150.273 46.429 150.575 45.8742 150.975 45.3929C151.356 44.9484 151.832 44.5955 152.368 44.3602C152.936 44.115 153.55 43.9922 154.169 44C155.302 44.0264 156.419 44.2795 157.453 44.7445L156.757 47.6264C156.484 47.5067 156.201 47.4142 155.91 47.3502C155.623 47.2813 155.329 47.245 155.034 47.2422C154.085 47.2422 153.617 47.8426 153.617 49.0434V50.2442H156.547V53.1441H153.617V61.8079L149.774 61.7598Z" fill="#1C1C1C"/>
<path d="M164.226 62C163.252 62.0175 162.285 61.842 161.38 61.4837C160.58 61.1676 159.852 60.6916 159.242 60.0847C158.664 59.4971 158.211 58.7986 157.909 58.0314C157.607 57.2542 157.452 56.4276 157.453 55.5937C157.45 54.7128 157.604 53.8384 157.909 53.012C158.204 52.2243 158.653 51.5036 159.23 50.8926C159.828 50.2659 160.552 49.7746 161.356 49.4516C162.267 49.0848 163.243 48.9051 164.226 48.9233C165.202 48.9042 166.173 49.084 167.078 49.4516C167.873 49.7763 168.593 50.263 169.191 50.8806C169.764 51.4744 170.21 52.1793 170.5 52.952C170.796 53.7429 170.947 54.581 170.944 55.4256C170.944 55.6478 170.944 55.8699 170.944 56.0861C170.944 56.3022 170.902 56.4883 170.872 56.6504H161.536C161.544 57.0198 161.631 57.3832 161.79 57.7165C161.95 58.0498 162.178 58.3455 162.461 58.5837C162.993 59.0166 163.66 59.2501 164.346 59.2442C164.909 59.2422 165.464 59.102 165.961 58.8359C166.435 58.6119 166.808 58.2175 167.006 57.7312L170.272 58.6438C169.751 59.6502 168.95 60.4843 167.966 61.0454C166.831 61.7013 165.537 62.0317 164.226 62ZM166.885 54.2728C166.844 53.5547 166.536 52.8779 166.021 52.3756C165.508 51.9263 164.85 51.6787 164.169 51.6787C163.487 51.6787 162.829 51.9263 162.316 52.3756C161.812 52.8791 161.509 53.5495 161.464 54.2608L166.885 54.2728Z" fill="#1C1C1C"/>
</g>
<defs>
<clipPath id="clip0_90_21722">
<rect width="169.889" height="18" fill="white" transform="translate(1.05518 44)"/>
</clipPath>
</defs>
</svg>
