<svg width="65" height="41" viewBox="0 0 65 41" fill="none" xmlns="http://www.w3.org/2000/svg">
<mask id="mask0_401_2281" style="mask-type:alpha" maskUnits="userSpaceOnUse" x="0" y="0" width="65" height="41">
<rect x="0.5" y="0.333496" width="64" height="40" rx="20" fill="#007550"/>
</mask>
<g mask="url(#mask0_401_2281)">
<g opacity="0.3">
<path d="M-29.5 0.333496C-22.2547 7.57878 0.185535 30.019 10.5 40.3335" stroke="#838383"/>
<path d="M-17.5 0.333496C-10.2547 7.57878 12.1855 30.019 22.5 40.3335" stroke="#838383"/>
<path d="M-5.5 0.333496C1.74528 7.57878 24.1855 30.019 34.5 40.3335" stroke="#838383"/>
<path d="M6.5 0.333496C13.7453 7.57878 36.1855 30.019 46.5 40.3335" stroke="#838383"/>
<path d="M18.5 0.333496C25.7453 7.57878 48.1855 30.019 58.5 40.3335" stroke="#838383"/>
<path d="M30.5 0.333496C37.7453 7.57878 60.1855 30.019 70.5 40.3335" stroke="#838383"/>
<path d="M42.5 0.333496C49.7453 7.57878 72.1855 30.019 82.5 40.3335" stroke="#838383"/>
<path d="M54.5 0.333496C61.7453 7.57878 84.1855 30.019 94.5 40.3335" stroke="#838383"/>
</g>
</g>
<rect x="1.5" y="1.3335" width="62" height="38" rx="19" stroke="#838383" stroke-width="2"/>
</svg>
