<svg width="41" height="41" viewBox="0 0 41 41" fill="none" xmlns="http://www.w3.org/2000/svg">
<mask id="mask0_401_2247" style="mask-type:alpha" maskUnits="userSpaceOnUse" x="0" y="0" width="41" height="41">
<rect x="0.899902" y="0.333496" width="40" height="40" rx="14" fill="#007550"/>
</mask>
<g mask="url(#mask0_401_2247)">
<g opacity="0.3">
<path d="M-29.1001 0.333496C-21.8548 7.57878 0.585437 30.019 10.8999 40.3335" stroke="#838383"/>
<path d="M-17.1001 0.333496C-9.85481 7.57878 12.5854 30.019 22.8999 40.3335" stroke="#838383"/>
<path d="M-5.1001 0.333496C2.14519 7.57878 24.5854 30.019 34.8999 40.3335" stroke="#838383"/>
<path d="M6.8999 0.333496C14.1452 7.57878 36.5854 30.019 46.8999 40.3335" stroke="#838383"/>
<path d="M18.8999 0.333496C26.1452 7.57878 48.5854 30.019 58.8999 40.3335" stroke="#838383"/>
<path d="M30.8999 0.333496C38.1452 7.57878 60.5854 30.019 70.8999 40.3335" stroke="#838383"/>
</g>
</g>
<rect x="1.8999" y="1.3335" width="38" height="38" rx="13" stroke="#838383" stroke-width="2"/>
</svg>
