<svg width="65" height="41" viewBox="0 0 65 41" fill="none" xmlns="http://www.w3.org/2000/svg">
<mask id="mask0_401_4183" style="mask-type:alpha" maskUnits="userSpaceOnUse" x="0" y="2" width="65" height="39">
<path d="M0.599609 20.8826C0.599609 14.7478 4.5937 9.32758 10.4533 7.51065L19.5378 4.69376C28.6838 1.85777 38.4869 1.94672 47.58 4.94819L54.9879 7.39339C60.7246 9.28697 64.5996 14.6467 64.5996 20.6879V30.3335C64.5996 35.8563 60.1225 40.3335 54.5996 40.3335H10.5996C5.07676 40.3335 0.599609 35.8563 0.599609 30.3335V20.8826Z" fill="#009767"/>
</mask>
<g mask="url(#mask0_401_4183)">
<g opacity="0.3">
<path d="M-29.4004 3.12427C-22.1551 9.86407 0.285144 30.7387 10.5996 40.3336" stroke="#838383"/>
<path d="M-17.4004 3.12427C-10.1551 9.86407 12.2851 30.7387 22.5996 40.3336" stroke="#838383"/>
<path d="M-5.40039 3.12427C1.84489 9.86407 24.2851 30.7387 34.5996 40.3336" stroke="#838383"/>
<path d="M6.59961 3.12427C13.8449 9.86407 36.2851 30.7387 46.5996 40.3336" stroke="#838383"/>
<path d="M18.5996 3.12427C25.8449 9.86407 48.2851 30.7387 58.5996 40.3336" stroke="#838383"/>
<path d="M30.5996 3.12427C37.8449 9.86407 60.2851 30.7387 70.5996 40.3336" stroke="#838383"/>
<path d="M42.5996 3.12427C49.8449 9.86407 72.2851 30.7387 82.5996 40.3336" stroke="#838383"/>
<path d="M54.5996 3.12427C61.8449 9.86407 84.2851 30.7387 94.5996 40.3336" stroke="#838383"/>
</g>
</g>
<path d="M63.5996 20.6879V30.3335C63.5996 35.3041 59.5702 39.3335 54.5996 39.3335H10.5996C5.62905 39.3335 1.59961 35.3041 1.59961 30.3335V20.8826C1.59961 15.186 5.30841 10.1529 10.7494 8.46579L19.8339 5.64889C28.7812 2.87456 38.3712 2.96157 47.2666 5.89779L54.6744 8.343C60.0014 10.1013 63.5996 15.0783 63.5996 20.6879Z" stroke="#838383" stroke-width="2"/>
</svg>
