<svg width="41" height="41" viewBox="0 0 41 41" fill="none" xmlns="http://www.w3.org/2000/svg">
<mask id="mask0_401_2137" style="mask-type:alpha" maskUnits="userSpaceOnUse" x="0" y="0" width="41" height="41">
<circle cx="20.2998" cy="20.3335" r="20" fill="#007550"/>
</mask>
<g mask="url(#mask0_401_2137)">
<g opacity="0.3">
<path d="M-29.7002 0.333496C-22.4549 7.57878 -0.0146605 30.019 10.2998 40.3335" stroke="#838383"/>
<path d="M-17.7002 0.333496C-10.4549 7.57878 11.9853 30.019 22.2998 40.3335" stroke="#838383"/>
<path d="M-5.7002 0.333496C1.54509 7.57878 23.9853 30.019 34.2998 40.3335" stroke="#838383"/>
<path d="M6.2998 0.333496C13.5451 7.57878 35.9853 30.019 46.2998 40.3335" stroke="#838383"/>
<path d="M18.2998 0.333496C25.5451 7.57878 47.9853 30.019 58.2998 40.3335" stroke="#838383"/>
<path d="M30.2998 0.333496C37.5451 7.57878 59.9853 30.019 70.2998 40.3335" stroke="#838383"/>
</g>
</g>
<circle cx="20.2998" cy="20.3335" r="19" stroke="#838383" stroke-width="2"/>
</svg>
