<svg width="37" height="41" viewBox="0 0 37 41" fill="none" xmlns="http://www.w3.org/2000/svg">
<g clip-path="url(#clip0_401_2213)">
<mask id="mask0_401_2213" style="mask-type:alpha" maskUnits="userSpaceOnUse" x="0" y="0" width="37" height="40">
<path d="M6.69971 39.7049H30.6997C34.0134 39.7049 36.6997 37.0187 36.6997 33.7049C35.5477 22.4726 34.6619 12.0145 27.3723 4.29837C25.7286 2.55853 23.4881 1.5539 21.1559 1.01571C19.2107 0.566798 17.1887 0.566798 15.2435 1.01571C12.9113 1.5539 10.6638 2.5538 9.04124 4.31335C1.9272 12.028 1.85099 22.4799 0.699707 33.7049C0.699707 37.0187 3.386 39.7049 6.69971 39.7049Z" fill="#009767"/>
</mask>
<g mask="url(#mask0_401_2213)">
<g opacity="0.3">
<path d="M-31.3003 -0.294922C-24.055 6.95036 -1.61476 29.3906 8.69971 39.7051" stroke="#838383"/>
<path d="M-19.3003 -0.294922C-12.055 6.95036 10.3852 29.3906 20.6997 39.7051" stroke="#838383"/>
<path d="M-7.30029 -0.294922C-0.0550096 6.95036 22.3852 29.3906 32.6997 39.7051" stroke="#838383"/>
<path d="M4.69971 -0.294922C11.945 6.95036 34.3852 29.3906 44.6997 39.7051" stroke="#838383"/>
<path d="M16.6997 -0.294922C23.945 6.95036 46.3852 29.3906 56.6997 39.7051" stroke="#838383"/>
<path d="M28.6997 -0.294922C35.945 6.95036 58.3852 29.3906 68.6997 39.7051" stroke="#838383"/>
</g>
</g>
<path d="M30.6997 38.7049H6.69971C3.95457 38.7049 1.72613 36.4927 1.69994 33.7537C1.83991 32.3854 1.96357 31.0379 2.08525 29.712C2.46667 25.5558 2.82865 21.6113 3.61284 17.8995C4.64251 13.0258 6.38184 8.67241 9.77639 4.99126C11.2145 3.43169 13.2495 2.50214 15.4683 1.9901C17.2656 1.57533 19.1338 1.57533 20.9311 1.9901C23.1464 2.50133 25.1818 3.43588 26.6454 4.9851C33.4992 12.2399 34.5 22.0263 35.6267 33.0431C35.6509 33.2794 35.6751 33.5163 35.6995 33.7538C35.6733 36.4927 33.4448 38.7049 30.6997 38.7049Z" stroke="#838383" stroke-width="2"/>
</g>
<defs>
<clipPath id="clip0_401_2213">
<rect width="36" height="40" fill="white" transform="translate(0.699707 0.333496)"/>
</clipPath>
</defs>
</svg>
