<svg width="60" height="55" viewBox="0 0 60 55" fill="none" xmlns="http://www.w3.org/2000/svg">
<g clip-path="url(#clip0_135_21146)">
<path d="M55.0182 50.5672C52.4939 49.1092 50.1051 47.7255 47.7128 46.3485C46.6977 45.7511 45.6285 45.1875 44.6202 44.5496C44.4178 44.3963 44.1706 44.3133 43.9164 44.3133C43.6622 44.3133 43.415 44.3963 43.2126 44.5496C39.1014 46.9728 34.9599 49.3421 30.8521 51.7687C30.5222 52.0001 30.1287 52.1242 29.7254 52.1242C29.322 52.1242 28.9285 52.0001 28.5986 51.7687C19.368 46.3665 10.1284 40.9867 0.879725 35.6295C-0.270716 34.9545 -0.2741 33.9217 0.879725 33.267C8.97342 28.704 17.066 24.141 25.1574 19.578C25.6616 19.2911 26.1725 19.1325 26.6801 19.5037C26.8743 19.6312 27.0258 19.8138 27.1151 20.0279C27.2043 20.2421 27.2272 20.478 27.1809 20.7052C27.103 21.2216 26.7207 21.4747 26.3079 21.7177C23.6641 23.205 21.0203 24.6933 18.3766 26.1828C13.6891 28.8221 9.00388 31.4625 4.3209 34.104C4.14495 34.2052 3.85734 34.2592 3.84381 34.4685C3.83027 34.6777 4.12126 34.7385 4.29044 34.8363C12.6097 39.6761 20.9324 44.5136 29.2584 49.3488C29.3661 49.4458 29.5021 49.5057 29.6465 49.5197C29.7909 49.5336 29.936 49.501 30.0603 49.4265C33.7959 47.2395 37.5371 45.0581 41.2839 42.8823C41.3176 42.8579 41.3482 42.8296 41.3753 42.798C41.311 42.5853 41.108 42.5448 40.9557 42.4605C37.0374 40.2105 33.118 37.9605 29.1975 35.7105C28.9665 35.5893 28.7756 35.404 28.6477 35.1771C28.5198 34.9501 28.4605 34.6912 28.4768 34.4313C28.4903 24.7091 28.4971 14.988 28.4971 5.26797C28.4971 5.08909 28.558 4.89334 28.4159 4.72122C28.1892 4.76172 28.0775 4.95747 27.9422 5.09922C26.7951 6.22984 25.6582 7.37397 24.5111 8.50797C23.9122 9.09522 23.1848 9.13572 22.6772 8.63284C22.1697 8.12997 22.2001 7.41784 22.8092 6.81034C24.7762 4.83934 26.7466 2.87172 28.7204 0.907467C29.3735 0.259467 30.0502 0.232465 30.6931 0.88384C32.6849 2.85934 34.6711 4.84046 36.6517 6.82721C37.2472 7.42796 37.2675 8.15359 36.7397 8.65309C36.2118 9.15259 35.5249 9.09184 34.9497 8.52822C33.8218 7.40322 32.6939 6.27822 31.5661 5.15322C31.4243 4.98719 31.2996 4.80742 31.1939 4.61659C31.0921 4.65994 31.0095 4.73838 30.961 4.83754C30.9126 4.93671 30.9015 5.04997 30.9299 5.15659C30.9299 9.16947 30.9299 13.1823 30.9299 17.1986C30.9199 17.3716 30.9652 17.5434 31.0595 17.689C31.1538 17.8346 31.2921 17.9466 31.4544 18.0086C34.5042 19.7163 37.5495 21.4297 40.5903 23.1487C41.0064 23.3816 41.3651 23.6448 41.4226 24.1612C41.4591 24.3739 41.436 24.5925 41.3558 24.7929C41.2757 24.9932 41.1415 25.1676 40.9683 25.2968C40.795 25.426 40.5894 25.5049 40.374 25.5249C40.1586 25.5448 39.9419 25.5051 39.7477 25.41C39.3654 25.2412 39.0101 25.0151 38.6447 24.8092L31.4815 20.7592C31.1871 20.5905 30.9299 20.3846 30.9333 20.9955C30.9502 24.708 30.9333 28.3968 30.9333 32.0958C30.9333 32.1768 30.957 32.2612 30.9841 32.457L55.0418 18.6836L50.0611 17.3606C49.8165 17.3067 49.5757 17.2368 49.3404 17.1513C49.0735 17.0547 48.8513 16.8642 48.7154 16.6156C48.5796 16.367 48.5395 16.0774 48.6027 15.8013C48.6518 15.5194 48.8087 15.2675 49.0404 15.0988C49.2721 14.93 49.5604 14.8576 49.8446 14.8968C50.6262 15.0183 51.3943 15.2343 52.1623 15.4436C54.2264 15.9735 56.287 16.5168 58.3544 17.0501C58.5375 17.0781 58.7121 17.1461 58.8657 17.2493C59.0193 17.3525 59.148 17.4884 59.2428 17.6471C59.3376 17.8058 59.3959 17.9835 59.4138 18.1673C59.4316 18.3512 59.4084 18.5367 59.3458 18.7106C58.6353 21.4106 57.9123 24.1106 57.1769 26.8106C56.9536 27.6375 56.3412 28.0323 55.6577 27.8231C54.9742 27.6138 54.6426 27.0097 54.8524 26.1828C55.2516 24.6461 55.6554 23.1127 56.0637 21.5827C56.1512 21.3689 56.1894 21.1382 56.1754 20.9077C55.9757 20.8503 55.837 20.9887 55.7152 21.0663C52.8255 22.7156 49.9382 24.3693 47.053 26.0276C46.8805 26.1255 46.5895 26.1693 46.5861 26.3921C46.5827 26.6148 46.8669 26.6621 47.0395 26.76C50.8292 28.8997 54.6211 31.0372 58.4153 33.1725C58.8044 33.3918 59.1902 33.6078 59.3391 34.0635C59.5319 34.6541 59.2951 35.184 58.6353 35.5721C56.2577 36.9761 53.8756 38.3756 51.489 39.7706C50.4739 40.3646 49.4588 40.962 48.4437 41.5458C47.6925 41.9778 47.009 41.853 46.6334 41.2353C46.2579 40.6177 46.4711 39.9191 47.2425 39.4635C49.875 37.9155 52.5097 36.3686 55.1467 34.8228C55.7592 34.4651 55.7592 34.455 55.1467 34.1175C51.5781 32.0925 48.0072 30.0765 44.4341 28.0695C44.3027 27.9697 44.144 27.9121 43.979 27.9043C43.8141 27.8965 43.6507 27.9388 43.5103 28.0256C39.8876 30.1181 36.2581 32.2005 32.6218 34.2727C32.4796 34.3537 32.3037 34.401 32.2462 34.6406L56.2701 48.4781C55.837 46.8108 55.4445 45.3056 55.0554 43.797C54.9708 43.4763 54.8794 43.1523 54.8016 42.8283C54.7511 42.6742 54.7328 42.5114 54.7477 42.3499C54.7627 42.1885 54.8107 42.0318 54.8887 41.8895C54.9666 41.7472 55.073 41.6224 55.2012 41.5226C55.3293 41.4229 55.4766 41.3504 55.634 41.3096C55.7896 41.2599 55.9541 41.244 56.1164 41.2628C56.2787 41.2817 56.4351 41.3349 56.5751 41.419C56.7151 41.503 56.8355 41.6159 56.9282 41.7501C57.0209 41.8844 57.0838 42.0368 57.1126 42.1972C57.7082 44.3943 58.2732 46.5847 58.8552 48.7953C59.0075 49.3792 59.1936 49.9563 59.3289 50.5436C59.5319 51.3637 59.1699 51.9881 58.3984 52.1872C55.7095 52.8915 53.0195 53.5946 50.3284 54.2966C49.2592 54.5733 48.4877 54.0367 48.5723 53.085C48.6298 52.4505 49.0392 52.14 49.6178 51.9915L54.3549 50.7393C54.5377 50.7123 54.7102 50.6482 55.0182 50.5672Z" fill="#292929"/>
</g>
<defs>
<clipPath id="clip0_135_21146">
<rect width="59.4" height="54" fill="white" transform="translate(0 0.390625)"/>
</clipPath>
</defs>
</svg>
