<svg width="121" height="121" viewBox="0 0 121 121" fill="none" xmlns="http://www.w3.org/2000/svg">
<path d="M30.1368 83.6729V48.2184L26.0459 45.4911L50.5914 4.58203L116.046 40.7184L108.546 45.4911V73.4457L66.2732 96.6275L30.1368 83.6729Z" fill="white"/>
<path d="M30.9199 45.4609L31.0194 77.0309L66.501 96.8626L66.4911 65.2448L30.9199 45.4609Z" stroke="#009767" stroke-width="1.5" stroke-linejoin="round"/>
<path d="M72.7461 22.3672L30.9199 45.4611L66.4911 65.2449L108.317 41.998L72.7461 22.3672Z" stroke="#009767" stroke-width="1.5" stroke-linejoin="round"/>
<path d="M72.7378 53.8702L72.7477 22.3672L108.319 41.998L108.219 73.5584L66.5026 96.8627L31.021 77.031" stroke="#009767" stroke-width="1.5" stroke-linejoin="round"/>
<path d="M66.2734 68.3441L115.368 40.96L90.9059 27.3008" fill="white"/>
<path d="M66.2734 68.3441L115.368 40.96L90.9059 27.3008" stroke="#009767" stroke-width="1.5" stroke-miterlimit="10"/>
<path d="M50.6071 4.98242L26.0513 45.9028L66.2707 68.3459L90.9031 27.3026L50.6071 4.98242Z" fill="white" stroke="#009767" stroke-width="1.5" stroke-miterlimit="10"/>
<g opacity="0.2">
<path d="M30.9199 71.9689L66.4911 91.8675L108.317 68.2188" stroke="#009767" stroke-width="1.5" stroke-linejoin="round"/>
<path d="M30.9199 67.1857L66.4911 87.0843L108.317 63.4355" stroke="#009767" stroke-width="1.5" stroke-linejoin="round"/>
<path d="M30.9199 62.4005L66.4911 82.2992L108.317 58.6504" stroke="#009767" stroke-width="1.5" stroke-linejoin="round"/>
<path d="M30.9199 57.6173L66.4911 77.516L108.317 53.8672" stroke="#009767" stroke-width="1.5" stroke-linejoin="round"/>
<path d="M30.9199 52.6056L66.4911 72.5042L108.317 48.8555" stroke="#009767" stroke-width="1.5" stroke-linejoin="round"/>
</g>
<path d="M83.3828 84.9877L94.6638 77.891V75.0871L92.3251 73.346L83.3828 79.116" fill="white"/>
<path d="M83.3828 84.9877L94.6638 77.891V75.0871L92.3251 73.346L83.3828 79.116" stroke="#009767" stroke-width="1.5" stroke-miterlimit="10"/>
<path d="M92.2442 58.9698L105.137 58.1641V73.474H92.2442L83.3806 79.1145V72.6682L78.5459 67.0277L92.2442 58.9698Z" fill="white"/>
<path d="M92.2442 58.9698L105.137 58.1641V73.474H92.2442M92.2442 58.9698V73.474M92.2442 58.9698L78.5459 67.0277L83.3806 72.6682V79.1145L92.2442 73.474" stroke="#009767" stroke-width="1.5" stroke-linejoin="bevel"/>
<path d="M83.3806 72.667L78.5459 66.2207V81.5306L83.3806 87.9769V72.667Z" fill="white" stroke="#009767" stroke-width="1.5" stroke-linejoin="bevel"/>
<g opacity="0.2">
<path d="M27.4468 43.5742L67.5384 66.2222" stroke="#009767" stroke-width="1.5" stroke-linejoin="round"/>
<path d="M30.4243 38.6562L70.516 61.3042" stroke="#009767" stroke-width="1.5" stroke-linejoin="round"/>
<path d="M33.4072 33.7402L73.4989 56.3882" stroke="#009767" stroke-width="1.5" stroke-linejoin="round"/>
<path d="M36.3901 28.8262L76.4818 51.4741" stroke="#009767" stroke-width="1.5" stroke-linejoin="round"/>
<path d="M39.373 23.9102L79.4647 46.5581" stroke="#009767" stroke-width="1.5" stroke-linejoin="round"/>
<path d="M42.3564 18.9941L82.4481 41.6421" stroke="#009767" stroke-width="1.5" stroke-linejoin="round"/>
<path d="M45.334 14.0762L85.4256 36.7241" stroke="#009767" stroke-width="1.5" stroke-linejoin="round"/>
<path d="M48.3115 9.16016L88.4032 31.8081" stroke="#009767" stroke-width="1.5" stroke-linejoin="round"/>
</g>
<path d="M17.8638 90.3809L17.8638 97.6252" stroke="#009767" stroke-width="1.5"/>
<path d="M6.27295 83.4799L17.9373 52.1211L30.2878 83.4799C30.0591 85.2516 26.1709 89.3265 17.9373 89.3265C9.70364 89.3265 6.95909 85.2516 6.27295 83.4799Z" fill="white" stroke="#009767" stroke-width="1.5"/>
<path d="M26.7275 103.504L26.7275 111.174" stroke="#009767" stroke-width="1.5"/>
<path d="M14.7476 96.096L27.098 62.8926L40.175 96.096C39.9328 97.9719 35.816 102.287 27.098 102.287C18.3801 102.287 15.4741 97.9719 14.7476 96.096Z" fill="white" stroke="#009767" stroke-width="1.5"/>
<path d="M47.1816 100.438L47.1816 115.438" stroke="#009767" stroke-width="1.5"/>
<mask id="path-31-inside-1_844_41617" fill="white">
<path fill-rule="evenodd" clip-rule="evenodd" d="M59.4533 77.763C64.1917 79.2183 67.6364 83.6293 67.6364 88.8448C67.6364 95.0204 62.8067 100.068 56.7184 100.417C54.5922 102.931 51.4144 104.528 47.8637 104.528C44.2254 104.528 40.9786 102.851 38.8535 100.229C33.5001 99.2041 29.4546 94.4969 29.4546 88.8448C29.4546 84.1428 32.2543 80.0948 36.2777 78.2768C36.2744 78.1638 36.2728 78.0504 36.2728 77.9366C36.2728 71.5351 41.4622 66.3457 47.8637 66.3457C54.2072 66.3457 59.3605 71.4415 59.4533 77.763Z"/>
</mask>
<path fill-rule="evenodd" clip-rule="evenodd" d="M59.4533 77.763C64.1917 79.2183 67.6364 83.6293 67.6364 88.8448C67.6364 95.0204 62.8067 100.068 56.7184 100.417C54.5922 102.931 51.4144 104.528 47.8637 104.528C44.2254 104.528 40.9786 102.851 38.8535 100.229C33.5001 99.2041 29.4546 94.4969 29.4546 88.8448C29.4546 84.1428 32.2543 80.0948 36.2777 78.2768C36.2744 78.1638 36.2728 78.0504 36.2728 77.9366C36.2728 71.5351 41.4622 66.3457 47.8637 66.3457C54.2072 66.3457 59.3605 71.4415 59.4533 77.763Z" fill="white"/>
<path d="M59.4533 77.763L57.9535 77.785L57.9695 78.8764L59.0129 79.1969L59.4533 77.763ZM56.7184 100.417L56.6327 98.919L55.9892 98.9558L55.573 99.448L56.7184 100.417ZM38.8535 100.229L40.0189 99.2844L39.6739 98.8585L39.1355 98.7555L38.8535 100.229ZM36.2777 78.2768L36.8953 79.6437L37.8058 79.2323L37.777 78.2336L36.2777 78.2768ZM69.1364 88.8448C69.1364 82.9521 65.2441 77.9724 59.8937 76.3291L59.0129 79.1969C63.1393 80.4643 66.1364 84.3065 66.1364 88.8448H69.1364ZM56.8041 101.914C63.6817 101.52 69.1364 95.8201 69.1364 88.8448H66.1364C66.1364 94.2207 61.9318 98.6156 56.6327 98.919L56.8041 101.914ZM47.8637 106.028C51.8743 106.028 55.4648 104.222 57.8638 101.385L55.573 99.448C53.7196 101.64 50.9545 103.028 47.8637 103.028V106.028ZM37.6881 101.173C40.0857 104.132 43.7539 106.028 47.8637 106.028V103.028C44.6968 103.028 41.8714 101.57 40.0189 99.2844L37.6881 101.173ZM27.9546 88.8448C27.9546 95.23 32.5245 100.545 38.5716 101.702L39.1355 98.7555C34.4757 97.8636 30.9546 93.7638 30.9546 88.8448H27.9546ZM35.66 76.9099C31.1193 78.9617 27.9546 83.5321 27.9546 88.8448H30.9546C30.9546 84.7536 33.3894 81.2279 36.8953 79.6437L35.66 76.9099ZM37.777 78.2336C37.7742 78.135 37.7728 78.036 37.7728 77.9366H34.7728C34.7728 78.0648 34.7746 78.1926 34.7783 78.32L37.777 78.2336ZM37.7728 77.9366C37.7728 72.3636 42.2906 67.8457 47.8637 67.8457V64.8457C40.6338 64.8457 34.7728 70.7067 34.7728 77.9366H37.7728ZM47.8637 67.8457C53.3861 67.8457 57.8727 72.2821 57.9535 77.785L60.9532 77.7409C60.8483 70.601 55.0282 64.8457 47.8637 64.8457V67.8457Z" fill="#009767" mask="url(#path-31-inside-1_844_41617)"/>
</svg>
