<svg width="113" height="121" viewBox="0 0 113 121" fill="none" xmlns="http://www.w3.org/2000/svg">
<g clip-path="url(#clip0_844_41776)">
<path d="M4.03955 87.1652L56.0353 57.0469L108.69 87.3403L56.694 117.45L4.03955 87.1652Z" fill="white" stroke="#009767" stroke-width="1.5" stroke-linejoin="round"/>
<path d="M30.5645 32.5188L82.569 2.40039L108.69 87.3375L56.6941 117.447L30.5645 32.5188Z" fill="white" stroke="#009767" stroke-width="1.5" stroke-linejoin="round"/>
<path d="M30.5732 30.717L82.5689 0.607422L109.638 88.5993L57.6338 118.709L30.5732 30.717Z" fill="white" stroke="#009767" stroke-width="1.5" stroke-linejoin="round"/>
<path d="M30.573 30.7168L57.6336 118.709L3.09082 87.3299L30.573 30.7168Z" fill="white" stroke="#009767" stroke-width="1.5" stroke-linejoin="round"/>
<path d="M11.8926 98.0167L16.513 95.1289L38.4602 107.258L33.8397 110.145L11.8926 98.0167Z" fill="white" stroke="#009767" stroke-width="1.5"/>
<path d="M9.58252 102.636L14.203 99.748L36.1501 111.877L31.5297 114.765L9.58252 102.636Z" fill="white" stroke="#009767" stroke-width="1.5"/>
<path d="M7.27197 107.257L11.8924 104.369L33.8396 116.498L29.2191 119.386L7.27197 107.257Z" fill="white" stroke="#009767" stroke-width="1.5"/>
<path d="M53.3126 104.406L16.3711 83.1547L34.9824 44.8262" stroke="#009767" stroke-width="1.5" stroke-linejoin="round"/>
<path d="M27.332 59.9258L42.3686 68.7136" stroke="#009767" stroke-width="1.5" stroke-linejoin="round"/>
<path d="M35.562 64.7383V94.5065" stroke="#009767" stroke-width="1.5" stroke-linejoin="round"/>
</g>
<defs>
<clipPath id="clip0_844_41776">
<rect width="111.818" height="120" fill="white" transform="translate(0.36377 0.890625)"/>
</clipPath>
</defs>
</svg>
