<svg width="146" height="121" viewBox="0 0 146 121" fill="none" xmlns="http://www.w3.org/2000/svg">
<g clip-path="url(#clip0_844_41766)">
<path d="M6.87549 47.7363V74.5562L71.9137 112.104V85.2842L39.0594 47.7363H6.87549Z" fill="white"/>
<path d="M2.18213 41.9241L18.1659 41.4092L39.5068 40.7299L68.631 24.011L73.2966 21.3267L94.6705 9.05596L106.022 2.53711C93.5508 2.97535 81.0909 3.41359 68.6201 3.85184L2.18213 41.9241Z" fill="white" stroke="#009767" stroke-width="1.5" stroke-linejoin="round"/>
<path d="M39.5068 40.7299L42.9978 44.8603L48.1025 50.8971L48.1135 50.919L75.8216 83.6886L77.0511 85.1457L112.784 64.5155L117.461 61.8093L138.758 49.5057L143.489 46.7776L106.022 2.53711L94.6705 9.05596L73.2967 21.3267L68.6311 24.011L39.5068 40.7299Z" fill="white" stroke="#009767" stroke-width="1.5" stroke-linejoin="round"/>
<path d="M18.1659 41.4097L39.5068 40.7305L42.9978 44.8609L48.1025 50.8977V50.9196L75.8215 83.6891L77.0511 85.1463V109.699L77.0401 120.545L2.29191 77.2579L2.18213 41.9247L18.1659 41.4097ZM6.94652 74.5627H6.95749L6.96847 74.5737L72.3416 112.416V85.6941L44.6335 52.9136H44.6225L39.5178 46.8549C28.6387 47.2055 17.7487 47.5451 6.86967 47.8957L6.94652 74.5627Z" fill="white" stroke="#009767" stroke-width="1.5" stroke-linejoin="round"/>
<path d="M77.04 109.698V120.544L143.379 82.1106L143.489 46.7773L138.758 49.5054L117.46 61.809L112.784 64.5152L77.051 85.1454L77.04 109.698Z" fill="white" stroke="#009767" stroke-width="1.5" stroke-linejoin="round"/>
<path d="M72.3413 85.6918V95.9466L22.4909 67.0884H22.4799L22.4689 67.0775L22.4141 47.4004" stroke="#009767" stroke-width="1.5" stroke-linejoin="round"/>
<path d="M22.469 67.0801L6.96826 74.574" stroke="#009767" stroke-width="1.5" stroke-linejoin="round"/>
<path d="M45.8848 80.6442V54.0977" stroke="#009767" stroke-width="1.5" stroke-linejoin="round"/>
</g>
<defs>
<clipPath id="clip0_844_41766">
<rect width="144.545" height="120" fill="white" transform="translate(0.818359 0.890625)"/>
</clipPath>
</defs>
</svg>
