<svg width="121" height="121" viewBox="0 0 121 121" fill="none" xmlns="http://www.w3.org/2000/svg">
<path d="M45.1367 92.5366L64.2276 103.446L72.4094 101.4L73.0912 103.446C71.273 102.537 67.5003 101.537 66.9549 104.809C66.4094 108.082 71.7276 107.082 74.4549 106.173H76.5003C80.3185 109.446 84.0003 107.537 85.364 106.173C84.2731 108.355 86.7276 109.809 88.0912 110.264C96.8185 111.355 95.364 107.991 93.5458 106.173L97.6367 107.537C99.8185 107.537 99.4549 104.809 99.0003 103.446C100.364 99.3548 94.9094 102.082 94.9094 100.718V97.3093L99.0003 92.5366V57.082L108.546 53.6729L101.046 23.6729L70.364 12.082L50.5912 19.582L32.1821 41.4002L45.1367 92.5366Z" fill="white"/>
<path d="M27.9419 45.8277L38.2338 51.7683L48.0338 57.4314L55.4627 61.7196L55.5383 61.7575L64.2411 66.7899L65.5906 66.3863L93.4267 58.1629L94.9654 57.7088L99.5817 56.3467V56.3341L109.747 53.3322H109.76L101.574 24.0583L70.9131 11.7988L109.747 53.3322" stroke="#009767" stroke-width="1.5" stroke-linejoin="round"/>
<path d="M64.2383 66.7899L66.2941 49.8259L69.7752 21.1448L70.8978 11.7988" stroke="#009767" stroke-width="1.5" stroke-linejoin="round"/>
<path d="M27.9419 45.8277L51.023 19.4295L70.9005 11.7988L60.2176 20.2619L27.9419 45.8277Z" stroke="#009767" stroke-width="1.5" stroke-linejoin="round"/>
<path d="M55.4607 61.7189L55.4229 67.1801L65.5886 68.1135L93.3491 70.6612L93.4247 58.1621" stroke="#009767" stroke-width="1.5" stroke-linejoin="round"/>
<path d="M55.4586 61.718L55.4208 67.1793L48.6478 74.9234L38.1162 86.9811L38.2297 68.9072V68.6549L48.0297 57.4297" stroke="#009767" stroke-width="1.5" stroke-linejoin="round"/>
<path d="M93.4248 58.1611L93.3491 70.6602L94.9257 76.2981L99.4662 92.6062L99.5798 74.9233V74.28L94.9635 57.707" stroke="#009767" stroke-width="1.5" stroke-linejoin="round"/>
<path d="M38.1055 87.2469L65.8407 103.252L65.9542 84.9136L38.219 68.9082V51.7676" stroke="#009767" stroke-width="1.5" stroke-linejoin="round"/>
<path d="M65.4634 103.303L99.467 92.6074" stroke="#009767" stroke-width="1.5" stroke-linejoin="round"/>
<path d="M41.248 70.6484V89.2142" stroke="#009767" stroke-width="1.5" stroke-linejoin="round"/>
<path d="M45.8291 73.1602V91.7133" stroke="#009767" stroke-width="1.5" stroke-linejoin="round"/>
<path d="M50.5591 75.6953V94.2485" stroke="#009767" stroke-width="1.5" stroke-linejoin="round"/>
<path d="M55.4224 78.5312V97.0971" stroke="#009767" stroke-width="1.5" stroke-linejoin="round"/>
<path d="M59.8486 81.459V100.012" stroke="#009767" stroke-width="1.5" stroke-linejoin="round"/>
<path d="M52.0347 59.8906V70.8132" stroke="#009767" stroke-width="1.5" stroke-linejoin="round"/>
<path d="M48.6147 58.2637V75.316" stroke="#009767" stroke-width="1.5" stroke-linejoin="round"/>
<path d="M95.4102 59.6387V75.6946" stroke="#009767" stroke-width="1.5" stroke-linejoin="round"/>
<path d="M88.3945 59.8906V70.1447" stroke="#009767" stroke-width="1.5" stroke-linejoin="round"/>
<path d="M83.3237 61.3789V69.7285" stroke="#009767" stroke-width="1.5" stroke-linejoin="round"/>
<path d="M78.1143 62.7539V69.0981" stroke="#009767" stroke-width="1.5" stroke-linejoin="round"/>
<path d="M72.0732 64.0918V69.099" stroke="#009767" stroke-width="1.5" stroke-linejoin="round"/>
<path d="M60.126 64.0918V67.1567" stroke="#009767" stroke-width="1.5" stroke-linejoin="round"/>
<path d="M44.5771 61.3789V79.9321" stroke="#009767" stroke-width="1.5" stroke-linejoin="round"/>
<path d="M41.248 65.2012V82.9724" stroke="#009767" stroke-width="1.5" stroke-linejoin="round"/>
<path d="M70.9019 83.3262V101.892" stroke="#009767" stroke-width="1.5" stroke-linejoin="round"/>
<path d="M90.8184 95.3342V77.7017L99.5841 74.927V56.3359" stroke="#009767" stroke-width="1.5" stroke-linejoin="round"/>
<path d="M95.4102 75.6953V94.2485" stroke="#009767" stroke-width="1.5" stroke-linejoin="round"/>
<path d="M82.1245 103.316C84.9247 103.316 87.1948 102.238 87.1948 100.907C87.1948 99.5766 84.9247 98.498 82.1245 98.498C79.3242 98.498 77.0542 99.5766 77.0542 100.907C77.0542 102.238 79.3242 103.316 82.1245 103.316Z" stroke="#009767" stroke-width="1.5" stroke-miterlimit="10"/>
<path d="M91.393 101.021C94.1933 101.021 96.4633 99.9426 96.4633 98.6121C96.4633 97.2817 94.1933 96.2031 91.393 96.2031C88.5928 96.2031 86.3228 97.2817 86.3228 98.6121C86.3228 99.9426 88.5928 101.021 91.393 101.021Z" stroke="#009767" stroke-width="1.5" stroke-miterlimit="10"/>
<path d="M89.7064 105.449C91.7752 105.449 93.4524 104.653 93.4524 103.671C93.4524 102.689 91.7752 101.893 89.7064 101.893C87.6376 101.893 85.9604 102.689 85.9604 103.671C85.9604 104.653 87.6376 105.449 89.7064 105.449Z" stroke="#009767" stroke-width="1.5" stroke-miterlimit="10"/>
<path d="M96.8445 106.821C98.6696 106.821 100.149 106.115 100.149 105.245C100.149 104.374 98.6696 103.668 96.8445 103.668C95.0195 103.668 93.54 104.374 93.54 105.245C93.54 106.115 95.0195 106.821 96.8445 106.821Z" stroke="#009767" stroke-width="1.5" stroke-miterlimit="10"/>
<path d="M81.8261 108.146C84.6264 108.146 86.8964 107.068 86.8964 105.737C86.8964 104.407 84.6264 103.328 81.8261 103.328C79.0259 103.328 76.7559 104.407 76.7559 105.737C76.7559 107.068 79.0259 108.146 81.8261 108.146Z" stroke="#009767" stroke-width="1.5" stroke-miterlimit="10"/>
<path d="M91.0307 110.556C93.831 110.556 96.101 109.478 96.101 108.147C96.101 106.817 93.831 105.738 91.0307 105.738C88.2305 105.738 85.9604 106.817 85.9604 108.147C85.9604 109.478 88.2305 110.556 91.0307 110.556Z" stroke="#009767" stroke-width="1.5" stroke-miterlimit="10"/>
<path d="M75.6692 103.327C77.1754 103.327 78.3964 102.716 78.3964 101.963C78.3964 101.21 77.1754 100.6 75.6692 100.6C74.1629 100.6 72.9419 101.21 72.9419 101.963C72.9419 102.716 74.1629 103.327 75.6692 103.327Z" stroke="#009767" stroke-width="1.5" stroke-miterlimit="10"/>
<path d="M71.5782 107.419C73.8376 107.419 75.6691 106.503 75.6691 105.374C75.6691 104.244 73.8376 103.328 71.5782 103.328C69.3189 103.328 67.4873 104.244 67.4873 105.374C67.4873 106.503 69.3189 107.419 71.5782 107.419Z" stroke="#009767" stroke-width="1.5" stroke-miterlimit="10"/>
<path d="M96.4703 103.67C98.2326 103.67 99.6613 102.992 99.6613 102.156C99.6613 101.32 98.2326 100.643 96.4703 100.643C94.708 100.643 93.2793 101.32 93.2793 102.156C93.2793 102.992 94.708 103.67 96.4703 103.67Z" stroke="#009767" stroke-width="1.5" stroke-miterlimit="10"/>
<path d="M75.9608 100.012V81.4588L65.5806 84.9777V66.3867" stroke="#009767" stroke-width="1.5" stroke-linejoin="round"/>
<path d="M90.8184 77.7012L95.2076 79.9336V97.503L90.8184 94.9048V77.7012Z" fill="white" stroke="#009767" stroke-width="1.5" stroke-linejoin="round"/>
<path d="M75.9194 81.459L79.1609 85.4698V103.039L75.9194 98.65V81.459Z" fill="white" stroke="#009767" stroke-width="1.5" stroke-linejoin="round"/>
<path d="M37.6152 89.0195L37.6152 110.924" stroke="#009767" stroke-width="1.5"/>
<mask id="path-41-inside-1_844_41714" fill="white">
<path fill-rule="evenodd" clip-rule="evenodd" d="M21.6904 56.6622C21.6856 56.4963 21.6831 56.3298 21.6831 56.1627C21.6831 46.8145 29.2613 39.2363 38.6095 39.2363C47.8738 39.2363 55.3997 46.6791 55.5341 55.9114C62.4535 58.0368 67.4838 64.4781 67.4838 72.0944C67.4838 81.1134 60.4298 88.4849 51.5379 88.9928C48.433 92.6631 43.7934 94.9934 38.6096 94.9934C33.2978 94.9934 28.5575 92.5467 25.4542 88.7187C17.636 87.2229 11.7275 80.3486 11.7275 72.0944C11.7275 65.2284 15.8156 59.3172 21.6904 56.6622Z"/>
</mask>
<path fill-rule="evenodd" clip-rule="evenodd" d="M21.6904 56.6622C21.6856 56.4963 21.6831 56.3298 21.6831 56.1627C21.6831 46.8145 29.2613 39.2363 38.6095 39.2363C47.8738 39.2363 55.3997 46.6791 55.5341 55.9114C62.4535 58.0368 67.4838 64.4781 67.4838 72.0944C67.4838 81.1134 60.4298 88.4849 51.5379 88.9928C48.433 92.6631 43.7934 94.9934 38.6096 94.9934C33.2978 94.9934 28.5575 92.5467 25.4542 88.7187C17.636 87.2229 11.7275 80.3486 11.7275 72.0944C11.7275 65.2284 15.8156 59.3172 21.6904 56.6622Z" fill="white"/>
<path d="M21.6904 56.6622L22.3081 58.029L23.2187 57.6175L23.1897 56.6187L21.6904 56.6622ZM55.5341 55.9114L54.0343 55.9333L54.0501 57.0248L55.0937 57.3453L55.5341 55.9114ZM51.5379 88.9928L51.4523 87.4953L50.8089 87.532L50.3927 88.024L51.5379 88.9928ZM25.4542 88.7187L26.6194 87.7741L26.2744 87.3484L25.7361 87.2455L25.4542 88.7187ZM23.1897 56.6187C23.1854 56.4673 23.1831 56.3153 23.1831 56.1627H20.1831C20.1831 56.3443 20.1858 56.5252 20.191 56.7056L23.1897 56.6187ZM23.1831 56.1627C23.1831 47.643 30.0898 40.7363 38.6095 40.7363V37.7363C28.4329 37.7363 20.1831 45.9861 20.1831 56.1627H23.1831ZM38.6095 40.7363C47.0527 40.7363 53.9118 47.5196 54.0343 55.9333L57.0339 55.8896C56.8877 45.8386 48.6949 37.7363 38.6095 37.7363V40.7363ZM68.9838 72.0944C68.9838 63.801 63.5059 56.7909 55.9745 54.4776L55.0937 57.3453C61.4011 59.2827 65.9838 65.1553 65.9838 72.0944H68.9838ZM51.6234 90.4904C61.3046 89.9374 68.9838 81.9132 68.9838 72.0944H65.9838C65.9838 80.3136 59.5549 87.0325 51.4523 87.4953L51.6234 90.4904ZM38.6096 96.4934C44.2532 96.4934 49.3054 93.9543 52.6831 89.9616L50.3927 88.024C47.5606 91.3718 43.3336 93.4934 38.6096 93.4934V96.4934ZM24.289 89.6634C27.6649 93.8275 32.8265 96.4934 38.6096 96.4934V93.4934C33.7691 93.4934 29.4501 91.2658 26.6194 87.7741L24.289 89.6634ZM10.2275 72.0944C10.2275 81.0818 16.6604 88.5635 25.1724 90.192L25.7361 87.2455C18.6115 85.8824 13.2275 79.6155 13.2275 72.0944H10.2275ZM21.0726 55.2953C14.6805 58.1842 10.2275 64.6176 10.2275 72.0944H13.2275C13.2275 65.8392 16.9507 60.4503 22.3081 58.029L21.0726 55.2953Z" fill="#009767" mask="url(#path-41-inside-1_844_41714)"/>
</svg>
