<svg width="121" height="121" viewBox="0 0 121 121" fill="none" xmlns="http://www.w3.org/2000/svg">
<path d="M100.183 93.2324L101.829 94.1711L101.809 99.6956L74.7314 115.311L74.7413 109.786" fill="white"/>
<path d="M100.183 93.2324L101.829 94.1711L101.809 99.6956L74.7314 115.311L74.7413 109.786" stroke="#009767" stroke-width="1.5" stroke-linejoin="round"/>
<path d="M34.909 14.8109V32.5381L41.0454 35.9464L43.7727 33.2191L43.0909 16.8555C43.7727 14.5827 45.1363 9.90109 45.1363 9.35632C45.1363 8.81155 43.3181 7.76569 42.409 7.31087C38.5909 5.6745 34.909 7.99268 33.5454 9.35632L34.909 14.8109Z" fill="white"/>
<path d="M88.239 61.1114C98.7922 55.0687 107.365 59.9282 107.404 71.955C107.444 83.9817 98.9203 98.6289 88.3671 104.681C77.8139 110.734 69.2314 105.884 69.192 93.8475C69.1624 81.811 77.6858 67.1541 88.239 61.1114Z" fill="white" stroke="#009767" stroke-width="1.5" stroke-miterlimit="10"/>
<path d="M43.2468 32.2077V27.0156C43.4833 27.0352 43.7198 27.0645 43.9464 27.1036C44.0056 27.1232 44.0647 27.1427 44.1238 27.1525C44.2421 27.1721 44.3504 27.2014 44.4687 27.2307C44.6461 27.2698 44.8333 27.2992 45.0205 27.3578C45.188 27.4067 45.3457 27.4654 45.5132 27.5241C45.6216 27.5632 45.7299 27.6023 45.8383 27.6414C45.8975 27.661 45.9664 27.6805 46.0256 27.7099C46.3507 27.8467 46.6759 28.0032 46.9814 28.1694C47.0208 28.189 47.0503 28.2085 47.0897 28.2281L101.531 59.6247C101.629 59.6834 101.728 59.742 101.827 59.8007C101.629 59.6834 101.423 59.5758 101.216 59.478C101.009 59.3803 100.792 59.2825 100.575 59.2043C100.437 59.1456 100.289 59.1163 100.151 59.0674C99.846 58.9598 99.5307 58.862 99.2055 58.7936C99.2055 58.7936 99.2055 58.7936 99.1956 58.7936C98.8606 58.7154 98.5256 58.6469 98.1709 58.6078C97.9344 58.5785 97.688 58.5589 97.4516 58.5394C97.3629 58.5296 97.2643 58.5394 97.1756 58.5394C96.7914 58.5198 96.3874 58.5394 95.9834 58.5589C95.8356 58.5687 95.6779 58.5883 95.5202 58.598C95.471 58.598 95.4217 58.6078 95.3724 58.6176C95.0473 58.6567 94.7024 58.7056 94.3674 58.774C94.1013 58.8229 93.8451 58.8718 93.5791 58.9403C93.4608 58.9696 93.3426 58.9989 93.2145 59.0283C92.909 59.1065 92.6036 59.1847 92.2981 59.2923C92.2587 59.302 92.2094 59.3118 92.17 59.3314C92.1405 59.3314 92.1109 59.3412 92.0912 59.3509C92.0025 59.3803 91.9138 59.4096 91.8251 59.4487C91.362 59.6149 90.9088 59.8007 90.4358 60.006C90.0909 60.1527 89.7362 60.3189 89.3913 60.5047C89.2731 60.5536 89.1647 60.6123 89.0563 60.6709C88.7902 60.8078 88.5143 60.9643 88.2384 61.1207C87.4304 61.5803 86.6323 62.0985 85.844 62.6754C85.44 62.9492 85.036 63.2523 84.6419 63.575C84.4152 63.751 84.1984 63.9367 83.9817 64.1127C83.6171 64.4158 83.2624 64.7287 82.9076 65.0514C82.6908 65.247 82.4741 65.4425 82.2573 65.6479C81.9814 65.9118 81.7153 66.1856 81.4493 66.4496C81.0157 66.8896 80.6019 67.3296 80.188 67.7892H80.1782C79.9318 68.0728 79.6855 68.3368 79.449 68.6203C79.1928 68.9136 78.9465 69.2168 78.7001 69.5199C78.5523 69.6959 78.4144 69.8719 78.2666 70.0577C77.9315 70.4683 77.6162 70.8888 77.3108 71.319C76.8477 71.935 76.4042 72.5803 75.9904 73.2257C75.8721 73.4017 75.7638 73.5679 75.6554 73.7439C75.3499 74.223 75.0543 74.7119 74.7685 75.2008C74.7193 75.2986 74.6601 75.3964 74.6109 75.4941C74.4532 75.7679 74.2956 76.0417 74.1379 76.3155C74.1281 76.3252 74.1281 76.335 74.1281 76.3448C73.862 76.8141 73.6157 77.2933 73.3792 77.7724C73.2314 78.0755 73.0836 78.3786 72.9358 78.6915C72.7485 79.0728 72.5712 79.4639 72.4037 79.8453C72.0982 80.5395 71.8223 81.2337 71.5563 81.9182C71.4676 82.1528 71.3789 82.3973 71.3001 82.632C71.1326 83.1111 70.965 83.5902 70.8172 84.0595C70.8172 84.0791 70.8074 84.0986 70.7975 84.128C70.7187 84.3724 70.6399 84.6168 70.5808 84.8515C70.4428 85.3111 70.3246 85.7609 70.2162 86.2106C70.1275 86.5333 70.0487 86.856 69.9698 87.1786C69.9206 87.3546 69.8811 87.5209 69.8614 87.6969C69.8516 87.7555 69.8417 87.824 69.8319 87.8827C69.8122 87.9902 69.7925 88.1075 69.7728 88.2151C69.6939 88.6062 69.6348 88.9973 69.5658 89.3787C69.5461 89.5155 69.5166 89.6524 69.4969 89.7795C69.4476 90.1218 69.4082 90.4738 69.3688 90.816C69.2998 91.4222 69.2407 92.0284 69.221 92.6249C69.2111 92.6347 69.2111 92.6542 69.221 92.664C69.2013 92.9573 69.2013 93.2507 69.2013 93.5342C69.1914 93.6418 69.1914 93.7493 69.1914 93.8471C69.1914 94.2187 69.2013 94.5902 69.221 94.952C69.2407 95.304 69.2604 95.656 69.2998 96.008C69.3195 96.3014 69.3589 96.5849 69.3983 96.8685C69.418 96.9956 69.4279 97.1227 69.4574 97.2498C69.4771 97.4258 69.5067 97.6018 69.5461 97.768C69.5757 97.9245 69.6052 98.0809 69.6447 98.2374C69.7728 98.8338 69.9304 99.4107 70.1176 99.9583C70.1866 100.193 70.2753 100.418 70.3541 100.633C70.4428 100.868 70.5413 101.083 70.6399 101.298C71.034 102.158 71.507 102.941 72.0391 103.625C72.1081 103.713 72.1869 103.801 72.2559 103.889C72.4529 104.124 72.6599 104.349 72.8865 104.564C72.9949 104.681 73.1131 104.789 73.2314 104.886C73.6452 105.258 74.0886 105.59 74.5616 105.884L68.2849 102.266L35.7384 83.4924L30.9495 80.7351L21.1748 75.0932L20.0219 74.4283C16.8687 72.6097 14.8192 68.9137 14.5039 63.6727C14.4743 63.2229 14.4546 62.7634 14.4546 62.2843C14.4546 61.5901 14.4842 60.886 14.5433 60.182C14.5531 59.9572 14.5827 59.7323 14.6024 59.5172C14.632 59.1945 14.6615 58.8914 14.7009 58.5687C14.7206 58.4318 14.7502 58.2949 14.7699 58.1483C14.8389 57.6496 14.9374 57.1411 15.036 56.6425C15.0754 56.4078 15.1049 56.1731 15.1542 55.9385C15.1739 55.8309 15.2133 55.7136 15.233 55.606C15.3119 55.2833 15.3907 54.9607 15.4794 54.6282C15.5483 54.3447 15.6075 54.0513 15.6863 53.7678C15.7356 53.6016 15.7947 53.4451 15.8439 53.2789C15.9129 53.0247 16.0016 52.7607 16.0804 52.4967C16.1494 52.2718 16.2085 52.0567 16.2874 51.8318C16.376 51.5482 16.4943 51.2647 16.5928 50.9811C16.6717 50.7758 16.7406 50.5606 16.8195 50.3553C16.8589 50.2478 16.8884 50.15 16.9278 50.0424C17.1052 49.6024 17.2826 49.1624 17.4796 48.7224C17.5289 48.5953 17.5782 48.4682 17.6373 48.3411C17.6373 48.3215 17.657 48.2922 17.6669 48.2726C17.6964 48.1944 17.7358 48.1162 17.7753 48.038C17.9723 47.5882 18.1793 47.1384 18.396 46.6984C18.4749 46.5322 18.5635 46.366 18.6522 46.1997C18.7409 46.0042 18.8394 45.8184 18.938 45.6326C19.0267 45.4468 19.1153 45.2611 19.2139 45.0851C19.4307 44.694 19.6474 44.3028 19.8741 43.9215C19.9332 43.8139 19.9923 43.7064 20.0514 43.5891C20.0711 43.5597 20.0909 43.5206 20.1106 43.4815C20.4357 42.9437 20.7609 42.4059 21.1058 41.8779C21.155 41.7997 21.2043 41.7313 21.2536 41.653C21.3817 41.4673 21.4999 41.2815 21.628 41.1055C21.8152 40.8122 22.0123 40.5188 22.2094 40.2353C22.3276 40.069 22.4557 39.9126 22.574 39.7464C22.7513 39.5117 22.9287 39.2672 23.1061 39.0326C23.2342 38.8664 23.3524 38.6904 23.4805 38.5241C23.6382 38.3286 23.8057 38.133 23.9732 37.9375C24.2097 37.6344 24.456 37.341 24.7122 37.0477C24.8206 36.9206 24.9191 36.7837 25.0275 36.6566C25.1655 36.5001 25.3034 36.373 25.4414 36.2263C25.8552 35.7668 26.2789 35.317 26.7125 34.877C26.8504 34.7401 26.9785 34.5837 27.1165 34.4468C27.2544 34.3197 27.3924 34.2023 27.5205 34.0752C27.7373 33.8699 27.954 33.6743 28.1708 33.4788C28.5255 33.1561 28.8803 32.8432 29.2449 32.5401C29.4616 32.3641 29.6784 32.1783 29.9051 32.0023C30.2401 31.7285 30.5948 31.4743 30.9397 31.2201C30.9988 31.181 31.0481 31.1419 31.1072 31.1028C31.2944 30.9659 31.4816 30.8192 31.6787 30.6921C32.2798 30.2814 32.8907 29.8903 33.5016 29.5383C34.0928 29.2059 34.6742 28.9125 35.2556 28.6387C35.2753 28.629 35.3048 28.6192 35.3245 28.6094V32.1979" fill="white"/>
<path d="M43.2468 32.2077V27.0156C43.4833 27.0352 43.7198 27.0645 43.9464 27.1036C44.0056 27.1232 44.0647 27.1427 44.1238 27.1525C44.2421 27.1721 44.3504 27.2014 44.4687 27.2307C44.6461 27.2698 44.8333 27.2992 45.0205 27.3578C45.188 27.4067 45.3457 27.4654 45.5132 27.5241C45.6216 27.5632 45.7299 27.6023 45.8383 27.6414C45.8975 27.661 45.9664 27.6805 46.0256 27.7099C46.3507 27.8467 46.6759 28.0032 46.9814 28.1694C47.0208 28.189 47.0503 28.2085 47.0897 28.2281L101.531 59.6247C101.629 59.6834 101.728 59.742 101.827 59.8007C101.629 59.6834 101.423 59.5758 101.216 59.478C101.009 59.3803 100.792 59.2825 100.575 59.2043C100.437 59.1456 100.289 59.1163 100.151 59.0674C99.846 58.9598 99.5307 58.862 99.2055 58.7936C99.2055 58.7936 99.2055 58.7936 99.1956 58.7936C98.8606 58.7154 98.5256 58.6469 98.1709 58.6078C97.9344 58.5785 97.688 58.5589 97.4516 58.5394C97.3629 58.5296 97.2643 58.5394 97.1756 58.5394C96.7914 58.5198 96.3874 58.5394 95.9834 58.5589C95.8356 58.5687 95.6779 58.5883 95.5202 58.598C95.471 58.598 95.4217 58.6078 95.3724 58.6176C95.0473 58.6567 94.7024 58.7056 94.3674 58.774C94.1013 58.8229 93.8451 58.8718 93.5791 58.9403C93.4608 58.9696 93.3426 58.9989 93.2145 59.0283C92.909 59.1065 92.6036 59.1847 92.2981 59.2923C92.2587 59.302 92.2094 59.3118 92.17 59.3314C92.1405 59.3314 92.1109 59.3412 92.0912 59.3509C92.0025 59.3803 91.9138 59.4096 91.8251 59.4487C91.362 59.6149 90.9088 59.8007 90.4358 60.006C90.0909 60.1527 89.7362 60.3189 89.3913 60.5047C89.2731 60.5536 89.1647 60.6123 89.0563 60.6709C88.7902 60.8078 88.5143 60.9643 88.2384 61.1207C87.4304 61.5803 86.6323 62.0985 85.844 62.6754C85.44 62.9492 85.036 63.2523 84.6419 63.575C84.4152 63.751 84.1984 63.9367 83.9817 64.1127C83.6171 64.4158 83.2624 64.7287 82.9076 65.0514C82.6908 65.247 82.4741 65.4425 82.2573 65.6478C81.9814 65.9119 81.7153 66.1856 81.4493 66.4496C81.0157 66.8896 80.6019 67.3296 80.188 67.7892H80.1782C79.9318 68.0728 79.6855 68.3368 79.449 68.6203C79.1928 68.9136 78.9465 69.2168 78.7001 69.5199C78.5523 69.6959 78.4144 69.8719 78.2666 70.0577C77.9316 70.4683 77.6162 70.8888 77.3108 71.319C76.8477 71.935 76.4042 72.5803 75.9904 73.2257C75.8721 73.4017 75.7638 73.5679 75.6554 73.7439C75.3499 74.223 75.0543 74.7119 74.7685 75.2008C74.7193 75.2986 74.6601 75.3964 74.6109 75.4941C74.4532 75.7679 74.2956 76.0417 74.1379 76.3155C74.1281 76.3252 74.1281 76.335 74.1281 76.3448C73.862 76.8141 73.6157 77.2933 73.3792 77.7724C73.2314 78.0755 73.0836 78.3786 72.9358 78.6915C72.7485 79.0728 72.5712 79.4639 72.4037 79.8453C72.0982 80.5395 71.8223 81.2337 71.5563 81.9182C71.4676 82.1528 71.3789 82.3973 71.3001 82.632C71.1326 83.1111 70.965 83.5902 70.8172 84.0595C70.8172 84.0791 70.8074 84.0986 70.7975 84.128C70.7187 84.3724 70.6399 84.6168 70.5808 84.8515C70.4428 85.3111 70.3246 85.7609 70.2162 86.2106C70.1275 86.5333 70.0487 86.856 69.9698 87.1786C69.9206 87.3546 69.8811 87.5209 69.8614 87.6969C69.8516 87.7555 69.8417 87.824 69.8319 87.8827C69.8122 87.9902 69.7925 88.1075 69.7728 88.2151C69.6939 88.6062 69.6348 88.9973 69.5658 89.3787C69.5461 89.5155 69.5166 89.6524 69.4969 89.7796C69.4476 90.1218 69.4082 90.4738 69.3688 90.816C69.2998 91.4222 69.2407 92.0284 69.221 92.6249C69.2111 92.6347 69.2111 92.6542 69.221 92.664C69.2013 92.9573 69.2013 93.2507 69.2013 93.5342C69.1914 93.6418 69.1914 93.7493 69.1914 93.8471C69.1914 94.2187 69.2013 94.5902 69.221 94.952C69.2407 95.304 69.2604 95.656 69.2998 96.008C69.3195 96.3014 69.3589 96.5849 69.3983 96.8685C69.418 96.9956 69.4279 97.1227 69.4574 97.2498C69.4771 97.4258 69.5067 97.6018 69.5461 97.768C69.5757 97.9245 69.6052 98.0809 69.6447 98.2374C69.7728 98.8338 69.9304 99.4107 70.1176 99.9583C70.1866 100.193 70.2753 100.418 70.3541 100.633C70.4428 100.868 70.5413 101.083 70.6399 101.298C71.034 102.158 71.507 102.941 72.0391 103.625C72.1081 103.713 72.1869 103.801 72.2559 103.889C72.4529 104.124 72.6599 104.349 72.8865 104.564C72.9949 104.681 73.1131 104.789 73.2314 104.886C73.6452 105.258 74.0886 105.59 74.5616 105.884L68.2849 102.266L35.7384 83.4924L30.9495 80.735L21.1748 75.0932L20.0219 74.4283C16.8687 72.6097 14.8192 68.9136 14.5039 63.6727C14.4743 63.2229 14.4546 62.7634 14.4546 62.2843C14.4546 61.5901 14.4842 60.886 14.5433 60.182C14.5531 59.9572 14.5827 59.7323 14.6024 59.5172C14.632 59.1945 14.6615 58.8914 14.7009 58.5687C14.7206 58.4318 14.7502 58.2949 14.7699 58.1483C14.8389 57.6496 14.9374 57.1411 15.036 56.6425C15.0754 56.4078 15.1049 56.1731 15.1542 55.9385C15.1739 55.8309 15.2133 55.7136 15.233 55.606C15.3119 55.2833 15.3907 54.9607 15.4794 54.6282C15.5483 54.3447 15.6075 54.0513 15.6863 53.7678C15.7356 53.6016 15.7947 53.4451 15.8439 53.2789C15.9129 53.0247 16.0016 52.7607 16.0804 52.4967C16.1494 52.2718 16.2085 52.0567 16.2874 51.8318C16.376 51.5482 16.4943 51.2647 16.5928 50.9811C16.6717 50.7758 16.7406 50.5607 16.8195 50.3553C16.8589 50.2478 16.8884 50.15 16.9278 50.0424C17.1052 49.6024 17.2826 49.1624 17.4796 48.7224C17.5289 48.5953 17.5782 48.4682 17.6373 48.3411C17.6373 48.3215 17.657 48.2922 17.6669 48.2726C17.6964 48.1944 17.7358 48.1162 17.7753 48.038C17.9723 47.5882 18.1793 47.1384 18.396 46.6984C18.4749 46.5322 18.5635 46.366 18.6522 46.1997C18.7409 46.0042 18.8394 45.8184 18.938 45.6326C19.0267 45.4468 19.1153 45.2611 19.2139 45.0851C19.4307 44.694 19.6474 44.3028 19.8741 43.9215C19.9332 43.8139 19.9923 43.7064 20.0514 43.5891C20.0711 43.5597 20.0909 43.5206 20.1106 43.4815C20.4357 42.9437 20.7609 42.4059 21.1058 41.8779C21.155 41.7997 21.2043 41.7313 21.2536 41.653C21.3817 41.4673 21.4999 41.2815 21.628 41.1055C21.8152 40.8122 22.0123 40.5188 22.2094 40.2353C22.3276 40.069 22.4557 39.9126 22.574 39.7464C22.7513 39.5117 22.9287 39.2672 23.1061 39.0326C23.2342 38.8664 23.3524 38.6904 23.4805 38.5241C23.6382 38.3286 23.8057 38.133 23.9732 37.9375C24.2097 37.6344 24.456 37.341 24.7122 37.0477C24.8206 36.9206 24.9191 36.7837 25.0275 36.6566C25.1655 36.5001 25.3034 36.373 25.4414 36.2263C25.8552 35.7668 26.2789 35.317 26.7125 34.877C26.8504 34.7401 26.9785 34.5837 27.1165 34.4468C27.2544 34.3197 27.3924 34.2023 27.5205 34.0752C27.7373 33.8699 27.954 33.6743 28.1708 33.4788C28.5255 33.1561 28.8803 32.8432 29.2449 32.5401C29.4616 32.3641 29.6784 32.1783 29.9051 32.0023C30.2401 31.7285 30.5948 31.4743 30.9397 31.2201C30.9988 31.181 31.0481 31.1419 31.1072 31.1028C31.2944 30.9659 31.4816 30.8192 31.6787 30.6921C32.2798 30.2814 32.8907 29.8903 33.5016 29.5383C34.0928 29.2059 34.6742 28.9125 35.2556 28.6387C35.2753 28.629 35.3048 28.6192 35.3245 28.6094V32.1979" stroke="#009767" stroke-width="1.5" stroke-miterlimit="10"/>
<path d="M88.239 61.1094C98.7922 55.0667 107.365 59.9263 107.404 71.953C107.444 83.9798 98.9203 98.627 88.3671 104.679C77.8139 110.732 69.2314 105.882 69.192 93.8456C69.1624 81.8091 77.6858 67.1521 88.239 61.1094Z" fill="white" stroke="#009767" stroke-width="1.5" stroke-miterlimit="10"/>
<path d="M88.2494 64.4162C97.2063 59.2828 104.488 63.409 104.518 73.6269C104.547 83.8447 97.3147 96.2723 88.3577 101.396C79.4008 106.529 72.119 102.413 72.0894 92.2048C72.0599 81.9967 79.3023 69.5495 88.2592 64.4162H88.2494Z" fill="white" stroke="#009767" stroke-width="1.5" stroke-miterlimit="10"/>
<path d="M92.0953 59.3517L43.251 31.1133" stroke="#009767" stroke-width="1.5" stroke-miterlimit="10"/>
<path d="M85.4566 62.7641L30.8184 31.1621" stroke="#009767" stroke-width="1.5" stroke-miterlimit="10"/>
<path d="M80.2905 67.85L25.6621 36.248" stroke="#009767" stroke-width="1.5" stroke-miterlimit="10"/>
<path d="M75.9801 73.9301L21.3418 42.3281" stroke="#009767" stroke-width="1.5" stroke-miterlimit="10"/>
<path d="M71.9908 80.2484L17.3525 48.6562" stroke="#009767" stroke-width="1.5" stroke-miterlimit="10"/>
<path d="M70.169 88.0766L15.5308 56.4746" stroke="#009767" stroke-width="1.5" stroke-miterlimit="10"/>
<path d="M69.0929 95.2445L14.4546 63.6523" stroke="#009767" stroke-width="1.5" stroke-miterlimit="10"/>
<path d="M94.3592 93.1355L94.4183 65.9629L84.0425 71.8296L84.1016 99.0804L94.3592 93.1355Z" fill="white" stroke="#009767" stroke-width="1.5" stroke-linejoin="round"/>
<path d="M92.0913 76.834V80.4616" stroke="#009767" stroke-width="1.5" stroke-linejoin="round"/>
<path d="M84.0693 88.0794L94.3861 82.3398" stroke="#009767" stroke-width="1.5" stroke-linejoin="round"/>
<path d="M74.7392 109.787L74.7293 115.311L65.1221 109.816L65.1418 104.292L68.2851 102.277" fill="white"/>
<path d="M74.7392 109.787L74.7293 115.311L65.1221 109.816L65.1418 104.292L68.2851 102.277" stroke="#009767" stroke-width="1.5" stroke-linejoin="round"/>
<path d="M79.0465 107.312L74.7405 109.796L65.1431 104.291" fill="white"/>
<path d="M79.0465 107.312L74.7405 109.796L65.1431 104.291" stroke="#009767" stroke-width="1.5" stroke-miterlimit="10"/>
<path d="M35.7415 83.5025L26.9619 88.5674L26.9718 83.043" fill="white"/>
<path d="M35.7415 83.5025L26.9619 88.5674L26.9718 83.043" stroke="#009767" stroke-width="1.5" stroke-linejoin="round"/>
<path d="M26.9697 83.0431L26.9598 88.5676L17.3525 83.0627L17.3722 77.5382L21.1757 75.1035" fill="white"/>
<path d="M26.9697 83.0431L26.9598 88.5676L17.3525 83.0627L17.3722 77.5382L21.1757 75.1035" stroke="#009767" stroke-width="1.5" stroke-linejoin="round"/>
<path d="M31.2775 80.5585L26.9714 83.042L17.374 77.5371" fill="white"/>
<path d="M31.2775 80.5585L26.9714 83.042L17.374 77.5371" stroke="#009767" stroke-width="1.5" stroke-miterlimit="10"/>
<path d="M43.247 32.207C43.247 33.2435 41.4734 34.0746 39.2859 34.0746C37.0984 34.0746 35.3247 33.2435 35.3247 32.207" fill="white"/>
<path d="M43.247 32.207C43.247 33.2435 41.4734 34.0746 39.2859 34.0746C37.0984 34.0746 35.3247 33.2435 35.3247 32.207" stroke="#009767" stroke-width="1.5" stroke-miterlimit="10"/>
<path d="M39.2859 17.4422C41.4735 17.4422 43.247 16.606 43.247 15.5746C43.247 14.5432 41.4735 13.707 39.2859 13.707C37.0982 13.707 35.3247 14.5432 35.3247 15.5746C35.3247 16.606 37.0982 17.4422 39.2859 17.4422Z" fill="white" stroke="#009767" stroke-width="1.5" stroke-miterlimit="10"/>
<path d="M44.7872 8.94661C44.7872 9.22039 44.6985 9.48439 44.531 9.72883C43.8314 10.7848 41.7424 11.5475 39.2888 11.5475C36.2539 11.5475 33.7905 10.384 33.7905 8.94661C33.7905 7.50927 38.4808 6.3457 39.2888 6.3457C39.2888 6.3457 44.7872 7.50927 44.7872 8.94661Z" fill="white" stroke="#009767" stroke-width="1.5" stroke-miterlimit="10"/>
<path d="M33.8169 9.20117L35.3245 15.5763V28.62V32.2084" fill="white"/>
<path d="M33.8169 9.20117L35.3245 15.5763V28.62V32.2084" stroke="#009767" stroke-width="1.5" stroke-miterlimit="10"/>
<path d="M44.6744 9.44531L43.2456 15.576V27.0161V31.113V32.2081" fill="white"/>
<path d="M44.6744 9.44531L43.2456 15.576V27.0161V31.113V32.2081" stroke="#009767" stroke-width="1.5" stroke-miterlimit="10"/>
<path d="M42.6221 105.684L42.6221 115.71" stroke="#009767" stroke-width="1.5"/>
<path d="M26.9668 97.0612L43.1111 53.6582L60.2051 97.0612C59.8886 99.5134 54.5071 105.153 43.1111 105.153C31.7151 105.153 27.9165 99.5134 26.9668 97.0612Z" fill="white" stroke="#009767" stroke-width="1.5"/>
</svg>
