<svg width="33" height="33" viewBox="0 0 33 33" fill="none" xmlns="http://www.w3.org/2000/svg">
<path d="M12.0345 7.50863L10.5 7.50562C10.5 7.40611 10.5208 5.03968 12.3285 3.48337C13.5033 2.47126 15.1245 2.0484 17.141 2.23314C18.4384 1.14679 20.2694 0.739012 22.0148 1.16713C23.6223 1.56242 24.8586 2.59633 25.4885 4.0381C26.1131 4.04186 26.7453 4.14362 27.3463 4.387C28.7621 4.9595 30.45 6.4845 30.45 10.4999H28.9155C28.9155 8.73984 28.5417 6.49027 26.7584 5.77012C25.1702 5.12621 23.175 5.92803 22.552 6.53737L21.467 5.47887C21.9773 4.98108 22.8582 4.50257 23.8779 4.24064C23.3975 3.43502 22.6164 2.85957 21.6389 2.61843C20.3068 2.29058 18.8588 2.65352 17.9473 3.54231L17.6819 3.80124L17.3096 3.75562C15.5855 3.54607 14.2527 3.82831 13.3535 4.59633C12.0645 5.6977 12.0345 7.49053 12.0345 7.50863ZM21.2193 9.56948L19.7315 9.93268C19.4129 8.69367 18.2797 8.25407 17.4057 8.25407C16.5317 8.25407 15.3984 8.69346 15.0806 9.93319L13.5928 9.56999C14.0234 7.88734 15.5557 6.75691 17.4057 6.75691C19.2557 6.75691 20.788 7.88734 21.2193 9.56948Z" fill="white" stroke="white" stroke-width="0.2"/>
<path d="M1.9502 10.4999H3.61255L3.61312 8.05711C3.61312 6.85533 4.50814 6.42866 5.27548 6.42866C6.04254 6.42866 6.93784 6.85531 6.93784 8.05711V10.4999H8.6002V8.05711C8.6002 5.91881 6.92701 4.79993 5.2752 4.79993C3.62338 4.79993 1.9502 5.91881 1.9502 8.05711V10.4999Z" fill="white"/>
<path d="M1.19255 13.5633C1.09171 12.9541 1.56164 12.4 2.17912 12.4H30.2209C30.8384 12.4 31.3083 12.9541 31.2075 13.5633L28.3937 30.5633C28.3138 31.046 27.8963 31.4 27.4071 31.4H4.99292C4.50365 31.4 4.08623 31.046 4.00634 30.5633L1.19255 13.5633Z" stroke="white" stroke-width="2"/>
<path d="M4 26.9999L29 26.9999" stroke="white" stroke-width="2"/>
</svg>
