<svg width="48" height="49" viewBox="0 0 48 49" fill="none" xmlns="http://www.w3.org/2000/svg">
<path d="M24 0.369141C10.7449 0.369141 0 11.114 0 24.3691C0 37.6242 10.7449 48.3691 24 48.3691C37.2551 48.3691 48 37.6242 48 24.3691C48 11.114 37.2551 0.369141 24 0.369141ZM24 44.9406C12.6571 44.9406 3.42857 35.7119 3.42857 24.3691C3.42857 13.0264 12.6572 3.79771 24 3.79771C35.3428 3.79771 44.5714 13.0264 44.5714 24.3691C44.5714 35.7119 35.3428 44.9406 24 44.9406Z" fill="black"/>
<path d="M33.7836 31.728C34.4532 32.3976 34.4532 33.4822 33.7836 34.1518C33.1139 34.8215 32.0294 34.8215 31.3597 34.1518L22.7883 25.5804C22.4662 25.2596 22.2856 24.8243 22.2856 24.3687V12.3687C22.2856 11.4212 23.0525 10.6543 24 10.6543C24.9475 10.6543 25.7144 11.4212 25.7144 12.3687V23.6585L33.7836 31.728Z" fill="black"/>
</svg>
