<svg width="38" height="29" viewBox="0 0 38 29" fill="none" xmlns="http://www.w3.org/2000/svg">
<path d="M16.9993 2.60051C15.3735 3.0508 13.8411 3.68097 12.3546 4.49118C10.9148 5.34656 9.66066 6.29165 8.59247 7.32726C7.52427 8.36255 6.68806 9.53312 6.0845 10.7484C5.48059 12.0088 5.15564 13.2692 5.15564 14.5297C5.15564 15.2949 5.29496 15.9703 5.62024 16.5553C5.94553 17.1406 6.31681 17.4107 6.78142 17.4107C7.24602 17.4107 7.6173 17.3206 7.94259 17.1406C8.26789 16.9607 8.59283 16.7805 8.91814 16.5553C9.24345 16.3302 9.61471 16.1503 10.033 15.97C10.4509 15.7901 11.0085 15.7 11.705 15.7C13.1448 15.7 14.399 16.2401 15.4209 17.3655C16.4891 18.4909 17 19.9316 17 21.6419C17 23.4424 16.3034 24.9732 14.8633 26.1884C13.4235 27.404 11.705 28.0342 9.61468 28.0342C8.26789 28.0342 7.01373 27.7641 5.89884 27.1788C4.73767 26.5935 3.71583 25.8282 2.83326 24.793C1.95068 23.7577 1.25414 22.6323 0.743226 21.3266C0.232293 20.0213 0 18.5807 0 17.0502C0 14.6644 0.464603 12.4585 1.3468 10.4329C2.27565 8.40723 3.48352 6.6516 5.06264 5.166C6.64175 3.68047 8.40682 2.46488 10.4969 1.56464C12.587 0.664403 14.7237 0.169228 16.9993 0.0341797L16.9993 2.60051Z" fill="#007550"/>
<path d="M37.9993 2.60051C36.3735 3.0508 34.8411 3.68097 33.3546 4.49118C31.9148 5.34656 30.6607 6.29165 29.5925 7.32726C28.5243 8.36255 27.6881 9.53312 27.0845 10.7484C26.4806 12.0088 26.1556 13.2692 26.1556 14.5297C26.1556 15.2949 26.295 15.9703 26.6202 16.5553C26.9455 17.1406 27.3168 17.4107 27.7814 17.4107C28.246 17.4107 28.6173 17.3206 28.9426 17.1406C29.2679 16.9607 29.5928 16.7805 29.9181 16.5553C30.2435 16.3302 30.6147 16.1503 31.033 15.97C31.4509 15.7901 32.0085 15.7 32.705 15.7C34.1448 15.7 35.399 16.2401 36.4209 17.3655C37.4891 18.4909 38 19.9316 38 21.6419C38 23.4424 37.3034 24.9732 35.8633 26.1884C34.4235 27.404 32.705 28.0342 30.6147 28.0342C29.2679 28.0342 28.0137 27.7641 26.8988 27.1788C25.7377 26.5935 24.7158 25.8282 23.8333 24.793C22.9507 23.8026 22.2541 22.6323 21.7432 21.3266C21.2323 20.0213 21 18.5807 21 17.0502C21 14.6644 21.4646 12.4585 22.3468 10.4329C23.2757 8.40723 24.4835 6.6516 26.0626 5.166C27.5954 3.68047 29.4068 2.46488 31.4969 1.56464C33.587 0.664403 35.7237 0.169228 37.9993 0.0341797L37.9993 2.60051Z" fill="#007550"/>
</svg>
