<svg width="54" height="55" viewBox="0 0 54 55" fill="none" xmlns="http://www.w3.org/2000/svg">
<g clip-path="url(#clip0_135_21144)">
<path d="M27.9583 54.3903H12.1136C9.17292 54.3903 6.48753 53.6254 4.16204 51.7637C2.29273 50.2669 0.959937 48.205 0.363705 45.8874C-0.232528 43.5699 -0.0600363 41.1217 0.855292 38.9104C2.45484 35.1164 5.29403 32.797 9.35134 31.9891C10.3234 31.7956 11.3231 31.9031 12.2951 31.7157C14.6206 31.261 15.8726 29.4363 15.6788 26.8005C15.525 24.8067 13.6455 23.028 11.5815 22.985C9.25598 22.9389 7.06276 22.4474 5.07871 21.1879C2.33487 19.443 0.753785 16.927 0.193944 13.7597C-0.323103 10.9946 0.215605 8.13628 1.70392 5.74809C3.19223 3.35989 5.52221 1.615 8.23473 0.857236C9.75041 0.398184 11.3481 0.274482 12.9165 0.494738C13.757 0.628603 14.5169 1.07199 15.0463 1.73754C15.5758 2.40308 15.8365 3.24253 15.7771 4.0905C15.7177 4.93847 15.3424 5.73346 14.7252 6.31884C14.1081 6.90423 13.2938 7.23757 12.4428 7.25318C11.4707 7.27161 10.511 7.25318 9.58819 7.65255C7.69642 8.45742 6.51214 10.5034 6.86896 12.4326C7.03459 13.4547 7.55862 14.3848 8.34747 15.0567C9.13633 15.7286 10.1386 16.0986 11.1754 16.1006C13.99 16.1651 16.5739 16.9085 18.764 18.7487C20.9542 20.5888 22.0216 23.0157 22.4338 25.7529C23.3566 31.8416 19.0747 37.5095 12.9841 38.5079C12.4224 38.5995 11.8551 38.6528 11.2862 38.6677C8.70229 38.7414 6.82898 40.6092 6.83513 43.1221C6.83513 45.5797 8.84686 47.512 11.4092 47.512C18.2872 47.512 25.1653 47.512 32.0433 47.512C32.2711 47.5028 32.4993 47.5089 32.7262 47.5305C33.0093 47.5681 33.2686 47.7084 33.4547 47.9246C33.6409 48.1409 33.7408 48.4181 33.7355 48.7032C33.7302 48.9883 33.62 49.2616 33.4259 49.4708C33.2318 49.68 32.9674 49.8105 32.6831 49.8375C32.551 49.8453 32.4185 49.8453 32.2863 49.8375C25.3304 49.8375 18.3754 49.8375 11.4215 49.8375C7.87176 49.8375 5.12792 47.5765 4.57731 44.0775C4.0267 40.5785 6.27529 36.7323 10.6648 36.3575C12.4612 36.2039 14.2023 35.9858 15.7895 35.0273C17.6995 33.8798 19.1193 32.0698 19.7775 29.943C20.4357 27.8162 20.2863 25.5217 19.3577 23.498C17.8843 20.2233 15.2481 18.7518 11.7968 18.5521C10.0127 18.4507 8.34854 18.1189 6.9151 16.9516C5.54748 15.8305 4.67865 14.2153 4.49775 12.4576C4.31685 10.6999 4.83853 8.94196 5.94922 7.56653C6.60099 6.74477 7.43176 6.08221 8.3784 5.62921C9.32503 5.1762 10.3626 4.94468 11.4123 4.95224C11.7199 4.95224 12.0275 4.95224 12.3351 4.95224C12.4835 4.95773 12.6315 4.93147 12.7689 4.87524C12.9064 4.81901 13.0302 4.73409 13.1322 4.62618C13.2341 4.51826 13.3118 4.38984 13.36 4.24952C13.4082 4.10919 13.4258 3.9602 13.4117 3.81252C13.3871 3.19812 13.0026 2.89092 12.3166 2.83562C9.52667 2.66973 7.01046 3.34557 5.02641 5.38847C2.41792 8.07034 1.73197 11.2622 2.89164 14.795C4.00517 18.1742 6.52445 19.956 9.96655 20.5335C10.512 20.6099 11.0615 20.6541 11.6122 20.6656C12.6398 20.7082 13.6442 20.9842 14.549 21.4725C15.4537 21.9609 16.2352 22.6488 16.8339 23.4839C17.4326 24.3191 17.8328 25.2795 18.0042 26.2923C18.1755 27.305 18.1135 28.3435 17.8228 29.3287C16.9738 32.3086 14.6944 34.0965 11.6092 34.1702C7.81639 34.2593 4.94951 35.8721 3.27307 39.3159C0.68611 44.6305 4.0267 50.9373 9.87118 51.8743C10.4716 51.9669 11.0785 52.0121 11.6861 52.0095H33.972C34.8118 52.0095 34.8118 52.0095 34.8118 51.1616C34.8118 46.5105 34.8118 41.8616 34.8118 37.2146C34.8118 36.4497 34.8118 36.4527 34.0674 36.4466C31.7511 36.4466 32.2217 36.6739 30.7206 34.8092C29.5784 33.3899 28.4362 31.9707 27.2939 30.5514C27.0725 30.2952 26.9503 29.9682 26.9494 29.6298C26.9494 25.9434 26.9494 22.2569 26.9494 18.5705C26.9494 17.7503 27.3862 17.311 28.2106 17.2772C28.7027 17.2588 29.198 17.2526 29.6932 17.2772C30.1885 17.3018 30.2808 17.1052 30.2777 16.6628C30.2777 14.881 30.2592 13.0962 30.2777 11.3113C30.2777 10.8505 30.1393 10.6601 29.6625 10.6754C28.8842 10.7031 28.1029 10.6754 27.3247 10.6754C26.2419 10.6754 25.8143 10.2269 25.8143 9.1394C25.8143 7.48973 25.8143 5.83698 25.8143 4.18731C25.8143 3.11824 26.2235 2.68201 27.2878 2.69737C27.8168 2.69737 28.0783 2.55606 28.0229 1.99388C28.0154 1.80429 28.0372 1.61466 28.0875 1.4317C28.1292 1.16606 28.2628 0.923419 28.4652 0.746039C28.6675 0.568658 28.9258 0.467771 29.1949 0.460945C29.4744 0.45021 29.748 0.542619 29.9636 0.720538C30.1792 0.898458 30.3217 1.14943 30.3638 1.42556C30.4715 2.29265 30.4715 3.16969 30.3638 4.03678C30.2931 4.69419 29.8347 5.00754 29.1088 5.01675C28.0814 5.01675 28.1398 4.89694 28.1398 6.01516C28.1398 6.58348 28.1583 7.15488 28.1398 7.7232C28.1214 8.15328 28.3059 8.28231 28.715 8.27924C30.5607 8.27924 32.4371 8.27924 34.3012 8.27924C34.5665 8.27336 34.8316 8.29706 35.0917 8.3499C35.35 8.4057 35.5814 8.54816 35.7473 8.75356C35.9132 8.95897 36.0037 9.21494 36.0037 9.47887C36.0037 9.74279 35.9132 9.99876 35.7473 10.2042C35.5814 10.4096 35.35 10.552 35.0917 10.6078C34.4917 10.7041 33.8823 10.7268 33.2768 10.6754C32.8339 10.6754 32.6616 10.8321 32.6616 11.2745C32.6739 13.0788 32.6739 14.882 32.6616 16.6843C32.6616 17.0929 32.797 17.2557 33.2245 17.2557C38.0498 17.2557 42.8761 17.2557 47.7035 17.2557C48.1249 17.2557 48.2695 17.1144 48.2633 16.6966C48.2479 14.9117 48.2387 13.1269 48.2633 11.3451C48.2633 10.8014 48.0726 10.6693 47.5681 10.6723C44.6428 10.6723 41.7236 10.6723 38.7891 10.6723C38.485 10.6899 38.18 10.6609 37.8847 10.5863C37.6428 10.5243 37.4275 10.3856 37.271 10.1912C37.1145 9.99674 37.0253 9.75692 37.0166 9.5076C37.0079 9.25828 37.0803 9.01285 37.223 8.80805C37.3656 8.60324 37.5708 8.45005 37.8078 8.3714C38.0978 8.27965 38.4029 8.24521 38.706 8.27002H50.7918C51.5762 8.27002 51.5793 8.27002 51.5793 7.4713C51.5793 6.82617 51.5793 6.18105 51.5793 5.53592C51.5793 5.13963 51.4255 4.97989 51.0348 5.01061C50.8649 5.02444 50.6941 5.02444 50.5242 5.01061C50.376 5.01603 50.2283 4.99133 50.09 4.93803C49.9516 4.88472 49.8256 4.80392 49.7194 4.70051C49.6133 4.5971 49.5293 4.47324 49.4725 4.33644C49.4158 4.19964 49.3874 4.05275 49.3892 3.90468C49.3646 3.12746 49.3646 2.34717 49.3892 1.56995C49.3897 1.28091 49.502 1.00324 49.7026 0.794894C49.9032 0.586546 50.1766 0.463607 50.4658 0.451729C50.7621 0.448271 51.0496 0.551702 51.2757 0.74302C51.5017 0.934338 51.651 1.20069 51.6962 1.49314C51.7608 1.86179 51.5424 2.31337 51.8408 2.58371C52.1391 2.85405 52.539 2.63901 52.8897 2.70352C53.1892 2.73798 53.465 2.88326 53.6626 3.11072C53.8601 3.33818 53.9652 3.63132 53.9571 3.93233C53.9817 5.75404 53.9878 7.57575 53.9571 9.39438C53.9571 10.1931 53.4957 10.6048 52.6959 10.6631C52.1839 10.6974 51.6704 10.7026 51.1579 10.6785C50.7519 10.6785 50.5734 10.7983 50.5765 11.2315C50.5909 13.0521 50.5909 14.8738 50.5765 16.6966C50.5765 17.1082 50.7026 17.2926 51.1333 17.268C51.5639 17.2434 52.0069 17.268 52.4437 17.268C53.5203 17.268 53.9817 17.7196 53.9817 18.804C53.9817 21.4029 53.9817 24.0018 53.9817 26.6038C53.9817 27.4763 53.9632 28.3488 53.9817 29.2212C54.0061 29.7546 53.8244 30.277 53.4742 30.6804C52.1043 32.3557 50.7539 34.0463 49.423 35.7523C49.2639 35.9886 49.0447 36.1782 48.7879 36.3019C48.5311 36.4255 48.246 36.4786 47.9619 36.4558C47.5651 36.4282 47.1621 36.4773 46.7653 36.4558C46.2608 36.4097 46.107 36.6186 46.1101 37.1071C46.1101 39.6692 46.1101 42.2312 46.1101 44.7871C46.1101 47.3431 46.1101 49.9481 46.1101 52.5286C46.1101 54.0647 45.7502 54.4241 44.1845 54.4241L27.9583 54.3903ZM50.3304 30.834H49.5276C45.9163 30.834 42.306 30.834 38.6968 30.834C38.4316 30.8425 38.1662 30.8199 37.9063 30.7664C37.648 30.708 37.4179 30.5621 37.2551 30.3536C37.0922 30.145 37.0066 29.8867 37.0127 29.6223C37.0189 29.3579 37.1164 29.1037 37.2888 28.903C37.4612 28.7022 37.6979 28.5672 37.9586 28.5208C38.2765 28.4659 38.5988 28.4402 38.9214 28.444C42.9202 28.444 46.9006 28.444 50.8903 28.444C51.3917 28.444 51.6008 28.3057 51.5978 27.7651C51.5732 25.2429 51.5793 22.7177 51.5978 20.1956C51.5978 19.7256 51.4378 19.5597 50.9672 19.5812C49.6199 19.6181 48.2726 19.6304 46.9283 19.6304C44.8581 19.6304 42.791 19.6058 40.7239 19.6058C38.9983 19.6058 37.2726 19.6334 35.5469 19.6304C33.6316 19.6304 31.7152 19.615 29.7978 19.5843C29.3949 19.5843 29.2687 19.741 29.2687 20.125C29.281 22.7055 29.281 25.286 29.2687 27.8664C29.2687 28.3273 29.4625 28.4532 29.8839 28.4501C31.3266 28.4348 32.7724 28.4501 34.215 28.4501C34.4999 28.4463 34.7844 28.472 35.064 28.5269C35.3272 28.5775 35.5641 28.7193 35.7329 28.9272C35.9017 29.1352 35.9917 29.3959 35.9868 29.6636C35.9773 29.9316 35.8787 30.1887 35.7066 30.3945C35.5345 30.6003 35.2987 30.7431 35.0363 30.8002C34.8331 30.8342 34.6271 30.8486 34.4211 30.8432C33.3168 30.8432 32.2156 30.8432 31.1144 30.8432C30.9882 30.8432 30.8221 30.7941 30.7545 30.9385C30.6868 31.0829 30.8314 31.175 30.9113 31.2733C31.5604 32.0905 32.2217 32.8984 32.8616 33.7309C32.9474 33.8539 33.0636 33.9528 33.1988 34.0179C33.3341 34.083 33.4838 34.1122 33.6336 34.1027C38.1739 34.1027 42.7141 34.1027 47.2544 34.1027C47.3659 34.1196 47.4799 34.1097 47.5869 34.074C47.6939 34.0382 47.7908 33.9775 47.8696 33.8968L50.3304 30.834ZM40.4256 51.9849C41.3176 51.9849 42.2097 51.9695 43.0986 51.9849C43.5662 51.9849 43.7385 51.8282 43.7323 51.3705C43.7139 49.6655 43.7323 47.9605 43.7323 46.2556C43.7323 45.6596 43.6892 45.6412 43.1694 45.9238C41.7031 46.7553 40.24 47.595 38.7799 48.4429C37.0727 49.4351 37.085 49.4413 37.1373 51.4227C37.1373 51.8374 37.2849 52.0003 37.7033 51.991C38.6199 51.9695 39.515 51.9849 40.4256 51.9849ZM37.1342 44.612C37.1342 45.0851 37.1342 45.5582 37.1342 46.0313C37.1342 46.6457 37.1588 46.6457 37.6848 46.3539C39.5612 45.2817 41.4345 44.2035 43.314 43.1344C43.4489 43.0662 43.5602 42.9593 43.6337 42.8273C43.7072 42.6954 43.7394 42.5445 43.7262 42.394C43.7262 41.4264 43.7077 40.4617 43.7262 39.4941C43.7262 39.0087 43.6 38.9349 43.1786 39.1869C41.7237 40.0409 40.2994 40.9594 38.7799 41.6844C37.4695 42.3019 36.722 43.0852 37.1342 44.6059V44.612ZM43.071 36.5357L43.0248 36.4343C41.2223 36.4343 39.4197 36.4343 37.6202 36.4343C37.288 36.4343 37.1311 36.548 37.1342 36.8951C37.1342 37.7676 37.1342 38.637 37.1342 39.5094C37.1342 39.8013 37.2295 39.8965 37.5095 39.7337C39.3633 38.6626 41.2171 37.5945 43.071 36.5295V36.5357Z" fill="#292929"/>
</g>
<defs>
<clipPath id="clip0_135_21144">
<rect width="54" height="54" fill="white" transform="translate(0 0.390625)"/>
</clipPath>
</defs>
</svg>
