<svg width="73" height="72" viewBox="0 0 73 72" fill="none" xmlns="http://www.w3.org/2000/svg">
<g filter="url(#filter0_b_805_17497)">
<rect x="0.333252" width="72" height="72" rx="36" fill="black" fill-opacity="0.1"/>
<path d="M31 43H43V24H19V43H21.3385" stroke="white" stroke-width="2" stroke-linecap="round" stroke-linejoin="round"/>
<path d="M43 43V30H49.5L54.375 34.875V43H51" stroke="white" stroke-width="2" stroke-linecap="round" stroke-linejoin="round"/>
<path d="M25.9375 48.125C28.1812 48.125 30 46.3062 30 44.0625C30 41.8188 28.1812 40 25.9375 40C23.6938 40 21.875 41.8188 21.875 44.0625C21.875 46.3062 23.6938 48.125 25.9375 48.125Z" stroke="white" stroke-width="2" stroke-linecap="round" stroke-linejoin="round"/>
<path d="M47.0625 48.125C49.3062 48.125 51.125 46.3062 51.125 44.0625C51.125 41.8188 49.3062 40 47.0625 40C44.8188 40 43 41.8188 43 44.0625C43 46.3062 44.8188 48.125 47.0625 48.125Z" stroke="white" stroke-width="2" stroke-linecap="round" stroke-linejoin="round"/>
</g>
<defs>
<filter id="filter0_b_805_17497" x="-49.6667" y="-50" width="172" height="172" filterUnits="userSpaceOnUse" color-interpolation-filters="sRGB">
<feFlood flood-opacity="0" result="BackgroundImageFix"/>
<feGaussianBlur in="BackgroundImageFix" stdDeviation="25"/>
<feComposite in2="SourceAlpha" operator="in" result="effect1_backgroundBlur_805_17497"/>
<feBlend mode="normal" in="SourceGraphic" in2="effect1_backgroundBlur_805_17497" result="shape"/>
</filter>
</defs>
</svg>
