<svg width="26" height="31" viewBox="0 0 26 31" fill="none" xmlns="http://www.w3.org/2000/svg">
<path d="M20.2444 27.77C20.7027 27.3258 20.7144 26.5949 20.2695 26.1366C19.8248 25.6793 19.0929 25.6681 18.6346 26.1124C17.1031 27.5951 15.0479 28.414 12.9158 28.3917C10.7832 28.3695 8.74534 27.508 7.2454 25.994C5.74536 24.4799 4.90411 22.436 4.9046 20.306C4.9046 19.4305 5.27199 17.6389 7.02224 14.0824C7.30104 13.5105 7.06387 12.8206 6.49223 12.5403C5.92054 12.2594 5.22886 12.4938 4.94619 13.0638C3.36147 16.284 2.59139 18.6533 2.59139 20.306C2.59139 23.0442 3.67326 25.672 5.60206 27.6183C7.53085 29.5646 10.1505 30.6721 12.892 30.7006C15.6335 30.7291 18.2758 29.6757 20.2444 27.77Z" fill="white" fill-opacity="0.4"/>
<path fill-rule="evenodd" clip-rule="evenodd" d="M24.0401 28.9226C24.4937 29.3606 25.2149 29.3543 25.6611 28.9086C26.1074 28.4633 26.1137 27.7425 25.6752 27.2896L22.621 24.2392C23.1389 22.992 23.4061 21.6558 23.4085 20.3061C23.4085 14.9927 14.9196 2.5693 13.9516 1.16962C13.7246 0.874246 13.3727 0.701172 13 0.701172C12.6273 0.701172 12.2755 0.874233 12.0485 1.16962C12.0218 1.20781 9.5794 4.75039 7.21443 8.85168L1.95986 3.60416C1.50633 3.16665 0.785128 3.17294 0.338862 3.61818C-0.107415 4.0639 -0.113698 4.7842 0.324826 5.23765L24.0401 28.9226ZM21.0953 20.3066C21.0953 16.8414 15.9133 8.29395 12.9999 3.89527L13 3.89539C12.0217 5.38183 10.4253 7.87491 8.90941 10.5453L20.8039 22.425C20.9946 21.7352 21.0928 21.0226 21.0953 20.3066Z" fill="white" fill-opacity="0.4"/>
</svg>
