<svg width="41" height="40" viewBox="0 0 41 40" fill="none" xmlns="http://www.w3.org/2000/svg">
<mask id="mask0_805_17358" style="mask-type:alpha" maskUnits="userSpaceOnUse" x="2" y="13" width="36" height="17">
<rect x="2" y="13.4482" width="36" height="16.1379" rx="1" fill="#292929"/>
</mask>
<g mask="url(#mask0_805_17358)">
<path fill-rule="evenodd" clip-rule="evenodd" d="M23.4564 13.0947C23.6517 13.29 23.6517 13.6065 23.4564 13.8018L19.7323 17.5259C19.537 17.7212 19.2205 17.7212 19.0252 17.5259C18.8299 17.3307 18.8299 17.0141 19.0252 16.8188L22.7493 13.0947C22.9446 12.8994 23.2612 12.8994 23.4564 13.0947ZM17.8702 18.6809C18.0655 18.8762 18.0655 19.1927 17.8702 19.388L17.2495 20.0087C17.0543 20.204 16.7377 20.204 16.5424 20.0087C16.3472 19.8134 16.3472 19.4968 16.5424 19.3016L17.1631 18.6809C17.3584 18.4856 17.675 18.4856 17.8702 18.6809ZM14.7668 21.7843C14.9621 21.9796 14.9621 22.2962 14.7668 22.4914L11.0427 26.2156C10.8474 26.4108 10.5308 26.4108 10.3356 26.2156C10.1403 26.0203 10.1403 25.7037 10.3356 25.5084L14.0597 21.7843C14.255 21.589 14.5716 21.589 14.7668 21.7843ZM9.1806 27.3705C9.37587 27.5658 9.37587 27.8824 9.1806 28.0776L8.55992 28.6983C8.36465 28.8936 8.04807 28.8936 7.85281 28.6983C7.65755 28.5031 7.65755 28.1865 7.85281 27.9912L8.4735 27.3705C8.66876 27.1753 8.98534 27.1753 9.1806 27.3705ZM13.5255 13.0947C13.7207 13.29 13.7207 13.6066 13.5255 13.8018L9.80132 17.526C9.60606 17.7212 9.28948 17.7212 9.09422 17.526C8.89896 17.3307 8.89896 17.0141 9.09422 16.8189L12.8184 13.0947C13.0136 12.8995 13.3302 12.8995 13.5255 13.0947ZM7.93925 18.6809C8.13452 18.8762 8.13452 19.1928 7.93925 19.388L7.31857 20.0087C7.1233 20.204 6.80672 20.204 6.61146 20.0087C6.4162 19.8135 6.4162 19.4969 6.61146 19.3016L7.23215 18.6809C7.42741 18.4857 7.74399 18.4857 7.93925 18.6809ZM4.83584 21.7843C5.0311 21.9796 5.0311 22.2962 4.83584 22.4914L1.1117 26.2156C0.916441 26.4108 0.599858 26.4108 0.404596 26.2156C0.209334 26.0203 0.209334 25.7037 0.404596 25.5085L4.12873 21.7843C4.324 21.5891 4.64058 21.5891 4.83584 21.7843ZM-0.750366 27.3705C-0.555104 27.5658 -0.555104 27.8824 -0.750366 28.0777L-1.37106 28.6983C-1.56632 28.8936 -1.8829 28.8936 -2.07816 28.6983C-2.27342 28.5031 -2.27342 28.1865 -2.07816 27.9912L-1.45747 27.3705C-1.26221 27.1753 -0.945629 27.1753 -0.750366 27.3705ZM33.3875 13.8018C33.5828 13.6065 33.5828 13.29 33.3875 13.0947C33.1922 12.8994 32.8756 12.8994 32.6804 13.0947L28.9562 16.8188C28.761 17.0141 28.761 17.3307 28.9562 17.5259C29.1515 17.7212 29.4681 17.7212 29.6634 17.5259L33.3875 13.8018ZM27.8013 19.388C27.9965 19.1927 27.9965 18.8762 27.8013 18.6809C27.606 18.4856 27.2894 18.4856 27.0942 18.6809L26.4735 19.3016C26.2782 19.4968 26.2782 19.8134 26.4735 20.0087C26.6688 20.204 26.9853 20.204 27.1806 20.0087L27.8013 19.388ZM24.6979 22.4914C24.8931 22.2962 24.8931 21.9796 24.6979 21.7843C24.5026 21.589 24.186 21.589 23.9908 21.7843L20.2666 25.5084C20.0714 25.7037 20.0714 26.0203 20.2666 26.2156C20.4619 26.4108 20.7785 26.4108 20.9737 26.2156L24.6979 22.4914ZM19.1117 28.0776C19.3069 27.8824 19.3069 27.5658 19.1117 27.3705C18.9164 27.1753 18.5998 27.1753 18.4046 27.3705L17.7839 27.9912C17.5886 28.1865 17.5886 28.5031 17.7839 28.6983C17.9791 28.8936 18.2957 28.8936 18.491 28.6983L19.1117 28.0776ZM43.3183 13.0947C43.5135 13.29 43.5135 13.6065 43.3183 13.8018L39.5941 17.5259C39.3989 17.7212 39.0823 17.7212 38.887 17.5259C38.6918 17.3307 38.6918 17.0141 38.887 16.8188L42.6112 13.0947C42.8064 12.8994 43.123 12.8994 43.3183 13.0947ZM37.7321 18.6809C37.9273 18.8762 37.9273 19.1927 37.7321 19.388L37.1114 20.0087C36.9161 20.204 36.5995 20.204 36.4043 20.0087C36.209 19.8134 36.209 19.4968 36.4043 19.3016L37.025 18.6809C37.2202 18.4856 37.5368 18.4856 37.7321 18.6809ZM34.6287 21.7843C34.8239 21.9796 34.8239 22.2962 34.6287 22.4914L30.9045 26.2156C30.7093 26.4108 30.3927 26.4108 30.1974 26.2156C30.0021 26.0203 30.0021 25.7037 30.1974 25.5084L33.9215 21.7843C34.1168 21.589 34.4334 21.589 34.6287 21.7843ZM29.0424 27.3705C29.2377 27.5658 29.2377 27.8824 29.0424 28.0776L28.4218 28.6983C28.2265 28.8936 27.9099 28.8936 27.7147 28.6983C27.5194 28.5031 27.5194 28.1865 27.7147 27.9912L28.3353 27.3705C28.5306 27.1753 28.8472 27.1753 29.0424 27.3705Z" fill="white"/>
</g>
<path d="M6.96552 13H3C2.44772 13 2 13.4477 2 14V29C2 29.5523 2.44771 30 3 30H22.4828M13.1724 13L37 13C37.5523 13 38 13.4477 38 14V29C38 29.5523 37.5523 30 37 30H29.3103" stroke="white" stroke-width="2" stroke-linecap="square" stroke-linejoin="round"/>
<path d="M6 6L34 34" stroke="white" stroke-width="2" stroke-linecap="square"/>
</svg>
