<svg width="41" height="40" viewBox="0 0 41 40" fill="none" xmlns="http://www.w3.org/2000/svg">
<path d="M27.5342 3.97012C25.3432 2.86956 22.869 2.25 20.25 2.25C11.2754 2.25 4 9.52537 4 18.5C4 27.4746 11.2754 34.75 20.25 34.75C29.2246 34.75 36.5 27.4746 36.5 18.5C36.5 16.5226 36.1468 14.6277 35.5001 12.875" stroke="white" stroke-width="2"/>
<path d="M14.0811 13L15.7853 15.3979C16.7265 16.7222 16.416 18.5587 15.0917 19.4999V19.4999C13.7674 20.4412 13.4568 22.2777 14.398 23.602L16.1023 25.9999" stroke="white" stroke-width="2"/>
<path d="M19.4204 13L21.1246 15.3979C22.0659 16.7222 21.7553 18.5587 20.431 19.4999V19.4999C19.1067 20.4412 18.7962 22.2777 19.7374 23.602L21.4416 25.9999" stroke="white" stroke-width="2"/>
<path d="M24.7603 13L26.4645 15.3979C27.4057 16.7222 27.0952 18.5587 25.7709 19.4999V19.4999C24.4466 20.4412 24.136 22.2777 25.0772 23.602L26.7815 25.9999" stroke="white" stroke-width="2"/>
<path d="M10.24 32L7.65728 37.58C7.35054 38.2427 7.83452 39 8.56478 39H32.4352C33.1655 39 33.6495 38.2427 33.3427 37.58L30.76 32" stroke="white" stroke-width="2"/>
<circle cx="33" cy="7" r="6" stroke="white" stroke-width="2"/>
<path d="M33 4V8H36" stroke="white" stroke-width="2" stroke-linejoin="round"/>
</svg>
