<svg width="44" height="45" viewBox="0 0 44 45" fill="none" xmlns="http://www.w3.org/2000/svg">
    <mask id="mask0_412_36842" style="mask-type:alpha" maskUnits="userSpaceOnUse" x="22" y="2" width="16" height="41">
        <rect x="22" y="2.9043" width="16" height="40" fill="#D9D9D9"/>
    </mask>
    <g mask="url(#mask0_412_36842)">
        <path d="M-11.5 2.77539C-4.25472 10.0207 18.1855 32.4609 28.5 42.7754" stroke="white" stroke-opacity="0.4"/>
        <path d="M-3.5 2.77539C3.74528 10.0207 26.1855 32.4609 36.5 42.7754" stroke="white" stroke-opacity="0.4"/>
        <path d="M4.5 2.77539C11.7453 10.0207 34.1855 32.4609 44.5 42.7754" stroke="white" stroke-opacity="0.4"/>
        <path d="M12.5 2.77539C19.7453 10.0207 42.1855 32.4609 52.5 42.7754" stroke="white" stroke-opacity="0.4"/>
        <path d="M20.5 2.77539C27.7453 10.0207 50.1855 32.4609 60.5 42.7754" stroke="white" stroke-opacity="0.4"/>
        <path d="M28.5 2.77539C35.7453 10.0207 58.1855 32.4609 68.5 42.7754" stroke="white" stroke-opacity="0.4"/>
        <path d="M36.5 2.77539C43.7453 10.0207 66.1855 32.4609 76.5 42.7754" stroke="white" stroke-opacity="0.4"/>
        <path d="M76.5 2.77539C69.2547 10.0207 46.8145 32.4609 36.5 42.7754" stroke="white" stroke-opacity="0.4"/>
        <path d="M68.5 2.77539C61.2547 10.0207 38.8145 32.4609 28.5 42.7754" stroke="white" stroke-opacity="0.4"/>
        <path d="M60.5 2.77539C53.2547 10.0207 30.8145 32.4609 20.5 42.7754" stroke="white" stroke-opacity="0.4"/>
        <path d="M52.5 2.77539C45.2547 10.0207 22.8145 32.4609 12.5 42.7754" stroke="white" stroke-opacity="0.4"/>
        <path d="M44.5 2.77539C37.2547 10.0207 14.8145 32.4609 4.5 42.7754" stroke="white" stroke-opacity="0.4"/>
        <path d="M36.5 2.77539C29.2547 10.0207 6.81447 32.4609 -3.5 42.7754" stroke="white" stroke-opacity="0.4"/>
        <path d="M28.5 2.77539C21.2547 10.0207 -1.18553 32.4609 -11.5 42.7754" stroke="white" stroke-opacity="0.4"/>
    </g>
    <rect x="3" y="3.9043" width="17" height="38" stroke="white" stroke-opacity="0.4" stroke-width="2"/>
    <path d="M42 2.9043V9.12652H40V14.4599H42V20.6821H40V26.0154H42V32.2376H40V37.571H42V42.9043" stroke="white" stroke-opacity="0.4" stroke-width="2"/>
</svg>