<svg width="40" height="41" viewBox="0 0 40 41" fill="none" xmlns="http://www.w3.org/2000/svg">
<path d="M5 25.0781C5 25.9622 5.35119 26.81 5.97631 27.4351C6.60143 28.0603 7.44928 28.4115 8.33333 28.4115H28.3333L35 35.0781V8.41146C35 7.5274 34.6488 6.67956 34.0237 6.05444C33.3986 5.42931 32.5507 5.07813 31.6667 5.07812H8.33333C7.44928 5.07813 6.60143 5.42931 5.97631 6.05444C5.35119 6.67956 5 7.5274 5 8.41146V25.0781Z" stroke="white" stroke-width="2" stroke-linecap="round" stroke-linejoin="round"/>
<path d="M19.7847 11.7656L20.5 12.4977L21.2153 11.7656C22.7623 10.1821 25.6064 10.727 26.6323 12.7213C27.1115 13.653 27.2254 15.0069 26.338 16.75C25.4851 18.4251 23.7104 20.4378 20.5001 22.6356C17.2897 20.4373 15.5149 18.4242 14.662 16.749C13.7745 15.0058 13.8885 13.6519 14.3677 12.7204C15.3934 10.7266 18.2375 10.1819 19.7847 11.7656Z" stroke="white" stroke-width="2"/>
</svg>
