<svg width="32" height="35" viewBox="0 0 32 35" fill="none" xmlns="http://www.w3.org/2000/svg">
<g clip-path="url(#clip0_401_1694)">
<path d="M32.0062 8.78745C32.0047 7.7542 31.7496 6.73715 31.2633 5.82546C30.7771 4.91377 30.0746 4.13531 29.2174 3.5584C28.3602 2.98148 27.3745 2.62373 26.3469 2.51651C25.3192 2.40929 24.2809 2.5559 23.3231 2.94346C22.3653 3.33101 21.5172 3.94767 20.8532 4.73936C20.1893 5.53105 19.7298 6.47356 19.5149 7.48424C19.3001 8.49491 19.3366 9.54286 19.6211 10.5361C19.9057 11.5294 20.4297 12.4377 21.1471 13.1813C20.1142 14.2517 19.4918 15.652 19.3895 17.1359H23.3063C23.4062 16.5759 23.7 16.069 24.1361 15.7038C24.5722 15.3386 25.1228 15.1385 25.6916 15.1385C26.2604 15.1385 26.8111 15.3386 27.2472 15.7038C27.6833 16.069 27.9769 16.5759 28.0768 17.1359H31.9937C31.8914 15.652 31.269 14.2517 30.2361 13.1813C31.374 12.0019 32.0087 10.4263 32.0062 8.78745ZM25.6916 11.2104C25.2124 11.2104 24.744 11.0683 24.3455 10.802C23.9471 10.5358 23.6365 10.1574 23.4531 9.71467C23.2697 9.27194 23.2217 8.78476 23.3152 8.31476C23.4087 7.84476 23.6395 7.41304 23.9783 7.07419C24.3172 6.73534 24.7489 6.50458 25.2189 6.41109C25.6889 6.3176 26.1761 6.36559 26.6188 6.54897C27.0615 6.73236 27.4399 7.04292 27.7062 7.44137C27.9724 7.83981 28.1145 8.30824 28.1145 8.78745C28.1145 9.43005 27.8592 10.0463 27.4049 10.5007C26.9505 10.9551 26.3342 11.2104 25.6916 11.2104Z" fill="white"/>
<path d="M11.3614 0.357422V9.44651L4.50692 0.357422H0.740723V17.1044H4.88354V7.68267L12.2151 17.1044H15.5293V0.357422H11.3614Z" fill="white"/>
<path d="M0.746895 30.6933C0.731848 30.4843 0.769335 30.2749 0.855949 30.0842C0.942563 29.8934 1.07555 29.7273 1.24278 29.6011C1.60635 29.3361 2.04858 29.2012 2.49818 29.2182C2.95075 29.2152 3.39633 29.3298 3.79124 29.5509V30.4171C3.44872 30.2609 3.07545 30.1836 2.69905 30.1912C2.15923 30.1912 1.88931 30.323 1.88931 30.5866C1.89135 30.6555 1.91396 30.7222 1.95423 30.7781C1.9945 30.8341 2.05058 30.8767 2.11527 30.9005C2.29661 30.9856 2.48583 31.0529 2.68022 31.1013C2.90841 31.159 3.13106 31.2367 3.34558 31.3336C3.57692 31.4367 3.77166 31.6073 3.90422 31.8232C4.06891 32.0881 4.14985 32.3966 4.13647 32.7082C4.13654 32.8979 4.09366 33.085 4.01103 33.2557C3.92841 33.4264 3.80821 33.5761 3.65943 33.6937C3.2969 33.9614 2.85443 34.0986 2.40403 34.0829C1.88151 34.085 1.36717 33.9532 0.910103 33.7V32.6894C1.30183 32.9639 1.76876 33.1108 2.24711 33.1099C2.46274 33.1306 2.67991 33.0915 2.8748 32.997C2.92622 32.9561 2.96683 32.9033 2.99309 32.8431C3.01935 32.7829 3.03046 32.7172 3.02545 32.6517C3.022 32.5792 2.99766 32.5092 2.95534 32.4502C2.91302 32.3911 2.85452 32.3456 2.78692 32.3191C2.61034 32.2234 2.42274 32.1496 2.22827 32.0994C2.00649 32.0324 1.78678 31.9571 1.56918 31.8734C1.34609 31.7842 1.151 31.6368 1.00425 31.4466C0.834283 31.2326 0.743375 30.9665 0.746895 30.6933Z" fill="white"/>
<path d="M5.71191 30.2664V29.2935H6.50909V27.9062H7.64522V29.306H8.76254V30.279H7.64522V32.6014C7.63604 32.6754 7.64246 32.7505 7.66409 32.8219C7.68571 32.8932 7.72206 32.9593 7.77077 33.0157C7.90625 33.0984 8.06455 33.1358 8.22271 33.1224C8.40741 33.1236 8.59064 33.0896 8.76254 33.022V33.9573C8.53088 34.0494 8.28371 34.0962 8.03441 34.0954C7.83163 34.1064 7.62875 34.0753 7.4386 34.004C7.24845 33.9327 7.07515 33.8228 6.92965 33.6811C6.78958 33.526 6.68189 33.3445 6.61291 33.1473C6.54392 32.95 6.51502 32.741 6.52792 32.5324V30.279L5.71191 30.2664Z" fill="white"/>
<path d="M10.8718 31.8748V29.2949H12.0016V32.0191C11.9776 32.3103 12.0601 32.6003 12.2339 32.8351C12.455 32.9945 12.7208 33.0802 12.9934 33.0802C13.266 33.0802 13.5317 32.9945 13.7529 32.8351C13.9294 32.6016 14.0122 32.3106 13.9852 32.0191V29.2949H15.1213V31.8748C15.1388 32.1686 15.0978 32.4631 15.0009 32.741C14.9039 33.019 14.7528 33.275 14.5564 33.4942C14.1229 33.8764 13.565 34.0873 12.9871 34.0873C12.4093 34.0873 11.8513 33.8764 11.4179 33.4942C11.0302 33.0471 10.8341 32.4653 10.8718 31.8748Z" fill="white"/>
<path d="M17.4501 31.5912C17.4068 30.9528 17.6088 30.3218 18.0151 29.8274C18.2242 29.6128 18.4771 29.4457 18.7565 29.3374C19.0359 29.2291 19.3354 29.1821 19.6345 29.1997C19.8978 29.2007 20.1605 29.226 20.4191 29.275V27.4609H21.5427V32.4825C21.5443 32.6927 21.5015 32.9009 21.4172 33.0934C21.3328 33.286 21.2087 33.4585 21.0531 33.5999C20.6311 33.9464 20.0909 34.1153 19.5466 34.0706C19.391 34.0706 19.2357 34.058 19.0821 34.033C18.8912 33.9967 18.7069 33.931 18.5361 33.8384C18.3323 33.7372 18.1492 33.5988 17.9962 33.4304C17.8111 33.2182 17.676 32.9673 17.6007 32.696C17.4922 32.3381 17.4413 31.9651 17.4501 31.5912ZM18.5862 31.5347C18.5588 31.9484 18.6343 32.3625 18.806 32.7399C18.8852 32.8651 18.9975 32.9659 19.1304 33.0313C19.2633 33.0966 19.4117 33.1239 19.5592 33.1102C20.1367 33.1102 20.4191 32.9408 20.4191 32.6018V30.1789C20.1733 30.1292 19.923 30.104 19.6722 30.1036C19.522 30.0941 19.3715 30.1178 19.2316 30.1732C19.0916 30.2285 18.9655 30.3141 18.8624 30.4237C18.6452 30.7512 18.5477 31.1436 18.5862 31.5347Z" fill="white"/>
<path d="M24.0537 28.647V27.6113H25.2149V28.647H24.0537ZM24.0537 34.0075V29.2936H25.1898V34.0075H24.0537Z" fill="white"/>
<path d="M28.1146 33.4561C27.7393 32.9303 27.5376 32.3005 27.5376 31.6545C27.5376 31.0086 27.7393 30.3788 28.1146 29.853C28.5728 29.4505 29.1618 29.2285 29.7717 29.2285C30.3816 29.2285 30.9707 29.4505 31.4288 29.853C31.8041 30.3788 32.0058 31.0086 32.0058 31.6545C32.0058 32.3005 31.8041 32.9303 31.4288 33.4561C30.9707 33.8586 30.3816 34.0806 29.7717 34.0806C29.1618 34.0806 28.5728 33.8586 28.1146 33.4561ZM28.9431 30.4682C28.7244 30.8229 28.6295 31.2401 28.6732 31.6545C28.6295 32.069 28.7244 32.4862 28.9431 32.8409C29.0503 32.9497 29.18 33.0337 29.3232 33.0869C29.4664 33.14 29.6195 33.161 29.7717 33.1485C29.924 33.1619 30.0774 33.1413 30.2207 33.0881C30.364 33.0349 30.4937 32.9505 30.6003 32.8409C30.8218 32.4873 30.9169 32.0691 30.8702 31.6545C30.914 31.2401 30.819 30.8229 30.6003 30.4682C30.4937 30.3586 30.364 30.2742 30.2207 30.221C30.0774 30.1678 29.924 30.1472 29.7717 30.1606C29.6195 30.1481 29.4664 30.1691 29.3232 30.2222C29.18 30.2754 29.0503 30.3593 28.9431 30.4682Z" fill="white"/>
<path d="M32.0001 21.2598H0.740723V25.4026H32.0001V21.2598Z" fill="white"/>
</g>
<defs>
<clipPath id="clip0_401_1694">
<rect width="31.2594" height="33.72" fill="white" transform="translate(0.740723 0.357422)"/>
</clipPath>
</defs>
</svg>
