<svg width="28" height="37" viewBox="0 0 28 37" fill="none" xmlns="http://www.w3.org/2000/svg">
    <path d="M21.2444 30.8472C21.7027 30.403 21.7144 29.672 21.2695 29.2137C20.8248 28.7564 20.0929 28.7453 19.6346 29.1895C18.1031 30.6722 16.0479 31.4911 13.9158 31.4689C11.7832 31.4466 9.74534 30.5851 8.2454 29.0711C6.74536 27.5571 5.90411 25.5131 5.9046 23.3831C5.9046 22.5077 6.27199 20.716 8.02224 17.1595C8.30104 16.5876 8.06387 15.8978 7.49223 15.6174C6.92054 15.3365 6.22886 15.571 5.94619 16.141C4.36147 19.3611 3.59139 21.7304 3.59139 23.3832C3.59139 26.1213 4.67326 28.7492 6.60206 30.6955C8.53085 32.6417 11.1505 33.7492 13.892 33.7778C16.6335 33.8062 19.2758 32.7528 21.2444 30.8472Z" fill="white" fill-opacity="0.4"/>
    <path fill-rule="evenodd" clip-rule="evenodd" d="M25.0401 31.9997C25.4937 32.4377 26.2149 32.4314 26.6611 31.9857C27.1074 31.5405 27.1137 30.8197 26.6752 30.3667L23.621 27.3164C24.1389 26.0691 24.4061 24.7329 24.4085 23.3833C24.4085 18.0699 15.9196 5.64645 14.9516 4.24676C14.7246 3.95139 14.3727 3.77832 14 3.77832C13.6273 3.77832 13.2755 3.95138 13.0485 4.24676C13.0218 4.28495 10.5794 7.82754 8.21443 11.9288L2.95986 6.6813C2.50633 6.2438 1.78513 6.25009 1.33886 6.69532C0.892585 7.14105 0.886302 7.86135 1.32483 8.3148L25.0401 31.9997ZM22.0953 23.3838C22.0953 19.9186 16.9133 11.3711 13.9999 6.97241L14 6.97254C13.0217 8.45898 11.4253 10.9521 9.90941 13.6225L21.8039 25.5021C21.9946 24.8123 22.0928 24.0997 22.0953 23.3838Z" fill="white" fill-opacity="0.4"/>
</svg>