<svg width="15" height="15" viewBox="0 0 15 15" fill="none" xmlns="http://www.w3.org/2000/svg">
<path d="M14.4093 11.3005L11.2147 8.39596C11.0637 8.25871 10.8653 8.18552 10.6613 8.19182C10.4574 8.19813 10.2638 8.28344 10.1216 8.42976L8.24098 10.3638C7.78832 10.2773 6.87828 9.99364 5.94152 9.05924C5.00475 8.1217 4.72105 7.2093 4.63696 6.75979L6.56943 4.87842C6.71593 4.73628 6.80137 4.54271 6.80768 4.33869C6.81398 4.13467 6.74066 3.93619 6.60322 3.78528L3.69942 0.591507C3.56192 0.440115 3.37083 0.348284 3.16671 0.335518C2.9626 0.322752 2.76155 0.390056 2.60626 0.523137L0.900916 1.98564C0.765047 2.122 0.683952 2.30348 0.673012 2.49567C0.661224 2.69213 0.436464 7.34604 4.0452 10.9563C7.19341 14.1037 11.1369 14.334 12.223 14.334C12.3818 14.334 12.4792 14.3293 12.5051 14.3277C12.6973 14.3169 12.8787 14.2355 13.0144 14.099L14.4761 12.3929C14.6097 12.2381 14.6775 12.0372 14.665 11.8331C14.6526 11.629 14.5608 11.4379 14.4093 11.3005Z" fill="#009767"/>
</svg>
