<svg width="41" height="41" viewBox="0 0 41 41" fill="none" xmlns="http://www.w3.org/2000/svg">
<path d="M33 17.5977C33 28.0977 19.5 37.0977 19.5 37.0977C19.5 37.0977 6 28.0977 6 17.5977C6 14.0172 7.42232 10.5835 9.95406 8.05171C12.4858 5.51997 15.9196 4.09766 19.5 4.09766C23.0804 4.09766 26.5142 5.51997 29.0459 8.05171C31.5777 10.5835 33 14.0172 33 17.5977Z" stroke="#333333" stroke-width="2" stroke-linecap="round"/>
<path d="M19.5 25.0977C23.6421 25.0977 27 21.7398 27 17.5977C27 13.4555 23.6421 10.0977 19.5 10.0977C15.3579 10.0977 12 13.4555 12 17.5977C12 21.7398 15.3579 25.0977 19.5 25.0977Z" stroke="#333333" stroke-width="2" stroke-linecap="round" stroke-linejoin="round"/>
</svg>
