<svg width="41" height="41" viewBox="0 0 41 41" fill="none" xmlns="http://www.w3.org/2000/svg">
<path d="M18.9603 4.35305C20.1109 3.28596 21.8895 3.28596 23.0402 4.35305L25.2181 6.37275C26.095 7.18605 27.2345 7.65803 28.4297 7.70306L31.3978 7.8149C32.966 7.87398 34.2237 9.13165 34.2828 10.6998L34.3946 13.668C34.4396 14.8632 34.9116 16.0026 35.7249 16.8796L37.7446 19.0575C38.8117 20.2081 38.8117 21.9867 37.7446 23.1374L35.7249 25.3152C34.9116 26.1922 34.4396 27.3317 34.3946 28.5269L34.2828 31.495C34.2237 33.0632 32.966 34.3208 31.3978 34.3799L28.4297 34.4918C27.2345 34.5368 26.095 35.0088 25.2181 35.8221L23.0402 37.8418C21.8895 38.9089 20.1109 38.9089 18.9603 37.8418L16.7824 35.8221C15.9055 35.0088 14.766 34.5368 13.5708 34.4918L10.6027 34.3799C9.03448 34.3208 7.77682 33.0632 7.71773 31.495L7.6059 28.5269C7.56086 27.3317 7.08888 26.1922 6.27559 25.3152L4.25588 23.1374C3.1888 21.9867 3.1888 20.2081 4.25588 19.0575L6.27559 16.8796C7.08888 16.0026 7.56086 14.8632 7.6059 13.668L7.71773 10.6998C7.77682 9.13165 9.03448 7.87398 10.6026 7.8149L13.5708 7.70306C14.766 7.65803 15.9055 7.18605 16.7824 6.37276L18.9603 4.35305Z" stroke="#333333" stroke-width="2"/>
<path d="M17 19.5977L21 23.5977L27.5 17.0977" stroke="#333333" stroke-width="2"/>
</svg>
