<svg class="question-icon" width="20" height="20" viewBox="0 0 20 20" fill="none" xmlns="http://www.w3.org/2000/svg">
    <rect width="20" height="20" rx="10" fill="#4A4A4A"/>
    <path d="M10.3415 10.588H9.22152C9.22152 10.1773 9.35219 9.75733 
    9.61352 9.328C9.88419 8.89867 10.1735 8.53 10.4815 8.222C10.7989 7.90467 11.0882 7.54533 
    11.3495 7.144C11.6202 6.74267 11.7555 6.36467 11.7555 6.01C11.7555 5.10467 11.0369 4.652 
    9.59952 4.652C8.75952 4.652 7.91952 4.89933 7.07952 5.394V4.274C7.91952 3.77933 8.82019 3.532 
    9.78152 3.532C10.7149 3.532 11.4755 3.73733 12.0635 4.148C12.6515 4.54933 12.9455 5.13267 
    12.9455 5.898C12.9455 6.262 12.8569 6.626 12.6795 6.99C12.5022 7.354 12.2829 7.68533 
    12.0215 7.984C11.7695 8.27333 11.5129 8.558 11.2515 8.838C10.9995 9.118 10.7849 9.412 
    10.6075 9.72C10.4302 10.0187 10.3415 10.308 10.3415 10.588ZM10.2995 12.394C10.4395 12.5153 10.5095 12.688 
    10.5095 12.912C10.5095 13.136 10.4395 13.3133 10.2995 13.444C10.1595 13.5653 9.98686 13.626 
    9.78152 13.626C9.57619 13.626 9.39886 13.5653 9.24952 13.444C9.10952 13.3133 9.03952 13.136 
    9.03952 12.912C9.03952 12.688 9.10952 12.5153 9.24952 12.394C9.39886 12.2727 9.57619 12.212 
    9.78152 12.212C9.98686 12.212 10.1595 12.2727 10.2995 12.394Z" fill="#E3E3E3"/>
</svg>
