<svg width="73" height="72" viewBox="0 0 73 72" fill="none" xmlns="http://www.w3.org/2000/svg">
<g filter="url(#filter0_b_805_17474)">
<rect x="0.333008" width="72" height="72" rx="36" fill="black" fill-opacity="0.1"/>
<path d="M49.6 41.1C49.6 41.1 47.22 43.31 51.47 44.5L46.71 49.26H41.95C41.95 49.26 38.72 49.09 41.1 53H34.3L30.9 49.6C30.9 49.6 28.69 47.22 27.5 51.47L22.74 46.71V41.95C22.74 41.95 22.91 38.72 19 41.1V34.3L22.4 30.9C22.4 30.9 24.78 28.69 20.36 27.67L25.12 22.74H30.05C30.05 22.74 33.28 22.91 30.9 19H37.7L41.1 22.4C41.1 22.4 43.31 24.78 44.5 20.36L49.26 25.12V30.05C49.26 30.05 49.09 33.28 53 30.9V37.7L49.6 41.1ZM39.4 36C39.4 35.0983 39.0418 34.2335 38.4042 33.5958C37.7665 32.9582 36.9017 32.6 36 32.6C35.0983 32.6 34.2335 32.9582 33.5958 33.5958C32.9582 34.2335 32.6 35.0983 32.6 36C32.6 36.9017 32.9582 37.7665 33.5958 38.4042C34.2335 39.0418 35.0983 39.4 36 39.4C36.9017 39.4 37.7665 39.0418 38.4042 38.4042C39.0418 37.7665 39.4 36.9017 39.4 36Z" stroke="white" stroke-width="2"/>
<path d="M49.6 41.1C49.6 41.1 47.22 43.31 51.47 44.5L46.71 49.26H41.95C41.95 49.26 38.72 49.09 41.1 53H34.3L30.9 49.6C30.9 49.6 28.69 47.22 27.5 51.47L22.74 46.71V41.95C22.74 41.95 22.91 38.72 19 41.1V34.3L22.4 30.9C22.4 30.9 24.78 28.69 20.36 27.67L25.12 22.74H30.05C30.05 22.74 33.28 22.91 30.9 19H37.7L41.1 22.4C41.1 22.4 43.31 24.78 44.5 20.36L49.26 25.12V30.05C49.26 30.05 49.09 33.28 53 30.9V37.7L49.6 41.1ZM39.4 36C39.4 35.0983 39.0418 34.2335 38.4042 33.5958C37.7665 32.9582 36.9017 32.6 36 32.6C35.0983 32.6 34.2335 32.9582 33.5958 33.5958C32.9582 34.2335 32.6 35.0983 32.6 36C32.6 36.9017 32.9582 37.7665 33.5958 38.4042C34.2335 39.0418 35.0983 39.4 36 39.4C36.9017 39.4 37.7665 39.0418 38.4042 38.4042C39.0418 37.7665 39.4 36.9017 39.4 36Z" stroke="white" stroke-width="2"/>
</g>
<defs>
<filter id="filter0_b_805_17474" x="-49.667" y="-50" width="172" height="172" filterUnits="userSpaceOnUse" color-interpolation-filters="sRGB">
<feFlood flood-opacity="0" result="BackgroundImageFix"/>
<feGaussianBlur in="BackgroundImageFix" stdDeviation="25"/>
<feComposite in2="SourceAlpha" operator="in" result="effect1_backgroundBlur_805_17474"/>
<feBlend mode="normal" in="SourceGraphic" in2="effect1_backgroundBlur_805_17474" result="shape"/>
</filter>
</defs>
</svg>
