<svg width="38" height="25" viewBox="0 0 38 25" fill="none" xmlns="http://www.w3.org/2000/svg">
<path d="M20.6971 24.0781C7.71393 24.0781 0.308557 15.0691 0 0.078125H6.50344C6.71705 11.0811 11.5116 15.7418 15.3092 16.7027V0.078125H21.4329V9.56761C25.183 9.15921 29.1231 4.83488 30.4522 0.078125H36.5759C36.075 2.54511 35.0766 4.88096 33.6431 6.93956C32.2096 8.99815 30.3719 10.7352 28.2449 12.0421C30.6191 13.2362 32.7162 14.9264 34.3978 17.0011C36.0793 19.0758 37.3071 21.4879 38 24.0781H31.2592C30.6372 21.8283 29.373 19.8144 27.6249 18.2887C25.8769 16.763 23.7229 15.7935 21.4329 15.5015V24.0781H20.6971Z" fill="white"/>
</svg>
