<svg width="54" height="55" viewBox="0 0 54 55" fill="none" xmlns="http://www.w3.org/2000/svg">
<g clip-path="url(#clip0_135_21137)">
<path d="M27.0047 51.8805C33.9565 51.8805 40.9094 51.8805 47.8633 51.8805C49.6659 51.8805 50.9086 50.9964 51.3762 49.416C51.5251 48.915 51.5578 48.3865 51.4718 47.8709C51.3857 47.3553 51.1832 46.8662 50.8796 46.4409C50.576 46.0156 50.1795 45.6654 49.7202 45.417C49.2609 45.1686 48.751 45.0286 48.2294 45.0077C47.5158 44.9769 46.8021 45.0077 46.0762 45.0077C44.9196 45.0077 44.4643 44.5548 44.4612 43.378C44.4612 39.5663 44.4612 35.7566 44.4612 31.949C44.4612 30.6613 44.4612 29.3705 44.4612 28.0828C44.4612 27.5714 44.3105 27.3835 43.7814 27.3897C41.9204 27.4174 40.0594 27.3897 38.1953 27.3897C37.331 27.3897 36.7496 26.8814 36.7588 26.1574C36.7681 25.4335 37.3433 24.956 38.1769 24.9529C39.9179 24.9529 41.662 24.9529 43.4062 24.9529C44.452 24.9529 44.4551 24.9529 44.4551 23.8747C44.4551 21.7716 44.4551 19.6686 44.4551 17.5656C44.4551 15.9236 44.815 15.557 46.433 15.5601C47.3804 15.5601 48.334 15.5016 49.2722 15.7141C50.6237 16.0037 51.8324 16.7556 52.6906 17.8405C53.5489 18.9255 54.0032 20.2758 53.9754 21.6597C53.9878 28.4371 53.9878 35.2216 53.9754 42.0133C53.9754 44.0773 53.9754 46.1413 53.9754 48.2053C53.9754 51.7665 51.367 54.3881 47.8234 54.3912C33.9196 54.3912 20.0138 54.3912 6.10601 54.3912C5.29974 54.41 4.49801 54.2653 3.74903 53.9658C3.00005 53.6663 2.3193 53.2182 1.74774 52.6484C1.17618 52.0786 0.725627 51.3988 0.423167 50.6501C0.120706 49.9014 -0.0274105 49.0991 -0.0122562 48.2916C-0.0245604 39.4256 -0.0245604 30.5576 -0.0122562 21.6874C-0.0122562 18.1879 2.59009 15.5971 6.07525 15.5601C6.69046 15.5601 7.30567 15.5601 7.92088 15.5601C8.9975 15.5601 9.49581 16.0407 9.50811 17.1189C9.52657 18.8256 9.50811 20.5322 9.50811 22.2389C9.50811 22.9104 9.53887 23.5882 9.50811 24.2598C9.47735 24.8235 9.70805 24.9714 10.2371 24.9621C12.0582 24.9375 13.8823 24.9621 15.7033 24.9621C16.0011 24.938 16.2999 24.9955 16.5676 25.1285C16.7949 25.2539 16.9769 25.448 17.0873 25.6832C17.1978 25.9183 17.2313 26.1824 17.1829 26.4377C17.1188 26.7205 16.9572 26.9716 16.7265 27.1469C16.4958 27.3221 16.2108 27.4103 15.9217 27.3958C14.076 27.3958 12.2304 27.3958 10.3848 27.3958C9.51733 27.3958 9.51735 27.3958 9.51735 28.2892V43.1685C9.51735 44.6103 9.12669 45.0169 7.67172 45.0015C7.03806 45.0015 6.40437 45.0015 5.77071 45.0015C5.32362 45.0146 4.88357 45.1163 4.47599 45.3008C4.0684 45.4853 3.70138 45.7489 3.39616 46.0763C3.09094 46.4038 2.85358 46.7886 2.6978 47.2085C2.54201 47.6284 2.4709 48.075 2.48857 48.5226C2.48491 48.9606 2.56805 49.395 2.73317 49.8006C2.89829 50.2062 3.14211 50.575 3.45051 50.8856C3.75892 51.1961 4.12577 51.4424 4.52985 51.61C4.93393 51.7776 5.3672 51.8633 5.80456 51.862C9.32971 51.8928 12.8579 51.8774 16.3831 51.8774L27.0047 51.8805ZM7.01036 30.3932V18.7331C7.01036 18.4066 7.02575 18.117 6.55512 18.0616C3.81128 17.7843 2.41476 19.8606 2.47935 21.6905C2.56856 24.2659 2.50089 26.8475 2.50089 29.4259C2.50089 33.9483 2.50089 38.4675 2.50089 42.9806C2.50089 43.4674 2.57162 43.5967 3.04534 43.2887C4.01211 42.73 5.12087 42.4666 6.23519 42.5308C7.01343 42.5586 7.01652 42.5309 7.01652 41.7361L7.01036 30.3932ZM46.9682 30.3193C46.9682 34.1485 46.9682 37.9746 46.9682 41.8007C46.9682 42.4169 47.1528 42.6109 47.7495 42.5647C48.843 42.4847 49.9356 42.7302 50.8902 43.2702C51.4839 43.5967 51.5054 43.5783 51.5054 42.8882C51.5054 35.85 51.5054 28.8098 51.5054 21.7675C51.5054 19.4263 50.1458 18.0708 47.8141 18.0708C47.0051 18.0708 46.9867 18.0708 46.9867 18.9026C46.9805 22.7061 46.9785 26.5117 46.9805 30.3193H46.9682Z" fill="#292929"/>
<path d="M39.9608 14.9717C39.9608 17.0172 39.9393 19.0597 39.9608 21.1021C39.9984 21.5143 39.908 21.9281 39.7021 22.287C39.4963 22.6459 39.1848 22.9325 38.8104 23.1076C35.1191 25.1747 31.4278 27.2972 27.7674 29.4105C27.5348 29.5619 27.2634 29.6425 26.986 29.6425C26.7087 29.6425 26.4373 29.5619 26.2047 29.4105C22.4622 27.2603 18.7145 25.1172 14.9618 22.9813C14.6692 22.8371 14.4256 22.6096 14.2615 22.3274C14.0974 22.0452 14.0199 21.7208 14.039 21.3948C14.039 17.0819 14.039 12.7783 14.039 8.48396C14.0232 8.20591 14.0883 7.92925 14.2264 7.68755C14.3646 7.44585 14.5698 7.2495 14.8172 7.12233C18.57 4.9885 22.3187 2.84542 26.0632 0.693097C26.3437 0.508509 26.672 0.410156 27.0076 0.410156C27.3432 0.410156 27.6715 0.508509 27.9519 0.693097C31.6575 2.82899 35.3724 4.94948 39.0964 7.05456C39.3792 7.19847 39.6131 7.42302 39.7685 7.69989C39.924 7.97676 39.9941 8.29354 39.97 8.61027C39.9516 10.7328 39.97 12.8553 39.97 14.9748L39.9608 14.9717ZM27.0045 13.5916C27.1152 13.5392 27.2075 13.4992 27.2906 13.4499C30.1369 11.8069 32.9802 10.1639 35.8204 8.52093C36.2849 8.25291 36.0142 8.14509 35.7528 7.99414C32.9659 6.4066 30.182 4.81598 27.4013 3.22228C27.2817 3.13893 27.1395 3.09425 26.9937 3.09425C26.848 3.09425 26.7058 3.13893 26.5862 3.22228C23.8239 4.81187 21.0554 6.3912 18.2808 7.96026C17.8625 8.19438 17.7948 8.31145 18.2808 8.57638C21.0493 10.1721 23.8177 11.7925 26.6046 13.4006C26.7338 13.4684 26.8784 13.5269 27.0045 13.5916ZM28.2103 20.9851C28.2103 22.5716 28.2103 24.1612 28.2103 25.7477C28.2103 26.1328 28.2872 26.2622 28.6779 26.0373C31.4607 24.4395 34.2486 22.8499 37.0416 21.2685C37.1736 21.2021 37.2828 21.0977 37.3552 20.9687C37.4275 20.8397 37.4597 20.692 37.4477 20.5445C37.4477 17.3674 37.4477 14.1934 37.4477 11.0224C37.4477 10.5541 37.3246 10.4617 36.9001 10.7143C34.1645 12.3162 31.4227 13.9069 28.6748 15.4862C28.5174 15.5642 28.3878 15.6888 28.3036 15.8431C28.2194 15.9974 28.1847 16.174 28.2042 16.3488C28.2349 17.8921 28.2349 19.4386 28.2349 20.9851H28.2103ZM25.7741 20.9851C25.7741 19.4448 25.7741 17.9291 25.7741 16.4011C25.7984 16.2075 25.761 16.0111 25.667 15.8401C25.5731 15.6691 25.4275 15.5323 25.2511 15.4492C22.5196 13.8822 19.7953 12.3008 17.0781 10.7051C16.6659 10.4617 16.5275 10.5295 16.5275 11.0131C16.5275 14.1903 16.5275 17.3643 16.5275 20.5353C16.5162 20.683 16.5494 20.8307 16.6229 20.9592C16.6964 21.0877 16.8068 21.1912 16.9397 21.2562C19.7102 22.8293 22.4786 24.4128 25.245 26.0065C25.6757 26.256 25.7741 26.1482 25.771 25.6984C25.7741 24.1211 25.7741 22.5562 25.7741 20.9882V20.9851Z" fill="#292929"/>
<path d="M22.932 42.7978C23.2192 42.8004 23.4989 42.8895 23.7348 43.0535C24.6269 43.5679 25.5282 44.0608 26.4079 44.5938C26.5836 44.7202 26.7945 44.7881 27.0108 44.7881C27.2271 44.7881 27.438 44.7202 27.6137 44.5938C28.4935 44.0578 29.3917 43.5587 30.2868 43.0535C31.0527 42.6222 31.7787 42.7639 32.1478 43.4077C32.5169 44.0516 32.2985 44.7232 31.508 45.1822C30.2776 45.9092 29.0041 46.6208 27.7521 47.3386C27.5358 47.4808 27.2835 47.5583 27.0247 47.5621C26.766 47.5659 26.5115 47.4959 26.291 47.3602C24.9898 46.6054 23.6794 45.8692 22.3814 45.1082C22.1311 44.9846 21.9303 44.7794 21.8118 44.5264C21.6933 44.2734 21.6642 43.9876 21.7292 43.7158C21.7919 43.4467 21.9463 43.2078 22.1658 43.0402C22.3853 42.8727 22.6562 42.787 22.932 42.7978Z" fill="#292929"/>
<path d="M21.6802 35.1885C21.6882 34.969 21.7539 34.7555 21.8706 34.5694C21.9872 34.3834 22.1507 34.2314 22.3446 34.1288C23.7124 33.3771 25.0854 32.6316 26.4634 31.8922C26.6381 31.7962 26.835 31.7479 27.0343 31.7522C27.2335 31.7565 27.4281 31.8133 27.5985 31.9169C28.9396 32.6439 30.287 33.3524 31.5973 34.1072C32.3141 34.5138 32.4986 35.207 32.1357 35.8139C31.7727 36.4207 31.1021 36.5871 30.3762 36.2051C29.3939 35.6896 28.4208 35.1608 27.457 34.6186C27.3189 34.5313 27.1589 34.4849 26.9956 34.4849C26.8323 34.4849 26.6723 34.5313 26.5342 34.6186C25.5345 35.1823 24.5317 35.743 23.5073 36.2544C23.3209 36.3579 23.1108 36.4112 22.8976 36.409C22.6844 36.4067 22.4755 36.349 22.2912 36.2416C22.107 36.1341 21.9538 35.9805 21.8467 35.7959C21.7396 35.6113 21.6822 35.402 21.6802 35.1885Z" fill="#292929"/>
<path d="M19.3947 43.0972C19.1146 43.0947 18.8411 43.0113 18.6072 42.8569C17.3553 42.1361 16.0941 41.4244 14.8483 40.7005C13.8147 40.0844 13.8086 38.9938 14.8483 38.4024C16.1402 37.6723 17.4506 36.973 18.7672 36.2829C18.9076 36.1969 19.0642 36.1405 19.2272 36.1174C19.3902 36.0943 19.5563 36.1048 19.7151 36.1484C19.8739 36.192 20.0221 36.2677 20.1505 36.3708C20.279 36.474 20.385 36.6023 20.4621 36.7481C20.5382 36.8934 20.5846 37.0524 20.5985 37.2158C20.6125 37.3793 20.5937 37.5439 20.5432 37.7C20.4928 37.8561 20.4118 38.0006 20.3049 38.1249C20.198 38.2492 20.0673 38.3509 19.9207 38.4239C19.3885 38.732 18.8471 39.0216 18.3057 39.305C17.9674 39.4837 17.8782 39.613 18.2842 39.8441C18.8994 40.1747 19.4972 40.5259 20.0776 40.8977C20.3031 41.031 20.4743 41.2398 20.5609 41.4872C20.6476 41.7347 20.6442 42.0049 20.5513 42.25C20.4821 42.5012 20.3302 42.7215 20.1202 42.8753C19.9103 43.0291 19.6546 43.1073 19.3947 43.0972Z" fill="#292929"/>
<path d="M34.6208 43.0932C34.3571 43.098 34.099 43.0159 33.8865 42.8594C33.6739 42.703 33.5186 42.4809 33.4445 42.2273C33.3703 41.9738 33.3815 41.7029 33.4762 41.4563C33.571 41.2097 33.744 41.0012 33.9687 40.8628C34.5532 40.487 35.1561 40.145 35.762 39.8123C36.0697 39.6336 36.0697 39.5043 35.762 39.3317C35.2022 39.0237 34.6424 38.7372 34.0918 38.423C33.9447 38.3515 33.8133 38.2514 33.7053 38.1285C33.5973 38.0056 33.5149 37.8624 33.4628 37.7073C33.4106 37.5521 33.3899 37.3881 33.4018 37.2248C33.4137 37.0616 33.4579 36.9023 33.5319 36.7564C33.6044 36.6139 33.7048 36.4874 33.8271 36.3846C33.9494 36.2818 34.0911 36.2046 34.2438 36.1578C34.3965 36.1109 34.5571 36.0953 34.7159 36.1119C34.8747 36.1285 35.0286 36.1769 35.1684 36.2542C36.5587 36.972 37.9368 37.7052 39.2934 38.4907C39.4848 38.5912 39.645 38.7422 39.7569 38.9274C39.8687 39.1125 39.9279 39.3248 39.9279 39.5412C39.9279 39.7576 39.8687 39.9699 39.7569 40.1551C39.645 40.3403 39.4848 40.4913 39.2934 40.5917C37.9553 41.3988 36.5864 42.1567 35.2268 42.933C35.0433 43.0409 34.8337 43.0963 34.6208 43.0932Z" fill="#292929"/>
</g>
<defs>
<clipPath id="clip0_135_21137">
<rect width="54" height="54" fill="white" transform="translate(0 0.390625)"/>
</clipPath>
</defs>
</svg>
