<svg width="36" height="37" viewBox="0 0 36 37" fill="none" xmlns="http://www.w3.org/2000/svg">
<path fill-rule="evenodd" clip-rule="evenodd" d="M9.75904 33.1656C12.3614 34.5711 15.1807 35.3278 18.3253 35.3278C28.0843 35.3278 36 27.544 36 17.8143C36 8.08457 28.0843 0.300781 18.3253 0.300781C8.56626 0.300781 0.650602 8.08457 0.650602 17.8143C0.650602 21.1656 1.51807 24.3008 3.14458 26.8954L0 36.3008L9.75904 33.1656ZM15.6705 12.9979L17.3676 11.301L13.9737 7.90667L12.2766 9.60363C8.70795 13.1718 8.70779 18.9574 12.2762 22.5259L14.3189 24.5685C17.812 28.0616 23.4754 28.0616 26.9685 24.5685L28.6656 22.8715L25.2714 19.4774L23.5744 21.1744C21.9558 22.793 19.3316 22.793 17.713 21.1744L15.6703 19.1317C13.9765 17.4379 13.9766 14.6917 15.6705 12.9979Z" fill="white"/>
</svg>
