<svg width="34" height="27" viewBox="0 0 34 27" fill="none" xmlns="http://www.w3.org/2000/svg">
<path d="M33.2997 4.14636C32.9076 2.55577 31.7593 1.30165 30.303 0.873419C27.6424 0.078125 16.9999 0.078125 16.9999 0.078125C16.9999 0.078125 6.35747 0.078125 3.69685 0.842831C2.26852 1.27107 1.09225 2.55577 0.700162 4.14636C0 7.05224 0 13.0781 0 13.0781C0 13.0781 0 19.1346 0.700162 22.0099C1.09225 23.6005 2.24052 24.8546 3.69685 25.2828C6.38548 26.0781 16.9999 26.0781 16.9999 26.0781C16.9999 26.0781 27.6424 26.0781 30.303 25.3134C31.7593 24.8852 32.9076 23.6311 33.2997 22.0405C33.9999 19.1346 33.9999 13.1087 33.9999 13.1087C33.9999 13.1087 34.0279 7.05224 33.2997 4.14636ZM13.6111 18.6452V7.51107L22.4612 13.0781L13.6111 18.6452Z" fill="white"/>
</svg>
